%TF.GenerationSoftware,KiCad,Pcbnew,(5.1.7)-1*%
%TF.CreationDate,2021-03-06T18:12:56-08:00*%
%TF.ProjectId,eskate_bms,65736b61-7465-45f6-926d-732e6b696361,rev?*%
%TF.SameCoordinates,Original*%
%TF.FileFunction,Copper,L4,Bot*%
%TF.FilePolarity,Positive*%
%FSLAX46Y46*%
G04 Gerber Fmt 4.6, Leading zero omitted, Abs format (unit mm)*
G04 Created by KiCad (PCBNEW (5.1.7)-1) date 2021-03-06 18:12:56*
%MOMM*%
%LPD*%
G01*
G04 APERTURE LIST*
%TA.AperFunction,ComponentPad*%
%ADD10C,0.900000*%
%TD*%
%TA.AperFunction,ComponentPad*%
%ADD11C,11.000000*%
%TD*%
%TA.AperFunction,ComponentPad*%
%ADD12C,0.700000*%
%TD*%
%TA.AperFunction,ComponentPad*%
%ADD13C,4.400000*%
%TD*%
%TA.AperFunction,ComponentPad*%
%ADD14C,5.400000*%
%TD*%
%TA.AperFunction,ComponentPad*%
%ADD15O,2.280000X4.560000*%
%TD*%
%TA.AperFunction,ComponentPad*%
%ADD16O,4.050000X2.025000*%
%TD*%
%TA.AperFunction,ComponentPad*%
%ADD17O,2.025000X4.050000*%
%TD*%
%TA.AperFunction,ComponentPad*%
%ADD18O,1.700000X1.700000*%
%TD*%
%TA.AperFunction,ComponentPad*%
%ADD19R,1.700000X1.700000*%
%TD*%
%TA.AperFunction,ComponentPad*%
%ADD20C,1.524000*%
%TD*%
%TA.AperFunction,ComponentPad*%
%ADD21C,1.000000*%
%TD*%
%TA.AperFunction,ViaPad*%
%ADD22C,0.800000*%
%TD*%
%TA.AperFunction,Conductor*%
%ADD23C,0.500000*%
%TD*%
%TA.AperFunction,Conductor*%
%ADD24C,3.000000*%
%TD*%
%TA.AperFunction,Conductor*%
%ADD25C,1.000000*%
%TD*%
%TA.AperFunction,Conductor*%
%ADD26C,0.250000*%
%TD*%
%TA.AperFunction,Conductor*%
%ADD27C,0.254000*%
%TD*%
%TA.AperFunction,Conductor*%
%ADD28C,0.100000*%
%TD*%
G04 APERTURE END LIST*
D10*
%TO.P,H1,1*%
%TO.N,PACK+*%
X224926815Y-101073185D03*
X222000000Y-99875000D03*
X219073185Y-101073185D03*
X217875000Y-104000000D03*
X219073185Y-106926815D03*
X222000000Y-108125000D03*
X224926815Y-106926815D03*
X226125000Y-104000000D03*
D11*
X222000000Y-104000000D03*
%TD*%
D10*
%TO.P,H2,1*%
%TO.N,PACK-*%
X190926815Y-101073185D03*
X188000000Y-99875000D03*
X185073185Y-101073185D03*
X183875000Y-104000000D03*
X185073185Y-106926815D03*
X188000000Y-108125000D03*
X190926815Y-106926815D03*
X192125000Y-104000000D03*
D11*
X188000000Y-104000000D03*
%TD*%
D12*
%TO.P,H6,1*%
%TO.N,Net-(H6-Pad1)*%
X238166726Y-92833274D03*
X237000000Y-92350000D03*
X235833274Y-92833274D03*
X235350000Y-94000000D03*
X235833274Y-95166726D03*
X237000000Y-95650000D03*
X238166726Y-95166726D03*
X238650000Y-94000000D03*
D13*
X237000000Y-94000000D03*
%TD*%
D12*
%TO.P,H5,1*%
%TO.N,Net-(H5-Pad1)*%
X238166726Y-16833274D03*
X237000000Y-16350000D03*
X235833274Y-16833274D03*
X235350000Y-18000000D03*
X235833274Y-19166726D03*
X237000000Y-19650000D03*
X238166726Y-19166726D03*
X238650000Y-18000000D03*
D13*
X237000000Y-18000000D03*
%TD*%
D12*
%TO.P,H3,1*%
%TO.N,GND*%
X123166726Y-92833274D03*
X122000000Y-92350000D03*
X120833274Y-92833274D03*
X120350000Y-94000000D03*
X120833274Y-95166726D03*
X122000000Y-95650000D03*
X123166726Y-95166726D03*
X123650000Y-94000000D03*
D13*
X122000000Y-94000000D03*
%TD*%
D12*
%TO.P,H4,1*%
%TO.N,Net-(H4-Pad1)*%
X123166726Y-16833274D03*
X122000000Y-16350000D03*
X120833274Y-16833274D03*
X120350000Y-18000000D03*
X120833274Y-19166726D03*
X122000000Y-19650000D03*
X123166726Y-19166726D03*
X123650000Y-18000000D03*
D13*
X122000000Y-18000000D03*
%TD*%
D14*
%TO.P,J1,2*%
%TO.N,-BATT*%
X199550000Y-27400000D03*
%TO.P,J1,1*%
%TO.N,+BATT*%
X210450000Y-27400000D03*
%TD*%
D15*
%TO.P,J3,1*%
%TO.N,PACK+*%
X225750000Y-85000000D03*
D16*
%TO.P,J3,3*%
%TO.N,Net-(J3-Pad3)*%
X228750000Y-80200000D03*
D17*
%TO.P,J3,2*%
%TO.N,PACK-*%
X232000000Y-85000000D03*
%TD*%
D18*
%TO.P,J5,13*%
%TO.N,/BQ76940/C0*%
X128020000Y-16900000D03*
%TO.P,J5,12*%
%TO.N,/BQ76940/C1*%
X130560000Y-16900000D03*
%TO.P,J5,11*%
%TO.N,/BQ76940/C2*%
X133100000Y-16900000D03*
%TO.P,J5,10*%
%TO.N,/BQ76940/C3*%
X135640000Y-16900000D03*
%TO.P,J5,9*%
%TO.N,/BQ76940/C4*%
X138180000Y-16900000D03*
%TO.P,J5,8*%
%TO.N,/BQ76940/C5*%
X140720000Y-16900000D03*
%TO.P,J5,7*%
%TO.N,/BQ76940/C6*%
X143260000Y-16900000D03*
%TO.P,J5,6*%
%TO.N,/BQ76940/C7*%
X145800000Y-16900000D03*
%TO.P,J5,5*%
%TO.N,/BQ76940/C8*%
X148340000Y-16900000D03*
%TO.P,J5,4*%
%TO.N,/BQ76940/C9*%
X150880000Y-16900000D03*
%TO.P,J5,3*%
%TO.N,/BQ76940/C10*%
X153420000Y-16900000D03*
%TO.P,J5,2*%
%TO.N,/BQ76940/C11*%
X155960000Y-16900000D03*
D19*
%TO.P,J5,1*%
%TO.N,C15*%
X158500000Y-16900000D03*
%TD*%
D18*
%TO.P,J8,4*%
%TO.N,Net-(J8-Pad4)*%
X121040000Y-83390000D03*
%TO.P,J8,3*%
%TO.N,SMBD*%
X121040000Y-80850000D03*
%TO.P,J8,2*%
%TO.N,SMBC*%
X121040000Y-78310000D03*
D19*
%TO.P,J8,1*%
%TO.N,PACK-*%
X121040000Y-75770000D03*
%TD*%
D20*
%TO.P,SW1,4*%
%TO.N,GND*%
X120810000Y-64030000D03*
%TO.P,SW1,3*%
X127310000Y-64030000D03*
%TO.P,SW1,2*%
%TO.N,Net-(R108-Pad2)*%
X120810000Y-68530000D03*
%TO.P,SW1,1*%
X127310000Y-68530000D03*
%TD*%
%TO.P,TH1,2*%
%TO.N,VC10X*%
X133000000Y-47730000D03*
%TO.P,TH1,1*%
%TO.N,TS3*%
X133000000Y-50270000D03*
%TD*%
%TO.P,TH2,2*%
%TO.N,VC5X*%
X129600000Y-43930000D03*
%TO.P,TH2,1*%
%TO.N,TS2*%
X129600000Y-46470000D03*
%TD*%
%TO.P,TH3,2*%
%TO.N,GND*%
X133000000Y-43470000D03*
%TO.P,TH3,1*%
%TO.N,TS1*%
X133000000Y-40930000D03*
%TD*%
D21*
%TO.P,TP1,1*%
%TO.N,VDDCP*%
X149360000Y-62220000D03*
%TD*%
%TO.P,TP2,1*%
%TO.N,BAT*%
X151770000Y-58030000D03*
%TD*%
%TO.P,TP8,1*%
%TO.N,PACK*%
X155060000Y-75050000D03*
%TD*%
%TO.P,TP17,1*%
%TO.N,/BQ76940/SDA*%
X141000000Y-82320000D03*
%TD*%
%TO.P,TP18,1*%
%TO.N,/BQ76940/SCL*%
X138900000Y-82330000D03*
%TD*%
%TO.P,TP22,1*%
%TO.N,REGOUT*%
X144420000Y-69730000D03*
%TD*%
%TO.P,TP23,1*%
%TO.N,/BQ76940/ALERT*%
X136010000Y-42200000D03*
%TD*%
%TO.P,TP31,1*%
%TO.N,/BQ76940/LEDP*%
X129040000Y-50820000D03*
%TD*%
%TO.P,TP32,1*%
%TO.N,Net-(R108-Pad2)*%
X120800000Y-72110000D03*
%TD*%
D22*
%TO.N,GND*%
X139270000Y-51940000D03*
X137210000Y-57570000D03*
X153860000Y-52110000D03*
%TO.N,REGOUT*%
X157430000Y-47140000D03*
X142840000Y-80320000D03*
X140000000Y-44000000D03*
X142840000Y-72760000D03*
X144380000Y-71550000D03*
X131740000Y-77030000D03*
%TO.N,VC15X*%
X162820000Y-39200000D03*
%TO.N,GND*%
X165000000Y-41700000D03*
X163900000Y-41700000D03*
X163900000Y-40500000D03*
X165000000Y-40500000D03*
%TO.N,/BQ76940/C11*%
X158825000Y-21100000D03*
X166525000Y-29250000D03*
%TO.N,/BQ76940/C10*%
X162400000Y-29250000D03*
%TO.N,/BQ76940/C9*%
X158300000Y-29250000D03*
%TO.N,/BQ76940/C8*%
X154200000Y-29250000D03*
%TO.N,/BQ76940/C7*%
X150100000Y-29225000D03*
%TO.N,/BQ76940/C6*%
X146025000Y-29250000D03*
%TO.N,/BQ76940/C5*%
X141925000Y-29225000D03*
%TO.N,/BQ76940/C4*%
X137825000Y-29225000D03*
%TO.N,/BQ76940/C3*%
X133725000Y-29225000D03*
%TO.N,/BQ76940/C2*%
X129600000Y-29225000D03*
%TO.N,/BQ76940/C1*%
X125500000Y-29225000D03*
%TO.N,/BQ76940/C0*%
X121400000Y-29250000D03*
%TO.N,/BQ76200/DSG*%
X161150000Y-73000000D03*
%TO.N,GND*%
X142550000Y-49470000D03*
X136790000Y-75680000D03*
X136790000Y-76510000D03*
X162000000Y-40500000D03*
X157600000Y-40700000D03*
X156800000Y-41500000D03*
X156000000Y-42300000D03*
X155000000Y-43200000D03*
X159500000Y-47200000D03*
X159500000Y-48100000D03*
X161100000Y-48800000D03*
X160200000Y-48800000D03*
X147980000Y-57600000D03*
X148980000Y-57610000D03*
X149980000Y-57610000D03*
X149980000Y-58600000D03*
X148970000Y-58590000D03*
X147980000Y-58600000D03*
X150000000Y-56660000D03*
X149000000Y-56660000D03*
X148000000Y-56660000D03*
X139180000Y-59650000D03*
X139180000Y-60550000D03*
X139200000Y-61520000D03*
X142590000Y-51520000D03*
X142590000Y-52500000D03*
X146000000Y-71990000D03*
X146010000Y-70990000D03*
X145990000Y-70010000D03*
X146010000Y-69010000D03*
X147000000Y-69010000D03*
X147000000Y-70000000D03*
X147000000Y-71010000D03*
X148010000Y-70000000D03*
X148000000Y-69010000D03*
X148990000Y-69030000D03*
X136860000Y-45470000D03*
X136840000Y-46440000D03*
X147200000Y-74610000D03*
X148060000Y-74620000D03*
X148070000Y-73690000D03*
X147170000Y-75470000D03*
X168000000Y-68500000D03*
X168000000Y-70500000D03*
X168000000Y-72500000D03*
X168000000Y-74500000D03*
X168000000Y-76500000D03*
X168000000Y-78500000D03*
X168000000Y-80500000D03*
X168000000Y-82500000D03*
X168000000Y-84500000D03*
X168000000Y-86500000D03*
X168000000Y-88500000D03*
X168000000Y-90500000D03*
X168000000Y-92500000D03*
X168000000Y-94500000D03*
X167000000Y-93500000D03*
X167000000Y-91500000D03*
X167000000Y-89500000D03*
X167000000Y-87500000D03*
X167000000Y-85500000D03*
X167000000Y-83500000D03*
X167000000Y-81500000D03*
X167000000Y-79500000D03*
X167000000Y-77500000D03*
X167000000Y-75500000D03*
X167000000Y-73500000D03*
X167000000Y-71500000D03*
X166000000Y-94500000D03*
X164000000Y-94500000D03*
X162000000Y-94500000D03*
X160000000Y-94500000D03*
X158000000Y-94500000D03*
X156000000Y-94500000D03*
X154000000Y-94500000D03*
X152000000Y-94500000D03*
X150000000Y-94500000D03*
X148000000Y-94500000D03*
X146000000Y-94500000D03*
X147000000Y-93500000D03*
X149000000Y-93500000D03*
X151000000Y-93500000D03*
X153000000Y-93500000D03*
X155000000Y-93500000D03*
X157000000Y-93500000D03*
X159000000Y-93500000D03*
X161000000Y-93500000D03*
X163000000Y-93500000D03*
X165000000Y-93500000D03*
X145000000Y-93500000D03*
X144000000Y-92500000D03*
X143000000Y-91500000D03*
X142000000Y-90500000D03*
X141000000Y-89500000D03*
X140000000Y-88500000D03*
X139000000Y-87500000D03*
X138000000Y-86500000D03*
X137000000Y-85500000D03*
X136000000Y-84500000D03*
X135000000Y-83500000D03*
X133500000Y-82000000D03*
X132000000Y-80500000D03*
X130500000Y-79000000D03*
X131000000Y-67500000D03*
X129900000Y-66200000D03*
X128800000Y-65000000D03*
X129800000Y-67400000D03*
X128600000Y-66100000D03*
X127400000Y-76900000D03*
X128200000Y-76000000D03*
X129000000Y-75000000D03*
X129900000Y-74100000D03*
X134000000Y-63500000D03*
X133000000Y-62500000D03*
X132000000Y-61500000D03*
X131000000Y-60500000D03*
X130000000Y-59500000D03*
X132000000Y-59500000D03*
X133000000Y-60500000D03*
X134000000Y-61500000D03*
X130000000Y-41000000D03*
X128000000Y-41000000D03*
X126000000Y-41000000D03*
X124000000Y-41000000D03*
X122000000Y-41000000D03*
X120000000Y-41000000D03*
X120000000Y-43000000D03*
X120000000Y-45000000D03*
X120000000Y-47000000D03*
X120000000Y-49000000D03*
X120000000Y-51000000D03*
X120000000Y-53000000D03*
X120000000Y-55000000D03*
X120000000Y-57000000D03*
X120000000Y-59000000D03*
X120000000Y-61000000D03*
X121000000Y-60000000D03*
X121000000Y-58000000D03*
X121000000Y-56000000D03*
X121000000Y-54000000D03*
X121000000Y-52000000D03*
X121000000Y-50000000D03*
X121000000Y-48000000D03*
X121000000Y-46000000D03*
X121000000Y-44000000D03*
X121000000Y-42000000D03*
X123000000Y-42000000D03*
X125000000Y-42000000D03*
X127000000Y-42000000D03*
X129000000Y-42000000D03*
X148000000Y-64000000D03*
X149000000Y-64000000D03*
X146500000Y-62500000D03*
X147500000Y-62500000D03*
X129000000Y-54500000D03*
X127000000Y-54500000D03*
X128000000Y-55500000D03*
X127000000Y-56500000D03*
X129000000Y-56500000D03*
X144000000Y-82000000D03*
X146000000Y-82000000D03*
X148000000Y-82000000D03*
X148000000Y-80000000D03*
X148000000Y-78000000D03*
X135900000Y-40600000D03*
X134800000Y-40600000D03*
%TO.N,REGOUT*%
X141300000Y-43460000D03*
%TO.N,Net-(C44-Pad1)*%
X142840000Y-76560000D03*
%TO.N,+BATT*%
X197000000Y-42500000D03*
X158550000Y-62000000D03*
X169000000Y-63000000D03*
X227000000Y-55000000D03*
X229000000Y-55000000D03*
X228000000Y-54000000D03*
X227000000Y-53000000D03*
X229000000Y-53000000D03*
X230000000Y-54000000D03*
X231000000Y-55000000D03*
X232000000Y-54000000D03*
X231000000Y-53000000D03*
X233000000Y-55000000D03*
X235000000Y-55000000D03*
X234000000Y-54000000D03*
X233000000Y-53000000D03*
X235000000Y-53000000D03*
X236000000Y-54000000D03*
X237000000Y-53000000D03*
X238000000Y-54000000D03*
X239000000Y-53000000D03*
X239000000Y-55000000D03*
X208000000Y-48000000D03*
X206000000Y-48000000D03*
X207000000Y-47000000D03*
X205000000Y-47000000D03*
X204000000Y-48000000D03*
X203000000Y-47000000D03*
X208000000Y-46000000D03*
X206000000Y-46000000D03*
X204000000Y-46000000D03*
X203000000Y-45000000D03*
X205000000Y-45000000D03*
X207000000Y-45000000D03*
X202000000Y-46000000D03*
X201000000Y-45000000D03*
X200000000Y-46000000D03*
X199000000Y-45000000D03*
X198000000Y-46000000D03*
X197000000Y-45000000D03*
X202000000Y-48000000D03*
X215500000Y-25000000D03*
X215500000Y-27000000D03*
X215500000Y-29000000D03*
X216500000Y-30000000D03*
X216500000Y-28000000D03*
X216500000Y-26000000D03*
X217500000Y-25000000D03*
X217500000Y-27000000D03*
X217500000Y-29000000D03*
X217500000Y-29000000D03*
X218500000Y-30000000D03*
X218500000Y-28000000D03*
X218500000Y-26000000D03*
X219500000Y-25000000D03*
X219500000Y-27000000D03*
X219500000Y-29000000D03*
X220500000Y-30000000D03*
X220500000Y-28000000D03*
X220500000Y-26000000D03*
X221500000Y-25000000D03*
X221500000Y-27000000D03*
X221500000Y-29000000D03*
X222500000Y-30000000D03*
X222500000Y-28000000D03*
X222500000Y-26000000D03*
X223500000Y-29000000D03*
X223500000Y-27000000D03*
X223500000Y-25000000D03*
X224500000Y-30000000D03*
X224500000Y-28000000D03*
X224500000Y-26000000D03*
X225500000Y-29000000D03*
X225500000Y-27000000D03*
X225500000Y-25000000D03*
%TO.N,PACK+*%
X197500000Y-81500000D03*
X161000000Y-71150000D03*
X156912500Y-71600000D03*
X159090000Y-58580000D03*
X221000000Y-91000000D03*
X219000000Y-91000000D03*
X217000000Y-91000000D03*
X215000000Y-91000000D03*
X213000000Y-91000000D03*
X211000000Y-91000000D03*
X209000000Y-91000000D03*
X207000000Y-91000000D03*
X205000000Y-91000000D03*
X203000000Y-91000000D03*
X201000000Y-91000000D03*
X202000000Y-90000000D03*
X204000000Y-90000000D03*
X206000000Y-90000000D03*
X208000000Y-90000000D03*
X210000000Y-90000000D03*
X212000000Y-90000000D03*
X214000000Y-90000000D03*
X216000000Y-90000000D03*
X218000000Y-90000000D03*
X220000000Y-90000000D03*
X221000000Y-89000000D03*
X219000000Y-89000000D03*
X217000000Y-89000000D03*
X215000000Y-89000000D03*
X213000000Y-89000000D03*
X211000000Y-89000000D03*
X209000000Y-89000000D03*
X207000000Y-89000000D03*
X205000000Y-89000000D03*
X203000000Y-89000000D03*
X201000000Y-89000000D03*
X202000000Y-88000000D03*
X204000000Y-88000000D03*
X206000000Y-88000000D03*
X208000000Y-88000000D03*
X210000000Y-88000000D03*
X212000000Y-88000000D03*
X214000000Y-88000000D03*
X216000000Y-88000000D03*
X218000000Y-88000000D03*
X220000000Y-88000000D03*
X221000000Y-87000000D03*
X219000000Y-87000000D03*
X217000000Y-87000000D03*
X215000000Y-87000000D03*
X213000000Y-87000000D03*
X211000000Y-87000000D03*
X209000000Y-87000000D03*
X207000000Y-87000000D03*
X205000000Y-87000000D03*
X203000000Y-87000000D03*
X201000000Y-87000000D03*
X227000000Y-60000000D03*
X229000000Y-60000000D03*
X228000000Y-61000000D03*
X227000000Y-62000000D03*
X229000000Y-62000000D03*
X230000000Y-61000000D03*
X231000000Y-60000000D03*
X231000000Y-62000000D03*
X232000000Y-61000000D03*
X233000000Y-60000000D03*
X233000000Y-62000000D03*
X234000000Y-61000000D03*
X235000000Y-60000000D03*
X235000000Y-62000000D03*
X236000000Y-61000000D03*
X237000000Y-62000000D03*
X237000000Y-60000000D03*
X238000000Y-61000000D03*
X239000000Y-62000000D03*
X202500000Y-67500000D03*
X204500000Y-67500000D03*
X206500000Y-67500000D03*
X203500000Y-68500000D03*
X205500000Y-68500000D03*
X207500000Y-68500000D03*
X206500000Y-69500000D03*
X204500000Y-69500000D03*
X202500000Y-69500000D03*
X203500000Y-70500000D03*
X205500000Y-70500000D03*
X207500000Y-70500000D03*
X201500000Y-68500000D03*
X200500000Y-69500000D03*
X198500000Y-69500000D03*
X199500000Y-68500000D03*
X200500000Y-67500000D03*
%TO.N,PACK*%
X155193626Y-66911491D03*
X155162500Y-69800000D03*
%TO.N,PACK-*%
X171000000Y-96000000D03*
X173000000Y-96000000D03*
X175000000Y-96000000D03*
X177000000Y-96000000D03*
X179000000Y-96000000D03*
X181000000Y-96000000D03*
X183000000Y-96000000D03*
X185000000Y-96000000D03*
X187000000Y-96000000D03*
X186000000Y-95000000D03*
X184000000Y-95000000D03*
X182000000Y-95000000D03*
X180000000Y-95000000D03*
X178000000Y-95000000D03*
X176000000Y-95000000D03*
X174000000Y-95000000D03*
X172000000Y-95000000D03*
X171000000Y-94000000D03*
X173000000Y-94000000D03*
X175000000Y-94000000D03*
X177000000Y-94000000D03*
X179000000Y-94000000D03*
X181000000Y-94000000D03*
X183000000Y-94000000D03*
X185000000Y-94000000D03*
X187000000Y-94000000D03*
X186000000Y-93000000D03*
X184000000Y-93000000D03*
X182000000Y-93000000D03*
X180000000Y-93000000D03*
X178000000Y-93000000D03*
X176000000Y-93000000D03*
X174000000Y-93000000D03*
X172000000Y-93000000D03*
X187000000Y-92000000D03*
X185000000Y-92000000D03*
X183000000Y-92000000D03*
X181000000Y-92000000D03*
X179000000Y-92000000D03*
X177000000Y-92000000D03*
X175000000Y-92000000D03*
X173000000Y-92000000D03*
X171000000Y-92000000D03*
X172000000Y-91000000D03*
X174000000Y-91000000D03*
X176000000Y-91000000D03*
X178000000Y-91000000D03*
X180000000Y-91000000D03*
X182000000Y-91000000D03*
X184000000Y-91000000D03*
X186000000Y-91000000D03*
X182000000Y-50500000D03*
X181000000Y-49500000D03*
X181000000Y-51500000D03*
X180000000Y-50500000D03*
X179000000Y-49500000D03*
X179000000Y-51500000D03*
X178000000Y-50500000D03*
X177000000Y-49500000D03*
X177000000Y-51500000D03*
X176000000Y-50500000D03*
X175000000Y-49500000D03*
X175000000Y-51500000D03*
X174000000Y-50500000D03*
X173000000Y-49500000D03*
X173000000Y-51500000D03*
X172000000Y-50500000D03*
X171000000Y-49500000D03*
X171000000Y-51500000D03*
X172000000Y-52500000D03*
X174000000Y-52500000D03*
X176000000Y-52500000D03*
X178000000Y-52500000D03*
X180000000Y-52500000D03*
X182000000Y-52500000D03*
%TO.N,/BQ76940/C11/vc+*%
X153325000Y-43462500D03*
X166562500Y-35950000D03*
%TO.N,/BQ76940/C10/vc+*%
X150925000Y-40600000D03*
X162462500Y-34400000D03*
%TO.N,/BQ76940/C9/vc+*%
X150925000Y-39649997D03*
X158550000Y-34487500D03*
%TO.N,VC10X*%
X148550000Y-46537500D03*
X157140000Y-38240000D03*
%TO.N,VC5X*%
X140660000Y-38190000D03*
X146700000Y-45880000D03*
%TO.N,/BQ76940/C3/vc+*%
X134167500Y-36240000D03*
X144241516Y-38527679D03*
%TO.N,/BQ76940/C4/vc+*%
X144250000Y-43450000D03*
X137360000Y-38190000D03*
%TO.N,/BQ76940/C2/vc+*%
X132037500Y-34400000D03*
X143652198Y-39272802D03*
%TO.N,/BQ76940/C9/vcb*%
X151285201Y-38335201D03*
X157020000Y-34487500D03*
%TO.N,/BQ76940/C5/vcb*%
X145000000Y-37875000D03*
X140530000Y-34457500D03*
%TO.N,/BQ76940/ALERT*%
X136030000Y-43810000D03*
X138140000Y-79680000D03*
%TO.N,TS3*%
X150080000Y-46600000D03*
%TO.N,TS2*%
X147550000Y-46537500D03*
%TO.N,TS1*%
X144480004Y-46589999D03*
X148830000Y-54730000D03*
%TO.N,C15*%
X166612500Y-37500000D03*
X162050000Y-21100000D03*
X154100000Y-58060000D03*
X166612500Y-39050000D03*
X142950000Y-60000000D03*
%TO.N,VC15X*%
X154450000Y-46077500D03*
%TO.N,REGOUT*%
X133560000Y-78627500D03*
X142660000Y-71240000D03*
X141310000Y-44370000D03*
%TO.N,REGSRC*%
X145660000Y-45695000D03*
X137262500Y-51950000D03*
%TO.N,Net-(C44-Pad1)*%
X141350000Y-67450000D03*
%TO.N,-BATT*%
X194500000Y-25000000D03*
X194500000Y-27000000D03*
X194500000Y-29000000D03*
X193500000Y-30000000D03*
X193500000Y-28000000D03*
X193500000Y-26000000D03*
X192500000Y-25000000D03*
X192500000Y-27000000D03*
X192500000Y-29000000D03*
X191500000Y-30000000D03*
X191500000Y-28000000D03*
X191500000Y-26000000D03*
X190500000Y-25000000D03*
X190500000Y-27000000D03*
X190500000Y-29000000D03*
X189500000Y-26000000D03*
X189500000Y-28000000D03*
X189500000Y-30000000D03*
X188500000Y-25000000D03*
X188500000Y-27000000D03*
X188500000Y-29000000D03*
X187500000Y-30000000D03*
X187500000Y-28000000D03*
X187500000Y-26000000D03*
X186500000Y-25000000D03*
X186500000Y-27000000D03*
X186500000Y-29000000D03*
X185500000Y-30000000D03*
X185500000Y-28000000D03*
X185500000Y-26000000D03*
X184500000Y-25000000D03*
X184500000Y-27000000D03*
X184500000Y-29000000D03*
X173000000Y-41500000D03*
X173000000Y-39500000D03*
X174000000Y-40500000D03*
X174000000Y-38500000D03*
X175000000Y-39500000D03*
X175000000Y-41500000D03*
X176000000Y-40500000D03*
X176000000Y-38500000D03*
X177000000Y-39500000D03*
X177000000Y-41500000D03*
X177000000Y-41500000D03*
X178000000Y-40500000D03*
X178000000Y-38500000D03*
X179000000Y-39500000D03*
X179000000Y-41500000D03*
X180000000Y-40500000D03*
X180000000Y-38500000D03*
X181000000Y-39500000D03*
X181000000Y-41500000D03*
X182000000Y-40500000D03*
X182000000Y-38500000D03*
%TO.N,/BQ76200/CGATE*%
X207800000Y-42900000D03*
X202600000Y-50800000D03*
X160912500Y-63800000D03*
%TO.N,/BQ76200/DGATE*%
X206075000Y-65100000D03*
X202500000Y-74625000D03*
X160912500Y-67000000D03*
%TO.N,/BQ76200/DSG*%
X159087500Y-67000000D03*
%TO.N,/BQ76940/C10*%
X155550000Y-21100000D03*
%TO.N,/BQ76940/C9*%
X152300000Y-21100000D03*
%TO.N,/BQ76940/C8*%
X153950000Y-34437500D03*
X149050000Y-21100000D03*
%TO.N,/BQ76940/C7*%
X145800000Y-21100000D03*
%TO.N,/BQ76940/C6*%
X142550000Y-21100000D03*
%TO.N,/BQ76940/C5*%
X139300000Y-21100000D03*
%TO.N,/BQ76940/C4*%
X137480000Y-34407500D03*
X136050000Y-21100000D03*
%TO.N,/BQ76940/C3*%
X132800000Y-21100000D03*
%TO.N,/BQ76940/C2*%
X129550000Y-21100000D03*
%TO.N,/BQ76940/C1*%
X126300000Y-21100000D03*
%TO.N,Net-(D31-Pad1)*%
X136830000Y-73140000D03*
X123375000Y-54190000D03*
%TO.N,Net-(D32-Pad1)*%
X133806048Y-73886048D03*
X123375000Y-56190000D03*
%TO.N,Net-(D33-Pad1)*%
X123375000Y-58190000D03*
X136801441Y-74460000D03*
%TO.N,Net-(D34-Pad1)*%
X132829249Y-74862847D03*
X123375000Y-60190000D03*
%TO.N,Net-(D35-Pad1)*%
X133560000Y-75660000D03*
X123375000Y-62190000D03*
%TO.N,SMBC*%
X123500000Y-77610000D03*
%TO.N,SMBD*%
X124640000Y-77580000D03*
%TO.N,/BQ76200/CD*%
X186000000Y-65000000D03*
X164550000Y-65400000D03*
%TO.N,/BQ76200/PMON_EN*%
X142840000Y-74592500D03*
X152900000Y-67650000D03*
%TO.N,/BQ76940/SDA*%
X139575000Y-79100000D03*
X140042500Y-47300000D03*
%TO.N,/BQ76940/SCL*%
X140042500Y-45770000D03*
X139350000Y-78150000D03*
%TO.N,/BQ76200/CP_EN*%
X152890000Y-66370000D03*
X144370000Y-73392500D03*
%TO.N,/BQ76200/PCHG_EN*%
X138551452Y-74618548D03*
X140000000Y-69990000D03*
%TO.N,/BQ76200/CD*%
X186000000Y-67500000D03*
X188000000Y-67500000D03*
X190000000Y-67500000D03*
X192000000Y-67500000D03*
X194000000Y-67500000D03*
X193000000Y-66500000D03*
X191000000Y-66500000D03*
X189000000Y-66500000D03*
X187000000Y-66500000D03*
X188000000Y-65500000D03*
X190000000Y-65500000D03*
X192000000Y-65500000D03*
X194000000Y-65500000D03*
X186000000Y-56500000D03*
X188000000Y-56500000D03*
X190000000Y-56500000D03*
X192000000Y-56500000D03*
X194000000Y-56500000D03*
X193000000Y-57500000D03*
X191000000Y-57500000D03*
X189000000Y-57500000D03*
X187000000Y-57500000D03*
X186000000Y-58500000D03*
X188000000Y-58500000D03*
X190000000Y-58500000D03*
X192000000Y-58500000D03*
X194000000Y-58500000D03*
X223500000Y-58000000D03*
X221500000Y-58000000D03*
X219500000Y-58000000D03*
X217500000Y-58000000D03*
X224500000Y-59000000D03*
X222500000Y-59000000D03*
X220500000Y-59000000D03*
X218500000Y-59000000D03*
X216500000Y-59000000D03*
X217500000Y-60000000D03*
X219500000Y-60000000D03*
X221500000Y-60000000D03*
X223500000Y-60000000D03*
X224500000Y-61000000D03*
X222500000Y-61000000D03*
X220500000Y-61000000D03*
X218500000Y-61000000D03*
X216500000Y-61000000D03*
X215500000Y-60000000D03*
X215500000Y-58000000D03*
X215500000Y-51000000D03*
X215500000Y-53000000D03*
X217500000Y-53000000D03*
X219500000Y-53000000D03*
X221500000Y-53000000D03*
X223500000Y-53000000D03*
X216500000Y-50000000D03*
X216500000Y-52000000D03*
X218500000Y-52000000D03*
X218500000Y-50000000D03*
X217500000Y-51000000D03*
X219500000Y-51000000D03*
X220500000Y-50000000D03*
X220500000Y-52000000D03*
X221500000Y-51000000D03*
X222500000Y-50000000D03*
X222500000Y-52000000D03*
X224500000Y-52000000D03*
X224500000Y-50000000D03*
X223500000Y-51000000D03*
X187000000Y-59500000D03*
X189000000Y-59500000D03*
X191000000Y-59500000D03*
X193000000Y-59500000D03*
X195000000Y-59500000D03*
X195000000Y-57500000D03*
X187000000Y-64500000D03*
X189000000Y-64500000D03*
X191000000Y-64500000D03*
X193000000Y-64500000D03*
X195000000Y-64500000D03*
%TO.N,/BQ76200/CHG_EN*%
X141540000Y-46590000D03*
X149780000Y-65680000D03*
%TO.N,/BQ76200/DSG_EN*%
X149810000Y-66960000D03*
X140760000Y-48620000D03*
%TD*%
D23*
%TO.N,PACK+*%
X156912500Y-67990998D02*
X160070000Y-64833498D01*
X156912500Y-71600000D02*
X156912500Y-67990998D01*
X160070000Y-59560000D02*
X159090000Y-58580000D01*
X160070000Y-64833498D02*
X160070000Y-59560000D01*
%TO.N,PACK*%
X155193626Y-69768874D02*
X155162500Y-69800000D01*
X155193626Y-66911491D02*
X155193626Y-69768874D01*
D24*
%TO.N,PACK-*%
X188000000Y-107000000D02*
X188000000Y-104560468D01*
D25*
X124384002Y-75770000D02*
X144614002Y-96000000D01*
X121040000Y-75770000D02*
X124384002Y-75770000D01*
X144614002Y-96000000D02*
X171000000Y-96000000D01*
X171000000Y-96000000D02*
X173000000Y-96000000D01*
X173000000Y-96000000D02*
X174000000Y-96000000D01*
D26*
%TO.N,/BQ76940/C11/vc+*%
X160837500Y-35950000D02*
X166562500Y-35950000D01*
X153325000Y-43462500D02*
X160837500Y-35950000D01*
%TO.N,/BQ76940/C10/vc+*%
X151490685Y-40600000D02*
X155465685Y-36625000D01*
X150925000Y-40600000D02*
X151490685Y-40600000D01*
X155465685Y-36625000D02*
X158475000Y-36625000D01*
X160700000Y-34400000D02*
X162462500Y-34400000D01*
X158475000Y-36625000D02*
X160700000Y-34400000D01*
%TO.N,/BQ76940/C9/vc+*%
X150925000Y-39649997D02*
X155099997Y-35475000D01*
X157562500Y-35475000D02*
X158550000Y-34487500D01*
X155099997Y-35475000D02*
X157562500Y-35475000D01*
%TO.N,VC10X*%
X156847500Y-38240000D02*
X157140000Y-38240000D01*
X148550000Y-46537500D02*
X156847500Y-38240000D01*
%TO.N,VC5X*%
X140660000Y-41210000D02*
X140660000Y-38190000D01*
X143575001Y-44125001D02*
X140660000Y-41210000D01*
X145285001Y-44125001D02*
X143575001Y-44125001D01*
X146700000Y-45540000D02*
X145285001Y-44125001D01*
X146700000Y-45880000D02*
X146700000Y-45540000D01*
%TO.N,/BQ76940/C3/vc+*%
X141953837Y-36240000D02*
X134167500Y-36240000D01*
X144241516Y-38527679D02*
X141953837Y-36240000D01*
%TO.N,/BQ76940/C4/vc+*%
X138035001Y-37514999D02*
X137360000Y-38190000D01*
X142977197Y-39508195D02*
X140984001Y-37514999D01*
X142977197Y-42177197D02*
X142977197Y-39508195D01*
X140984001Y-37514999D02*
X138035001Y-37514999D01*
X144250000Y-43450000D02*
X142977197Y-42177197D01*
%TO.N,/BQ76940/C2/vc+*%
X132037500Y-34412500D02*
X132037500Y-34400000D01*
X132037500Y-35109002D02*
X132037500Y-34400000D01*
X133843499Y-36915001D02*
X132037500Y-35109002D01*
X141294397Y-36915001D02*
X133843499Y-36915001D01*
X143652198Y-39272802D02*
X141294397Y-36915001D01*
%TO.N,/BQ76940/C9/vcb*%
X155132902Y-34487500D02*
X157020000Y-34487500D01*
X151285201Y-38335201D02*
X155132902Y-34487500D01*
%TO.N,/BQ76940/C5/vcb*%
X141582500Y-34457500D02*
X140530000Y-34457500D01*
X145000000Y-37875000D02*
X141582500Y-34457500D01*
%TO.N,/BQ76940/ALERT*%
X137476441Y-79016441D02*
X138140000Y-79680000D01*
X137476441Y-74128858D02*
X137476441Y-79016441D01*
X137610000Y-73995299D02*
X137476441Y-74128858D01*
X137610000Y-67859302D02*
X137610000Y-73995299D01*
X136030000Y-66279302D02*
X137610000Y-67859302D01*
X136030000Y-43810000D02*
X136030000Y-66279302D01*
%TO.N,TS1*%
X148830000Y-50939995D02*
X148830000Y-54730000D01*
X144480004Y-46589999D02*
X148830000Y-50939995D01*
D25*
%TO.N,C15*%
X167612501Y-26662501D02*
X162050000Y-21100000D01*
X167612501Y-36499999D02*
X167612501Y-26662501D01*
X166612500Y-37500000D02*
X167612501Y-36499999D01*
X166612500Y-39050000D02*
X166612500Y-41612500D01*
X148225000Y-60000000D02*
X142950000Y-60000000D01*
X166549999Y-45610001D02*
X154100000Y-58060000D01*
X166549999Y-41675001D02*
X166549999Y-45610001D01*
X166612500Y-41612500D02*
X166549999Y-41675001D01*
X152160000Y-60000000D02*
X148225000Y-60000000D01*
X154100000Y-58060000D02*
X152160000Y-60000000D01*
%TO.N,VC15X*%
X161327500Y-39200000D02*
X154450000Y-46077500D01*
X162820000Y-39200000D02*
X161327500Y-39200000D01*
D26*
%TO.N,REGSRC*%
X137262500Y-47550998D02*
X137262500Y-51950000D01*
X139718499Y-45094999D02*
X137262500Y-47550998D01*
X145059999Y-45094999D02*
X139718499Y-45094999D01*
X145660000Y-45695000D02*
X145059999Y-45094999D01*
D23*
%TO.N,Net-(C44-Pad1)*%
X141350000Y-75070000D02*
X141350000Y-67450000D01*
X142840000Y-76560000D02*
X141350000Y-75070000D01*
%TO.N,/BQ76200/DGATE*%
X206075000Y-65100000D02*
X206075000Y-65100000D01*
X202500000Y-74625000D02*
X202500000Y-74625000D01*
%TO.N,/BQ76200/DSG*%
X161150000Y-73000000D02*
X159100000Y-70950000D01*
X159100000Y-67012500D02*
X159087500Y-67000000D01*
X159100000Y-70950000D02*
X159100000Y-67012500D01*
D25*
%TO.N,/BQ76940/C11*%
X166462491Y-28737491D02*
X166462491Y-29250000D01*
X158825000Y-21100000D02*
X166462491Y-28737491D01*
%TO.N,/BQ76940/C10*%
X162400000Y-27950000D02*
X155550000Y-21100000D01*
X162400000Y-29250000D02*
X162400000Y-27950000D01*
%TO.N,/BQ76940/C9*%
X158300000Y-27100000D02*
X152300000Y-21100000D01*
X158300000Y-29250000D02*
X158300000Y-27100000D01*
%TO.N,/BQ76940/C8*%
X154200000Y-26250000D02*
X149050000Y-21100000D01*
X154200000Y-29250000D02*
X154200000Y-26250000D01*
X154200000Y-34187500D02*
X153950000Y-34437500D01*
X154200000Y-29250000D02*
X154200000Y-34187500D01*
%TO.N,/BQ76940/C7*%
X150100000Y-25400000D02*
X145800000Y-21100000D01*
X150100000Y-29225000D02*
X150100000Y-25400000D01*
%TO.N,/BQ76940/C6*%
X146025000Y-24575000D02*
X142550000Y-21100000D01*
X146025000Y-29250000D02*
X146025000Y-24575000D01*
%TO.N,/BQ76940/C5*%
X141925000Y-23725000D02*
X139300000Y-21100000D01*
X141925000Y-29225000D02*
X141925000Y-23725000D01*
%TO.N,/BQ76940/C4*%
X137825000Y-22875000D02*
X136050000Y-21100000D01*
X137825000Y-29225000D02*
X137825000Y-22875000D01*
X137480000Y-29570000D02*
X137825000Y-29225000D01*
X137480000Y-34407500D02*
X137480000Y-29570000D01*
%TO.N,/BQ76940/C3*%
X133725000Y-22025000D02*
X132800000Y-21100000D01*
X133725000Y-29225000D02*
X133725000Y-22025000D01*
%TO.N,/BQ76940/C2*%
X129600000Y-21150000D02*
X129550000Y-21100000D01*
X129600000Y-29225000D02*
X129600000Y-21150000D01*
%TO.N,/BQ76940/C1*%
X125500000Y-21900000D02*
X126300000Y-21100000D01*
X125500000Y-29225000D02*
X125500000Y-21900000D01*
%TO.N,/BQ76940/C0*%
X121400000Y-23520000D02*
X128020000Y-16900000D01*
X121400000Y-29250000D02*
X121400000Y-23520000D01*
D26*
%TO.N,Net-(D31-Pad1)*%
X136830000Y-67645000D02*
X123375000Y-54190000D01*
X136830000Y-73140000D02*
X136830000Y-67645000D01*
%TO.N,Net-(D32-Pad1)*%
X133806048Y-66621048D02*
X123375000Y-56190000D01*
X133806048Y-73886048D02*
X133806048Y-66621048D01*
%TO.N,Net-(D33-Pad1)*%
X133131047Y-67946047D02*
X123375000Y-58190000D01*
X133131047Y-74210049D02*
X133131047Y-67946047D01*
X133850998Y-74930000D02*
X133131047Y-74210049D01*
X136331441Y-74930000D02*
X136801441Y-74460000D01*
X133850998Y-74930000D02*
X136331441Y-74930000D01*
%TO.N,Net-(D34-Pad1)*%
X132829249Y-74862847D02*
X132429250Y-74462848D01*
X124050001Y-60865001D02*
X123375000Y-60190000D01*
X124050001Y-63735239D02*
X124050001Y-60865001D01*
X132429250Y-72114488D02*
X124050001Y-63735239D01*
X132429250Y-74462848D02*
X132429250Y-72114488D01*
%TO.N,Net-(D35-Pad1)*%
X123375000Y-66407600D02*
X123375000Y-62190000D01*
X132627400Y-75660000D02*
X123375000Y-66407600D01*
X133560000Y-75660000D02*
X132627400Y-75660000D01*
%TO.N,SMBC*%
X122800000Y-78310000D02*
X121040000Y-78310000D01*
X123500000Y-77610000D02*
X122800000Y-78310000D01*
%TO.N,SMBD*%
X121370000Y-80850000D02*
X121040000Y-80850000D01*
X124640000Y-77580000D02*
X121370000Y-80850000D01*
%TO.N,/BQ76200/PMON_EN*%
X145957500Y-74592500D02*
X152900000Y-67650000D01*
X142840000Y-74592500D02*
X145957500Y-74592500D01*
%TO.N,/BQ76940/SDA*%
X140675001Y-77999999D02*
X139575000Y-79100000D01*
X140675001Y-69665999D02*
X140675001Y-77999999D01*
X140040000Y-69030998D02*
X140675001Y-69665999D01*
X140040000Y-48610000D02*
X140040000Y-69030998D01*
X140042500Y-48607500D02*
X140040000Y-48610000D01*
X140042500Y-47300000D02*
X140042500Y-48607500D01*
X139575000Y-80895000D02*
X141000000Y-82320000D01*
X139575000Y-79100000D02*
X139575000Y-80895000D01*
%TO.N,/BQ76940/SCL*%
X137876451Y-76676451D02*
X139350000Y-78150000D01*
X138151442Y-74019556D02*
X137876451Y-74294547D01*
X138151442Y-47661058D02*
X138151442Y-74019556D01*
X137876451Y-74294547D02*
X137876451Y-76676451D01*
X140042500Y-45770000D02*
X138151442Y-47661058D01*
X138900000Y-81622894D02*
X138900000Y-82330000D01*
X138899999Y-78600001D02*
X138900000Y-81622894D01*
X139350000Y-78150000D02*
X138899999Y-78600001D01*
%TO.N,/BQ76200/CP_EN*%
X145867500Y-73392500D02*
X144370000Y-73392500D01*
X152890000Y-66370000D02*
X145867500Y-73392500D01*
%TO.N,/BQ76200/PCHG_EN*%
X138551452Y-71438548D02*
X140000000Y-69990000D01*
X138551452Y-74618548D02*
X138551452Y-71438548D01*
%TO.N,/BQ76200/CHG_EN*%
X147533971Y-65680000D02*
X149780000Y-65680000D01*
X141540000Y-59686029D02*
X147533971Y-65680000D01*
X141540000Y-46590000D02*
X141540000Y-59686029D01*
%TO.N,/BQ76200/DSG_EN*%
X148248272Y-66960000D02*
X149810000Y-66960000D01*
X140760000Y-59471728D02*
X148248272Y-66960000D01*
X140760000Y-48620000D02*
X140760000Y-59471728D01*
%TD*%
D27*
%TO.N,PACK-*%
X183873000Y-80000000D02*
X183875440Y-80024776D01*
X183882667Y-80048601D01*
X183894403Y-80070557D01*
X183910197Y-80089803D01*
X183929443Y-80105597D01*
X183951399Y-80117333D01*
X183975224Y-80124560D01*
X184000000Y-80127000D01*
X194873000Y-80127000D01*
X194873000Y-96349315D01*
X194870617Y-96349550D01*
X194746207Y-96387290D01*
X194631550Y-96448575D01*
X194531052Y-96531052D01*
X194448575Y-96631550D01*
X194387290Y-96746207D01*
X194349550Y-96870617D01*
X194336807Y-97000000D01*
X194340001Y-97032429D01*
X194340000Y-103975512D01*
X194268561Y-104936841D01*
X194061231Y-105853106D01*
X193720748Y-106728657D01*
X193254590Y-107544265D01*
X192672995Y-108282014D01*
X191988749Y-108925689D01*
X191216871Y-109461160D01*
X190374323Y-109876659D01*
X189479624Y-110163054D01*
X188552403Y-110314062D01*
X187613063Y-110326359D01*
X186682221Y-110199676D01*
X185780324Y-109936797D01*
X184927187Y-109543496D01*
X184141559Y-109028415D01*
X183440699Y-108402875D01*
X182839987Y-107680597D01*
X182352642Y-106877477D01*
X181989352Y-106011130D01*
X181758111Y-105100609D01*
X181661965Y-104145783D01*
X181660000Y-103995714D01*
X181660000Y-97032419D01*
X181663193Y-97000000D01*
X181650450Y-96870617D01*
X181612710Y-96746207D01*
X181551425Y-96631550D01*
X181468948Y-96531052D01*
X181368450Y-96448575D01*
X181253793Y-96387290D01*
X181129383Y-96349550D01*
X181032419Y-96340000D01*
X181000000Y-96336807D01*
X180967581Y-96340000D01*
X170127000Y-96340000D01*
X170127000Y-47127000D01*
X183873000Y-47127000D01*
X183873000Y-80000000D01*
%TA.AperFunction,Conductor*%
D28*
G36*
X183873000Y-80000000D02*
G01*
X183875440Y-80024776D01*
X183882667Y-80048601D01*
X183894403Y-80070557D01*
X183910197Y-80089803D01*
X183929443Y-80105597D01*
X183951399Y-80117333D01*
X183975224Y-80124560D01*
X184000000Y-80127000D01*
X194873000Y-80127000D01*
X194873000Y-96349315D01*
X194870617Y-96349550D01*
X194746207Y-96387290D01*
X194631550Y-96448575D01*
X194531052Y-96531052D01*
X194448575Y-96631550D01*
X194387290Y-96746207D01*
X194349550Y-96870617D01*
X194336807Y-97000000D01*
X194340001Y-97032429D01*
X194340000Y-103975512D01*
X194268561Y-104936841D01*
X194061231Y-105853106D01*
X193720748Y-106728657D01*
X193254590Y-107544265D01*
X192672995Y-108282014D01*
X191988749Y-108925689D01*
X191216871Y-109461160D01*
X190374323Y-109876659D01*
X189479624Y-110163054D01*
X188552403Y-110314062D01*
X187613063Y-110326359D01*
X186682221Y-110199676D01*
X185780324Y-109936797D01*
X184927187Y-109543496D01*
X184141559Y-109028415D01*
X183440699Y-108402875D01*
X182839987Y-107680597D01*
X182352642Y-106877477D01*
X181989352Y-106011130D01*
X181758111Y-105100609D01*
X181661965Y-104145783D01*
X181660000Y-103995714D01*
X181660000Y-97032419D01*
X181663193Y-97000000D01*
X181650450Y-96870617D01*
X181612710Y-96746207D01*
X181551425Y-96631550D01*
X181468948Y-96531052D01*
X181368450Y-96448575D01*
X181253793Y-96387290D01*
X181129383Y-96349550D01*
X181032419Y-96340000D01*
X181000000Y-96336807D01*
X180967581Y-96340000D01*
X170127000Y-96340000D01*
X170127000Y-47127000D01*
X183873000Y-47127000D01*
X183873000Y-80000000D01*
G37*
%TD.AperFunction*%
%TD*%
D27*
%TO.N,PACK+*%
X239340001Y-92399194D02*
X239202088Y-92192793D01*
X238807207Y-91797912D01*
X238342876Y-91487656D01*
X237826939Y-91273948D01*
X237279223Y-91165000D01*
X236720777Y-91165000D01*
X236173061Y-91273948D01*
X235657124Y-91487656D01*
X235192793Y-91797912D01*
X234797912Y-92192793D01*
X234487656Y-92657124D01*
X234273948Y-93173061D01*
X234165000Y-93720777D01*
X234165000Y-94279223D01*
X234273948Y-94826939D01*
X234487656Y-95342876D01*
X234797912Y-95807207D01*
X235192793Y-96202088D01*
X235399193Y-96340000D01*
X229032419Y-96340000D01*
X229000000Y-96336807D01*
X228967581Y-96340000D01*
X228870617Y-96349550D01*
X228746207Y-96387290D01*
X228631550Y-96448575D01*
X228531052Y-96531052D01*
X228448575Y-96631550D01*
X228387290Y-96746207D01*
X228349550Y-96870617D01*
X228336807Y-97000000D01*
X228340001Y-97032429D01*
X228340000Y-103975512D01*
X228268561Y-104936841D01*
X228061231Y-105853106D01*
X227720748Y-106728657D01*
X227254590Y-107544265D01*
X226672995Y-108282014D01*
X225988749Y-108925689D01*
X225216871Y-109461160D01*
X224374323Y-109876659D01*
X223479624Y-110163054D01*
X222552403Y-110314062D01*
X221613063Y-110326359D01*
X220682221Y-110199676D01*
X219780324Y-109936797D01*
X218927187Y-109543496D01*
X218141559Y-109028415D01*
X217440699Y-108402875D01*
X216839987Y-107680597D01*
X216352642Y-106877477D01*
X215989352Y-106011130D01*
X215758111Y-105100609D01*
X215661965Y-104145783D01*
X215660000Y-103995714D01*
X215660000Y-97032419D01*
X215663193Y-97000000D01*
X215650450Y-96870617D01*
X215612710Y-96746207D01*
X215551425Y-96631550D01*
X215468948Y-96531052D01*
X215368450Y-96448575D01*
X215253793Y-96387290D01*
X215129383Y-96349550D01*
X215032419Y-96340000D01*
X215000000Y-96336807D01*
X214967581Y-96340000D01*
X197127000Y-96340000D01*
X197127000Y-83906569D01*
X230352500Y-83906569D01*
X230352501Y-86093432D01*
X230376339Y-86335466D01*
X230470545Y-86646021D01*
X230623527Y-86932230D01*
X230829406Y-87183095D01*
X231080271Y-87388974D01*
X231366480Y-87541956D01*
X231677035Y-87636162D01*
X232000000Y-87667971D01*
X232322966Y-87636162D01*
X232633521Y-87541956D01*
X232919730Y-87388974D01*
X233170595Y-87183095D01*
X233376474Y-86932230D01*
X233529456Y-86646021D01*
X233623662Y-86335466D01*
X233647500Y-86093432D01*
X233647500Y-83906568D01*
X233623662Y-83664534D01*
X233529456Y-83353979D01*
X233376474Y-83067770D01*
X233170595Y-82816905D01*
X232919729Y-82611026D01*
X232633520Y-82458044D01*
X232322965Y-82363838D01*
X232000000Y-82332029D01*
X231677034Y-82363838D01*
X231366479Y-82458044D01*
X231080270Y-82611026D01*
X230829405Y-82816905D01*
X230623526Y-83067771D01*
X230470544Y-83353980D01*
X230376338Y-83664535D01*
X230352500Y-83906569D01*
X197127000Y-83906569D01*
X197127000Y-80200000D01*
X226082029Y-80200000D01*
X226113838Y-80522966D01*
X226208044Y-80833521D01*
X226361026Y-81119730D01*
X226566905Y-81370595D01*
X226817770Y-81576474D01*
X227103979Y-81729456D01*
X227414534Y-81823662D01*
X227656568Y-81847500D01*
X229843432Y-81847500D01*
X230085466Y-81823662D01*
X230396021Y-81729456D01*
X230682230Y-81576474D01*
X230933095Y-81370595D01*
X231138974Y-81119730D01*
X231291956Y-80833521D01*
X231386162Y-80522966D01*
X231417971Y-80200000D01*
X231386162Y-79877034D01*
X231291956Y-79566479D01*
X231138974Y-79280270D01*
X230933095Y-79029405D01*
X230682230Y-78823526D01*
X230396021Y-78670544D01*
X230085466Y-78576338D01*
X229843432Y-78552500D01*
X227656568Y-78552500D01*
X227414534Y-78576338D01*
X227103979Y-78670544D01*
X226817770Y-78823526D01*
X226566905Y-79029405D01*
X226361026Y-79280270D01*
X226208044Y-79566479D01*
X226113838Y-79877034D01*
X226082029Y-80200000D01*
X197127000Y-80200000D01*
X197127000Y-74523061D01*
X201465000Y-74523061D01*
X201465000Y-74726939D01*
X201504774Y-74926898D01*
X201582795Y-75115256D01*
X201696063Y-75284774D01*
X201840226Y-75428937D01*
X202009744Y-75542205D01*
X202198102Y-75620226D01*
X202398061Y-75660000D01*
X202601939Y-75660000D01*
X202801898Y-75620226D01*
X202990256Y-75542205D01*
X203159774Y-75428937D01*
X203303937Y-75284774D01*
X203417205Y-75115256D01*
X203495226Y-74926898D01*
X203535000Y-74726939D01*
X203535000Y-74523061D01*
X203495226Y-74323102D01*
X203417205Y-74134744D01*
X203303937Y-73965226D01*
X203159774Y-73821063D01*
X202990256Y-73707795D01*
X202801898Y-73629774D01*
X202601939Y-73590000D01*
X202398061Y-73590000D01*
X202198102Y-73629774D01*
X202009744Y-73707795D01*
X201840226Y-73821063D01*
X201696063Y-73965226D01*
X201582795Y-74134744D01*
X201504774Y-74323102D01*
X201465000Y-74523061D01*
X197127000Y-74523061D01*
X197127000Y-69051153D01*
X199554070Y-66527000D01*
X213873000Y-66527000D01*
X213873000Y-74000000D01*
X213875440Y-74024776D01*
X213882667Y-74048601D01*
X213894403Y-74070557D01*
X213910197Y-74089803D01*
X213929443Y-74105597D01*
X213951399Y-74117333D01*
X213975224Y-74124560D01*
X214000000Y-74127000D01*
X225900000Y-74127000D01*
X225924776Y-74124560D01*
X225948601Y-74117333D01*
X225970557Y-74105597D01*
X225989803Y-74089803D01*
X226005597Y-74070557D01*
X226017333Y-74048601D01*
X226024560Y-74024776D01*
X226026997Y-74000847D01*
X226126156Y-59127000D01*
X239340001Y-59127000D01*
X239340001Y-92399194D01*
%TA.AperFunction,Conductor*%
D28*
G36*
X239340001Y-92399194D02*
G01*
X239202088Y-92192793D01*
X238807207Y-91797912D01*
X238342876Y-91487656D01*
X237826939Y-91273948D01*
X237279223Y-91165000D01*
X236720777Y-91165000D01*
X236173061Y-91273948D01*
X235657124Y-91487656D01*
X235192793Y-91797912D01*
X234797912Y-92192793D01*
X234487656Y-92657124D01*
X234273948Y-93173061D01*
X234165000Y-93720777D01*
X234165000Y-94279223D01*
X234273948Y-94826939D01*
X234487656Y-95342876D01*
X234797912Y-95807207D01*
X235192793Y-96202088D01*
X235399193Y-96340000D01*
X229032419Y-96340000D01*
X229000000Y-96336807D01*
X228967581Y-96340000D01*
X228870617Y-96349550D01*
X228746207Y-96387290D01*
X228631550Y-96448575D01*
X228531052Y-96531052D01*
X228448575Y-96631550D01*
X228387290Y-96746207D01*
X228349550Y-96870617D01*
X228336807Y-97000000D01*
X228340001Y-97032429D01*
X228340000Y-103975512D01*
X228268561Y-104936841D01*
X228061231Y-105853106D01*
X227720748Y-106728657D01*
X227254590Y-107544265D01*
X226672995Y-108282014D01*
X225988749Y-108925689D01*
X225216871Y-109461160D01*
X224374323Y-109876659D01*
X223479624Y-110163054D01*
X222552403Y-110314062D01*
X221613063Y-110326359D01*
X220682221Y-110199676D01*
X219780324Y-109936797D01*
X218927187Y-109543496D01*
X218141559Y-109028415D01*
X217440699Y-108402875D01*
X216839987Y-107680597D01*
X216352642Y-106877477D01*
X215989352Y-106011130D01*
X215758111Y-105100609D01*
X215661965Y-104145783D01*
X215660000Y-103995714D01*
X215660000Y-97032419D01*
X215663193Y-97000000D01*
X215650450Y-96870617D01*
X215612710Y-96746207D01*
X215551425Y-96631550D01*
X215468948Y-96531052D01*
X215368450Y-96448575D01*
X215253793Y-96387290D01*
X215129383Y-96349550D01*
X215032419Y-96340000D01*
X215000000Y-96336807D01*
X214967581Y-96340000D01*
X197127000Y-96340000D01*
X197127000Y-83906569D01*
X230352500Y-83906569D01*
X230352501Y-86093432D01*
X230376339Y-86335466D01*
X230470545Y-86646021D01*
X230623527Y-86932230D01*
X230829406Y-87183095D01*
X231080271Y-87388974D01*
X231366480Y-87541956D01*
X231677035Y-87636162D01*
X232000000Y-87667971D01*
X232322966Y-87636162D01*
X232633521Y-87541956D01*
X232919730Y-87388974D01*
X233170595Y-87183095D01*
X233376474Y-86932230D01*
X233529456Y-86646021D01*
X233623662Y-86335466D01*
X233647500Y-86093432D01*
X233647500Y-83906568D01*
X233623662Y-83664534D01*
X233529456Y-83353979D01*
X233376474Y-83067770D01*
X233170595Y-82816905D01*
X232919729Y-82611026D01*
X232633520Y-82458044D01*
X232322965Y-82363838D01*
X232000000Y-82332029D01*
X231677034Y-82363838D01*
X231366479Y-82458044D01*
X231080270Y-82611026D01*
X230829405Y-82816905D01*
X230623526Y-83067771D01*
X230470544Y-83353980D01*
X230376338Y-83664535D01*
X230352500Y-83906569D01*
X197127000Y-83906569D01*
X197127000Y-80200000D01*
X226082029Y-80200000D01*
X226113838Y-80522966D01*
X226208044Y-80833521D01*
X226361026Y-81119730D01*
X226566905Y-81370595D01*
X226817770Y-81576474D01*
X227103979Y-81729456D01*
X227414534Y-81823662D01*
X227656568Y-81847500D01*
X229843432Y-81847500D01*
X230085466Y-81823662D01*
X230396021Y-81729456D01*
X230682230Y-81576474D01*
X230933095Y-81370595D01*
X231138974Y-81119730D01*
X231291956Y-80833521D01*
X231386162Y-80522966D01*
X231417971Y-80200000D01*
X231386162Y-79877034D01*
X231291956Y-79566479D01*
X231138974Y-79280270D01*
X230933095Y-79029405D01*
X230682230Y-78823526D01*
X230396021Y-78670544D01*
X230085466Y-78576338D01*
X229843432Y-78552500D01*
X227656568Y-78552500D01*
X227414534Y-78576338D01*
X227103979Y-78670544D01*
X226817770Y-78823526D01*
X226566905Y-79029405D01*
X226361026Y-79280270D01*
X226208044Y-79566479D01*
X226113838Y-79877034D01*
X226082029Y-80200000D01*
X197127000Y-80200000D01*
X197127000Y-74523061D01*
X201465000Y-74523061D01*
X201465000Y-74726939D01*
X201504774Y-74926898D01*
X201582795Y-75115256D01*
X201696063Y-75284774D01*
X201840226Y-75428937D01*
X202009744Y-75542205D01*
X202198102Y-75620226D01*
X202398061Y-75660000D01*
X202601939Y-75660000D01*
X202801898Y-75620226D01*
X202990256Y-75542205D01*
X203159774Y-75428937D01*
X203303937Y-75284774D01*
X203417205Y-75115256D01*
X203495226Y-74926898D01*
X203535000Y-74726939D01*
X203535000Y-74523061D01*
X203495226Y-74323102D01*
X203417205Y-74134744D01*
X203303937Y-73965226D01*
X203159774Y-73821063D01*
X202990256Y-73707795D01*
X202801898Y-73629774D01*
X202601939Y-73590000D01*
X202398061Y-73590000D01*
X202198102Y-73629774D01*
X202009744Y-73707795D01*
X201840226Y-73821063D01*
X201696063Y-73965226D01*
X201582795Y-74134744D01*
X201504774Y-74323102D01*
X201465000Y-74523061D01*
X197127000Y-74523061D01*
X197127000Y-69051153D01*
X199554070Y-66527000D01*
X213873000Y-66527000D01*
X213873000Y-74000000D01*
X213875440Y-74024776D01*
X213882667Y-74048601D01*
X213894403Y-74070557D01*
X213910197Y-74089803D01*
X213929443Y-74105597D01*
X213951399Y-74117333D01*
X213975224Y-74124560D01*
X214000000Y-74127000D01*
X225900000Y-74127000D01*
X225924776Y-74124560D01*
X225948601Y-74117333D01*
X225970557Y-74105597D01*
X225989803Y-74089803D01*
X226005597Y-74070557D01*
X226017333Y-74048601D01*
X226024560Y-74024776D01*
X226026997Y-74000847D01*
X226126156Y-59127000D01*
X239340001Y-59127000D01*
X239340001Y-92399194D01*
G37*
%TD.AperFunction*%
%TD*%
D27*
%TO.N,/BQ76200/CD*%
X225273000Y-73173000D02*
X215127000Y-73173000D01*
X215127000Y-65000000D01*
X215124560Y-64975224D01*
X215117333Y-64951399D01*
X215105597Y-64929443D01*
X215089958Y-64910353D01*
X214093407Y-63910353D01*
X214074189Y-63894525D01*
X214052252Y-63882751D01*
X214028441Y-63875483D01*
X214003449Y-63873000D01*
X198000000Y-63873000D01*
X197975224Y-63875440D01*
X197951399Y-63882667D01*
X197929443Y-63894403D01*
X197910197Y-63910197D01*
X194910197Y-66910197D01*
X194894403Y-66929443D01*
X194882667Y-66951399D01*
X194875440Y-66975224D01*
X194873000Y-67000000D01*
X194873000Y-79373000D01*
X185127363Y-79373000D01*
X185226637Y-44627000D01*
X193873000Y-44627000D01*
X193873000Y-53000000D01*
X193875440Y-53024776D01*
X193882667Y-53048601D01*
X193894403Y-53070557D01*
X193910197Y-53089803D01*
X194910197Y-54089803D01*
X194929443Y-54105597D01*
X194951399Y-54117333D01*
X194975224Y-54124560D01*
X195000000Y-54127000D01*
X204000000Y-54127000D01*
X204024776Y-54124560D01*
X204048601Y-54117333D01*
X204070557Y-54105597D01*
X204089803Y-54089803D01*
X204101600Y-54076200D01*
X207063500Y-50127000D01*
X214000000Y-50127000D01*
X214024776Y-50124560D01*
X214048601Y-50117333D01*
X214070557Y-50105597D01*
X214089803Y-50089803D01*
X215089803Y-49089803D01*
X215105597Y-49070557D01*
X215117333Y-49048601D01*
X215124560Y-49024776D01*
X215127000Y-49000000D01*
X215127000Y-38127000D01*
X225273000Y-38127000D01*
X225273000Y-73173000D01*
%TA.AperFunction,Conductor*%
D28*
G36*
X225273000Y-73173000D02*
G01*
X215127000Y-73173000D01*
X215127000Y-65000000D01*
X215124560Y-64975224D01*
X215117333Y-64951399D01*
X215105597Y-64929443D01*
X215089958Y-64910353D01*
X214093407Y-63910353D01*
X214074189Y-63894525D01*
X214052252Y-63882751D01*
X214028441Y-63875483D01*
X214003449Y-63873000D01*
X198000000Y-63873000D01*
X197975224Y-63875440D01*
X197951399Y-63882667D01*
X197929443Y-63894403D01*
X197910197Y-63910197D01*
X194910197Y-66910197D01*
X194894403Y-66929443D01*
X194882667Y-66951399D01*
X194875440Y-66975224D01*
X194873000Y-67000000D01*
X194873000Y-79373000D01*
X185127363Y-79373000D01*
X185226637Y-44627000D01*
X193873000Y-44627000D01*
X193873000Y-53000000D01*
X193875440Y-53024776D01*
X193882667Y-53048601D01*
X193894403Y-53070557D01*
X193910197Y-53089803D01*
X194910197Y-54089803D01*
X194929443Y-54105597D01*
X194951399Y-54117333D01*
X194975224Y-54124560D01*
X195000000Y-54127000D01*
X204000000Y-54127000D01*
X204024776Y-54124560D01*
X204048601Y-54117333D01*
X204070557Y-54105597D01*
X204089803Y-54089803D01*
X204101600Y-54076200D01*
X207063500Y-50127000D01*
X214000000Y-50127000D01*
X214024776Y-50124560D01*
X214048601Y-50117333D01*
X214070557Y-50105597D01*
X214089803Y-50089803D01*
X215089803Y-49089803D01*
X215105597Y-49070557D01*
X215117333Y-49048601D01*
X215124560Y-49024776D01*
X215127000Y-49000000D01*
X215127000Y-38127000D01*
X225273000Y-38127000D01*
X225273000Y-73173000D01*
G37*
%TD.AperFunction*%
%TD*%
D27*
%TO.N,-BATT*%
X203873000Y-30873000D02*
X194000000Y-30873000D01*
X193975224Y-30875440D01*
X193951399Y-30882667D01*
X193929443Y-30894403D01*
X193910197Y-30910197D01*
X193894403Y-30929443D01*
X193882667Y-30951399D01*
X193875440Y-30975224D01*
X193873000Y-31000000D01*
X193873000Y-43873000D01*
X170127000Y-43873000D01*
X170127000Y-24127000D01*
X203873000Y-24127000D01*
X203873000Y-30873000D01*
%TA.AperFunction,Conductor*%
D28*
G36*
X203873000Y-30873000D02*
G01*
X194000000Y-30873000D01*
X193975224Y-30875440D01*
X193951399Y-30882667D01*
X193929443Y-30894403D01*
X193910197Y-30910197D01*
X193894403Y-30929443D01*
X193882667Y-30951399D01*
X193875440Y-30975224D01*
X193873000Y-31000000D01*
X193873000Y-43873000D01*
X170127000Y-43873000D01*
X170127000Y-24127000D01*
X203873000Y-24127000D01*
X203873000Y-30873000D01*
G37*
%TD.AperFunction*%
%TD*%
D27*
%TO.N,+BATT*%
X239340000Y-55873000D02*
X226126319Y-55873000D01*
X226026998Y-37399317D01*
X226024425Y-37374554D01*
X226017070Y-37350769D01*
X226005216Y-37328876D01*
X225989318Y-37309716D01*
X225969989Y-37294026D01*
X225947969Y-37282408D01*
X225924106Y-37275309D01*
X225900000Y-37273000D01*
X214000000Y-37273000D01*
X213975224Y-37275440D01*
X213951399Y-37282667D01*
X213929443Y-37294403D01*
X213910197Y-37310197D01*
X213894403Y-37329443D01*
X213882667Y-37351399D01*
X213875440Y-37375224D01*
X213873000Y-37400000D01*
X213873000Y-48873000D01*
X196427000Y-48873000D01*
X196427000Y-42798061D01*
X206765000Y-42798061D01*
X206765000Y-43001939D01*
X206804774Y-43201898D01*
X206882795Y-43390256D01*
X206996063Y-43559774D01*
X207140226Y-43703937D01*
X207309744Y-43817205D01*
X207498102Y-43895226D01*
X207698061Y-43935000D01*
X207901939Y-43935000D01*
X208101898Y-43895226D01*
X208290256Y-43817205D01*
X208459774Y-43703937D01*
X208603937Y-43559774D01*
X208717205Y-43390256D01*
X208795226Y-43201898D01*
X208835000Y-43001939D01*
X208835000Y-42798061D01*
X208795226Y-42598102D01*
X208717205Y-42409744D01*
X208603937Y-42240226D01*
X208459774Y-42096063D01*
X208290256Y-41982795D01*
X208101898Y-41904774D01*
X207901939Y-41865000D01*
X207698061Y-41865000D01*
X207498102Y-41904774D01*
X207309744Y-41982795D01*
X207140226Y-42096063D01*
X206996063Y-42240226D01*
X206882795Y-42409744D01*
X206804774Y-42598102D01*
X206765000Y-42798061D01*
X196427000Y-42798061D01*
X196427000Y-32127000D01*
X206000000Y-32127000D01*
X206024776Y-32124560D01*
X206048601Y-32117333D01*
X206070557Y-32105597D01*
X206089803Y-32089803D01*
X206105597Y-32070557D01*
X206117333Y-32048601D01*
X206124560Y-32024776D01*
X206127000Y-32000000D01*
X206127000Y-24127000D01*
X239340000Y-24127000D01*
X239340000Y-55873000D01*
%TA.AperFunction,Conductor*%
D28*
G36*
X239340000Y-55873000D02*
G01*
X226126319Y-55873000D01*
X226026998Y-37399317D01*
X226024425Y-37374554D01*
X226017070Y-37350769D01*
X226005216Y-37328876D01*
X225989318Y-37309716D01*
X225969989Y-37294026D01*
X225947969Y-37282408D01*
X225924106Y-37275309D01*
X225900000Y-37273000D01*
X214000000Y-37273000D01*
X213975224Y-37275440D01*
X213951399Y-37282667D01*
X213929443Y-37294403D01*
X213910197Y-37310197D01*
X213894403Y-37329443D01*
X213882667Y-37351399D01*
X213875440Y-37375224D01*
X213873000Y-37400000D01*
X213873000Y-48873000D01*
X196427000Y-48873000D01*
X196427000Y-42798061D01*
X206765000Y-42798061D01*
X206765000Y-43001939D01*
X206804774Y-43201898D01*
X206882795Y-43390256D01*
X206996063Y-43559774D01*
X207140226Y-43703937D01*
X207309744Y-43817205D01*
X207498102Y-43895226D01*
X207698061Y-43935000D01*
X207901939Y-43935000D01*
X208101898Y-43895226D01*
X208290256Y-43817205D01*
X208459774Y-43703937D01*
X208603937Y-43559774D01*
X208717205Y-43390256D01*
X208795226Y-43201898D01*
X208835000Y-43001939D01*
X208835000Y-42798061D01*
X208795226Y-42598102D01*
X208717205Y-42409744D01*
X208603937Y-42240226D01*
X208459774Y-42096063D01*
X208290256Y-41982795D01*
X208101898Y-41904774D01*
X207901939Y-41865000D01*
X207698061Y-41865000D01*
X207498102Y-41904774D01*
X207309744Y-41982795D01*
X207140226Y-42096063D01*
X206996063Y-42240226D01*
X206882795Y-42409744D01*
X206804774Y-42598102D01*
X206765000Y-42798061D01*
X196427000Y-42798061D01*
X196427000Y-32127000D01*
X206000000Y-32127000D01*
X206024776Y-32124560D01*
X206048601Y-32117333D01*
X206070557Y-32105597D01*
X206089803Y-32089803D01*
X206105597Y-32070557D01*
X206117333Y-32048601D01*
X206124560Y-32024776D01*
X206127000Y-32000000D01*
X206127000Y-24127000D01*
X239340000Y-24127000D01*
X239340000Y-55873000D01*
G37*
%TD.AperFunction*%
%TD*%
D27*
%TO.N,GND*%
X132112174Y-40201380D02*
X131987087Y-40388587D01*
X131900925Y-40596599D01*
X131857000Y-40817424D01*
X131857000Y-41042576D01*
X131900925Y-41263401D01*
X131987087Y-41471413D01*
X132112174Y-41658620D01*
X132271380Y-41817826D01*
X132458587Y-41942913D01*
X132666599Y-42029075D01*
X132887424Y-42073000D01*
X133112576Y-42073000D01*
X133333401Y-42029075D01*
X133541413Y-41942913D01*
X133728620Y-41817826D01*
X133887826Y-41658620D01*
X134012913Y-41471413D01*
X134099075Y-41263401D01*
X134143000Y-41042576D01*
X134143000Y-40817424D01*
X134099075Y-40596599D01*
X134012913Y-40388587D01*
X133887826Y-40201380D01*
X133813446Y-40127000D01*
X140154000Y-40127000D01*
X140154000Y-41185154D01*
X140151553Y-41210000D01*
X140154000Y-41234846D01*
X140154000Y-41234853D01*
X140161322Y-41309192D01*
X140190255Y-41404574D01*
X140237241Y-41492479D01*
X140300473Y-41569527D01*
X140319785Y-41585376D01*
X141422468Y-42688060D01*
X141376922Y-42679000D01*
X141223078Y-42679000D01*
X141072191Y-42709013D01*
X140930058Y-42767887D01*
X140802141Y-42853358D01*
X140693358Y-42962141D01*
X140607887Y-43090058D01*
X140549013Y-43232191D01*
X140519000Y-43383078D01*
X140519000Y-43414499D01*
X140497859Y-43393358D01*
X140369942Y-43307887D01*
X140227809Y-43249013D01*
X140076922Y-43219000D01*
X139923078Y-43219000D01*
X139772191Y-43249013D01*
X139630058Y-43307887D01*
X139502141Y-43393358D01*
X139393358Y-43502141D01*
X139307887Y-43630058D01*
X139249013Y-43772191D01*
X139219000Y-43923078D01*
X139219000Y-44076922D01*
X139249013Y-44227809D01*
X139307887Y-44369942D01*
X139393358Y-44497859D01*
X139502141Y-44606642D01*
X139528100Y-44623987D01*
X139523924Y-44625254D01*
X139436020Y-44672240D01*
X139358972Y-44735472D01*
X139343127Y-44754779D01*
X136922285Y-47175622D01*
X136902973Y-47191471D01*
X136839741Y-47268519D01*
X136792755Y-47356424D01*
X136763822Y-47451806D01*
X136756500Y-47526145D01*
X136756500Y-47526152D01*
X136754053Y-47550998D01*
X136756500Y-47575844D01*
X136756501Y-51351498D01*
X136655858Y-51452141D01*
X136570387Y-51580058D01*
X136536000Y-51663075D01*
X136536000Y-44408501D01*
X136636642Y-44307859D01*
X136722113Y-44179942D01*
X136780987Y-44037809D01*
X136811000Y-43886922D01*
X136811000Y-43733078D01*
X136780987Y-43582191D01*
X136722113Y-43440058D01*
X136636642Y-43312141D01*
X136527859Y-43203358D01*
X136399942Y-43117887D01*
X136257809Y-43059013D01*
X136232558Y-43053990D01*
X136266978Y-43047144D01*
X136427310Y-42980732D01*
X136571605Y-42884318D01*
X136694318Y-42761605D01*
X136790732Y-42617310D01*
X136857144Y-42456978D01*
X136891000Y-42286771D01*
X136891000Y-42113229D01*
X136857144Y-41943022D01*
X136790732Y-41782690D01*
X136694318Y-41638395D01*
X136571605Y-41515682D01*
X136427310Y-41419268D01*
X136266978Y-41352856D01*
X136096771Y-41319000D01*
X135923229Y-41319000D01*
X135753022Y-41352856D01*
X135592690Y-41419268D01*
X135448395Y-41515682D01*
X135325682Y-41638395D01*
X135229268Y-41782690D01*
X135162856Y-41943022D01*
X135129000Y-42113229D01*
X135129000Y-42286771D01*
X135162856Y-42456978D01*
X135229268Y-42617310D01*
X135325682Y-42761605D01*
X135448395Y-42884318D01*
X135592690Y-42980732D01*
X135753022Y-43047144D01*
X135807441Y-43057969D01*
X135802191Y-43059013D01*
X135660058Y-43117887D01*
X135532141Y-43203358D01*
X135423358Y-43312141D01*
X135337887Y-43440058D01*
X135279013Y-43582191D01*
X135249000Y-43733078D01*
X135249000Y-43886922D01*
X135279013Y-44037809D01*
X135337887Y-44179942D01*
X135423358Y-44307859D01*
X135524000Y-44408501D01*
X135524001Y-65623409D01*
X124156000Y-54255409D01*
X124156000Y-54113078D01*
X124125987Y-53962191D01*
X124067113Y-53820058D01*
X123981642Y-53692141D01*
X123872859Y-53583358D01*
X123744942Y-53497887D01*
X123602809Y-53439013D01*
X123451922Y-53409000D01*
X123298078Y-53409000D01*
X123147191Y-53439013D01*
X123005058Y-53497887D01*
X122877141Y-53583358D01*
X122768358Y-53692141D01*
X122682887Y-53820058D01*
X122624013Y-53962191D01*
X122594000Y-54113078D01*
X122594000Y-54266922D01*
X122624013Y-54417809D01*
X122682887Y-54559942D01*
X122768358Y-54687859D01*
X122877141Y-54796642D01*
X123005058Y-54882113D01*
X123147191Y-54940987D01*
X123298078Y-54971000D01*
X123440409Y-54971000D01*
X136324001Y-67854593D01*
X136324000Y-72541499D01*
X136223358Y-72642141D01*
X136137887Y-72770058D01*
X136079013Y-72912191D01*
X136049000Y-73063078D01*
X136049000Y-73216922D01*
X136079013Y-73367809D01*
X136137887Y-73509942D01*
X136223358Y-73637859D01*
X136332141Y-73746642D01*
X136397718Y-73790459D01*
X136303582Y-73853358D01*
X136194799Y-73962141D01*
X136109328Y-74090058D01*
X136050454Y-74232191D01*
X136020441Y-74383078D01*
X136020441Y-74424000D01*
X134372597Y-74424000D01*
X134412690Y-74383907D01*
X134498161Y-74255990D01*
X134557035Y-74113857D01*
X134587048Y-73962970D01*
X134587048Y-73809126D01*
X134557035Y-73658239D01*
X134498161Y-73516106D01*
X134412690Y-73388189D01*
X134312048Y-73287547D01*
X134312048Y-66645902D01*
X134314496Y-66621048D01*
X134304726Y-66521855D01*
X134275793Y-66426473D01*
X134265705Y-66407600D01*
X134228807Y-66338569D01*
X134165575Y-66261521D01*
X134146268Y-66245676D01*
X124156000Y-56255409D01*
X124156000Y-56113078D01*
X124125987Y-55962191D01*
X124067113Y-55820058D01*
X123981642Y-55692141D01*
X123872859Y-55583358D01*
X123744942Y-55497887D01*
X123602809Y-55439013D01*
X123451922Y-55409000D01*
X123298078Y-55409000D01*
X123147191Y-55439013D01*
X123005058Y-55497887D01*
X122877141Y-55583358D01*
X122768358Y-55692141D01*
X122682887Y-55820058D01*
X122624013Y-55962191D01*
X122594000Y-56113078D01*
X122594000Y-56266922D01*
X122624013Y-56417809D01*
X122682887Y-56559942D01*
X122768358Y-56687859D01*
X122877141Y-56796642D01*
X123005058Y-56882113D01*
X123147191Y-56940987D01*
X123298078Y-56971000D01*
X123440409Y-56971000D01*
X133300049Y-66830641D01*
X133300049Y-67399457D01*
X124156000Y-58255409D01*
X124156000Y-58113078D01*
X124125987Y-57962191D01*
X124067113Y-57820058D01*
X123981642Y-57692141D01*
X123872859Y-57583358D01*
X123744942Y-57497887D01*
X123602809Y-57439013D01*
X123451922Y-57409000D01*
X123298078Y-57409000D01*
X123147191Y-57439013D01*
X123005058Y-57497887D01*
X122877141Y-57583358D01*
X122768358Y-57692141D01*
X122682887Y-57820058D01*
X122624013Y-57962191D01*
X122594000Y-58113078D01*
X122594000Y-58266922D01*
X122624013Y-58417809D01*
X122682887Y-58559942D01*
X122768358Y-58687859D01*
X122877141Y-58796642D01*
X123005058Y-58882113D01*
X123147191Y-58940987D01*
X123298078Y-58971000D01*
X123440409Y-58971000D01*
X132625048Y-68155640D01*
X132625047Y-71594693D01*
X124556001Y-63525648D01*
X124556001Y-60889855D01*
X124558449Y-60865001D01*
X124548679Y-60765808D01*
X124519746Y-60670426D01*
X124495986Y-60625975D01*
X124472760Y-60582522D01*
X124409528Y-60505474D01*
X124390221Y-60489629D01*
X124156000Y-60255408D01*
X124156000Y-60113078D01*
X124125987Y-59962191D01*
X124067113Y-59820058D01*
X123981642Y-59692141D01*
X123872859Y-59583358D01*
X123744942Y-59497887D01*
X123602809Y-59439013D01*
X123451922Y-59409000D01*
X123298078Y-59409000D01*
X123147191Y-59439013D01*
X123005058Y-59497887D01*
X122877141Y-59583358D01*
X122768358Y-59692141D01*
X122682887Y-59820058D01*
X122624013Y-59962191D01*
X122594000Y-60113078D01*
X122594000Y-60266922D01*
X122624013Y-60417809D01*
X122682887Y-60559942D01*
X122768358Y-60687859D01*
X122877141Y-60796642D01*
X123005058Y-60882113D01*
X123147191Y-60940987D01*
X123298078Y-60971000D01*
X123440408Y-60971000D01*
X123544002Y-61074594D01*
X123544002Y-61427316D01*
X123451922Y-61409000D01*
X123298078Y-61409000D01*
X123147191Y-61439013D01*
X123005058Y-61497887D01*
X122877141Y-61583358D01*
X122768358Y-61692141D01*
X122682887Y-61820058D01*
X122624013Y-61962191D01*
X122594000Y-62113078D01*
X122594000Y-62266922D01*
X122624013Y-62417809D01*
X122682887Y-62559942D01*
X122768358Y-62687859D01*
X122869001Y-62788502D01*
X122869000Y-66382754D01*
X122866553Y-66407600D01*
X122869000Y-66432446D01*
X122869000Y-66432453D01*
X122876322Y-66506792D01*
X122905255Y-66602174D01*
X122952241Y-66690079D01*
X123015473Y-66767127D01*
X123034785Y-66782976D01*
X132252028Y-76000220D01*
X132267873Y-76019527D01*
X132344921Y-76082759D01*
X132432825Y-76129745D01*
X132528207Y-76158678D01*
X132627400Y-76168448D01*
X132652254Y-76166000D01*
X132961499Y-76166000D01*
X133062141Y-76266642D01*
X133190058Y-76352113D01*
X133332191Y-76410987D01*
X133483078Y-76441000D01*
X133636922Y-76441000D01*
X133787809Y-76410987D01*
X133929942Y-76352113D01*
X134057859Y-76266642D01*
X134166642Y-76157859D01*
X134252113Y-76029942D01*
X134310987Y-75887809D01*
X134341000Y-75736922D01*
X134341000Y-75583078D01*
X134311745Y-75436000D01*
X136306595Y-75436000D01*
X136331441Y-75438447D01*
X136356287Y-75436000D01*
X136356295Y-75436000D01*
X136430634Y-75428678D01*
X136526016Y-75399745D01*
X136613920Y-75352759D01*
X136690968Y-75289527D01*
X136706817Y-75270215D01*
X136736032Y-75241000D01*
X136878363Y-75241000D01*
X136970441Y-75222685D01*
X136970442Y-78991585D01*
X136967994Y-79016441D01*
X136977763Y-79115633D01*
X137006696Y-79211015D01*
X137006697Y-79211016D01*
X137053683Y-79298920D01*
X137116915Y-79375968D01*
X137136221Y-79391812D01*
X137359000Y-79614591D01*
X137359000Y-79756922D01*
X137389013Y-79907809D01*
X137447887Y-80049942D01*
X137533358Y-80177859D01*
X137642141Y-80286642D01*
X137770058Y-80372113D01*
X137912191Y-80430987D01*
X138063078Y-80461000D01*
X138216922Y-80461000D01*
X138367809Y-80430987D01*
X138394000Y-80420138D01*
X138394001Y-81598031D01*
X138394000Y-81598041D01*
X138394000Y-81608528D01*
X138338395Y-81645682D01*
X138215682Y-81768395D01*
X138119268Y-81912690D01*
X138052856Y-82073022D01*
X138019000Y-82243229D01*
X138019000Y-82416771D01*
X138052856Y-82586978D01*
X138119268Y-82747310D01*
X138215682Y-82891605D01*
X138338395Y-83014318D01*
X138482690Y-83110732D01*
X138643022Y-83177144D01*
X138813229Y-83211000D01*
X138986771Y-83211000D01*
X139156978Y-83177144D01*
X139317310Y-83110732D01*
X139461605Y-83014318D01*
X139584318Y-82891605D01*
X139680732Y-82747310D01*
X139747144Y-82586978D01*
X139781000Y-82416771D01*
X139781000Y-82243229D01*
X139747144Y-82073022D01*
X139680732Y-81912690D01*
X139584318Y-81768395D01*
X139461605Y-81645682D01*
X139406000Y-81608528D01*
X139406000Y-81441591D01*
X140132047Y-82167638D01*
X140119000Y-82233229D01*
X140119000Y-82406771D01*
X140152856Y-82576978D01*
X140219268Y-82737310D01*
X140315682Y-82881605D01*
X140438395Y-83004318D01*
X140582690Y-83100732D01*
X140743022Y-83167144D01*
X140913229Y-83201000D01*
X141086771Y-83201000D01*
X141256978Y-83167144D01*
X141417310Y-83100732D01*
X141561605Y-83004318D01*
X141684318Y-82881605D01*
X141780732Y-82737310D01*
X141847144Y-82576978D01*
X141881000Y-82406771D01*
X141881000Y-82233229D01*
X141847144Y-82063022D01*
X141780732Y-81902690D01*
X141684318Y-81758395D01*
X141561605Y-81635682D01*
X141417310Y-81539268D01*
X141256978Y-81472856D01*
X141086771Y-81439000D01*
X140913229Y-81439000D01*
X140847638Y-81452047D01*
X140081000Y-80685409D01*
X140081000Y-80243078D01*
X142059000Y-80243078D01*
X142059000Y-80396922D01*
X142089013Y-80547809D01*
X142147887Y-80689942D01*
X142233358Y-80817859D01*
X142342141Y-80926642D01*
X142470058Y-81012113D01*
X142612191Y-81070987D01*
X142763078Y-81101000D01*
X142916922Y-81101000D01*
X143067809Y-81070987D01*
X143209942Y-81012113D01*
X143337859Y-80926642D01*
X143446642Y-80817859D01*
X143532113Y-80689942D01*
X143590987Y-80547809D01*
X143621000Y-80396922D01*
X143621000Y-80243078D01*
X143590987Y-80092191D01*
X143532113Y-79950058D01*
X143446642Y-79822141D01*
X143337859Y-79713358D01*
X143209942Y-79627887D01*
X143067809Y-79569013D01*
X142916922Y-79539000D01*
X142763078Y-79539000D01*
X142612191Y-79569013D01*
X142470058Y-79627887D01*
X142342141Y-79713358D01*
X142233358Y-79822141D01*
X142147887Y-79950058D01*
X142089013Y-80092191D01*
X142059000Y-80243078D01*
X140081000Y-80243078D01*
X140081000Y-79698501D01*
X140181642Y-79597859D01*
X140267113Y-79469942D01*
X140325987Y-79327809D01*
X140356000Y-79176922D01*
X140356000Y-79034591D01*
X141015221Y-78375371D01*
X141034528Y-78359526D01*
X141097760Y-78282478D01*
X141144746Y-78194574D01*
X141171050Y-78107859D01*
X141173679Y-78099193D01*
X141176251Y-78073078D01*
X141181001Y-78024853D01*
X141181001Y-78024846D01*
X141183448Y-78000000D01*
X141181001Y-77975154D01*
X141181001Y-75793369D01*
X142067553Y-76679922D01*
X142089013Y-76787809D01*
X142147887Y-76929942D01*
X142233358Y-77057859D01*
X142342141Y-77166642D01*
X142470058Y-77252113D01*
X142612191Y-77310987D01*
X142763078Y-77341000D01*
X142916922Y-77341000D01*
X143067809Y-77310987D01*
X143209942Y-77252113D01*
X143337859Y-77166642D01*
X143446642Y-77057859D01*
X143532113Y-76929942D01*
X143590987Y-76787809D01*
X143621000Y-76636922D01*
X143621000Y-76483078D01*
X143590987Y-76332191D01*
X143532113Y-76190058D01*
X143446642Y-76062141D01*
X143337859Y-75953358D01*
X143209942Y-75867887D01*
X143067809Y-75809013D01*
X142959922Y-75787553D01*
X142430650Y-75258281D01*
X142470058Y-75284613D01*
X142612191Y-75343487D01*
X142763078Y-75373500D01*
X142916922Y-75373500D01*
X143067809Y-75343487D01*
X143209942Y-75284613D01*
X143337859Y-75199142D01*
X143438501Y-75098500D01*
X145932654Y-75098500D01*
X145957500Y-75100947D01*
X145982346Y-75098500D01*
X145982354Y-75098500D01*
X146056693Y-75091178D01*
X146152075Y-75062245D01*
X146239979Y-75015259D01*
X146303377Y-74963229D01*
X154179000Y-74963229D01*
X154179000Y-75136771D01*
X154212856Y-75306978D01*
X154279268Y-75467310D01*
X154375682Y-75611605D01*
X154498395Y-75734318D01*
X154642690Y-75830732D01*
X154803022Y-75897144D01*
X154973229Y-75931000D01*
X155146771Y-75931000D01*
X155316978Y-75897144D01*
X155477310Y-75830732D01*
X155621605Y-75734318D01*
X155744318Y-75611605D01*
X155840732Y-75467310D01*
X155907144Y-75306978D01*
X155941000Y-75136771D01*
X155941000Y-74963229D01*
X155907144Y-74793022D01*
X155840732Y-74632690D01*
X155744318Y-74488395D01*
X155621605Y-74365682D01*
X155477310Y-74269268D01*
X155316978Y-74202856D01*
X155146771Y-74169000D01*
X154973229Y-74169000D01*
X154803022Y-74202856D01*
X154642690Y-74269268D01*
X154498395Y-74365682D01*
X154375682Y-74488395D01*
X154279268Y-74632690D01*
X154212856Y-74793022D01*
X154179000Y-74963229D01*
X146303377Y-74963229D01*
X146317027Y-74952027D01*
X146332876Y-74932715D01*
X149742513Y-71523078D01*
X156131500Y-71523078D01*
X156131500Y-71676922D01*
X156161513Y-71827809D01*
X156220387Y-71969942D01*
X156305858Y-72097859D01*
X156414641Y-72206642D01*
X156542558Y-72292113D01*
X156684691Y-72350987D01*
X156835578Y-72381000D01*
X156989422Y-72381000D01*
X157140309Y-72350987D01*
X157282442Y-72292113D01*
X157410359Y-72206642D01*
X157519142Y-72097859D01*
X157604613Y-71969942D01*
X157663487Y-71827809D01*
X157693500Y-71676922D01*
X157693500Y-71523078D01*
X157663487Y-71372191D01*
X157604613Y-71230058D01*
X157543500Y-71138595D01*
X157543500Y-68252366D01*
X158407619Y-67388248D01*
X158469001Y-67480113D01*
X158469000Y-70919010D01*
X158465948Y-70950000D01*
X158469000Y-70980990D01*
X158469000Y-70980997D01*
X158478130Y-71073697D01*
X158514211Y-71192641D01*
X158572804Y-71302260D01*
X158651657Y-71398343D01*
X158675737Y-71418105D01*
X160377553Y-73119922D01*
X160399013Y-73227809D01*
X160457887Y-73369942D01*
X160543358Y-73497859D01*
X160652141Y-73606642D01*
X160780058Y-73692113D01*
X160922191Y-73750987D01*
X161073078Y-73781000D01*
X161226922Y-73781000D01*
X161377809Y-73750987D01*
X161519942Y-73692113D01*
X161647859Y-73606642D01*
X161756642Y-73497859D01*
X161842113Y-73369942D01*
X161900987Y-73227809D01*
X161931000Y-73076922D01*
X161931000Y-72923078D01*
X161900987Y-72772191D01*
X161842113Y-72630058D01*
X161756642Y-72502141D01*
X161647859Y-72393358D01*
X161519942Y-72307887D01*
X161377809Y-72249013D01*
X161269922Y-72227553D01*
X160973369Y-71931000D01*
X161076922Y-71931000D01*
X161227809Y-71900987D01*
X161369942Y-71842113D01*
X161497859Y-71756642D01*
X161606642Y-71647859D01*
X161692113Y-71519942D01*
X161750987Y-71377809D01*
X161781000Y-71226922D01*
X161781000Y-71073078D01*
X161750987Y-70922191D01*
X161692113Y-70780058D01*
X161606642Y-70652141D01*
X161497859Y-70543358D01*
X161369942Y-70457887D01*
X161227809Y-70399013D01*
X161076922Y-70369000D01*
X160923078Y-70369000D01*
X160772191Y-70399013D01*
X160630058Y-70457887D01*
X160502141Y-70543358D01*
X160393358Y-70652141D01*
X160307887Y-70780058D01*
X160249013Y-70922191D01*
X160219000Y-71073078D01*
X160219000Y-71176632D01*
X159731000Y-70688632D01*
X159731000Y-67442697D01*
X159779613Y-67369942D01*
X159838487Y-67227809D01*
X159868500Y-67076922D01*
X159868500Y-66923078D01*
X160131500Y-66923078D01*
X160131500Y-67076922D01*
X160161513Y-67227809D01*
X160220387Y-67369942D01*
X160305858Y-67497859D01*
X160414641Y-67606642D01*
X160542558Y-67692113D01*
X160684691Y-67750987D01*
X160835578Y-67781000D01*
X160989422Y-67781000D01*
X161140309Y-67750987D01*
X161282442Y-67692113D01*
X161410359Y-67606642D01*
X161519142Y-67497859D01*
X161604613Y-67369942D01*
X161663487Y-67227809D01*
X161693500Y-67076922D01*
X161693500Y-66923078D01*
X161663487Y-66772191D01*
X161604613Y-66630058D01*
X161519142Y-66502141D01*
X161410359Y-66393358D01*
X161282442Y-66307887D01*
X161140309Y-66249013D01*
X160989422Y-66219000D01*
X160835578Y-66219000D01*
X160684691Y-66249013D01*
X160542558Y-66307887D01*
X160414641Y-66393358D01*
X160305858Y-66502141D01*
X160220387Y-66630058D01*
X160161513Y-66772191D01*
X160131500Y-66923078D01*
X159868500Y-66923078D01*
X159838487Y-66772191D01*
X159779613Y-66630058D01*
X159694142Y-66502141D01*
X159585359Y-66393358D01*
X159475748Y-66320119D01*
X160472789Y-65323078D01*
X163769000Y-65323078D01*
X163769000Y-65476922D01*
X163799013Y-65627809D01*
X163857887Y-65769942D01*
X163943358Y-65897859D01*
X164052141Y-66006642D01*
X164180058Y-66092113D01*
X164322191Y-66150987D01*
X164473078Y-66181000D01*
X164626922Y-66181000D01*
X164777809Y-66150987D01*
X164919942Y-66092113D01*
X165047859Y-66006642D01*
X165156642Y-65897859D01*
X165242113Y-65769942D01*
X165300987Y-65627809D01*
X165331000Y-65476922D01*
X165331000Y-65323078D01*
X165300987Y-65172191D01*
X165242113Y-65030058D01*
X165156642Y-64902141D01*
X165047859Y-64793358D01*
X164919942Y-64707887D01*
X164777809Y-64649013D01*
X164626922Y-64619000D01*
X164473078Y-64619000D01*
X164322191Y-64649013D01*
X164180058Y-64707887D01*
X164052141Y-64793358D01*
X163943358Y-64902141D01*
X163857887Y-65030058D01*
X163799013Y-65172191D01*
X163769000Y-65323078D01*
X160472789Y-65323078D01*
X160494269Y-65301598D01*
X160518343Y-65281841D01*
X160597196Y-65185759D01*
X160655789Y-65076140D01*
X160691870Y-64957196D01*
X160701000Y-64864496D01*
X160701000Y-64864487D01*
X160704052Y-64833499D01*
X160701000Y-64802511D01*
X160701000Y-64554231D01*
X160835578Y-64581000D01*
X160989422Y-64581000D01*
X161140309Y-64550987D01*
X161282442Y-64492113D01*
X161410359Y-64406642D01*
X161519142Y-64297859D01*
X161604613Y-64169942D01*
X161663487Y-64027809D01*
X161693500Y-63876922D01*
X161693500Y-63723078D01*
X161663487Y-63572191D01*
X161604613Y-63430058D01*
X161519142Y-63302141D01*
X161410359Y-63193358D01*
X161282442Y-63107887D01*
X161140309Y-63049013D01*
X160989422Y-63019000D01*
X160835578Y-63019000D01*
X160701000Y-63045769D01*
X160701000Y-59590987D01*
X160704052Y-59559999D01*
X160701000Y-59529011D01*
X160701000Y-59529002D01*
X160691870Y-59436302D01*
X160655789Y-59317358D01*
X160597196Y-59207739D01*
X160518343Y-59111657D01*
X160494268Y-59091899D01*
X159862447Y-58460079D01*
X159840987Y-58352191D01*
X159782113Y-58210058D01*
X159696642Y-58082141D01*
X159587859Y-57973358D01*
X159459942Y-57887887D01*
X159317809Y-57829013D01*
X159166922Y-57799000D01*
X159013078Y-57799000D01*
X158862191Y-57829013D01*
X158720058Y-57887887D01*
X158592141Y-57973358D01*
X158483358Y-58082141D01*
X158397887Y-58210058D01*
X158339013Y-58352191D01*
X158309000Y-58503078D01*
X158309000Y-58656922D01*
X158339013Y-58807809D01*
X158397887Y-58949942D01*
X158483358Y-59077859D01*
X158592141Y-59186642D01*
X158720058Y-59272113D01*
X158862191Y-59330987D01*
X158970079Y-59352447D01*
X159439001Y-59821370D01*
X159439000Y-64572129D01*
X156488233Y-67522897D01*
X156464158Y-67542655D01*
X156444400Y-67566730D01*
X156444397Y-67566733D01*
X156385304Y-67638738D01*
X156326711Y-67748357D01*
X156290630Y-67867301D01*
X156278448Y-67990998D01*
X156281501Y-68021998D01*
X156281500Y-71138595D01*
X156220387Y-71230058D01*
X156161513Y-71372191D01*
X156131500Y-71523078D01*
X149742513Y-71523078D01*
X151542513Y-69723078D01*
X154381500Y-69723078D01*
X154381500Y-69876922D01*
X154411513Y-70027809D01*
X154470387Y-70169942D01*
X154555858Y-70297859D01*
X154664641Y-70406642D01*
X154792558Y-70492113D01*
X154934691Y-70550987D01*
X155085578Y-70581000D01*
X155239422Y-70581000D01*
X155390309Y-70550987D01*
X155532442Y-70492113D01*
X155660359Y-70406642D01*
X155769142Y-70297859D01*
X155854613Y-70169942D01*
X155913487Y-70027809D01*
X155943500Y-69876922D01*
X155943500Y-69723078D01*
X155913487Y-69572191D01*
X155854613Y-69430058D01*
X155824626Y-69385179D01*
X155824626Y-67372896D01*
X155885739Y-67281433D01*
X155944613Y-67139300D01*
X155974626Y-66988413D01*
X155974626Y-66834569D01*
X155944613Y-66683682D01*
X155885739Y-66541549D01*
X155800268Y-66413632D01*
X155691485Y-66304849D01*
X155563568Y-66219378D01*
X155421435Y-66160504D01*
X155270548Y-66130491D01*
X155116704Y-66130491D01*
X154965817Y-66160504D01*
X154823684Y-66219378D01*
X154695767Y-66304849D01*
X154586984Y-66413632D01*
X154501513Y-66541549D01*
X154442639Y-66683682D01*
X154412626Y-66834569D01*
X154412626Y-66988413D01*
X154442639Y-67139300D01*
X154501513Y-67281433D01*
X154562626Y-67372896D01*
X154562627Y-69295372D01*
X154555858Y-69302141D01*
X154470387Y-69430058D01*
X154411513Y-69572191D01*
X154381500Y-69723078D01*
X151542513Y-69723078D01*
X152834592Y-68431000D01*
X152976922Y-68431000D01*
X153127809Y-68400987D01*
X153269942Y-68342113D01*
X153397859Y-68256642D01*
X153506642Y-68147859D01*
X153592113Y-68019942D01*
X153650987Y-67877809D01*
X153681000Y-67726922D01*
X153681000Y-67573078D01*
X153650987Y-67422191D01*
X153592113Y-67280058D01*
X153506642Y-67152141D01*
X153397859Y-67043358D01*
X153342935Y-67006659D01*
X153387859Y-66976642D01*
X153496642Y-66867859D01*
X153582113Y-66739942D01*
X153640987Y-66597809D01*
X153671000Y-66446922D01*
X153671000Y-66293078D01*
X153640987Y-66142191D01*
X153582113Y-66000058D01*
X153496642Y-65872141D01*
X153387859Y-65763358D01*
X153259942Y-65677887D01*
X153117809Y-65619013D01*
X152966922Y-65589000D01*
X152813078Y-65589000D01*
X152662191Y-65619013D01*
X152520058Y-65677887D01*
X152392141Y-65763358D01*
X152283358Y-65872141D01*
X152197887Y-66000058D01*
X152139013Y-66142191D01*
X152109000Y-66293078D01*
X152109000Y-66435408D01*
X145657909Y-72886500D01*
X144968501Y-72886500D01*
X144867859Y-72785858D01*
X144739942Y-72700387D01*
X144597809Y-72641513D01*
X144446922Y-72611500D01*
X144293078Y-72611500D01*
X144142191Y-72641513D01*
X144000058Y-72700387D01*
X143872141Y-72785858D01*
X143763358Y-72894641D01*
X143677887Y-73022558D01*
X143619013Y-73164691D01*
X143589000Y-73315578D01*
X143589000Y-73469422D01*
X143619013Y-73620309D01*
X143677887Y-73762442D01*
X143763358Y-73890359D01*
X143872141Y-73999142D01*
X144000058Y-74084613D01*
X144004614Y-74086500D01*
X143438501Y-74086500D01*
X143337859Y-73985858D01*
X143209942Y-73900387D01*
X143067809Y-73841513D01*
X142916922Y-73811500D01*
X142763078Y-73811500D01*
X142612191Y-73841513D01*
X142470058Y-73900387D01*
X142342141Y-73985858D01*
X142233358Y-74094641D01*
X142147887Y-74222558D01*
X142089013Y-74364691D01*
X142059000Y-74515578D01*
X142059000Y-74669422D01*
X142089013Y-74820309D01*
X142147887Y-74962442D01*
X142174219Y-75001851D01*
X141981000Y-74808632D01*
X141981000Y-71629567D01*
X142053358Y-71737859D01*
X142162141Y-71846642D01*
X142290058Y-71932113D01*
X142432191Y-71990987D01*
X142583078Y-72021000D01*
X142583252Y-72021000D01*
X142470058Y-72067887D01*
X142342141Y-72153358D01*
X142233358Y-72262141D01*
X142147887Y-72390058D01*
X142089013Y-72532191D01*
X142059000Y-72683078D01*
X142059000Y-72836922D01*
X142089013Y-72987809D01*
X142147887Y-73129942D01*
X142233358Y-73257859D01*
X142342141Y-73366642D01*
X142470058Y-73452113D01*
X142612191Y-73510987D01*
X142763078Y-73541000D01*
X142916922Y-73541000D01*
X143067809Y-73510987D01*
X143209942Y-73452113D01*
X143337859Y-73366642D01*
X143446642Y-73257859D01*
X143532113Y-73129942D01*
X143590987Y-72987809D01*
X143621000Y-72836922D01*
X143621000Y-72683078D01*
X143590987Y-72532191D01*
X143532113Y-72390058D01*
X143446642Y-72262141D01*
X143337859Y-72153358D01*
X143209942Y-72067887D01*
X143067809Y-72009013D01*
X142916922Y-71979000D01*
X142916748Y-71979000D01*
X143029942Y-71932113D01*
X143157859Y-71846642D01*
X143266642Y-71737859D01*
X143352113Y-71609942D01*
X143408804Y-71473078D01*
X143599000Y-71473078D01*
X143599000Y-71626922D01*
X143629013Y-71777809D01*
X143687887Y-71919942D01*
X143773358Y-72047859D01*
X143882141Y-72156642D01*
X144010058Y-72242113D01*
X144152191Y-72300987D01*
X144303078Y-72331000D01*
X144456922Y-72331000D01*
X144607809Y-72300987D01*
X144749942Y-72242113D01*
X144877859Y-72156642D01*
X144986642Y-72047859D01*
X145072113Y-71919942D01*
X145130987Y-71777809D01*
X145161000Y-71626922D01*
X145161000Y-71473078D01*
X145130987Y-71322191D01*
X145072113Y-71180058D01*
X144986642Y-71052141D01*
X144877859Y-70943358D01*
X144749942Y-70857887D01*
X144607809Y-70799013D01*
X144456922Y-70769000D01*
X144303078Y-70769000D01*
X144152191Y-70799013D01*
X144010058Y-70857887D01*
X143882141Y-70943358D01*
X143773358Y-71052141D01*
X143687887Y-71180058D01*
X143629013Y-71322191D01*
X143599000Y-71473078D01*
X143408804Y-71473078D01*
X143410987Y-71467809D01*
X143441000Y-71316922D01*
X143441000Y-71163078D01*
X143410987Y-71012191D01*
X143352113Y-70870058D01*
X143266642Y-70742141D01*
X143157859Y-70633358D01*
X143029942Y-70547887D01*
X142887809Y-70489013D01*
X142736922Y-70459000D01*
X142583078Y-70459000D01*
X142432191Y-70489013D01*
X142290058Y-70547887D01*
X142162141Y-70633358D01*
X142053358Y-70742141D01*
X141981000Y-70850433D01*
X141981000Y-69643229D01*
X143539000Y-69643229D01*
X143539000Y-69816771D01*
X143572856Y-69986978D01*
X143639268Y-70147310D01*
X143735682Y-70291605D01*
X143858395Y-70414318D01*
X144002690Y-70510732D01*
X144163022Y-70577144D01*
X144333229Y-70611000D01*
X144506771Y-70611000D01*
X144676978Y-70577144D01*
X144837310Y-70510732D01*
X144981605Y-70414318D01*
X145104318Y-70291605D01*
X145200732Y-70147310D01*
X145267144Y-69986978D01*
X145301000Y-69816771D01*
X145301000Y-69643229D01*
X145267144Y-69473022D01*
X145200732Y-69312690D01*
X145104318Y-69168395D01*
X144981605Y-69045682D01*
X144837310Y-68949268D01*
X144676978Y-68882856D01*
X144506771Y-68849000D01*
X144333229Y-68849000D01*
X144163022Y-68882856D01*
X144002690Y-68949268D01*
X143858395Y-69045682D01*
X143735682Y-69168395D01*
X143639268Y-69312690D01*
X143572856Y-69473022D01*
X143539000Y-69643229D01*
X141981000Y-69643229D01*
X141981000Y-67911405D01*
X142042113Y-67819942D01*
X142100987Y-67677809D01*
X142131000Y-67526922D01*
X142131000Y-67373078D01*
X142100987Y-67222191D01*
X142042113Y-67080058D01*
X141956642Y-66952141D01*
X141847859Y-66843358D01*
X141719942Y-66757887D01*
X141577809Y-66699013D01*
X141426922Y-66669000D01*
X141273078Y-66669000D01*
X141122191Y-66699013D01*
X140980058Y-66757887D01*
X140852141Y-66843358D01*
X140743358Y-66952141D01*
X140657887Y-67080058D01*
X140599013Y-67222191D01*
X140569000Y-67373078D01*
X140569000Y-67526922D01*
X140599013Y-67677809D01*
X140657887Y-67819942D01*
X140719001Y-67911406D01*
X140719001Y-68994407D01*
X140546000Y-68821407D01*
X140546000Y-59973319D01*
X147872900Y-67300220D01*
X147888745Y-67319527D01*
X147965793Y-67382759D01*
X148039565Y-67422191D01*
X148053697Y-67429745D01*
X148149079Y-67458678D01*
X148248272Y-67468448D01*
X148273126Y-67466000D01*
X149211499Y-67466000D01*
X149312141Y-67566642D01*
X149440058Y-67652113D01*
X149582191Y-67710987D01*
X149733078Y-67741000D01*
X149886922Y-67741000D01*
X150037809Y-67710987D01*
X150179942Y-67652113D01*
X150307859Y-67566642D01*
X150416642Y-67457859D01*
X150502113Y-67329942D01*
X150560987Y-67187809D01*
X150591000Y-67036922D01*
X150591000Y-66883078D01*
X150560987Y-66732191D01*
X150502113Y-66590058D01*
X150416642Y-66462141D01*
X150307859Y-66353358D01*
X150242935Y-66309977D01*
X150277859Y-66286642D01*
X150386642Y-66177859D01*
X150472113Y-66049942D01*
X150530987Y-65907809D01*
X150561000Y-65756922D01*
X150561000Y-65603078D01*
X150530987Y-65452191D01*
X150472113Y-65310058D01*
X150386642Y-65182141D01*
X150277859Y-65073358D01*
X150149942Y-64987887D01*
X150007809Y-64929013D01*
X149856922Y-64899000D01*
X149703078Y-64899000D01*
X149552191Y-64929013D01*
X149410058Y-64987887D01*
X149282141Y-65073358D01*
X149181499Y-65174000D01*
X147743563Y-65174000D01*
X144702792Y-62133229D01*
X148479000Y-62133229D01*
X148479000Y-62306771D01*
X148512856Y-62476978D01*
X148579268Y-62637310D01*
X148675682Y-62781605D01*
X148798395Y-62904318D01*
X148942690Y-63000732D01*
X149103022Y-63067144D01*
X149273229Y-63101000D01*
X149446771Y-63101000D01*
X149616978Y-63067144D01*
X149777310Y-63000732D01*
X149921605Y-62904318D01*
X150044318Y-62781605D01*
X150140732Y-62637310D01*
X150207144Y-62476978D01*
X150241000Y-62306771D01*
X150241000Y-62133229D01*
X150207144Y-61963022D01*
X150190599Y-61923078D01*
X157769000Y-61923078D01*
X157769000Y-62076922D01*
X157799013Y-62227809D01*
X157857887Y-62369942D01*
X157943358Y-62497859D01*
X158052141Y-62606642D01*
X158180058Y-62692113D01*
X158322191Y-62750987D01*
X158473078Y-62781000D01*
X158626922Y-62781000D01*
X158777809Y-62750987D01*
X158919942Y-62692113D01*
X159047859Y-62606642D01*
X159156642Y-62497859D01*
X159242113Y-62369942D01*
X159300987Y-62227809D01*
X159331000Y-62076922D01*
X159331000Y-61923078D01*
X159300987Y-61772191D01*
X159242113Y-61630058D01*
X159156642Y-61502141D01*
X159047859Y-61393358D01*
X158919942Y-61307887D01*
X158777809Y-61249013D01*
X158626922Y-61219000D01*
X158473078Y-61219000D01*
X158322191Y-61249013D01*
X158180058Y-61307887D01*
X158052141Y-61393358D01*
X157943358Y-61502141D01*
X157857887Y-61630058D01*
X157799013Y-61772191D01*
X157769000Y-61923078D01*
X150190599Y-61923078D01*
X150140732Y-61802690D01*
X150044318Y-61658395D01*
X149921605Y-61535682D01*
X149777310Y-61439268D01*
X149616978Y-61372856D01*
X149446771Y-61339000D01*
X149273229Y-61339000D01*
X149103022Y-61372856D01*
X148942690Y-61439268D01*
X148798395Y-61535682D01*
X148675682Y-61658395D01*
X148579268Y-61802690D01*
X148512856Y-61963022D01*
X148479000Y-62133229D01*
X144702792Y-62133229D01*
X143450562Y-60881000D01*
X152116730Y-60881000D01*
X152160000Y-60885262D01*
X152203270Y-60881000D01*
X152203273Y-60881000D01*
X152332706Y-60868252D01*
X152498775Y-60817875D01*
X152651825Y-60736068D01*
X152785975Y-60625975D01*
X152813566Y-60592355D01*
X154753559Y-58652363D01*
X154753564Y-58652357D01*
X167142360Y-46263562D01*
X167175974Y-46235976D01*
X167242903Y-46154422D01*
X167286067Y-46101827D01*
X167344044Y-45993358D01*
X167367874Y-45948776D01*
X167418251Y-45782707D01*
X167430999Y-45653274D01*
X167430999Y-45653272D01*
X167435261Y-45610002D01*
X167430999Y-45566732D01*
X167430999Y-42127000D01*
X168873000Y-42127000D01*
X168873000Y-62228961D01*
X168772191Y-62249013D01*
X168630058Y-62307887D01*
X168502141Y-62393358D01*
X168393358Y-62502141D01*
X168307887Y-62630058D01*
X168249013Y-62772191D01*
X168219000Y-62923078D01*
X168219000Y-63076922D01*
X168249013Y-63227809D01*
X168307887Y-63369942D01*
X168393358Y-63497859D01*
X168502141Y-63606642D01*
X168630058Y-63692113D01*
X168772191Y-63750987D01*
X168873000Y-63771039D01*
X168873000Y-95119000D01*
X144978924Y-95119000D01*
X128410502Y-78550578D01*
X132779000Y-78550578D01*
X132779000Y-78704422D01*
X132809013Y-78855309D01*
X132867887Y-78997442D01*
X132953358Y-79125359D01*
X133062141Y-79234142D01*
X133190058Y-79319613D01*
X133332191Y-79378487D01*
X133483078Y-79408500D01*
X133636922Y-79408500D01*
X133787809Y-79378487D01*
X133929942Y-79319613D01*
X134057859Y-79234142D01*
X134166642Y-79125359D01*
X134252113Y-78997442D01*
X134310987Y-78855309D01*
X134341000Y-78704422D01*
X134341000Y-78550578D01*
X134310987Y-78399691D01*
X134252113Y-78257558D01*
X134166642Y-78129641D01*
X134057859Y-78020858D01*
X133929942Y-77935387D01*
X133787809Y-77876513D01*
X133636922Y-77846500D01*
X133483078Y-77846500D01*
X133332191Y-77876513D01*
X133190058Y-77935387D01*
X133062141Y-78020858D01*
X132953358Y-78129641D01*
X132867887Y-78257558D01*
X132809013Y-78399691D01*
X132779000Y-78550578D01*
X128410502Y-78550578D01*
X126813002Y-76953078D01*
X130959000Y-76953078D01*
X130959000Y-77106922D01*
X130989013Y-77257809D01*
X131047887Y-77399942D01*
X131133358Y-77527859D01*
X131242141Y-77636642D01*
X131370058Y-77722113D01*
X131512191Y-77780987D01*
X131663078Y-77811000D01*
X131816922Y-77811000D01*
X131967809Y-77780987D01*
X132109942Y-77722113D01*
X132237859Y-77636642D01*
X132346642Y-77527859D01*
X132432113Y-77399942D01*
X132490987Y-77257809D01*
X132521000Y-77106922D01*
X132521000Y-76953078D01*
X132490987Y-76802191D01*
X132432113Y-76660058D01*
X132346642Y-76532141D01*
X132237859Y-76423358D01*
X132109942Y-76337887D01*
X131967809Y-76279013D01*
X131816922Y-76249000D01*
X131663078Y-76249000D01*
X131512191Y-76279013D01*
X131370058Y-76337887D01*
X131242141Y-76423358D01*
X131133358Y-76532141D01*
X131047887Y-76660058D01*
X130989013Y-76802191D01*
X130959000Y-76953078D01*
X126813002Y-76953078D01*
X125037568Y-75177645D01*
X125009977Y-75144025D01*
X124875827Y-75033932D01*
X124722777Y-74952125D01*
X124556708Y-74901748D01*
X124427275Y-74889000D01*
X124427272Y-74889000D01*
X124384002Y-74884738D01*
X124340732Y-74889000D01*
X122269790Y-74889000D01*
X122265487Y-74845311D01*
X122243701Y-74773492D01*
X122208322Y-74707304D01*
X122160711Y-74649289D01*
X122102696Y-74601678D01*
X122036508Y-74566299D01*
X121964689Y-74544513D01*
X121890000Y-74537157D01*
X120190000Y-74537157D01*
X120115311Y-74544513D01*
X120043492Y-74566299D01*
X119977304Y-74601678D01*
X119919289Y-74649289D01*
X119871678Y-74707304D01*
X119836299Y-74773492D01*
X119814513Y-74845311D01*
X119807157Y-74920000D01*
X119807157Y-76620000D01*
X119814513Y-76694689D01*
X119836299Y-76766508D01*
X119871678Y-76832696D01*
X119919289Y-76890711D01*
X119977304Y-76938322D01*
X120043492Y-76973701D01*
X120115311Y-76995487D01*
X120190000Y-77002843D01*
X121890000Y-77002843D01*
X121964689Y-76995487D01*
X122036508Y-76973701D01*
X122102696Y-76938322D01*
X122160711Y-76890711D01*
X122208322Y-76832696D01*
X122243701Y-76766508D01*
X122265487Y-76694689D01*
X122269790Y-76651000D01*
X124019081Y-76651000D01*
X124261612Y-76893531D01*
X124142141Y-76973358D01*
X124055000Y-77060499D01*
X123997859Y-77003358D01*
X123869942Y-76917887D01*
X123727809Y-76859013D01*
X123576922Y-76829000D01*
X123423078Y-76829000D01*
X123272191Y-76859013D01*
X123130058Y-76917887D01*
X123002141Y-77003358D01*
X122893358Y-77112141D01*
X122807887Y-77240058D01*
X122749013Y-77382191D01*
X122719000Y-77533078D01*
X122719000Y-77675409D01*
X122590409Y-77804000D01*
X122162832Y-77804000D01*
X122130898Y-77726903D01*
X121996180Y-77525283D01*
X121824717Y-77353820D01*
X121623097Y-77219102D01*
X121399069Y-77126307D01*
X121161243Y-77079000D01*
X120918757Y-77079000D01*
X120680931Y-77126307D01*
X120456903Y-77219102D01*
X120255283Y-77353820D01*
X120083820Y-77525283D01*
X119949102Y-77726903D01*
X119856307Y-77950931D01*
X119809000Y-78188757D01*
X119809000Y-78431243D01*
X119856307Y-78669069D01*
X119949102Y-78893097D01*
X120083820Y-79094717D01*
X120255283Y-79266180D01*
X120456903Y-79400898D01*
X120680931Y-79493693D01*
X120918757Y-79541000D01*
X121161243Y-79541000D01*
X121399069Y-79493693D01*
X121623097Y-79400898D01*
X121824717Y-79266180D01*
X121996180Y-79094717D01*
X122130898Y-78893097D01*
X122162832Y-78816000D01*
X122688408Y-78816000D01*
X121696356Y-79808052D01*
X121623097Y-79759102D01*
X121399069Y-79666307D01*
X121161243Y-79619000D01*
X120918757Y-79619000D01*
X120680931Y-79666307D01*
X120456903Y-79759102D01*
X120255283Y-79893820D01*
X120083820Y-80065283D01*
X119949102Y-80266903D01*
X119856307Y-80490931D01*
X119809000Y-80728757D01*
X119809000Y-80971243D01*
X119856307Y-81209069D01*
X119949102Y-81433097D01*
X120083820Y-81634717D01*
X120255283Y-81806180D01*
X120456903Y-81940898D01*
X120680931Y-82033693D01*
X120918757Y-82081000D01*
X121161243Y-82081000D01*
X121399069Y-82033693D01*
X121623097Y-81940898D01*
X121824717Y-81806180D01*
X121996180Y-81634717D01*
X122130898Y-81433097D01*
X122223693Y-81209069D01*
X122271000Y-80971243D01*
X122271000Y-80728757D01*
X122260354Y-80675237D01*
X124574592Y-78361000D01*
X124716922Y-78361000D01*
X124867809Y-78330987D01*
X125009942Y-78272113D01*
X125137859Y-78186642D01*
X125246642Y-78077859D01*
X125326469Y-77958388D01*
X143960441Y-96592361D01*
X143961786Y-96594000D01*
X122019854Y-96594000D01*
X121496536Y-96542688D01*
X121012244Y-96396472D01*
X120565578Y-96158975D01*
X120173550Y-95839245D01*
X119851090Y-95449458D01*
X119610482Y-95004460D01*
X119460889Y-94521205D01*
X119406000Y-93998971D01*
X119406000Y-83268757D01*
X119809000Y-83268757D01*
X119809000Y-83511243D01*
X119856307Y-83749069D01*
X119949102Y-83973097D01*
X120083820Y-84174717D01*
X120255283Y-84346180D01*
X120456903Y-84480898D01*
X120680931Y-84573693D01*
X120918757Y-84621000D01*
X121161243Y-84621000D01*
X121399069Y-84573693D01*
X121623097Y-84480898D01*
X121824717Y-84346180D01*
X121996180Y-84174717D01*
X122130898Y-83973097D01*
X122223693Y-83749069D01*
X122271000Y-83511243D01*
X122271000Y-83268757D01*
X122223693Y-83030931D01*
X122130898Y-82806903D01*
X121996180Y-82605283D01*
X121824717Y-82433820D01*
X121623097Y-82299102D01*
X121399069Y-82206307D01*
X121161243Y-82159000D01*
X120918757Y-82159000D01*
X120680931Y-82206307D01*
X120456903Y-82299102D01*
X120255283Y-82433820D01*
X120083820Y-82605283D01*
X119949102Y-82806903D01*
X119856307Y-83030931D01*
X119809000Y-83268757D01*
X119406000Y-83268757D01*
X119406000Y-72023229D01*
X119919000Y-72023229D01*
X119919000Y-72196771D01*
X119952856Y-72366978D01*
X120019268Y-72527310D01*
X120115682Y-72671605D01*
X120238395Y-72794318D01*
X120382690Y-72890732D01*
X120543022Y-72957144D01*
X120713229Y-72991000D01*
X120886771Y-72991000D01*
X121056978Y-72957144D01*
X121217310Y-72890732D01*
X121361605Y-72794318D01*
X121484318Y-72671605D01*
X121580732Y-72527310D01*
X121647144Y-72366978D01*
X121681000Y-72196771D01*
X121681000Y-72023229D01*
X121647144Y-71853022D01*
X121580732Y-71692690D01*
X121484318Y-71548395D01*
X121361605Y-71425682D01*
X121217310Y-71329268D01*
X121056978Y-71262856D01*
X120886771Y-71229000D01*
X120713229Y-71229000D01*
X120543022Y-71262856D01*
X120382690Y-71329268D01*
X120238395Y-71425682D01*
X120115682Y-71548395D01*
X120019268Y-71692690D01*
X119952856Y-71853022D01*
X119919000Y-72023229D01*
X119406000Y-72023229D01*
X119406000Y-68417424D01*
X119667000Y-68417424D01*
X119667000Y-68642576D01*
X119710925Y-68863401D01*
X119797087Y-69071413D01*
X119922174Y-69258620D01*
X120081380Y-69417826D01*
X120268587Y-69542913D01*
X120476599Y-69629075D01*
X120697424Y-69673000D01*
X120922576Y-69673000D01*
X121143401Y-69629075D01*
X121351413Y-69542913D01*
X121538620Y-69417826D01*
X121697826Y-69258620D01*
X121822913Y-69071413D01*
X121909075Y-68863401D01*
X121953000Y-68642576D01*
X121953000Y-68417424D01*
X121909075Y-68196599D01*
X121822913Y-67988587D01*
X121697826Y-67801380D01*
X121538620Y-67642174D01*
X121351413Y-67517087D01*
X121143401Y-67430925D01*
X120922576Y-67387000D01*
X120697424Y-67387000D01*
X120476599Y-67430925D01*
X120268587Y-67517087D01*
X120081380Y-67642174D01*
X119922174Y-67801380D01*
X119797087Y-67988587D01*
X119710925Y-68196599D01*
X119667000Y-68417424D01*
X119406000Y-68417424D01*
X119406000Y-50733229D01*
X128159000Y-50733229D01*
X128159000Y-50906771D01*
X128192856Y-51076978D01*
X128259268Y-51237310D01*
X128355682Y-51381605D01*
X128478395Y-51504318D01*
X128622690Y-51600732D01*
X128783022Y-51667144D01*
X128953229Y-51701000D01*
X129126771Y-51701000D01*
X129296978Y-51667144D01*
X129457310Y-51600732D01*
X129601605Y-51504318D01*
X129724318Y-51381605D01*
X129820732Y-51237310D01*
X129887144Y-51076978D01*
X129921000Y-50906771D01*
X129921000Y-50733229D01*
X129887144Y-50563022D01*
X129820732Y-50402690D01*
X129724318Y-50258395D01*
X129623347Y-50157424D01*
X131857000Y-50157424D01*
X131857000Y-50382576D01*
X131900925Y-50603401D01*
X131987087Y-50811413D01*
X132112174Y-50998620D01*
X132271380Y-51157826D01*
X132458587Y-51282913D01*
X132666599Y-51369075D01*
X132887424Y-51413000D01*
X133112576Y-51413000D01*
X133333401Y-51369075D01*
X133541413Y-51282913D01*
X133728620Y-51157826D01*
X133887826Y-50998620D01*
X134012913Y-50811413D01*
X134099075Y-50603401D01*
X134143000Y-50382576D01*
X134143000Y-50157424D01*
X134099075Y-49936599D01*
X134012913Y-49728587D01*
X133887826Y-49541380D01*
X133728620Y-49382174D01*
X133541413Y-49257087D01*
X133333401Y-49170925D01*
X133112576Y-49127000D01*
X132887424Y-49127000D01*
X132666599Y-49170925D01*
X132458587Y-49257087D01*
X132271380Y-49382174D01*
X132112174Y-49541380D01*
X131987087Y-49728587D01*
X131900925Y-49936599D01*
X131857000Y-50157424D01*
X129623347Y-50157424D01*
X129601605Y-50135682D01*
X129457310Y-50039268D01*
X129296978Y-49972856D01*
X129126771Y-49939000D01*
X128953229Y-49939000D01*
X128783022Y-49972856D01*
X128622690Y-50039268D01*
X128478395Y-50135682D01*
X128355682Y-50258395D01*
X128259268Y-50402690D01*
X128192856Y-50563022D01*
X128159000Y-50733229D01*
X119406000Y-50733229D01*
X119406000Y-47617424D01*
X131857000Y-47617424D01*
X131857000Y-47842576D01*
X131900925Y-48063401D01*
X131987087Y-48271413D01*
X132112174Y-48458620D01*
X132271380Y-48617826D01*
X132458587Y-48742913D01*
X132666599Y-48829075D01*
X132887424Y-48873000D01*
X133112576Y-48873000D01*
X133333401Y-48829075D01*
X133541413Y-48742913D01*
X133728620Y-48617826D01*
X133887826Y-48458620D01*
X134012913Y-48271413D01*
X134099075Y-48063401D01*
X134143000Y-47842576D01*
X134143000Y-47617424D01*
X134099075Y-47396599D01*
X134012913Y-47188587D01*
X133887826Y-47001380D01*
X133728620Y-46842174D01*
X133541413Y-46717087D01*
X133333401Y-46630925D01*
X133112576Y-46587000D01*
X132887424Y-46587000D01*
X132666599Y-46630925D01*
X132458587Y-46717087D01*
X132271380Y-46842174D01*
X132112174Y-47001380D01*
X131987087Y-47188587D01*
X131900925Y-47396599D01*
X131857000Y-47617424D01*
X119406000Y-47617424D01*
X119406000Y-46357424D01*
X128457000Y-46357424D01*
X128457000Y-46582576D01*
X128500925Y-46803401D01*
X128587087Y-47011413D01*
X128712174Y-47198620D01*
X128871380Y-47357826D01*
X129058587Y-47482913D01*
X129266599Y-47569075D01*
X129487424Y-47613000D01*
X129712576Y-47613000D01*
X129933401Y-47569075D01*
X130141413Y-47482913D01*
X130328620Y-47357826D01*
X130487826Y-47198620D01*
X130612913Y-47011413D01*
X130699075Y-46803401D01*
X130743000Y-46582576D01*
X130743000Y-46357424D01*
X130699075Y-46136599D01*
X130612913Y-45928587D01*
X130487826Y-45741380D01*
X130328620Y-45582174D01*
X130141413Y-45457087D01*
X129933401Y-45370925D01*
X129712576Y-45327000D01*
X129487424Y-45327000D01*
X129266599Y-45370925D01*
X129058587Y-45457087D01*
X128871380Y-45582174D01*
X128712174Y-45741380D01*
X128587087Y-45928587D01*
X128500925Y-46136599D01*
X128457000Y-46357424D01*
X119406000Y-46357424D01*
X119406000Y-43817424D01*
X128457000Y-43817424D01*
X128457000Y-44042576D01*
X128500925Y-44263401D01*
X128587087Y-44471413D01*
X128712174Y-44658620D01*
X128871380Y-44817826D01*
X129058587Y-44942913D01*
X129266599Y-45029075D01*
X129487424Y-45073000D01*
X129712576Y-45073000D01*
X129933401Y-45029075D01*
X130141413Y-44942913D01*
X130328620Y-44817826D01*
X130487826Y-44658620D01*
X130612913Y-44471413D01*
X130699075Y-44263401D01*
X130743000Y-44042576D01*
X130743000Y-43817424D01*
X130699075Y-43596599D01*
X130612913Y-43388587D01*
X130487826Y-43201380D01*
X130328620Y-43042174D01*
X130141413Y-42917087D01*
X129933401Y-42830925D01*
X129712576Y-42787000D01*
X129487424Y-42787000D01*
X129266599Y-42830925D01*
X129058587Y-42917087D01*
X128871380Y-43042174D01*
X128712174Y-43201380D01*
X128587087Y-43388587D01*
X128500925Y-43596599D01*
X128457000Y-43817424D01*
X119406000Y-43817424D01*
X119406000Y-40127000D01*
X132186554Y-40127000D01*
X132112174Y-40201380D01*
%TA.AperFunction,Conductor*%
D28*
G36*
X132112174Y-40201380D02*
G01*
X131987087Y-40388587D01*
X131900925Y-40596599D01*
X131857000Y-40817424D01*
X131857000Y-41042576D01*
X131900925Y-41263401D01*
X131987087Y-41471413D01*
X132112174Y-41658620D01*
X132271380Y-41817826D01*
X132458587Y-41942913D01*
X132666599Y-42029075D01*
X132887424Y-42073000D01*
X133112576Y-42073000D01*
X133333401Y-42029075D01*
X133541413Y-41942913D01*
X133728620Y-41817826D01*
X133887826Y-41658620D01*
X134012913Y-41471413D01*
X134099075Y-41263401D01*
X134143000Y-41042576D01*
X134143000Y-40817424D01*
X134099075Y-40596599D01*
X134012913Y-40388587D01*
X133887826Y-40201380D01*
X133813446Y-40127000D01*
X140154000Y-40127000D01*
X140154000Y-41185154D01*
X140151553Y-41210000D01*
X140154000Y-41234846D01*
X140154000Y-41234853D01*
X140161322Y-41309192D01*
X140190255Y-41404574D01*
X140237241Y-41492479D01*
X140300473Y-41569527D01*
X140319785Y-41585376D01*
X141422468Y-42688060D01*
X141376922Y-42679000D01*
X141223078Y-42679000D01*
X141072191Y-42709013D01*
X140930058Y-42767887D01*
X140802141Y-42853358D01*
X140693358Y-42962141D01*
X140607887Y-43090058D01*
X140549013Y-43232191D01*
X140519000Y-43383078D01*
X140519000Y-43414499D01*
X140497859Y-43393358D01*
X140369942Y-43307887D01*
X140227809Y-43249013D01*
X140076922Y-43219000D01*
X139923078Y-43219000D01*
X139772191Y-43249013D01*
X139630058Y-43307887D01*
X139502141Y-43393358D01*
X139393358Y-43502141D01*
X139307887Y-43630058D01*
X139249013Y-43772191D01*
X139219000Y-43923078D01*
X139219000Y-44076922D01*
X139249013Y-44227809D01*
X139307887Y-44369942D01*
X139393358Y-44497859D01*
X139502141Y-44606642D01*
X139528100Y-44623987D01*
X139523924Y-44625254D01*
X139436020Y-44672240D01*
X139358972Y-44735472D01*
X139343127Y-44754779D01*
X136922285Y-47175622D01*
X136902973Y-47191471D01*
X136839741Y-47268519D01*
X136792755Y-47356424D01*
X136763822Y-47451806D01*
X136756500Y-47526145D01*
X136756500Y-47526152D01*
X136754053Y-47550998D01*
X136756500Y-47575844D01*
X136756501Y-51351498D01*
X136655858Y-51452141D01*
X136570387Y-51580058D01*
X136536000Y-51663075D01*
X136536000Y-44408501D01*
X136636642Y-44307859D01*
X136722113Y-44179942D01*
X136780987Y-44037809D01*
X136811000Y-43886922D01*
X136811000Y-43733078D01*
X136780987Y-43582191D01*
X136722113Y-43440058D01*
X136636642Y-43312141D01*
X136527859Y-43203358D01*
X136399942Y-43117887D01*
X136257809Y-43059013D01*
X136232558Y-43053990D01*
X136266978Y-43047144D01*
X136427310Y-42980732D01*
X136571605Y-42884318D01*
X136694318Y-42761605D01*
X136790732Y-42617310D01*
X136857144Y-42456978D01*
X136891000Y-42286771D01*
X136891000Y-42113229D01*
X136857144Y-41943022D01*
X136790732Y-41782690D01*
X136694318Y-41638395D01*
X136571605Y-41515682D01*
X136427310Y-41419268D01*
X136266978Y-41352856D01*
X136096771Y-41319000D01*
X135923229Y-41319000D01*
X135753022Y-41352856D01*
X135592690Y-41419268D01*
X135448395Y-41515682D01*
X135325682Y-41638395D01*
X135229268Y-41782690D01*
X135162856Y-41943022D01*
X135129000Y-42113229D01*
X135129000Y-42286771D01*
X135162856Y-42456978D01*
X135229268Y-42617310D01*
X135325682Y-42761605D01*
X135448395Y-42884318D01*
X135592690Y-42980732D01*
X135753022Y-43047144D01*
X135807441Y-43057969D01*
X135802191Y-43059013D01*
X135660058Y-43117887D01*
X135532141Y-43203358D01*
X135423358Y-43312141D01*
X135337887Y-43440058D01*
X135279013Y-43582191D01*
X135249000Y-43733078D01*
X135249000Y-43886922D01*
X135279013Y-44037809D01*
X135337887Y-44179942D01*
X135423358Y-44307859D01*
X135524000Y-44408501D01*
X135524001Y-65623409D01*
X124156000Y-54255409D01*
X124156000Y-54113078D01*
X124125987Y-53962191D01*
X124067113Y-53820058D01*
X123981642Y-53692141D01*
X123872859Y-53583358D01*
X123744942Y-53497887D01*
X123602809Y-53439013D01*
X123451922Y-53409000D01*
X123298078Y-53409000D01*
X123147191Y-53439013D01*
X123005058Y-53497887D01*
X122877141Y-53583358D01*
X122768358Y-53692141D01*
X122682887Y-53820058D01*
X122624013Y-53962191D01*
X122594000Y-54113078D01*
X122594000Y-54266922D01*
X122624013Y-54417809D01*
X122682887Y-54559942D01*
X122768358Y-54687859D01*
X122877141Y-54796642D01*
X123005058Y-54882113D01*
X123147191Y-54940987D01*
X123298078Y-54971000D01*
X123440409Y-54971000D01*
X136324001Y-67854593D01*
X136324000Y-72541499D01*
X136223358Y-72642141D01*
X136137887Y-72770058D01*
X136079013Y-72912191D01*
X136049000Y-73063078D01*
X136049000Y-73216922D01*
X136079013Y-73367809D01*
X136137887Y-73509942D01*
X136223358Y-73637859D01*
X136332141Y-73746642D01*
X136397718Y-73790459D01*
X136303582Y-73853358D01*
X136194799Y-73962141D01*
X136109328Y-74090058D01*
X136050454Y-74232191D01*
X136020441Y-74383078D01*
X136020441Y-74424000D01*
X134372597Y-74424000D01*
X134412690Y-74383907D01*
X134498161Y-74255990D01*
X134557035Y-74113857D01*
X134587048Y-73962970D01*
X134587048Y-73809126D01*
X134557035Y-73658239D01*
X134498161Y-73516106D01*
X134412690Y-73388189D01*
X134312048Y-73287547D01*
X134312048Y-66645902D01*
X134314496Y-66621048D01*
X134304726Y-66521855D01*
X134275793Y-66426473D01*
X134265705Y-66407600D01*
X134228807Y-66338569D01*
X134165575Y-66261521D01*
X134146268Y-66245676D01*
X124156000Y-56255409D01*
X124156000Y-56113078D01*
X124125987Y-55962191D01*
X124067113Y-55820058D01*
X123981642Y-55692141D01*
X123872859Y-55583358D01*
X123744942Y-55497887D01*
X123602809Y-55439013D01*
X123451922Y-55409000D01*
X123298078Y-55409000D01*
X123147191Y-55439013D01*
X123005058Y-55497887D01*
X122877141Y-55583358D01*
X122768358Y-55692141D01*
X122682887Y-55820058D01*
X122624013Y-55962191D01*
X122594000Y-56113078D01*
X122594000Y-56266922D01*
X122624013Y-56417809D01*
X122682887Y-56559942D01*
X122768358Y-56687859D01*
X122877141Y-56796642D01*
X123005058Y-56882113D01*
X123147191Y-56940987D01*
X123298078Y-56971000D01*
X123440409Y-56971000D01*
X133300049Y-66830641D01*
X133300049Y-67399457D01*
X124156000Y-58255409D01*
X124156000Y-58113078D01*
X124125987Y-57962191D01*
X124067113Y-57820058D01*
X123981642Y-57692141D01*
X123872859Y-57583358D01*
X123744942Y-57497887D01*
X123602809Y-57439013D01*
X123451922Y-57409000D01*
X123298078Y-57409000D01*
X123147191Y-57439013D01*
X123005058Y-57497887D01*
X122877141Y-57583358D01*
X122768358Y-57692141D01*
X122682887Y-57820058D01*
X122624013Y-57962191D01*
X122594000Y-58113078D01*
X122594000Y-58266922D01*
X122624013Y-58417809D01*
X122682887Y-58559942D01*
X122768358Y-58687859D01*
X122877141Y-58796642D01*
X123005058Y-58882113D01*
X123147191Y-58940987D01*
X123298078Y-58971000D01*
X123440409Y-58971000D01*
X132625048Y-68155640D01*
X132625047Y-71594693D01*
X124556001Y-63525648D01*
X124556001Y-60889855D01*
X124558449Y-60865001D01*
X124548679Y-60765808D01*
X124519746Y-60670426D01*
X124495986Y-60625975D01*
X124472760Y-60582522D01*
X124409528Y-60505474D01*
X124390221Y-60489629D01*
X124156000Y-60255408D01*
X124156000Y-60113078D01*
X124125987Y-59962191D01*
X124067113Y-59820058D01*
X123981642Y-59692141D01*
X123872859Y-59583358D01*
X123744942Y-59497887D01*
X123602809Y-59439013D01*
X123451922Y-59409000D01*
X123298078Y-59409000D01*
X123147191Y-59439013D01*
X123005058Y-59497887D01*
X122877141Y-59583358D01*
X122768358Y-59692141D01*
X122682887Y-59820058D01*
X122624013Y-59962191D01*
X122594000Y-60113078D01*
X122594000Y-60266922D01*
X122624013Y-60417809D01*
X122682887Y-60559942D01*
X122768358Y-60687859D01*
X122877141Y-60796642D01*
X123005058Y-60882113D01*
X123147191Y-60940987D01*
X123298078Y-60971000D01*
X123440408Y-60971000D01*
X123544002Y-61074594D01*
X123544002Y-61427316D01*
X123451922Y-61409000D01*
X123298078Y-61409000D01*
X123147191Y-61439013D01*
X123005058Y-61497887D01*
X122877141Y-61583358D01*
X122768358Y-61692141D01*
X122682887Y-61820058D01*
X122624013Y-61962191D01*
X122594000Y-62113078D01*
X122594000Y-62266922D01*
X122624013Y-62417809D01*
X122682887Y-62559942D01*
X122768358Y-62687859D01*
X122869001Y-62788502D01*
X122869000Y-66382754D01*
X122866553Y-66407600D01*
X122869000Y-66432446D01*
X122869000Y-66432453D01*
X122876322Y-66506792D01*
X122905255Y-66602174D01*
X122952241Y-66690079D01*
X123015473Y-66767127D01*
X123034785Y-66782976D01*
X132252028Y-76000220D01*
X132267873Y-76019527D01*
X132344921Y-76082759D01*
X132432825Y-76129745D01*
X132528207Y-76158678D01*
X132627400Y-76168448D01*
X132652254Y-76166000D01*
X132961499Y-76166000D01*
X133062141Y-76266642D01*
X133190058Y-76352113D01*
X133332191Y-76410987D01*
X133483078Y-76441000D01*
X133636922Y-76441000D01*
X133787809Y-76410987D01*
X133929942Y-76352113D01*
X134057859Y-76266642D01*
X134166642Y-76157859D01*
X134252113Y-76029942D01*
X134310987Y-75887809D01*
X134341000Y-75736922D01*
X134341000Y-75583078D01*
X134311745Y-75436000D01*
X136306595Y-75436000D01*
X136331441Y-75438447D01*
X136356287Y-75436000D01*
X136356295Y-75436000D01*
X136430634Y-75428678D01*
X136526016Y-75399745D01*
X136613920Y-75352759D01*
X136690968Y-75289527D01*
X136706817Y-75270215D01*
X136736032Y-75241000D01*
X136878363Y-75241000D01*
X136970441Y-75222685D01*
X136970442Y-78991585D01*
X136967994Y-79016441D01*
X136977763Y-79115633D01*
X137006696Y-79211015D01*
X137006697Y-79211016D01*
X137053683Y-79298920D01*
X137116915Y-79375968D01*
X137136221Y-79391812D01*
X137359000Y-79614591D01*
X137359000Y-79756922D01*
X137389013Y-79907809D01*
X137447887Y-80049942D01*
X137533358Y-80177859D01*
X137642141Y-80286642D01*
X137770058Y-80372113D01*
X137912191Y-80430987D01*
X138063078Y-80461000D01*
X138216922Y-80461000D01*
X138367809Y-80430987D01*
X138394000Y-80420138D01*
X138394001Y-81598031D01*
X138394000Y-81598041D01*
X138394000Y-81608528D01*
X138338395Y-81645682D01*
X138215682Y-81768395D01*
X138119268Y-81912690D01*
X138052856Y-82073022D01*
X138019000Y-82243229D01*
X138019000Y-82416771D01*
X138052856Y-82586978D01*
X138119268Y-82747310D01*
X138215682Y-82891605D01*
X138338395Y-83014318D01*
X138482690Y-83110732D01*
X138643022Y-83177144D01*
X138813229Y-83211000D01*
X138986771Y-83211000D01*
X139156978Y-83177144D01*
X139317310Y-83110732D01*
X139461605Y-83014318D01*
X139584318Y-82891605D01*
X139680732Y-82747310D01*
X139747144Y-82586978D01*
X139781000Y-82416771D01*
X139781000Y-82243229D01*
X139747144Y-82073022D01*
X139680732Y-81912690D01*
X139584318Y-81768395D01*
X139461605Y-81645682D01*
X139406000Y-81608528D01*
X139406000Y-81441591D01*
X140132047Y-82167638D01*
X140119000Y-82233229D01*
X140119000Y-82406771D01*
X140152856Y-82576978D01*
X140219268Y-82737310D01*
X140315682Y-82881605D01*
X140438395Y-83004318D01*
X140582690Y-83100732D01*
X140743022Y-83167144D01*
X140913229Y-83201000D01*
X141086771Y-83201000D01*
X141256978Y-83167144D01*
X141417310Y-83100732D01*
X141561605Y-83004318D01*
X141684318Y-82881605D01*
X141780732Y-82737310D01*
X141847144Y-82576978D01*
X141881000Y-82406771D01*
X141881000Y-82233229D01*
X141847144Y-82063022D01*
X141780732Y-81902690D01*
X141684318Y-81758395D01*
X141561605Y-81635682D01*
X141417310Y-81539268D01*
X141256978Y-81472856D01*
X141086771Y-81439000D01*
X140913229Y-81439000D01*
X140847638Y-81452047D01*
X140081000Y-80685409D01*
X140081000Y-80243078D01*
X142059000Y-80243078D01*
X142059000Y-80396922D01*
X142089013Y-80547809D01*
X142147887Y-80689942D01*
X142233358Y-80817859D01*
X142342141Y-80926642D01*
X142470058Y-81012113D01*
X142612191Y-81070987D01*
X142763078Y-81101000D01*
X142916922Y-81101000D01*
X143067809Y-81070987D01*
X143209942Y-81012113D01*
X143337859Y-80926642D01*
X143446642Y-80817859D01*
X143532113Y-80689942D01*
X143590987Y-80547809D01*
X143621000Y-80396922D01*
X143621000Y-80243078D01*
X143590987Y-80092191D01*
X143532113Y-79950058D01*
X143446642Y-79822141D01*
X143337859Y-79713358D01*
X143209942Y-79627887D01*
X143067809Y-79569013D01*
X142916922Y-79539000D01*
X142763078Y-79539000D01*
X142612191Y-79569013D01*
X142470058Y-79627887D01*
X142342141Y-79713358D01*
X142233358Y-79822141D01*
X142147887Y-79950058D01*
X142089013Y-80092191D01*
X142059000Y-80243078D01*
X140081000Y-80243078D01*
X140081000Y-79698501D01*
X140181642Y-79597859D01*
X140267113Y-79469942D01*
X140325987Y-79327809D01*
X140356000Y-79176922D01*
X140356000Y-79034591D01*
X141015221Y-78375371D01*
X141034528Y-78359526D01*
X141097760Y-78282478D01*
X141144746Y-78194574D01*
X141171050Y-78107859D01*
X141173679Y-78099193D01*
X141176251Y-78073078D01*
X141181001Y-78024853D01*
X141181001Y-78024846D01*
X141183448Y-78000000D01*
X141181001Y-77975154D01*
X141181001Y-75793369D01*
X142067553Y-76679922D01*
X142089013Y-76787809D01*
X142147887Y-76929942D01*
X142233358Y-77057859D01*
X142342141Y-77166642D01*
X142470058Y-77252113D01*
X142612191Y-77310987D01*
X142763078Y-77341000D01*
X142916922Y-77341000D01*
X143067809Y-77310987D01*
X143209942Y-77252113D01*
X143337859Y-77166642D01*
X143446642Y-77057859D01*
X143532113Y-76929942D01*
X143590987Y-76787809D01*
X143621000Y-76636922D01*
X143621000Y-76483078D01*
X143590987Y-76332191D01*
X143532113Y-76190058D01*
X143446642Y-76062141D01*
X143337859Y-75953358D01*
X143209942Y-75867887D01*
X143067809Y-75809013D01*
X142959922Y-75787553D01*
X142430650Y-75258281D01*
X142470058Y-75284613D01*
X142612191Y-75343487D01*
X142763078Y-75373500D01*
X142916922Y-75373500D01*
X143067809Y-75343487D01*
X143209942Y-75284613D01*
X143337859Y-75199142D01*
X143438501Y-75098500D01*
X145932654Y-75098500D01*
X145957500Y-75100947D01*
X145982346Y-75098500D01*
X145982354Y-75098500D01*
X146056693Y-75091178D01*
X146152075Y-75062245D01*
X146239979Y-75015259D01*
X146303377Y-74963229D01*
X154179000Y-74963229D01*
X154179000Y-75136771D01*
X154212856Y-75306978D01*
X154279268Y-75467310D01*
X154375682Y-75611605D01*
X154498395Y-75734318D01*
X154642690Y-75830732D01*
X154803022Y-75897144D01*
X154973229Y-75931000D01*
X155146771Y-75931000D01*
X155316978Y-75897144D01*
X155477310Y-75830732D01*
X155621605Y-75734318D01*
X155744318Y-75611605D01*
X155840732Y-75467310D01*
X155907144Y-75306978D01*
X155941000Y-75136771D01*
X155941000Y-74963229D01*
X155907144Y-74793022D01*
X155840732Y-74632690D01*
X155744318Y-74488395D01*
X155621605Y-74365682D01*
X155477310Y-74269268D01*
X155316978Y-74202856D01*
X155146771Y-74169000D01*
X154973229Y-74169000D01*
X154803022Y-74202856D01*
X154642690Y-74269268D01*
X154498395Y-74365682D01*
X154375682Y-74488395D01*
X154279268Y-74632690D01*
X154212856Y-74793022D01*
X154179000Y-74963229D01*
X146303377Y-74963229D01*
X146317027Y-74952027D01*
X146332876Y-74932715D01*
X149742513Y-71523078D01*
X156131500Y-71523078D01*
X156131500Y-71676922D01*
X156161513Y-71827809D01*
X156220387Y-71969942D01*
X156305858Y-72097859D01*
X156414641Y-72206642D01*
X156542558Y-72292113D01*
X156684691Y-72350987D01*
X156835578Y-72381000D01*
X156989422Y-72381000D01*
X157140309Y-72350987D01*
X157282442Y-72292113D01*
X157410359Y-72206642D01*
X157519142Y-72097859D01*
X157604613Y-71969942D01*
X157663487Y-71827809D01*
X157693500Y-71676922D01*
X157693500Y-71523078D01*
X157663487Y-71372191D01*
X157604613Y-71230058D01*
X157543500Y-71138595D01*
X157543500Y-68252366D01*
X158407619Y-67388248D01*
X158469001Y-67480113D01*
X158469000Y-70919010D01*
X158465948Y-70950000D01*
X158469000Y-70980990D01*
X158469000Y-70980997D01*
X158478130Y-71073697D01*
X158514211Y-71192641D01*
X158572804Y-71302260D01*
X158651657Y-71398343D01*
X158675737Y-71418105D01*
X160377553Y-73119922D01*
X160399013Y-73227809D01*
X160457887Y-73369942D01*
X160543358Y-73497859D01*
X160652141Y-73606642D01*
X160780058Y-73692113D01*
X160922191Y-73750987D01*
X161073078Y-73781000D01*
X161226922Y-73781000D01*
X161377809Y-73750987D01*
X161519942Y-73692113D01*
X161647859Y-73606642D01*
X161756642Y-73497859D01*
X161842113Y-73369942D01*
X161900987Y-73227809D01*
X161931000Y-73076922D01*
X161931000Y-72923078D01*
X161900987Y-72772191D01*
X161842113Y-72630058D01*
X161756642Y-72502141D01*
X161647859Y-72393358D01*
X161519942Y-72307887D01*
X161377809Y-72249013D01*
X161269922Y-72227553D01*
X160973369Y-71931000D01*
X161076922Y-71931000D01*
X161227809Y-71900987D01*
X161369942Y-71842113D01*
X161497859Y-71756642D01*
X161606642Y-71647859D01*
X161692113Y-71519942D01*
X161750987Y-71377809D01*
X161781000Y-71226922D01*
X161781000Y-71073078D01*
X161750987Y-70922191D01*
X161692113Y-70780058D01*
X161606642Y-70652141D01*
X161497859Y-70543358D01*
X161369942Y-70457887D01*
X161227809Y-70399013D01*
X161076922Y-70369000D01*
X160923078Y-70369000D01*
X160772191Y-70399013D01*
X160630058Y-70457887D01*
X160502141Y-70543358D01*
X160393358Y-70652141D01*
X160307887Y-70780058D01*
X160249013Y-70922191D01*
X160219000Y-71073078D01*
X160219000Y-71176632D01*
X159731000Y-70688632D01*
X159731000Y-67442697D01*
X159779613Y-67369942D01*
X159838487Y-67227809D01*
X159868500Y-67076922D01*
X159868500Y-66923078D01*
X160131500Y-66923078D01*
X160131500Y-67076922D01*
X160161513Y-67227809D01*
X160220387Y-67369942D01*
X160305858Y-67497859D01*
X160414641Y-67606642D01*
X160542558Y-67692113D01*
X160684691Y-67750987D01*
X160835578Y-67781000D01*
X160989422Y-67781000D01*
X161140309Y-67750987D01*
X161282442Y-67692113D01*
X161410359Y-67606642D01*
X161519142Y-67497859D01*
X161604613Y-67369942D01*
X161663487Y-67227809D01*
X161693500Y-67076922D01*
X161693500Y-66923078D01*
X161663487Y-66772191D01*
X161604613Y-66630058D01*
X161519142Y-66502141D01*
X161410359Y-66393358D01*
X161282442Y-66307887D01*
X161140309Y-66249013D01*
X160989422Y-66219000D01*
X160835578Y-66219000D01*
X160684691Y-66249013D01*
X160542558Y-66307887D01*
X160414641Y-66393358D01*
X160305858Y-66502141D01*
X160220387Y-66630058D01*
X160161513Y-66772191D01*
X160131500Y-66923078D01*
X159868500Y-66923078D01*
X159838487Y-66772191D01*
X159779613Y-66630058D01*
X159694142Y-66502141D01*
X159585359Y-66393358D01*
X159475748Y-66320119D01*
X160472789Y-65323078D01*
X163769000Y-65323078D01*
X163769000Y-65476922D01*
X163799013Y-65627809D01*
X163857887Y-65769942D01*
X163943358Y-65897859D01*
X164052141Y-66006642D01*
X164180058Y-66092113D01*
X164322191Y-66150987D01*
X164473078Y-66181000D01*
X164626922Y-66181000D01*
X164777809Y-66150987D01*
X164919942Y-66092113D01*
X165047859Y-66006642D01*
X165156642Y-65897859D01*
X165242113Y-65769942D01*
X165300987Y-65627809D01*
X165331000Y-65476922D01*
X165331000Y-65323078D01*
X165300987Y-65172191D01*
X165242113Y-65030058D01*
X165156642Y-64902141D01*
X165047859Y-64793358D01*
X164919942Y-64707887D01*
X164777809Y-64649013D01*
X164626922Y-64619000D01*
X164473078Y-64619000D01*
X164322191Y-64649013D01*
X164180058Y-64707887D01*
X164052141Y-64793358D01*
X163943358Y-64902141D01*
X163857887Y-65030058D01*
X163799013Y-65172191D01*
X163769000Y-65323078D01*
X160472789Y-65323078D01*
X160494269Y-65301598D01*
X160518343Y-65281841D01*
X160597196Y-65185759D01*
X160655789Y-65076140D01*
X160691870Y-64957196D01*
X160701000Y-64864496D01*
X160701000Y-64864487D01*
X160704052Y-64833499D01*
X160701000Y-64802511D01*
X160701000Y-64554231D01*
X160835578Y-64581000D01*
X160989422Y-64581000D01*
X161140309Y-64550987D01*
X161282442Y-64492113D01*
X161410359Y-64406642D01*
X161519142Y-64297859D01*
X161604613Y-64169942D01*
X161663487Y-64027809D01*
X161693500Y-63876922D01*
X161693500Y-63723078D01*
X161663487Y-63572191D01*
X161604613Y-63430058D01*
X161519142Y-63302141D01*
X161410359Y-63193358D01*
X161282442Y-63107887D01*
X161140309Y-63049013D01*
X160989422Y-63019000D01*
X160835578Y-63019000D01*
X160701000Y-63045769D01*
X160701000Y-59590987D01*
X160704052Y-59559999D01*
X160701000Y-59529011D01*
X160701000Y-59529002D01*
X160691870Y-59436302D01*
X160655789Y-59317358D01*
X160597196Y-59207739D01*
X160518343Y-59111657D01*
X160494268Y-59091899D01*
X159862447Y-58460079D01*
X159840987Y-58352191D01*
X159782113Y-58210058D01*
X159696642Y-58082141D01*
X159587859Y-57973358D01*
X159459942Y-57887887D01*
X159317809Y-57829013D01*
X159166922Y-57799000D01*
X159013078Y-57799000D01*
X158862191Y-57829013D01*
X158720058Y-57887887D01*
X158592141Y-57973358D01*
X158483358Y-58082141D01*
X158397887Y-58210058D01*
X158339013Y-58352191D01*
X158309000Y-58503078D01*
X158309000Y-58656922D01*
X158339013Y-58807809D01*
X158397887Y-58949942D01*
X158483358Y-59077859D01*
X158592141Y-59186642D01*
X158720058Y-59272113D01*
X158862191Y-59330987D01*
X158970079Y-59352447D01*
X159439001Y-59821370D01*
X159439000Y-64572129D01*
X156488233Y-67522897D01*
X156464158Y-67542655D01*
X156444400Y-67566730D01*
X156444397Y-67566733D01*
X156385304Y-67638738D01*
X156326711Y-67748357D01*
X156290630Y-67867301D01*
X156278448Y-67990998D01*
X156281501Y-68021998D01*
X156281500Y-71138595D01*
X156220387Y-71230058D01*
X156161513Y-71372191D01*
X156131500Y-71523078D01*
X149742513Y-71523078D01*
X151542513Y-69723078D01*
X154381500Y-69723078D01*
X154381500Y-69876922D01*
X154411513Y-70027809D01*
X154470387Y-70169942D01*
X154555858Y-70297859D01*
X154664641Y-70406642D01*
X154792558Y-70492113D01*
X154934691Y-70550987D01*
X155085578Y-70581000D01*
X155239422Y-70581000D01*
X155390309Y-70550987D01*
X155532442Y-70492113D01*
X155660359Y-70406642D01*
X155769142Y-70297859D01*
X155854613Y-70169942D01*
X155913487Y-70027809D01*
X155943500Y-69876922D01*
X155943500Y-69723078D01*
X155913487Y-69572191D01*
X155854613Y-69430058D01*
X155824626Y-69385179D01*
X155824626Y-67372896D01*
X155885739Y-67281433D01*
X155944613Y-67139300D01*
X155974626Y-66988413D01*
X155974626Y-66834569D01*
X155944613Y-66683682D01*
X155885739Y-66541549D01*
X155800268Y-66413632D01*
X155691485Y-66304849D01*
X155563568Y-66219378D01*
X155421435Y-66160504D01*
X155270548Y-66130491D01*
X155116704Y-66130491D01*
X154965817Y-66160504D01*
X154823684Y-66219378D01*
X154695767Y-66304849D01*
X154586984Y-66413632D01*
X154501513Y-66541549D01*
X154442639Y-66683682D01*
X154412626Y-66834569D01*
X154412626Y-66988413D01*
X154442639Y-67139300D01*
X154501513Y-67281433D01*
X154562626Y-67372896D01*
X154562627Y-69295372D01*
X154555858Y-69302141D01*
X154470387Y-69430058D01*
X154411513Y-69572191D01*
X154381500Y-69723078D01*
X151542513Y-69723078D01*
X152834592Y-68431000D01*
X152976922Y-68431000D01*
X153127809Y-68400987D01*
X153269942Y-68342113D01*
X153397859Y-68256642D01*
X153506642Y-68147859D01*
X153592113Y-68019942D01*
X153650987Y-67877809D01*
X153681000Y-67726922D01*
X153681000Y-67573078D01*
X153650987Y-67422191D01*
X153592113Y-67280058D01*
X153506642Y-67152141D01*
X153397859Y-67043358D01*
X153342935Y-67006659D01*
X153387859Y-66976642D01*
X153496642Y-66867859D01*
X153582113Y-66739942D01*
X153640987Y-66597809D01*
X153671000Y-66446922D01*
X153671000Y-66293078D01*
X153640987Y-66142191D01*
X153582113Y-66000058D01*
X153496642Y-65872141D01*
X153387859Y-65763358D01*
X153259942Y-65677887D01*
X153117809Y-65619013D01*
X152966922Y-65589000D01*
X152813078Y-65589000D01*
X152662191Y-65619013D01*
X152520058Y-65677887D01*
X152392141Y-65763358D01*
X152283358Y-65872141D01*
X152197887Y-66000058D01*
X152139013Y-66142191D01*
X152109000Y-66293078D01*
X152109000Y-66435408D01*
X145657909Y-72886500D01*
X144968501Y-72886500D01*
X144867859Y-72785858D01*
X144739942Y-72700387D01*
X144597809Y-72641513D01*
X144446922Y-72611500D01*
X144293078Y-72611500D01*
X144142191Y-72641513D01*
X144000058Y-72700387D01*
X143872141Y-72785858D01*
X143763358Y-72894641D01*
X143677887Y-73022558D01*
X143619013Y-73164691D01*
X143589000Y-73315578D01*
X143589000Y-73469422D01*
X143619013Y-73620309D01*
X143677887Y-73762442D01*
X143763358Y-73890359D01*
X143872141Y-73999142D01*
X144000058Y-74084613D01*
X144004614Y-74086500D01*
X143438501Y-74086500D01*
X143337859Y-73985858D01*
X143209942Y-73900387D01*
X143067809Y-73841513D01*
X142916922Y-73811500D01*
X142763078Y-73811500D01*
X142612191Y-73841513D01*
X142470058Y-73900387D01*
X142342141Y-73985858D01*
X142233358Y-74094641D01*
X142147887Y-74222558D01*
X142089013Y-74364691D01*
X142059000Y-74515578D01*
X142059000Y-74669422D01*
X142089013Y-74820309D01*
X142147887Y-74962442D01*
X142174219Y-75001851D01*
X141981000Y-74808632D01*
X141981000Y-71629567D01*
X142053358Y-71737859D01*
X142162141Y-71846642D01*
X142290058Y-71932113D01*
X142432191Y-71990987D01*
X142583078Y-72021000D01*
X142583252Y-72021000D01*
X142470058Y-72067887D01*
X142342141Y-72153358D01*
X142233358Y-72262141D01*
X142147887Y-72390058D01*
X142089013Y-72532191D01*
X142059000Y-72683078D01*
X142059000Y-72836922D01*
X142089013Y-72987809D01*
X142147887Y-73129942D01*
X142233358Y-73257859D01*
X142342141Y-73366642D01*
X142470058Y-73452113D01*
X142612191Y-73510987D01*
X142763078Y-73541000D01*
X142916922Y-73541000D01*
X143067809Y-73510987D01*
X143209942Y-73452113D01*
X143337859Y-73366642D01*
X143446642Y-73257859D01*
X143532113Y-73129942D01*
X143590987Y-72987809D01*
X143621000Y-72836922D01*
X143621000Y-72683078D01*
X143590987Y-72532191D01*
X143532113Y-72390058D01*
X143446642Y-72262141D01*
X143337859Y-72153358D01*
X143209942Y-72067887D01*
X143067809Y-72009013D01*
X142916922Y-71979000D01*
X142916748Y-71979000D01*
X143029942Y-71932113D01*
X143157859Y-71846642D01*
X143266642Y-71737859D01*
X143352113Y-71609942D01*
X143408804Y-71473078D01*
X143599000Y-71473078D01*
X143599000Y-71626922D01*
X143629013Y-71777809D01*
X143687887Y-71919942D01*
X143773358Y-72047859D01*
X143882141Y-72156642D01*
X144010058Y-72242113D01*
X144152191Y-72300987D01*
X144303078Y-72331000D01*
X144456922Y-72331000D01*
X144607809Y-72300987D01*
X144749942Y-72242113D01*
X144877859Y-72156642D01*
X144986642Y-72047859D01*
X145072113Y-71919942D01*
X145130987Y-71777809D01*
X145161000Y-71626922D01*
X145161000Y-71473078D01*
X145130987Y-71322191D01*
X145072113Y-71180058D01*
X144986642Y-71052141D01*
X144877859Y-70943358D01*
X144749942Y-70857887D01*
X144607809Y-70799013D01*
X144456922Y-70769000D01*
X144303078Y-70769000D01*
X144152191Y-70799013D01*
X144010058Y-70857887D01*
X143882141Y-70943358D01*
X143773358Y-71052141D01*
X143687887Y-71180058D01*
X143629013Y-71322191D01*
X143599000Y-71473078D01*
X143408804Y-71473078D01*
X143410987Y-71467809D01*
X143441000Y-71316922D01*
X143441000Y-71163078D01*
X143410987Y-71012191D01*
X143352113Y-70870058D01*
X143266642Y-70742141D01*
X143157859Y-70633358D01*
X143029942Y-70547887D01*
X142887809Y-70489013D01*
X142736922Y-70459000D01*
X142583078Y-70459000D01*
X142432191Y-70489013D01*
X142290058Y-70547887D01*
X142162141Y-70633358D01*
X142053358Y-70742141D01*
X141981000Y-70850433D01*
X141981000Y-69643229D01*
X143539000Y-69643229D01*
X143539000Y-69816771D01*
X143572856Y-69986978D01*
X143639268Y-70147310D01*
X143735682Y-70291605D01*
X143858395Y-70414318D01*
X144002690Y-70510732D01*
X144163022Y-70577144D01*
X144333229Y-70611000D01*
X144506771Y-70611000D01*
X144676978Y-70577144D01*
X144837310Y-70510732D01*
X144981605Y-70414318D01*
X145104318Y-70291605D01*
X145200732Y-70147310D01*
X145267144Y-69986978D01*
X145301000Y-69816771D01*
X145301000Y-69643229D01*
X145267144Y-69473022D01*
X145200732Y-69312690D01*
X145104318Y-69168395D01*
X144981605Y-69045682D01*
X144837310Y-68949268D01*
X144676978Y-68882856D01*
X144506771Y-68849000D01*
X144333229Y-68849000D01*
X144163022Y-68882856D01*
X144002690Y-68949268D01*
X143858395Y-69045682D01*
X143735682Y-69168395D01*
X143639268Y-69312690D01*
X143572856Y-69473022D01*
X143539000Y-69643229D01*
X141981000Y-69643229D01*
X141981000Y-67911405D01*
X142042113Y-67819942D01*
X142100987Y-67677809D01*
X142131000Y-67526922D01*
X142131000Y-67373078D01*
X142100987Y-67222191D01*
X142042113Y-67080058D01*
X141956642Y-66952141D01*
X141847859Y-66843358D01*
X141719942Y-66757887D01*
X141577809Y-66699013D01*
X141426922Y-66669000D01*
X141273078Y-66669000D01*
X141122191Y-66699013D01*
X140980058Y-66757887D01*
X140852141Y-66843358D01*
X140743358Y-66952141D01*
X140657887Y-67080058D01*
X140599013Y-67222191D01*
X140569000Y-67373078D01*
X140569000Y-67526922D01*
X140599013Y-67677809D01*
X140657887Y-67819942D01*
X140719001Y-67911406D01*
X140719001Y-68994407D01*
X140546000Y-68821407D01*
X140546000Y-59973319D01*
X147872900Y-67300220D01*
X147888745Y-67319527D01*
X147965793Y-67382759D01*
X148039565Y-67422191D01*
X148053697Y-67429745D01*
X148149079Y-67458678D01*
X148248272Y-67468448D01*
X148273126Y-67466000D01*
X149211499Y-67466000D01*
X149312141Y-67566642D01*
X149440058Y-67652113D01*
X149582191Y-67710987D01*
X149733078Y-67741000D01*
X149886922Y-67741000D01*
X150037809Y-67710987D01*
X150179942Y-67652113D01*
X150307859Y-67566642D01*
X150416642Y-67457859D01*
X150502113Y-67329942D01*
X150560987Y-67187809D01*
X150591000Y-67036922D01*
X150591000Y-66883078D01*
X150560987Y-66732191D01*
X150502113Y-66590058D01*
X150416642Y-66462141D01*
X150307859Y-66353358D01*
X150242935Y-66309977D01*
X150277859Y-66286642D01*
X150386642Y-66177859D01*
X150472113Y-66049942D01*
X150530987Y-65907809D01*
X150561000Y-65756922D01*
X150561000Y-65603078D01*
X150530987Y-65452191D01*
X150472113Y-65310058D01*
X150386642Y-65182141D01*
X150277859Y-65073358D01*
X150149942Y-64987887D01*
X150007809Y-64929013D01*
X149856922Y-64899000D01*
X149703078Y-64899000D01*
X149552191Y-64929013D01*
X149410058Y-64987887D01*
X149282141Y-65073358D01*
X149181499Y-65174000D01*
X147743563Y-65174000D01*
X144702792Y-62133229D01*
X148479000Y-62133229D01*
X148479000Y-62306771D01*
X148512856Y-62476978D01*
X148579268Y-62637310D01*
X148675682Y-62781605D01*
X148798395Y-62904318D01*
X148942690Y-63000732D01*
X149103022Y-63067144D01*
X149273229Y-63101000D01*
X149446771Y-63101000D01*
X149616978Y-63067144D01*
X149777310Y-63000732D01*
X149921605Y-62904318D01*
X150044318Y-62781605D01*
X150140732Y-62637310D01*
X150207144Y-62476978D01*
X150241000Y-62306771D01*
X150241000Y-62133229D01*
X150207144Y-61963022D01*
X150190599Y-61923078D01*
X157769000Y-61923078D01*
X157769000Y-62076922D01*
X157799013Y-62227809D01*
X157857887Y-62369942D01*
X157943358Y-62497859D01*
X158052141Y-62606642D01*
X158180058Y-62692113D01*
X158322191Y-62750987D01*
X158473078Y-62781000D01*
X158626922Y-62781000D01*
X158777809Y-62750987D01*
X158919942Y-62692113D01*
X159047859Y-62606642D01*
X159156642Y-62497859D01*
X159242113Y-62369942D01*
X159300987Y-62227809D01*
X159331000Y-62076922D01*
X159331000Y-61923078D01*
X159300987Y-61772191D01*
X159242113Y-61630058D01*
X159156642Y-61502141D01*
X159047859Y-61393358D01*
X158919942Y-61307887D01*
X158777809Y-61249013D01*
X158626922Y-61219000D01*
X158473078Y-61219000D01*
X158322191Y-61249013D01*
X158180058Y-61307887D01*
X158052141Y-61393358D01*
X157943358Y-61502141D01*
X157857887Y-61630058D01*
X157799013Y-61772191D01*
X157769000Y-61923078D01*
X150190599Y-61923078D01*
X150140732Y-61802690D01*
X150044318Y-61658395D01*
X149921605Y-61535682D01*
X149777310Y-61439268D01*
X149616978Y-61372856D01*
X149446771Y-61339000D01*
X149273229Y-61339000D01*
X149103022Y-61372856D01*
X148942690Y-61439268D01*
X148798395Y-61535682D01*
X148675682Y-61658395D01*
X148579268Y-61802690D01*
X148512856Y-61963022D01*
X148479000Y-62133229D01*
X144702792Y-62133229D01*
X143450562Y-60881000D01*
X152116730Y-60881000D01*
X152160000Y-60885262D01*
X152203270Y-60881000D01*
X152203273Y-60881000D01*
X152332706Y-60868252D01*
X152498775Y-60817875D01*
X152651825Y-60736068D01*
X152785975Y-60625975D01*
X152813566Y-60592355D01*
X154753559Y-58652363D01*
X154753564Y-58652357D01*
X167142360Y-46263562D01*
X167175974Y-46235976D01*
X167242903Y-46154422D01*
X167286067Y-46101827D01*
X167344044Y-45993358D01*
X167367874Y-45948776D01*
X167418251Y-45782707D01*
X167430999Y-45653274D01*
X167430999Y-45653272D01*
X167435261Y-45610002D01*
X167430999Y-45566732D01*
X167430999Y-42127000D01*
X168873000Y-42127000D01*
X168873000Y-62228961D01*
X168772191Y-62249013D01*
X168630058Y-62307887D01*
X168502141Y-62393358D01*
X168393358Y-62502141D01*
X168307887Y-62630058D01*
X168249013Y-62772191D01*
X168219000Y-62923078D01*
X168219000Y-63076922D01*
X168249013Y-63227809D01*
X168307887Y-63369942D01*
X168393358Y-63497859D01*
X168502141Y-63606642D01*
X168630058Y-63692113D01*
X168772191Y-63750987D01*
X168873000Y-63771039D01*
X168873000Y-95119000D01*
X144978924Y-95119000D01*
X128410502Y-78550578D01*
X132779000Y-78550578D01*
X132779000Y-78704422D01*
X132809013Y-78855309D01*
X132867887Y-78997442D01*
X132953358Y-79125359D01*
X133062141Y-79234142D01*
X133190058Y-79319613D01*
X133332191Y-79378487D01*
X133483078Y-79408500D01*
X133636922Y-79408500D01*
X133787809Y-79378487D01*
X133929942Y-79319613D01*
X134057859Y-79234142D01*
X134166642Y-79125359D01*
X134252113Y-78997442D01*
X134310987Y-78855309D01*
X134341000Y-78704422D01*
X134341000Y-78550578D01*
X134310987Y-78399691D01*
X134252113Y-78257558D01*
X134166642Y-78129641D01*
X134057859Y-78020858D01*
X133929942Y-77935387D01*
X133787809Y-77876513D01*
X133636922Y-77846500D01*
X133483078Y-77846500D01*
X133332191Y-77876513D01*
X133190058Y-77935387D01*
X133062141Y-78020858D01*
X132953358Y-78129641D01*
X132867887Y-78257558D01*
X132809013Y-78399691D01*
X132779000Y-78550578D01*
X128410502Y-78550578D01*
X126813002Y-76953078D01*
X130959000Y-76953078D01*
X130959000Y-77106922D01*
X130989013Y-77257809D01*
X131047887Y-77399942D01*
X131133358Y-77527859D01*
X131242141Y-77636642D01*
X131370058Y-77722113D01*
X131512191Y-77780987D01*
X131663078Y-77811000D01*
X131816922Y-77811000D01*
X131967809Y-77780987D01*
X132109942Y-77722113D01*
X132237859Y-77636642D01*
X132346642Y-77527859D01*
X132432113Y-77399942D01*
X132490987Y-77257809D01*
X132521000Y-77106922D01*
X132521000Y-76953078D01*
X132490987Y-76802191D01*
X132432113Y-76660058D01*
X132346642Y-76532141D01*
X132237859Y-76423358D01*
X132109942Y-76337887D01*
X131967809Y-76279013D01*
X131816922Y-76249000D01*
X131663078Y-76249000D01*
X131512191Y-76279013D01*
X131370058Y-76337887D01*
X131242141Y-76423358D01*
X131133358Y-76532141D01*
X131047887Y-76660058D01*
X130989013Y-76802191D01*
X130959000Y-76953078D01*
X126813002Y-76953078D01*
X125037568Y-75177645D01*
X125009977Y-75144025D01*
X124875827Y-75033932D01*
X124722777Y-74952125D01*
X124556708Y-74901748D01*
X124427275Y-74889000D01*
X124427272Y-74889000D01*
X124384002Y-74884738D01*
X124340732Y-74889000D01*
X122269790Y-74889000D01*
X122265487Y-74845311D01*
X122243701Y-74773492D01*
X122208322Y-74707304D01*
X122160711Y-74649289D01*
X122102696Y-74601678D01*
X122036508Y-74566299D01*
X121964689Y-74544513D01*
X121890000Y-74537157D01*
X120190000Y-74537157D01*
X120115311Y-74544513D01*
X120043492Y-74566299D01*
X119977304Y-74601678D01*
X119919289Y-74649289D01*
X119871678Y-74707304D01*
X119836299Y-74773492D01*
X119814513Y-74845311D01*
X119807157Y-74920000D01*
X119807157Y-76620000D01*
X119814513Y-76694689D01*
X119836299Y-76766508D01*
X119871678Y-76832696D01*
X119919289Y-76890711D01*
X119977304Y-76938322D01*
X120043492Y-76973701D01*
X120115311Y-76995487D01*
X120190000Y-77002843D01*
X121890000Y-77002843D01*
X121964689Y-76995487D01*
X122036508Y-76973701D01*
X122102696Y-76938322D01*
X122160711Y-76890711D01*
X122208322Y-76832696D01*
X122243701Y-76766508D01*
X122265487Y-76694689D01*
X122269790Y-76651000D01*
X124019081Y-76651000D01*
X124261612Y-76893531D01*
X124142141Y-76973358D01*
X124055000Y-77060499D01*
X123997859Y-77003358D01*
X123869942Y-76917887D01*
X123727809Y-76859013D01*
X123576922Y-76829000D01*
X123423078Y-76829000D01*
X123272191Y-76859013D01*
X123130058Y-76917887D01*
X123002141Y-77003358D01*
X122893358Y-77112141D01*
X122807887Y-77240058D01*
X122749013Y-77382191D01*
X122719000Y-77533078D01*
X122719000Y-77675409D01*
X122590409Y-77804000D01*
X122162832Y-77804000D01*
X122130898Y-77726903D01*
X121996180Y-77525283D01*
X121824717Y-77353820D01*
X121623097Y-77219102D01*
X121399069Y-77126307D01*
X121161243Y-77079000D01*
X120918757Y-77079000D01*
X120680931Y-77126307D01*
X120456903Y-77219102D01*
X120255283Y-77353820D01*
X120083820Y-77525283D01*
X119949102Y-77726903D01*
X119856307Y-77950931D01*
X119809000Y-78188757D01*
X119809000Y-78431243D01*
X119856307Y-78669069D01*
X119949102Y-78893097D01*
X120083820Y-79094717D01*
X120255283Y-79266180D01*
X120456903Y-79400898D01*
X120680931Y-79493693D01*
X120918757Y-79541000D01*
X121161243Y-79541000D01*
X121399069Y-79493693D01*
X121623097Y-79400898D01*
X121824717Y-79266180D01*
X121996180Y-79094717D01*
X122130898Y-78893097D01*
X122162832Y-78816000D01*
X122688408Y-78816000D01*
X121696356Y-79808052D01*
X121623097Y-79759102D01*
X121399069Y-79666307D01*
X121161243Y-79619000D01*
X120918757Y-79619000D01*
X120680931Y-79666307D01*
X120456903Y-79759102D01*
X120255283Y-79893820D01*
X120083820Y-80065283D01*
X119949102Y-80266903D01*
X119856307Y-80490931D01*
X119809000Y-80728757D01*
X119809000Y-80971243D01*
X119856307Y-81209069D01*
X119949102Y-81433097D01*
X120083820Y-81634717D01*
X120255283Y-81806180D01*
X120456903Y-81940898D01*
X120680931Y-82033693D01*
X120918757Y-82081000D01*
X121161243Y-82081000D01*
X121399069Y-82033693D01*
X121623097Y-81940898D01*
X121824717Y-81806180D01*
X121996180Y-81634717D01*
X122130898Y-81433097D01*
X122223693Y-81209069D01*
X122271000Y-80971243D01*
X122271000Y-80728757D01*
X122260354Y-80675237D01*
X124574592Y-78361000D01*
X124716922Y-78361000D01*
X124867809Y-78330987D01*
X125009942Y-78272113D01*
X125137859Y-78186642D01*
X125246642Y-78077859D01*
X125326469Y-77958388D01*
X143960441Y-96592361D01*
X143961786Y-96594000D01*
X122019854Y-96594000D01*
X121496536Y-96542688D01*
X121012244Y-96396472D01*
X120565578Y-96158975D01*
X120173550Y-95839245D01*
X119851090Y-95449458D01*
X119610482Y-95004460D01*
X119460889Y-94521205D01*
X119406000Y-93998971D01*
X119406000Y-83268757D01*
X119809000Y-83268757D01*
X119809000Y-83511243D01*
X119856307Y-83749069D01*
X119949102Y-83973097D01*
X120083820Y-84174717D01*
X120255283Y-84346180D01*
X120456903Y-84480898D01*
X120680931Y-84573693D01*
X120918757Y-84621000D01*
X121161243Y-84621000D01*
X121399069Y-84573693D01*
X121623097Y-84480898D01*
X121824717Y-84346180D01*
X121996180Y-84174717D01*
X122130898Y-83973097D01*
X122223693Y-83749069D01*
X122271000Y-83511243D01*
X122271000Y-83268757D01*
X122223693Y-83030931D01*
X122130898Y-82806903D01*
X121996180Y-82605283D01*
X121824717Y-82433820D01*
X121623097Y-82299102D01*
X121399069Y-82206307D01*
X121161243Y-82159000D01*
X120918757Y-82159000D01*
X120680931Y-82206307D01*
X120456903Y-82299102D01*
X120255283Y-82433820D01*
X120083820Y-82605283D01*
X119949102Y-82806903D01*
X119856307Y-83030931D01*
X119809000Y-83268757D01*
X119406000Y-83268757D01*
X119406000Y-72023229D01*
X119919000Y-72023229D01*
X119919000Y-72196771D01*
X119952856Y-72366978D01*
X120019268Y-72527310D01*
X120115682Y-72671605D01*
X120238395Y-72794318D01*
X120382690Y-72890732D01*
X120543022Y-72957144D01*
X120713229Y-72991000D01*
X120886771Y-72991000D01*
X121056978Y-72957144D01*
X121217310Y-72890732D01*
X121361605Y-72794318D01*
X121484318Y-72671605D01*
X121580732Y-72527310D01*
X121647144Y-72366978D01*
X121681000Y-72196771D01*
X121681000Y-72023229D01*
X121647144Y-71853022D01*
X121580732Y-71692690D01*
X121484318Y-71548395D01*
X121361605Y-71425682D01*
X121217310Y-71329268D01*
X121056978Y-71262856D01*
X120886771Y-71229000D01*
X120713229Y-71229000D01*
X120543022Y-71262856D01*
X120382690Y-71329268D01*
X120238395Y-71425682D01*
X120115682Y-71548395D01*
X120019268Y-71692690D01*
X119952856Y-71853022D01*
X119919000Y-72023229D01*
X119406000Y-72023229D01*
X119406000Y-68417424D01*
X119667000Y-68417424D01*
X119667000Y-68642576D01*
X119710925Y-68863401D01*
X119797087Y-69071413D01*
X119922174Y-69258620D01*
X120081380Y-69417826D01*
X120268587Y-69542913D01*
X120476599Y-69629075D01*
X120697424Y-69673000D01*
X120922576Y-69673000D01*
X121143401Y-69629075D01*
X121351413Y-69542913D01*
X121538620Y-69417826D01*
X121697826Y-69258620D01*
X121822913Y-69071413D01*
X121909075Y-68863401D01*
X121953000Y-68642576D01*
X121953000Y-68417424D01*
X121909075Y-68196599D01*
X121822913Y-67988587D01*
X121697826Y-67801380D01*
X121538620Y-67642174D01*
X121351413Y-67517087D01*
X121143401Y-67430925D01*
X120922576Y-67387000D01*
X120697424Y-67387000D01*
X120476599Y-67430925D01*
X120268587Y-67517087D01*
X120081380Y-67642174D01*
X119922174Y-67801380D01*
X119797087Y-67988587D01*
X119710925Y-68196599D01*
X119667000Y-68417424D01*
X119406000Y-68417424D01*
X119406000Y-50733229D01*
X128159000Y-50733229D01*
X128159000Y-50906771D01*
X128192856Y-51076978D01*
X128259268Y-51237310D01*
X128355682Y-51381605D01*
X128478395Y-51504318D01*
X128622690Y-51600732D01*
X128783022Y-51667144D01*
X128953229Y-51701000D01*
X129126771Y-51701000D01*
X129296978Y-51667144D01*
X129457310Y-51600732D01*
X129601605Y-51504318D01*
X129724318Y-51381605D01*
X129820732Y-51237310D01*
X129887144Y-51076978D01*
X129921000Y-50906771D01*
X129921000Y-50733229D01*
X129887144Y-50563022D01*
X129820732Y-50402690D01*
X129724318Y-50258395D01*
X129623347Y-50157424D01*
X131857000Y-50157424D01*
X131857000Y-50382576D01*
X131900925Y-50603401D01*
X131987087Y-50811413D01*
X132112174Y-50998620D01*
X132271380Y-51157826D01*
X132458587Y-51282913D01*
X132666599Y-51369075D01*
X132887424Y-51413000D01*
X133112576Y-51413000D01*
X133333401Y-51369075D01*
X133541413Y-51282913D01*
X133728620Y-51157826D01*
X133887826Y-50998620D01*
X134012913Y-50811413D01*
X134099075Y-50603401D01*
X134143000Y-50382576D01*
X134143000Y-50157424D01*
X134099075Y-49936599D01*
X134012913Y-49728587D01*
X133887826Y-49541380D01*
X133728620Y-49382174D01*
X133541413Y-49257087D01*
X133333401Y-49170925D01*
X133112576Y-49127000D01*
X132887424Y-49127000D01*
X132666599Y-49170925D01*
X132458587Y-49257087D01*
X132271380Y-49382174D01*
X132112174Y-49541380D01*
X131987087Y-49728587D01*
X131900925Y-49936599D01*
X131857000Y-50157424D01*
X129623347Y-50157424D01*
X129601605Y-50135682D01*
X129457310Y-50039268D01*
X129296978Y-49972856D01*
X129126771Y-49939000D01*
X128953229Y-49939000D01*
X128783022Y-49972856D01*
X128622690Y-50039268D01*
X128478395Y-50135682D01*
X128355682Y-50258395D01*
X128259268Y-50402690D01*
X128192856Y-50563022D01*
X128159000Y-50733229D01*
X119406000Y-50733229D01*
X119406000Y-47617424D01*
X131857000Y-47617424D01*
X131857000Y-47842576D01*
X131900925Y-48063401D01*
X131987087Y-48271413D01*
X132112174Y-48458620D01*
X132271380Y-48617826D01*
X132458587Y-48742913D01*
X132666599Y-48829075D01*
X132887424Y-48873000D01*
X133112576Y-48873000D01*
X133333401Y-48829075D01*
X133541413Y-48742913D01*
X133728620Y-48617826D01*
X133887826Y-48458620D01*
X134012913Y-48271413D01*
X134099075Y-48063401D01*
X134143000Y-47842576D01*
X134143000Y-47617424D01*
X134099075Y-47396599D01*
X134012913Y-47188587D01*
X133887826Y-47001380D01*
X133728620Y-46842174D01*
X133541413Y-46717087D01*
X133333401Y-46630925D01*
X133112576Y-46587000D01*
X132887424Y-46587000D01*
X132666599Y-46630925D01*
X132458587Y-46717087D01*
X132271380Y-46842174D01*
X132112174Y-47001380D01*
X131987087Y-47188587D01*
X131900925Y-47396599D01*
X131857000Y-47617424D01*
X119406000Y-47617424D01*
X119406000Y-46357424D01*
X128457000Y-46357424D01*
X128457000Y-46582576D01*
X128500925Y-46803401D01*
X128587087Y-47011413D01*
X128712174Y-47198620D01*
X128871380Y-47357826D01*
X129058587Y-47482913D01*
X129266599Y-47569075D01*
X129487424Y-47613000D01*
X129712576Y-47613000D01*
X129933401Y-47569075D01*
X130141413Y-47482913D01*
X130328620Y-47357826D01*
X130487826Y-47198620D01*
X130612913Y-47011413D01*
X130699075Y-46803401D01*
X130743000Y-46582576D01*
X130743000Y-46357424D01*
X130699075Y-46136599D01*
X130612913Y-45928587D01*
X130487826Y-45741380D01*
X130328620Y-45582174D01*
X130141413Y-45457087D01*
X129933401Y-45370925D01*
X129712576Y-45327000D01*
X129487424Y-45327000D01*
X129266599Y-45370925D01*
X129058587Y-45457087D01*
X128871380Y-45582174D01*
X128712174Y-45741380D01*
X128587087Y-45928587D01*
X128500925Y-46136599D01*
X128457000Y-46357424D01*
X119406000Y-46357424D01*
X119406000Y-43817424D01*
X128457000Y-43817424D01*
X128457000Y-44042576D01*
X128500925Y-44263401D01*
X128587087Y-44471413D01*
X128712174Y-44658620D01*
X128871380Y-44817826D01*
X129058587Y-44942913D01*
X129266599Y-45029075D01*
X129487424Y-45073000D01*
X129712576Y-45073000D01*
X129933401Y-45029075D01*
X130141413Y-44942913D01*
X130328620Y-44817826D01*
X130487826Y-44658620D01*
X130612913Y-44471413D01*
X130699075Y-44263401D01*
X130743000Y-44042576D01*
X130743000Y-43817424D01*
X130699075Y-43596599D01*
X130612913Y-43388587D01*
X130487826Y-43201380D01*
X130328620Y-43042174D01*
X130141413Y-42917087D01*
X129933401Y-42830925D01*
X129712576Y-42787000D01*
X129487424Y-42787000D01*
X129266599Y-42830925D01*
X129058587Y-42917087D01*
X128871380Y-43042174D01*
X128712174Y-43201380D01*
X128587087Y-43388587D01*
X128500925Y-43596599D01*
X128457000Y-43817424D01*
X119406000Y-43817424D01*
X119406000Y-40127000D01*
X132186554Y-40127000D01*
X132112174Y-40201380D01*
G37*
%TD.AperFunction*%
D27*
X139261500Y-47376922D02*
X139291513Y-47527809D01*
X139350387Y-47669942D01*
X139435858Y-47797859D01*
X139536500Y-47898501D01*
X139536501Y-48559755D01*
X139534000Y-48585147D01*
X139534000Y-48585154D01*
X139531553Y-48610000D01*
X139534000Y-48634846D01*
X139534001Y-69006142D01*
X139531553Y-69030998D01*
X139541322Y-69130190D01*
X139570255Y-69225572D01*
X139570256Y-69225573D01*
X139614475Y-69308299D01*
X139502141Y-69383358D01*
X139393358Y-69492141D01*
X139307887Y-69620058D01*
X139249013Y-69762191D01*
X139219000Y-69913078D01*
X139219000Y-70055408D01*
X138657442Y-70616967D01*
X138657442Y-47870649D01*
X139261500Y-47266591D01*
X139261500Y-47376922D01*
%TA.AperFunction,Conductor*%
D28*
G36*
X139261500Y-47376922D02*
G01*
X139291513Y-47527809D01*
X139350387Y-47669942D01*
X139435858Y-47797859D01*
X139536500Y-47898501D01*
X139536501Y-48559755D01*
X139534000Y-48585147D01*
X139534000Y-48585154D01*
X139531553Y-48610000D01*
X139534000Y-48634846D01*
X139534001Y-69006142D01*
X139531553Y-69030998D01*
X139541322Y-69130190D01*
X139570255Y-69225572D01*
X139570256Y-69225573D01*
X139614475Y-69308299D01*
X139502141Y-69383358D01*
X139393358Y-69492141D01*
X139307887Y-69620058D01*
X139249013Y-69762191D01*
X139219000Y-69913078D01*
X139219000Y-70055408D01*
X138657442Y-70616967D01*
X138657442Y-47870649D01*
X139261500Y-47266591D01*
X139261500Y-47376922D01*
G37*
%TD.AperFunction*%
D27*
X136570387Y-52319942D02*
X136655858Y-52447859D01*
X136764641Y-52556642D01*
X136892558Y-52642113D01*
X137034691Y-52700987D01*
X137185578Y-52731000D01*
X137339422Y-52731000D01*
X137490309Y-52700987D01*
X137632442Y-52642113D01*
X137645442Y-52633427D01*
X137645443Y-67179153D01*
X136536000Y-66069711D01*
X136536000Y-52236925D01*
X136570387Y-52319942D01*
%TA.AperFunction,Conductor*%
D28*
G36*
X136570387Y-52319942D02*
G01*
X136655858Y-52447859D01*
X136764641Y-52556642D01*
X136892558Y-52642113D01*
X137034691Y-52700987D01*
X137185578Y-52731000D01*
X137339422Y-52731000D01*
X137490309Y-52700987D01*
X137632442Y-52642113D01*
X137645442Y-52633427D01*
X137645443Y-67179153D01*
X136536000Y-66069711D01*
X136536000Y-52236925D01*
X136570387Y-52319942D01*
G37*
%TD.AperFunction*%
D27*
X153796441Y-45485138D02*
X153713932Y-45585675D01*
X153632125Y-45738726D01*
X153581749Y-45904795D01*
X153564738Y-46077500D01*
X153581749Y-46250205D01*
X153632125Y-46416274D01*
X153713932Y-46569325D01*
X153824026Y-46703474D01*
X153958175Y-46813568D01*
X154111226Y-46895375D01*
X154277295Y-46945751D01*
X154450000Y-46962762D01*
X154622705Y-46945751D01*
X154788774Y-46895375D01*
X154941825Y-46813568D01*
X155042362Y-46731059D01*
X161646422Y-40127000D01*
X165731500Y-40127000D01*
X165731501Y-41338281D01*
X165681747Y-41502296D01*
X165670893Y-41612500D01*
X165664737Y-41675001D01*
X165668999Y-41718271D01*
X165669000Y-45245078D01*
X153507643Y-57406436D01*
X153507637Y-57406441D01*
X152610104Y-58303975D01*
X152617144Y-58286978D01*
X152651000Y-58116771D01*
X152651000Y-57943229D01*
X152617144Y-57773022D01*
X152550732Y-57612690D01*
X152454318Y-57468395D01*
X152331605Y-57345682D01*
X152187310Y-57249268D01*
X152026978Y-57182856D01*
X151856771Y-57149000D01*
X151683229Y-57149000D01*
X151513022Y-57182856D01*
X151352690Y-57249268D01*
X151208395Y-57345682D01*
X151085682Y-57468395D01*
X150989268Y-57612690D01*
X150922856Y-57773022D01*
X150889000Y-57943229D01*
X150889000Y-58116771D01*
X150922856Y-58286978D01*
X150989268Y-58447310D01*
X151085682Y-58591605D01*
X151208395Y-58714318D01*
X151352690Y-58810732D01*
X151513022Y-58877144D01*
X151683229Y-58911000D01*
X151856771Y-58911000D01*
X152026978Y-58877144D01*
X152043975Y-58870103D01*
X151795079Y-59119000D01*
X142906727Y-59119000D01*
X142777294Y-59131748D01*
X142611225Y-59182125D01*
X142458175Y-59263932D01*
X142324025Y-59374025D01*
X142213932Y-59508175D01*
X142166492Y-59596930D01*
X142046000Y-59476438D01*
X142046000Y-47188501D01*
X142146642Y-47087859D01*
X142232113Y-46959942D01*
X142290987Y-46817809D01*
X142321000Y-46666922D01*
X142321000Y-46513078D01*
X142290987Y-46362191D01*
X142232113Y-46220058D01*
X142146642Y-46092141D01*
X142037859Y-45983358D01*
X141909942Y-45897887D01*
X141767809Y-45839013D01*
X141616922Y-45809000D01*
X141463078Y-45809000D01*
X141312191Y-45839013D01*
X141170058Y-45897887D01*
X141042141Y-45983358D01*
X140933358Y-46092141D01*
X140847887Y-46220058D01*
X140789013Y-46362191D01*
X140759000Y-46513078D01*
X140759000Y-46666922D01*
X140789013Y-46817809D01*
X140847887Y-46959942D01*
X140933358Y-47087859D01*
X141034000Y-47188501D01*
X141034000Y-47888146D01*
X140987809Y-47869013D01*
X140836922Y-47839000D01*
X140683078Y-47839000D01*
X140589359Y-47857642D01*
X140649142Y-47797859D01*
X140734613Y-47669942D01*
X140793487Y-47527809D01*
X140823500Y-47376922D01*
X140823500Y-47223078D01*
X140793487Y-47072191D01*
X140734613Y-46930058D01*
X140649142Y-46802141D01*
X140540359Y-46693358D01*
X140412442Y-46607887D01*
X140270309Y-46549013D01*
X140199860Y-46535000D01*
X140270309Y-46520987D01*
X140412442Y-46462113D01*
X140540359Y-46376642D01*
X140649142Y-46267859D01*
X140734613Y-46139942D01*
X140793487Y-45997809D01*
X140823500Y-45846922D01*
X140823500Y-45693078D01*
X140805185Y-45600999D01*
X144850408Y-45600999D01*
X144879000Y-45629591D01*
X144879000Y-45771922D01*
X144909013Y-45922809D01*
X144917343Y-45942919D01*
X144849946Y-45897886D01*
X144707813Y-45839012D01*
X144556926Y-45808999D01*
X144403082Y-45808999D01*
X144252195Y-45839012D01*
X144110062Y-45897886D01*
X143982145Y-45983357D01*
X143873362Y-46092140D01*
X143787891Y-46220057D01*
X143729017Y-46362190D01*
X143699004Y-46513077D01*
X143699004Y-46666921D01*
X143729017Y-46817808D01*
X143787891Y-46959941D01*
X143873362Y-47087858D01*
X143982145Y-47196641D01*
X144110062Y-47282112D01*
X144252195Y-47340986D01*
X144403082Y-47370999D01*
X144545413Y-47370999D01*
X148324000Y-51149587D01*
X148324001Y-54131498D01*
X148223358Y-54232141D01*
X148137887Y-54360058D01*
X148079013Y-54502191D01*
X148049000Y-54653078D01*
X148049000Y-54806922D01*
X148079013Y-54957809D01*
X148137887Y-55099942D01*
X148223358Y-55227859D01*
X148332141Y-55336642D01*
X148460058Y-55422113D01*
X148602191Y-55480987D01*
X148753078Y-55511000D01*
X148906922Y-55511000D01*
X149057809Y-55480987D01*
X149199942Y-55422113D01*
X149327859Y-55336642D01*
X149436642Y-55227859D01*
X149522113Y-55099942D01*
X149580987Y-54957809D01*
X149611000Y-54806922D01*
X149611000Y-54653078D01*
X149580987Y-54502191D01*
X149522113Y-54360058D01*
X149436642Y-54232141D01*
X149336000Y-54131499D01*
X149336000Y-50964840D01*
X149338447Y-50939994D01*
X149336000Y-50915148D01*
X149336000Y-50915141D01*
X149328678Y-50840802D01*
X149299745Y-50745420D01*
X149252759Y-50657516D01*
X149189527Y-50580468D01*
X149170220Y-50564623D01*
X145261004Y-46655408D01*
X145261004Y-46513077D01*
X145230991Y-46362190D01*
X145222661Y-46342080D01*
X145290058Y-46387113D01*
X145432191Y-46445987D01*
X145583078Y-46476000D01*
X145736922Y-46476000D01*
X145887809Y-46445987D01*
X146029942Y-46387113D01*
X146078059Y-46354962D01*
X146093358Y-46377859D01*
X146202141Y-46486642D01*
X146330058Y-46572113D01*
X146472191Y-46630987D01*
X146623078Y-46661000D01*
X146776922Y-46661000D01*
X146778214Y-46660743D01*
X146799013Y-46765309D01*
X146857887Y-46907442D01*
X146943358Y-47035359D01*
X147052141Y-47144142D01*
X147180058Y-47229613D01*
X147322191Y-47288487D01*
X147473078Y-47318500D01*
X147626922Y-47318500D01*
X147777809Y-47288487D01*
X147919942Y-47229613D01*
X148047859Y-47144142D01*
X148050000Y-47142001D01*
X148052141Y-47144142D01*
X148180058Y-47229613D01*
X148322191Y-47288487D01*
X148473078Y-47318500D01*
X148626922Y-47318500D01*
X148777809Y-47288487D01*
X148919942Y-47229613D01*
X149047859Y-47144142D01*
X149156642Y-47035359D01*
X149242113Y-46907442D01*
X149300987Y-46765309D01*
X149308784Y-46726110D01*
X149329013Y-46827809D01*
X149387887Y-46969942D01*
X149473358Y-47097859D01*
X149582141Y-47206642D01*
X149710058Y-47292113D01*
X149852191Y-47350987D01*
X150003078Y-47381000D01*
X150156922Y-47381000D01*
X150307809Y-47350987D01*
X150449942Y-47292113D01*
X150577859Y-47206642D01*
X150686642Y-47097859D01*
X150709881Y-47063078D01*
X156649000Y-47063078D01*
X156649000Y-47216922D01*
X156679013Y-47367809D01*
X156737887Y-47509942D01*
X156823358Y-47637859D01*
X156932141Y-47746642D01*
X157060058Y-47832113D01*
X157202191Y-47890987D01*
X157353078Y-47921000D01*
X157506922Y-47921000D01*
X157657809Y-47890987D01*
X157799942Y-47832113D01*
X157927859Y-47746642D01*
X158036642Y-47637859D01*
X158122113Y-47509942D01*
X158180987Y-47367809D01*
X158211000Y-47216922D01*
X158211000Y-47063078D01*
X158180987Y-46912191D01*
X158122113Y-46770058D01*
X158036642Y-46642141D01*
X157927859Y-46533358D01*
X157799942Y-46447887D01*
X157657809Y-46389013D01*
X157506922Y-46359000D01*
X157353078Y-46359000D01*
X157202191Y-46389013D01*
X157060058Y-46447887D01*
X156932141Y-46533358D01*
X156823358Y-46642141D01*
X156737887Y-46770058D01*
X156679013Y-46912191D01*
X156649000Y-47063078D01*
X150709881Y-47063078D01*
X150772113Y-46969942D01*
X150830987Y-46827809D01*
X150861000Y-46676922D01*
X150861000Y-46523078D01*
X150830987Y-46372191D01*
X150772113Y-46230058D01*
X150686642Y-46102141D01*
X150577859Y-45993358D01*
X150449942Y-45907887D01*
X150307809Y-45849013D01*
X150156922Y-45819000D01*
X150003078Y-45819000D01*
X149979377Y-45823714D01*
X152577982Y-43225110D01*
X152574013Y-43234691D01*
X152544000Y-43385578D01*
X152544000Y-43539422D01*
X152574013Y-43690309D01*
X152632887Y-43832442D01*
X152718358Y-43960359D01*
X152827141Y-44069142D01*
X152955058Y-44154613D01*
X153097191Y-44213487D01*
X153248078Y-44243500D01*
X153401922Y-44243500D01*
X153552809Y-44213487D01*
X153694942Y-44154613D01*
X153822859Y-44069142D01*
X153931642Y-43960359D01*
X154017113Y-43832442D01*
X154075987Y-43690309D01*
X154106000Y-43539422D01*
X154106000Y-43397091D01*
X157376091Y-40127000D01*
X159154578Y-40127000D01*
X153796441Y-45485138D01*
%TA.AperFunction,Conductor*%
D28*
G36*
X153796441Y-45485138D02*
G01*
X153713932Y-45585675D01*
X153632125Y-45738726D01*
X153581749Y-45904795D01*
X153564738Y-46077500D01*
X153581749Y-46250205D01*
X153632125Y-46416274D01*
X153713932Y-46569325D01*
X153824026Y-46703474D01*
X153958175Y-46813568D01*
X154111226Y-46895375D01*
X154277295Y-46945751D01*
X154450000Y-46962762D01*
X154622705Y-46945751D01*
X154788774Y-46895375D01*
X154941825Y-46813568D01*
X155042362Y-46731059D01*
X161646422Y-40127000D01*
X165731500Y-40127000D01*
X165731501Y-41338281D01*
X165681747Y-41502296D01*
X165670893Y-41612500D01*
X165664737Y-41675001D01*
X165668999Y-41718271D01*
X165669000Y-45245078D01*
X153507643Y-57406436D01*
X153507637Y-57406441D01*
X152610104Y-58303975D01*
X152617144Y-58286978D01*
X152651000Y-58116771D01*
X152651000Y-57943229D01*
X152617144Y-57773022D01*
X152550732Y-57612690D01*
X152454318Y-57468395D01*
X152331605Y-57345682D01*
X152187310Y-57249268D01*
X152026978Y-57182856D01*
X151856771Y-57149000D01*
X151683229Y-57149000D01*
X151513022Y-57182856D01*
X151352690Y-57249268D01*
X151208395Y-57345682D01*
X151085682Y-57468395D01*
X150989268Y-57612690D01*
X150922856Y-57773022D01*
X150889000Y-57943229D01*
X150889000Y-58116771D01*
X150922856Y-58286978D01*
X150989268Y-58447310D01*
X151085682Y-58591605D01*
X151208395Y-58714318D01*
X151352690Y-58810732D01*
X151513022Y-58877144D01*
X151683229Y-58911000D01*
X151856771Y-58911000D01*
X152026978Y-58877144D01*
X152043975Y-58870103D01*
X151795079Y-59119000D01*
X142906727Y-59119000D01*
X142777294Y-59131748D01*
X142611225Y-59182125D01*
X142458175Y-59263932D01*
X142324025Y-59374025D01*
X142213932Y-59508175D01*
X142166492Y-59596930D01*
X142046000Y-59476438D01*
X142046000Y-47188501D01*
X142146642Y-47087859D01*
X142232113Y-46959942D01*
X142290987Y-46817809D01*
X142321000Y-46666922D01*
X142321000Y-46513078D01*
X142290987Y-46362191D01*
X142232113Y-46220058D01*
X142146642Y-46092141D01*
X142037859Y-45983358D01*
X141909942Y-45897887D01*
X141767809Y-45839013D01*
X141616922Y-45809000D01*
X141463078Y-45809000D01*
X141312191Y-45839013D01*
X141170058Y-45897887D01*
X141042141Y-45983358D01*
X140933358Y-46092141D01*
X140847887Y-46220058D01*
X140789013Y-46362191D01*
X140759000Y-46513078D01*
X140759000Y-46666922D01*
X140789013Y-46817809D01*
X140847887Y-46959942D01*
X140933358Y-47087859D01*
X141034000Y-47188501D01*
X141034000Y-47888146D01*
X140987809Y-47869013D01*
X140836922Y-47839000D01*
X140683078Y-47839000D01*
X140589359Y-47857642D01*
X140649142Y-47797859D01*
X140734613Y-47669942D01*
X140793487Y-47527809D01*
X140823500Y-47376922D01*
X140823500Y-47223078D01*
X140793487Y-47072191D01*
X140734613Y-46930058D01*
X140649142Y-46802141D01*
X140540359Y-46693358D01*
X140412442Y-46607887D01*
X140270309Y-46549013D01*
X140199860Y-46535000D01*
X140270309Y-46520987D01*
X140412442Y-46462113D01*
X140540359Y-46376642D01*
X140649142Y-46267859D01*
X140734613Y-46139942D01*
X140793487Y-45997809D01*
X140823500Y-45846922D01*
X140823500Y-45693078D01*
X140805185Y-45600999D01*
X144850408Y-45600999D01*
X144879000Y-45629591D01*
X144879000Y-45771922D01*
X144909013Y-45922809D01*
X144917343Y-45942919D01*
X144849946Y-45897886D01*
X144707813Y-45839012D01*
X144556926Y-45808999D01*
X144403082Y-45808999D01*
X144252195Y-45839012D01*
X144110062Y-45897886D01*
X143982145Y-45983357D01*
X143873362Y-46092140D01*
X143787891Y-46220057D01*
X143729017Y-46362190D01*
X143699004Y-46513077D01*
X143699004Y-46666921D01*
X143729017Y-46817808D01*
X143787891Y-46959941D01*
X143873362Y-47087858D01*
X143982145Y-47196641D01*
X144110062Y-47282112D01*
X144252195Y-47340986D01*
X144403082Y-47370999D01*
X144545413Y-47370999D01*
X148324000Y-51149587D01*
X148324001Y-54131498D01*
X148223358Y-54232141D01*
X148137887Y-54360058D01*
X148079013Y-54502191D01*
X148049000Y-54653078D01*
X148049000Y-54806922D01*
X148079013Y-54957809D01*
X148137887Y-55099942D01*
X148223358Y-55227859D01*
X148332141Y-55336642D01*
X148460058Y-55422113D01*
X148602191Y-55480987D01*
X148753078Y-55511000D01*
X148906922Y-55511000D01*
X149057809Y-55480987D01*
X149199942Y-55422113D01*
X149327859Y-55336642D01*
X149436642Y-55227859D01*
X149522113Y-55099942D01*
X149580987Y-54957809D01*
X149611000Y-54806922D01*
X149611000Y-54653078D01*
X149580987Y-54502191D01*
X149522113Y-54360058D01*
X149436642Y-54232141D01*
X149336000Y-54131499D01*
X149336000Y-50964840D01*
X149338447Y-50939994D01*
X149336000Y-50915148D01*
X149336000Y-50915141D01*
X149328678Y-50840802D01*
X149299745Y-50745420D01*
X149252759Y-50657516D01*
X149189527Y-50580468D01*
X149170220Y-50564623D01*
X145261004Y-46655408D01*
X145261004Y-46513077D01*
X145230991Y-46362190D01*
X145222661Y-46342080D01*
X145290058Y-46387113D01*
X145432191Y-46445987D01*
X145583078Y-46476000D01*
X145736922Y-46476000D01*
X145887809Y-46445987D01*
X146029942Y-46387113D01*
X146078059Y-46354962D01*
X146093358Y-46377859D01*
X146202141Y-46486642D01*
X146330058Y-46572113D01*
X146472191Y-46630987D01*
X146623078Y-46661000D01*
X146776922Y-46661000D01*
X146778214Y-46660743D01*
X146799013Y-46765309D01*
X146857887Y-46907442D01*
X146943358Y-47035359D01*
X147052141Y-47144142D01*
X147180058Y-47229613D01*
X147322191Y-47288487D01*
X147473078Y-47318500D01*
X147626922Y-47318500D01*
X147777809Y-47288487D01*
X147919942Y-47229613D01*
X148047859Y-47144142D01*
X148050000Y-47142001D01*
X148052141Y-47144142D01*
X148180058Y-47229613D01*
X148322191Y-47288487D01*
X148473078Y-47318500D01*
X148626922Y-47318500D01*
X148777809Y-47288487D01*
X148919942Y-47229613D01*
X149047859Y-47144142D01*
X149156642Y-47035359D01*
X149242113Y-46907442D01*
X149300987Y-46765309D01*
X149308784Y-46726110D01*
X149329013Y-46827809D01*
X149387887Y-46969942D01*
X149473358Y-47097859D01*
X149582141Y-47206642D01*
X149710058Y-47292113D01*
X149852191Y-47350987D01*
X150003078Y-47381000D01*
X150156922Y-47381000D01*
X150307809Y-47350987D01*
X150449942Y-47292113D01*
X150577859Y-47206642D01*
X150686642Y-47097859D01*
X150709881Y-47063078D01*
X156649000Y-47063078D01*
X156649000Y-47216922D01*
X156679013Y-47367809D01*
X156737887Y-47509942D01*
X156823358Y-47637859D01*
X156932141Y-47746642D01*
X157060058Y-47832113D01*
X157202191Y-47890987D01*
X157353078Y-47921000D01*
X157506922Y-47921000D01*
X157657809Y-47890987D01*
X157799942Y-47832113D01*
X157927859Y-47746642D01*
X158036642Y-47637859D01*
X158122113Y-47509942D01*
X158180987Y-47367809D01*
X158211000Y-47216922D01*
X158211000Y-47063078D01*
X158180987Y-46912191D01*
X158122113Y-46770058D01*
X158036642Y-46642141D01*
X157927859Y-46533358D01*
X157799942Y-46447887D01*
X157657809Y-46389013D01*
X157506922Y-46359000D01*
X157353078Y-46359000D01*
X157202191Y-46389013D01*
X157060058Y-46447887D01*
X156932141Y-46533358D01*
X156823358Y-46642141D01*
X156737887Y-46770058D01*
X156679013Y-46912191D01*
X156649000Y-47063078D01*
X150709881Y-47063078D01*
X150772113Y-46969942D01*
X150830987Y-46827809D01*
X150861000Y-46676922D01*
X150861000Y-46523078D01*
X150830987Y-46372191D01*
X150772113Y-46230058D01*
X150686642Y-46102141D01*
X150577859Y-45993358D01*
X150449942Y-45907887D01*
X150307809Y-45849013D01*
X150156922Y-45819000D01*
X150003078Y-45819000D01*
X149979377Y-45823714D01*
X152577982Y-43225110D01*
X152574013Y-43234691D01*
X152544000Y-43385578D01*
X152544000Y-43539422D01*
X152574013Y-43690309D01*
X152632887Y-43832442D01*
X152718358Y-43960359D01*
X152827141Y-44069142D01*
X152955058Y-44154613D01*
X153097191Y-44213487D01*
X153248078Y-44243500D01*
X153401922Y-44243500D01*
X153552809Y-44213487D01*
X153694942Y-44154613D01*
X153822859Y-44069142D01*
X153931642Y-43960359D01*
X154017113Y-43832442D01*
X154075987Y-43690309D01*
X154106000Y-43539422D01*
X154106000Y-43397091D01*
X157376091Y-40127000D01*
X159154578Y-40127000D01*
X153796441Y-45485138D01*
G37*
%TD.AperFunction*%
%TD*%
M02*
