M48
; DRILL file {KiCad (5.1.7)-1} date 03/06/21 18:12:46
; FORMAT={-:-/ absolute / inch / decimal}
; #@! TF.CreationDate,2021-03-06T18:12:46-08:00
; #@! TF.GenerationSoftware,Kicad,Pcbnew,(5.1.7)-1
; #@! TF.FileFunction,Plated,1,4,PTH
FMAT,2
INCH
T1C0.0157
T2C0.0197
T3C0.0236
T4C0.0299
T5C0.0300
T6C0.0394
T7C0.0402
T8C0.0866
T9C0.1535
T10C0.2165
%
G90
G05
T1
X4.7244Y-1.6142
X4.7244Y-1.6929
X4.7244Y-1.7717
X4.7244Y-1.8504
X4.7244Y-1.9291
X4.7244Y-2.0079
X4.7244Y-2.0866
X4.7244Y-2.1654
X4.7244Y-2.2441
X4.7244Y-2.3228
X4.7244Y-2.4016
X4.7638Y-1.6535
X4.7638Y-1.7323
X4.7638Y-1.811
X4.7638Y-1.8898
X4.7638Y-1.9685
X4.7638Y-2.0472
X4.7638Y-2.126
X4.7638Y-2.2047
X4.7638Y-2.2835
X4.7638Y-2.3622
X4.7795Y-1.1516
X4.8031Y-1.6142
X4.8425Y-1.6535
X4.8573Y-2.1335
X4.8573Y-2.2122
X4.8573Y-2.2909
X4.8573Y-2.3697
X4.8573Y-2.4484
X4.8622Y-3.0555
X4.8819Y-1.6142
X4.9071Y-3.0543
X4.9213Y-1.6535
X4.9409Y-1.1506
X4.9606Y-1.6142
X4.9724Y-0.8307
X5.0Y-1.6535
X5.0Y-2.1457
X5.0Y-2.2244
X5.0157Y-3.0276
X5.0394Y-1.6142
X5.0394Y-2.185
X5.0472Y-2.9921
X5.063Y-2.6024
X5.0709Y-2.5591
X5.0787Y-1.6535
X5.0787Y-2.1457
X5.0787Y-2.2244
X5.0787Y-2.9528
X5.1004Y-0.8307
X5.1024Y-1.1506
X5.1102Y-2.6535
X5.1142Y-2.6063
X5.1142Y-2.9173
X5.1181Y-1.6142
X5.1181Y-2.3425
X5.1378Y-3.1102
X5.1575Y-2.3819
X5.1575Y-2.6575
X5.1866Y-3.0327
X5.1969Y-2.3425
X5.1969Y-2.4213
X5.1969Y-3.1693
X5.1983Y-1.3543
X5.2283Y-0.8307
X5.2295Y-2.9474
X5.2362Y-2.3819
X5.2362Y-2.4606
X5.2559Y-3.2283
X5.2583Y-2.9787
X5.2583Y-3.0956
X5.2648Y-1.1506
X5.268Y-2.9089
X5.2756Y-2.4213
X5.2756Y-2.5
X5.2822Y-1.4268
X5.3071Y-1.5984
X5.315Y-3.2874
X5.3504Y-1.5984
X5.3543Y-3.3268
X5.3555Y-1.7248
X5.3563Y-0.8307
X5.3854Y-2.9795
X5.3854Y-3.0122
X5.3859Y-2.9315
X5.387Y-2.8795
X5.3874Y-1.8283
X5.3882Y-1.7902
X5.3937Y-3.3661
X5.402Y-2.2665
X5.404Y-2.0453
X5.4079Y-1.5035
X5.4126Y-1.3546
X5.4262Y-1.1506
X5.4331Y-3.4055
X5.4386Y-3.137
X5.4548Y-2.9377
X5.4724Y-3.4449
X5.4795Y-2.3484
X5.4795Y-2.3839
X5.4803Y-2.422
X5.4831Y-2.0449
X5.4843Y-0.8307
X5.4862Y-3.0768
X5.4951Y-3.1142
X5.5118Y-1.7323
X5.5118Y-2.7555
X5.5118Y-3.4843
X5.5135Y-1.802
X5.5135Y-1.8622
X5.5327Y-1.3566
X5.5378Y-1.5035
X5.5417Y-1.9142
X5.5512Y-3.5236
X5.563Y-1.711
X5.5634Y-1.7469
X5.565Y-2.6555
X5.5724Y-1.8343
X5.5876Y-1.1506
X5.5906Y-3.563
X5.6122Y-0.8307
X5.6122Y-1.9476
X5.6138Y-2.0283
X5.6138Y-2.0669
X5.6165Y-2.8047
X5.6236Y-2.8646
X5.6236Y-2.9367
X5.6236Y-3.0142
X5.6236Y-3.1622
X5.628Y-2.3622
X5.6299Y-3.6024
X5.6556Y-1.5462
X5.6693Y-3.2283
X5.6693Y-3.6417
X5.6788Y-1.5168
X5.6791Y-1.7106
X5.6839Y-2.8895
X5.6843Y-2.8169
X5.6882Y-1.8343
X5.7087Y-1.4911
X5.7087Y-3.6811
X5.7346Y-1.799
X5.7402Y-0.8307
X5.7476Y-2.7563
X5.748Y-2.8343
X5.748Y-3.2283
X5.748Y-3.7205
X5.7484Y-2.7169
X5.7484Y-2.7949
X5.749Y-1.1516
X5.7677Y-2.4606
X5.7756Y-1.8063
X5.7874Y-2.7169
X5.7874Y-2.7559
X5.7874Y-2.7957
X5.7874Y-3.6811
X5.7941Y-2.9713
X5.7953Y-2.9374
X5.8071Y-2.4606
X5.8091Y-1.8322
X5.826Y-2.2677
X5.826Y-2.3071
X5.8268Y-2.2307
X5.8268Y-2.5197
X5.8268Y-2.7169
X5.8268Y-3.0709
X5.8268Y-3.1496
X5.8268Y-3.2283
X5.8268Y-3.7205
X5.8272Y-2.7559
X5.8291Y-2.9378
X5.8295Y-2.9012
X5.8484Y-1.8322
X5.8594Y-2.1547
X5.865Y-2.3067
X5.8654Y-2.2681
X5.8657Y-2.7177
X5.8661Y-2.2307
X5.8661Y-2.5197
X5.8661Y-3.6811
X5.8681Y-0.8307
X5.8969Y-2.5858
X5.898Y-2.6362
X5.9047Y-2.2681
X5.9047Y-2.3071
X5.9055Y-2.2307
X5.9055Y-3.7205
X5.9087Y-1.8346
X5.9094Y-1.1506
X5.9419Y-1.561
X5.9419Y-1.5984
X5.9449Y-3.6811
X5.9561Y-1.5093
X5.9843Y-3.7205
X5.9961Y-0.8307
X6.0193Y-2.613
X6.0197Y-2.6634
X6.0236Y-3.6811
X6.0364Y-1.7111
X6.0575Y-2.0516
X6.061Y-1.3558
X6.063Y-3.7205
X6.0669Y-2.2858
X6.0709Y-1.1516
X6.0807Y-1.8141
X6.1024Y-1.7008
X6.1024Y-3.6811
X6.1088Y-2.748
X6.11Y-2.6343
X6.124Y-0.8307
X6.1417Y-1.6654
X6.1417Y-3.7205
X6.1732Y-1.6339
X6.1777Y-2.8189
X6.1811Y-3.6811
X6.1819Y-1.3578
X6.1866Y-1.5055
X6.198Y-1.8559
X6.2047Y-1.6024
X6.2205Y-3.7205
X6.2323Y-1.1516
X6.2421Y-1.3578
X6.2421Y-2.4409
X6.253Y-0.8307
X6.2598Y-3.6811
X6.2633Y-2.6378
X6.2634Y-2.3063
X6.2795Y-1.8583
X6.2795Y-1.8937
X6.2992Y-3.7205
X6.3071Y-1.9213
X6.3351Y-2.5118
X6.3351Y-2.6378
X6.3386Y-2.8012
X6.3386Y-3.6811
X6.3425Y-1.9213
X6.3445Y-2.874
X6.378Y-1.5945
X6.378Y-3.7205
X6.3799Y-0.8307
X6.3937Y-1.1516
X6.3962Y-1.3543
X6.4102Y-1.5433
X6.4173Y-3.6811
X6.4528Y-1.5945
X6.4528Y-1.6417
X6.4567Y-3.7205
X6.4783Y-2.5748
X6.4961Y-1.5945
X6.4961Y-1.6417
X6.4961Y-3.6811
X6.5354Y-3.7205
X6.5561Y-1.1516
X6.5576Y-1.4154
X6.5595Y-1.4764
X6.5595Y-1.5374
X6.5748Y-2.815
X6.5748Y-2.8937
X6.5748Y-2.9724
X6.5748Y-3.0512
X6.5748Y-3.1299
X6.5748Y-3.2087
X6.5748Y-3.2874
X6.5748Y-3.3661
X6.5748Y-3.4449
X6.5748Y-3.5236
X6.5748Y-3.6024
X6.5748Y-3.6811
X6.6142Y-2.6969
X6.6142Y-2.7756
X6.6142Y-2.8543
X6.6142Y-2.9331
X6.6142Y-3.0118
X6.6142Y-3.0906
X6.6142Y-3.1693
X6.6142Y-3.248
X6.6142Y-3.3268
X6.6142Y-3.4055
X6.6142Y-3.4843
X6.6142Y-3.563
X6.6142Y-3.6417
X6.6142Y-3.7205
X6.6535Y-2.4803
X6.7323Y-1.9488
X6.7323Y-2.0276
X6.7323Y-3.622
X6.7323Y-3.7008
X6.7323Y-3.7795
X6.7717Y-1.9882
X6.7717Y-2.0669
X6.7717Y-3.5827
X6.7717Y-3.6614
X6.7717Y-3.7402
X6.811Y-1.5551
X6.811Y-1.6339
X6.811Y-1.9488
X6.811Y-2.0276
X6.811Y-3.622
X6.811Y-3.7008
X6.811Y-3.7795
X6.8504Y-1.5157
X6.8504Y-1.5945
X6.8504Y-1.9882
X6.8504Y-2.0669
X6.8504Y-3.5827
X6.8504Y-3.6614
X6.8504Y-3.7402
X6.8898Y-1.5551
X6.8898Y-1.6339
X6.8898Y-1.9488
X6.8898Y-2.0276
X6.8898Y-3.622
X6.8898Y-3.7008
X6.8898Y-3.7795
X6.9291Y-1.5157
X6.9291Y-1.5945
X6.9291Y-1.9882
X6.9291Y-2.0669
X6.9291Y-3.5827
X6.9291Y-3.6614
X6.9291Y-3.7402
X6.9685Y-1.5551
X6.9685Y-1.6339
X6.9685Y-1.6339
X6.9685Y-1.9488
X6.9685Y-2.0276
X6.9685Y-3.622
X6.9685Y-3.7008
X6.9685Y-3.7795
X7.0079Y-1.5157
X7.0079Y-1.5945
X7.0079Y-1.9882
X7.0079Y-2.0669
X7.0079Y-3.5827
X7.0079Y-3.6614
X7.0079Y-3.7402
X7.0472Y-1.5551
X7.0472Y-1.6339
X7.0472Y-1.9488
X7.0472Y-2.0276
X7.0472Y-3.622
X7.0472Y-3.7008
X7.0472Y-3.7795
X7.0866Y-1.5157
X7.0866Y-1.5945
X7.0866Y-1.9882
X7.0866Y-2.0669
X7.0866Y-3.5827
X7.0866Y-3.6614
X7.0866Y-3.7402
X7.126Y-1.5551
X7.126Y-1.6339
X7.126Y-1.9488
X7.126Y-2.0276
X7.126Y-3.622
X7.126Y-3.7008
X7.126Y-3.7795
X7.1654Y-1.5157
X7.1654Y-1.5945
X7.1654Y-1.9882
X7.1654Y-2.0669
X7.1654Y-3.5827
X7.1654Y-3.6614
X7.1654Y-3.7402
X7.2047Y-3.622
X7.2047Y-3.7008
X7.2047Y-3.7795
X7.2441Y-3.5827
X7.2441Y-3.6614
X7.2441Y-3.7402
X7.2638Y-0.9843
X7.2638Y-1.063
X7.2638Y-1.1417
X7.2835Y-3.622
X7.2835Y-3.7008
X7.2835Y-3.7795
X7.3031Y-1.0236
X7.3031Y-1.1024
X7.3031Y-1.1811
X7.3228Y-2.2244
X7.3228Y-2.3031
X7.3228Y-2.5591
X7.3228Y-2.6575
X7.3228Y-3.5827
X7.3228Y-3.6614
X7.3228Y-3.7402
X7.3425Y-0.9843
X7.3425Y-1.063
X7.3425Y-1.1417
X7.3622Y-2.2638
X7.3622Y-2.3425
X7.3622Y-2.5394
X7.3622Y-2.6181
X7.3622Y-3.622
X7.3622Y-3.7008
X7.3622Y-3.7795
X7.3819Y-1.0236
X7.3819Y-1.1024
X7.3819Y-1.1811
X7.4016Y-2.2244
X7.4016Y-2.3031
X7.4016Y-2.5787
X7.4016Y-2.6575
X7.4213Y-0.9843
X7.4213Y-1.063
X7.4213Y-1.1417
X7.4409Y-2.2638
X7.4409Y-2.3425
X7.4409Y-2.5394
X7.4409Y-2.6181
X7.4606Y-1.0236
X7.4606Y-1.1024
X7.4606Y-1.1811
X7.4803Y-2.2244
X7.4803Y-2.3031
X7.4803Y-2.5787
X7.4803Y-2.6575
X7.5Y-0.9843
X7.5Y-1.063
X7.5Y-1.1417
X7.5197Y-2.2638
X7.5197Y-2.3425
X7.5197Y-2.5394
X7.5197Y-2.6181
X7.5394Y-1.0236
X7.5394Y-1.1024
X7.5394Y-1.1811
X7.5591Y-2.2244
X7.5591Y-2.3031
X7.5591Y-2.5787
X7.5591Y-2.6575
X7.5787Y-0.9843
X7.5787Y-1.063
X7.5787Y-1.1417
X7.5984Y-2.2638
X7.5984Y-2.3425
X7.5984Y-2.5394
X7.5984Y-2.6181
X7.6181Y-1.0236
X7.6181Y-1.1024
X7.6181Y-1.1811
X7.6378Y-2.2244
X7.6378Y-2.3031
X7.6378Y-2.5787
X7.6378Y-2.6575
X7.6575Y-0.9843
X7.6575Y-1.063
X7.6575Y-1.1417
X7.6772Y-2.2638
X7.6772Y-2.3425
X7.6772Y-2.5394
X7.7559Y-1.6732
X7.7559Y-1.7717
X7.7756Y-3.2087
X7.7953Y-1.811
X7.815Y-2.7362
X7.8346Y-1.7717
X7.8543Y-2.6969
X7.874Y-1.811
X7.8937Y-2.6575
X7.8937Y-2.7362
X7.9134Y-1.7717
X7.9134Y-3.4252
X7.9134Y-3.5039
X7.9134Y-3.5827
X7.9331Y-2.6969
X7.9528Y-1.811
X7.9528Y-1.8898
X7.9528Y-3.4646
X7.9528Y-3.5433
X7.9724Y-2.6575
X7.9724Y-2.7362
X7.9724Y-2.938
X7.9764Y-2.0
X7.9921Y-1.7717
X7.9921Y-1.8504
X7.9921Y-3.4252
X7.9921Y-3.5039
X7.9921Y-3.5827
X8.0118Y-2.6969
X8.0118Y-2.7756
X8.0315Y-1.811
X8.0315Y-1.8898
X8.0315Y-3.4646
X8.0315Y-3.5433
X8.0512Y-2.6575
X8.0512Y-2.7362
X8.0709Y-1.7717
X8.0709Y-1.8504
X8.0709Y-3.4252
X8.0709Y-3.5039
X8.0709Y-3.5827
X8.0906Y-2.6969
X8.0906Y-2.7756
X8.1102Y-1.811
X8.1102Y-1.8898
X8.1102Y-3.4646
X8.1102Y-3.5433
X8.1132Y-2.563
X8.1299Y-2.6575
X8.1299Y-2.7362
X8.1496Y-1.7717
X8.1496Y-1.8504
X8.1496Y-3.4252
X8.1496Y-3.5039
X8.1496Y-3.5827
X8.1693Y-2.6969
X8.1693Y-2.7756
X8.1811Y-1.689
X8.189Y-1.811
X8.189Y-1.8898
X8.189Y-3.4646
X8.189Y-3.5433
X8.2283Y-3.4252
X8.2283Y-3.5039
X8.2283Y-3.5827
X8.2677Y-3.4646
X8.2677Y-3.5433
X8.3071Y-3.4252
X8.3071Y-3.5039
X8.3071Y-3.5827
X8.3465Y-3.4646
X8.3465Y-3.5433
X8.3858Y-3.4252
X8.3858Y-3.5039
X8.3858Y-3.5827
X8.4252Y-3.4646
X8.4252Y-3.5433
X8.4646Y-3.4252
X8.4646Y-3.5039
X8.4646Y-3.5827
X8.4843Y-0.9843
X8.4843Y-1.063
X8.4843Y-1.1417
X8.4843Y-2.0079
X8.4843Y-2.0866
X8.4843Y-2.2835
X8.4843Y-2.3622
X8.5039Y-3.4646
X8.5039Y-3.5433
X8.5236Y-1.0236
X8.5236Y-1.1024
X8.5236Y-1.1811
X8.5236Y-1.9685
X8.5236Y-2.0472
X8.5236Y-2.3228
X8.5236Y-2.4016
X8.5433Y-3.4252
X8.5433Y-3.5039
X8.5433Y-3.5827
X8.563Y-0.9843
X8.563Y-1.063
X8.563Y-1.1417
X8.563Y-1.1417
X8.563Y-2.0079
X8.563Y-2.0866
X8.563Y-2.2835
X8.563Y-2.3622
X8.5827Y-3.4646
X8.5827Y-3.5433
X8.6024Y-1.0236
X8.6024Y-1.1024
X8.6024Y-1.1811
X8.6024Y-1.9685
X8.6024Y-2.0472
X8.6024Y-2.3228
X8.6024Y-2.4016
X8.622Y-3.4252
X8.622Y-3.5039
X8.622Y-3.5827
X8.6417Y-0.9843
X8.6417Y-1.063
X8.6417Y-1.1417
X8.6417Y-2.0079
X8.6417Y-2.0866
X8.6417Y-2.2835
X8.6417Y-2.3622
X8.6614Y-3.4646
X8.6614Y-3.5433
X8.6811Y-1.0236
X8.6811Y-1.1024
X8.6811Y-1.1811
X8.6811Y-1.9685
X8.6811Y-2.0472
X8.6811Y-2.3228
X8.6811Y-2.4016
X8.7008Y-3.4252
X8.7008Y-3.5039
X8.7008Y-3.5827
X8.7205Y-0.9843
X8.7205Y-1.063
X8.7205Y-1.1417
X8.7205Y-2.0079
X8.7205Y-2.0866
X8.7205Y-2.2835
X8.7205Y-2.3622
X8.7598Y-1.0236
X8.7598Y-1.1024
X8.7598Y-1.1811
X8.7598Y-1.9685
X8.7598Y-2.0472
X8.7598Y-2.3228
X8.7598Y-2.4016
X8.7992Y-0.9843
X8.7992Y-1.063
X8.7992Y-1.1417
X8.7992Y-2.0079
X8.7992Y-2.0866
X8.7992Y-2.2835
X8.7992Y-2.3622
X8.8386Y-1.0236
X8.8386Y-1.1024
X8.8386Y-1.1811
X8.8386Y-1.9685
X8.8386Y-2.0472
X8.8386Y-2.3228
X8.8386Y-2.4016
X8.878Y-0.9843
X8.878Y-1.063
X8.878Y-1.1417
X8.937Y-2.0866
X8.937Y-2.1654
X8.937Y-2.3622
X8.937Y-2.4409
X8.9764Y-2.126
X8.9764Y-2.4016
X9.0157Y-2.0866
X9.0157Y-2.1654
X9.0157Y-2.3622
X9.0157Y-2.4409
X9.0551Y-2.126
X9.0551Y-2.4016
X9.0945Y-2.0866
X9.0945Y-2.1654
X9.0945Y-2.3622
X9.0945Y-2.4409
X9.1339Y-2.126
X9.1339Y-2.4016
X9.1732Y-2.0866
X9.1732Y-2.1654
X9.1732Y-2.3622
X9.1732Y-2.4409
X9.2126Y-2.126
X9.2126Y-2.4016
X9.252Y-2.0866
X9.252Y-2.1654
X9.252Y-2.3622
X9.252Y-2.4409
X9.2913Y-2.126
X9.2913Y-2.4016
X9.3307Y-2.0866
X9.3307Y-2.3622
X9.3307Y-2.4409
X9.3701Y-2.126
X9.3701Y-2.4016
X9.4094Y-2.0866
X9.4094Y-2.1654
X9.4094Y-2.4409
X9.2657Y-3.7008
X9.2848Y-3.6549
X9.2848Y-3.7467
X9.3307Y-3.6358
X9.3307Y-3.7657
X9.3766Y-3.6549
X9.3766Y-3.7467
X9.3957Y-3.7008
X4.7382Y-0.7087
X4.7572Y-0.6627
X4.7572Y-0.7546
X4.8031Y-0.6437
X4.8031Y-0.7736
X4.8491Y-0.6627
X4.8491Y-0.7546
X4.8681Y-0.7087
X4.7382Y-3.7008
X4.7572Y-3.6549
X4.7572Y-3.7467
X4.8031Y-3.6358
X4.8031Y-3.7657
X4.8491Y-3.6549
X4.8491Y-3.7467
X4.8681Y-3.7008
X9.2657Y-0.7087
X9.2848Y-0.6627
X9.2848Y-0.7546
X9.3307Y-0.6437
X9.3307Y-0.7736
X9.3766Y-0.6627
X9.3766Y-0.7546
X9.3957Y-0.7087
T2
X5.4685Y-3.2413
X4.7559Y-2.839
X5.5512Y-3.2409
X5.8803Y-2.4496
X5.9752Y-2.2846
X5.3547Y-1.6614
X5.0803Y-2.0008
X5.6858Y-2.7453
X6.1047Y-2.9547
T3
X8.5778Y-4.0945
X8.6249Y-3.9793
X8.6249Y-4.2097
X8.7402Y-3.9321
X8.7402Y-4.2569
X8.8554Y-3.9793
X8.8554Y-4.2097
X8.9026Y-4.0945
X7.2392Y-4.0945
X7.2863Y-3.9793
X7.2863Y-4.2097
X7.4016Y-3.9321
X7.4016Y-4.2569
X7.5168Y-3.9793
X7.5168Y-4.2097
X7.564Y-4.0945
T5
X4.7563Y-2.5209
X4.7563Y-2.698
X5.0122Y-2.5209
X5.0122Y-2.698
X5.2362Y-1.8791
X5.2362Y-1.9791
X5.1024Y-1.7295
X5.1024Y-1.8295
X5.2362Y-1.6114
X5.2362Y-1.7114
T6
X4.7654Y-2.9831
X4.7654Y-3.0831
X4.7654Y-3.1831
X4.7654Y-3.2831
X5.0402Y-0.6654
X5.1402Y-0.6654
X5.2402Y-0.6654
X5.3402Y-0.6654
X5.4402Y-0.6654
X5.5402Y-0.6654
X5.6402Y-0.6654
X5.7402Y-0.6654
X5.8402Y-0.6654
X5.9402Y-0.6654
X6.0402Y-0.6654
X6.1402Y-0.6654
X6.2402Y-0.6654
T8
X4.8031Y-0.7087
X4.8031Y-3.7008
X9.3307Y-0.7087
X9.3307Y-3.7008
T9
X7.8563Y-1.0787
X8.2854Y-1.0787
T10
X8.7402Y-4.0945
X7.4016Y-4.0945
T4
G00X8.9608Y-3.1575
M15
G01X9.051Y-3.1575
M16
G05
G00X9.1339Y-3.3915
M15
G01X9.1339Y-3.3014
M16
G05
T7
G00X8.8878Y-3.3965
M15
G01X8.8878Y-3.2965
M16
G05
T0
M30
