M48
; DRILL file {KiCad (5.1.7)-1} date 11/25/20 00:44:55
; FORMAT={-:-/ absolute / inch / decimal}
; #@! TF.CreationDate,2020-11-25T00:44:55-08:00
; #@! TF.GenerationSoftware,Kicad,Pcbnew,(5.1.7)-1
; #@! TF.FileFunction,Plated,1,4,PTH
FMAT,2
INCH
T1C0.0157
T2C0.0236
T3C0.0354
T4C0.0394
%
G90
G05
T1
X3.8335Y-2.487
X3.8346Y-2.2862
X3.8346Y-2.337
X3.8346Y-2.3878
X3.9685Y-4.811
X3.9724Y-2.9567
X3.9744Y-4.8937
X3.9783Y-3.0256
X3.9902Y-5.0512
X4.0394Y-5.5374
X4.0472Y-4.0748
X4.0512Y-3.9016
X4.061Y-4.3445
X4.0689Y-3.8228
X4.0984Y-5.5453
X4.1063Y-4.4744
X4.1201Y-5.0177
X4.122Y-3.7047
X4.1437Y-4.0138
X4.1551Y-2.3378
X4.1555Y-2.2909
X4.1575Y-5.2441
X4.1579Y-2.4874
X4.1594Y-5.0177
X4.1654Y-2.9488
X4.1831Y-3.7047
X4.1988Y-2.9488
X4.1988Y-5.0177
X4.2165Y-5.5453
X4.2205Y-2.6594
X4.2362Y-3.8228
X4.2488Y-2.2626
X4.2697Y-2.372
X4.2717Y-3.9311
X4.2717Y-4.0472
X4.2717Y-4.0925
X4.2756Y-5.5374
X4.2854Y-5.2303
X4.3012Y-3.0256
X4.3098Y-2.2913
X4.3128Y-4.3089
X4.3228Y-2.6417
X4.3268Y-4.4764
X4.3268Y-4.5984
X4.3326Y-2.9665
X4.3326Y-3.4094
X4.3358Y-2.3559
X4.3407Y-4.3368
X4.3504Y-2.5217
X4.3602Y-4.9114
X4.3642Y-3.1398
X4.3642Y-3.1752
X4.3642Y-3.2106
X4.3646Y-2.6378
X4.3661Y-3.2657
X4.3661Y-3.3012
X4.3661Y-3.3366
X4.3721Y-2.9665
X4.3721Y-3.4094
X4.376Y-2.3524
X4.4134Y-5.7067
X4.4213Y-2.3524
X4.4882Y-2.628
X4.498Y-2.3071
X4.5094Y-2.9685
X4.5276Y-2.4921
X4.5433Y-2.3071
X4.5551Y-2.9689
X4.5564Y-2.5207
X4.6323Y-2.5528
X4.6619Y-2.5856
X4.6752Y-2.7126
X4.6752Y-2.752
X4.6752Y-2.7913
X4.7046Y-2.3113
X4.7248Y-2.2508
X4.7303Y-2.6791
X4.7461Y-2.6142
X4.7575Y-2.9689
X4.7835Y-2.0512
X4.7917Y-1.9201
X4.7929Y-1.6118
X4.8012Y-2.6476
X4.8016Y-2.3488
X4.8028Y-2.9681
X4.8098Y-2.1654
X4.8445Y-2.3476
X4.8819Y-2.3768
X4.9409Y-2.4331
X4.9843Y-2.4567
X5.0059Y-2.5886
X5.0768Y-2.6583
X5.1945Y-2.0638
X5.2854Y-2.0626
T3
X4.1457Y-5.3406
X4.1457Y-5.4406
T4
X5.0768Y-2.8175
X5.0768Y-2.9946
X4.0909Y-4.1969
X4.1909Y-4.1969
X5.3937Y-1.811
X5.3937Y-1.911
X5.3937Y-2.011
X5.3937Y-2.111
X5.4937Y-1.811
X5.4937Y-1.911
X5.4937Y-2.011
X5.4937Y-2.111
X5.1949Y-1.6398
X5.2949Y-1.6398
X5.3949Y-1.6398
X5.4949Y-1.6398
T2
G00X3.9874Y-5.5961
M15
G01X3.9874Y-5.6354
M16
G05
G00X3.9874Y-5.7972
M15
G01X3.9874Y-5.8563
M16
G05
G00X4.3276Y-5.5961
M15
G01X4.3276Y-5.6354
M16
G05
G00X4.3276Y-5.7972
M15
G01X4.3276Y-5.8563
M16
G05
T0
M30
