%TF.GenerationSoftware,KiCad,Pcbnew,(5.1.7)-1*%
%TF.CreationDate,2020-11-25T00:45:14-08:00*%
%TF.ProjectId,eskate_remote,65736b61-7465-45f7-9265-6d6f74652e6b,rev?*%
%TF.SameCoordinates,Original*%
%TF.FileFunction,Legend,Top*%
%TF.FilePolarity,Positive*%
%FSLAX46Y46*%
G04 Gerber Fmt 4.6, Leading zero omitted, Abs format (unit mm)*
G04 Created by KiCad (PCBNEW (5.1.7)-1) date 2020-11-25 00:45:14*
%MOMM*%
%LPD*%
G01*
G04 APERTURE LIST*
%ADD10C,0.150000*%
%ADD11C,0.127000*%
%ADD12C,0.120000*%
G04 APERTURE END LIST*
D10*
X112280952Y-147808571D02*
X112614285Y-147808571D01*
X112757142Y-148332380D02*
X112280952Y-148332380D01*
X112280952Y-147332380D01*
X112757142Y-147332380D01*
X113138095Y-148284761D02*
X113280952Y-148332380D01*
X113519047Y-148332380D01*
X113614285Y-148284761D01*
X113661904Y-148237142D01*
X113709523Y-148141904D01*
X113709523Y-148046666D01*
X113661904Y-147951428D01*
X113614285Y-147903809D01*
X113519047Y-147856190D01*
X113328571Y-147808571D01*
X113233333Y-147760952D01*
X113185714Y-147713333D01*
X113138095Y-147618095D01*
X113138095Y-147522857D01*
X113185714Y-147427619D01*
X113233333Y-147380000D01*
X113328571Y-147332380D01*
X113566666Y-147332380D01*
X113709523Y-147380000D01*
X114138095Y-148332380D02*
X114138095Y-147332380D01*
X114709523Y-148332380D02*
X114280952Y-147760952D01*
X114709523Y-147332380D02*
X114138095Y-147903809D01*
X115090476Y-148046666D02*
X115566666Y-148046666D01*
X114995238Y-148332380D02*
X115328571Y-147332380D01*
X115661904Y-148332380D01*
X115852380Y-147332380D02*
X116423809Y-147332380D01*
X116138095Y-148332380D02*
X116138095Y-147332380D01*
X116757142Y-147808571D02*
X117090476Y-147808571D01*
X117233333Y-148332380D02*
X116757142Y-148332380D01*
X116757142Y-147332380D01*
X117233333Y-147332380D01*
X118995238Y-148332380D02*
X118661904Y-147856190D01*
X118423809Y-148332380D02*
X118423809Y-147332380D01*
X118804761Y-147332380D01*
X118900000Y-147380000D01*
X118947619Y-147427619D01*
X118995238Y-147522857D01*
X118995238Y-147665714D01*
X118947619Y-147760952D01*
X118900000Y-147808571D01*
X118804761Y-147856190D01*
X118423809Y-147856190D01*
X119804761Y-148284761D02*
X119709523Y-148332380D01*
X119519047Y-148332380D01*
X119423809Y-148284761D01*
X119376190Y-148189523D01*
X119376190Y-147808571D01*
X119423809Y-147713333D01*
X119519047Y-147665714D01*
X119709523Y-147665714D01*
X119804761Y-147713333D01*
X119852380Y-147808571D01*
X119852380Y-147903809D01*
X119376190Y-147999047D01*
X120280952Y-148332380D02*
X120280952Y-147665714D01*
X120280952Y-147760952D02*
X120328571Y-147713333D01*
X120423809Y-147665714D01*
X120566666Y-147665714D01*
X120661904Y-147713333D01*
X120709523Y-147808571D01*
X120709523Y-148332380D01*
X120709523Y-147808571D02*
X120757142Y-147713333D01*
X120852380Y-147665714D01*
X120995238Y-147665714D01*
X121090476Y-147713333D01*
X121138095Y-147808571D01*
X121138095Y-148332380D01*
X121757142Y-148332380D02*
X121661904Y-148284761D01*
X121614285Y-148237142D01*
X121566666Y-148141904D01*
X121566666Y-147856190D01*
X121614285Y-147760952D01*
X121661904Y-147713333D01*
X121757142Y-147665714D01*
X121900000Y-147665714D01*
X121995238Y-147713333D01*
X122042857Y-147760952D01*
X122090476Y-147856190D01*
X122090476Y-148141904D01*
X122042857Y-148237142D01*
X121995238Y-148284761D01*
X121900000Y-148332380D01*
X121757142Y-148332380D01*
X122376190Y-147665714D02*
X122757142Y-147665714D01*
X122519047Y-147332380D02*
X122519047Y-148189523D01*
X122566666Y-148284761D01*
X122661904Y-148332380D01*
X122757142Y-148332380D01*
X123471428Y-148284761D02*
X123376190Y-148332380D01*
X123185714Y-148332380D01*
X123090476Y-148284761D01*
X123042857Y-148189523D01*
X123042857Y-147808571D01*
X123090476Y-147713333D01*
X123185714Y-147665714D01*
X123376190Y-147665714D01*
X123471428Y-147713333D01*
X123519047Y-147808571D01*
X123519047Y-147903809D01*
X123042857Y-147999047D01*
X123947619Y-148237142D02*
X123995238Y-148284761D01*
X123947619Y-148332380D01*
X123900000Y-148284761D01*
X123947619Y-148237142D01*
X123947619Y-148332380D01*
X123947619Y-147713333D02*
X123995238Y-147760952D01*
X123947619Y-147808571D01*
X123900000Y-147760952D01*
X123947619Y-147713333D01*
X123947619Y-147808571D01*
X125042857Y-147332380D02*
X125376190Y-148332380D01*
X125709523Y-147332380D01*
X126566666Y-148332380D02*
X125995238Y-148332380D01*
X126280952Y-148332380D02*
X126280952Y-147332380D01*
X126185714Y-147475238D01*
X126090476Y-147570476D01*
X125995238Y-147618095D01*
X124449047Y-77081428D02*
X125210952Y-77081428D01*
X124830000Y-77462380D02*
X124830000Y-76700476D01*
X127044761Y-42772380D02*
X126711428Y-42296190D01*
X126473333Y-42772380D02*
X126473333Y-41772380D01*
X126854285Y-41772380D01*
X126949523Y-41820000D01*
X126997142Y-41867619D01*
X127044761Y-41962857D01*
X127044761Y-42105714D01*
X126997142Y-42200952D01*
X126949523Y-42248571D01*
X126854285Y-42296190D01*
X126473333Y-42296190D01*
X127901904Y-42105714D02*
X127901904Y-42772380D01*
X127473333Y-42105714D02*
X127473333Y-42629523D01*
X127520952Y-42724761D01*
X127616190Y-42772380D01*
X127759047Y-42772380D01*
X127854285Y-42724761D01*
X127901904Y-42677142D01*
X128378095Y-42105714D02*
X128378095Y-42772380D01*
X128378095Y-42200952D02*
X128425714Y-42153333D01*
X128520952Y-42105714D01*
X128663809Y-42105714D01*
X128759047Y-42153333D01*
X128806666Y-42248571D01*
X128806666Y-42772380D01*
X126770952Y-47358571D02*
X126913809Y-47406190D01*
X126961428Y-47453809D01*
X127009047Y-47549047D01*
X127009047Y-47691904D01*
X126961428Y-47787142D01*
X126913809Y-47834761D01*
X126818571Y-47882380D01*
X126437619Y-47882380D01*
X126437619Y-46882380D01*
X126770952Y-46882380D01*
X126866190Y-46930000D01*
X126913809Y-46977619D01*
X126961428Y-47072857D01*
X126961428Y-47168095D01*
X126913809Y-47263333D01*
X126866190Y-47310952D01*
X126770952Y-47358571D01*
X126437619Y-47358571D01*
X127580476Y-47882380D02*
X127485238Y-47834761D01*
X127437619Y-47787142D01*
X127390000Y-47691904D01*
X127390000Y-47406190D01*
X127437619Y-47310952D01*
X127485238Y-47263333D01*
X127580476Y-47215714D01*
X127723333Y-47215714D01*
X127818571Y-47263333D01*
X127866190Y-47310952D01*
X127913809Y-47406190D01*
X127913809Y-47691904D01*
X127866190Y-47787142D01*
X127818571Y-47834761D01*
X127723333Y-47882380D01*
X127580476Y-47882380D01*
X128485238Y-47882380D02*
X128390000Y-47834761D01*
X128342380Y-47787142D01*
X128294761Y-47691904D01*
X128294761Y-47406190D01*
X128342380Y-47310952D01*
X128390000Y-47263333D01*
X128485238Y-47215714D01*
X128628095Y-47215714D01*
X128723333Y-47263333D01*
X128770952Y-47310952D01*
X128818571Y-47406190D01*
X128818571Y-47691904D01*
X128770952Y-47787142D01*
X128723333Y-47834761D01*
X128628095Y-47882380D01*
X128485238Y-47882380D01*
X129104285Y-47215714D02*
X129485238Y-47215714D01*
X129247142Y-46882380D02*
X129247142Y-47739523D01*
X129294761Y-47834761D01*
X129390000Y-47882380D01*
X129485238Y-47882380D01*
D11*
%TO.C,J1*%
X101130000Y-149770000D02*
X110070000Y-149770000D01*
X101130000Y-146300000D02*
X101130000Y-144100000D01*
X110070000Y-146300000D02*
X110070000Y-144100000D01*
D12*
%TO.C,FET2*%
X109841421Y-116850000D02*
G75*
G03*
X109841421Y-116850000I-141421J0D01*
G01*
X106050000Y-116800000D02*
X106050000Y-120100000D01*
X109350000Y-120100000D02*
X109350000Y-116800000D01*
%TO.C,FET1*%
X105791421Y-116850000D02*
G75*
G03*
X105791421Y-116850000I-141421J0D01*
G01*
X102000000Y-116800000D02*
X102000000Y-120100000D01*
X105300000Y-120100000D02*
X105300000Y-116800000D01*
%TO.C,Y1*%
X109900000Y-61900000D02*
G75*
G03*
X109900000Y-61900000I-100000J0D01*
G01*
%TO.C,U7*%
X117308365Y-54298315D02*
X118298315Y-53308365D01*
X120419635Y-55429685D02*
X119429685Y-56419635D01*
X116813390Y-54793289D02*
G75*
G03*
X116813390Y-54793289I-141421J0D01*
G01*
%TO.C,U6*%
X103640000Y-101300000D02*
X103640000Y-102800000D01*
X103640000Y-101300000D02*
X103640000Y-99800000D01*
X106860000Y-101300000D02*
X106860000Y-102800000D01*
X106860000Y-101300000D02*
X106860000Y-98375000D01*
%TO.C,U5*%
X107210000Y-131250000D02*
X107210000Y-129450000D01*
X103990000Y-129450000D02*
X103990000Y-132400000D01*
%TO.C,U4*%
X103850000Y-81000000D02*
X103850000Y-84000000D01*
X106850000Y-84000000D02*
X106850000Y-81000000D01*
X103691421Y-84100000D02*
G75*
G03*
X103691421Y-84100000I-141421J0D01*
G01*
%TO.C,U3*%
X107591421Y-126950000D02*
G75*
G03*
X107591421Y-126950000I-141421J0D01*
G01*
X106450000Y-123900000D02*
X104850000Y-123900000D01*
X104850000Y-126800000D02*
X106450000Y-126800000D01*
%TO.C,U2*%
X104950000Y-111250000D02*
G75*
G03*
X104950000Y-111250000I-100000J0D01*
G01*
X104900000Y-113000000D02*
X106400000Y-113000000D01*
X106400000Y-111500000D02*
X104900000Y-111500000D01*
%TO.C,U1*%
X122360000Y-72110000D02*
X123310000Y-72110000D01*
X123310000Y-72110000D02*
X123310000Y-71160000D01*
X114040000Y-72110000D02*
X113090000Y-72110000D01*
X113090000Y-72110000D02*
X113090000Y-71160000D01*
X122360000Y-61890000D02*
X123310000Y-61890000D01*
X123310000Y-61890000D02*
X123310000Y-62840000D01*
X114040000Y-61890000D02*
X113090000Y-61890000D01*
X113090000Y-61890000D02*
X113090000Y-62840000D01*
X113090000Y-62840000D02*
X111750000Y-62840000D01*
%TO.C,SW1*%
X126250000Y-49400000D02*
X122650000Y-49400000D01*
X122650000Y-40400000D02*
X126250000Y-40400000D01*
X120791421Y-48500000D02*
G75*
G03*
X120791421Y-48500000I-141421J0D01*
G01*
X126250000Y-40400000D02*
X126250000Y-49400000D01*
%TO.C,R19*%
X105727500Y-96454724D02*
X105727500Y-95945276D01*
X106772500Y-96454724D02*
X106772500Y-95945276D01*
%TO.C,R18*%
X104177500Y-96454724D02*
X104177500Y-95945276D01*
X105222500Y-96454724D02*
X105222500Y-95945276D01*
%TO.C,R17*%
X107082379Y-73420000D02*
X107417621Y-73420000D01*
X107082379Y-74180000D02*
X107417621Y-74180000D01*
%TO.C,R16*%
X102627500Y-83154724D02*
X102627500Y-82645276D01*
X103672500Y-83154724D02*
X103672500Y-82645276D01*
%TO.C,R15*%
X102895276Y-77927500D02*
X103404724Y-77927500D01*
X102895276Y-78972500D02*
X103404724Y-78972500D01*
%TO.C,R14*%
X103404724Y-77372500D02*
X102895276Y-77372500D01*
X103404724Y-76327500D02*
X102895276Y-76327500D01*
%TO.C,R13*%
X102972936Y-74365000D02*
X103427064Y-74365000D01*
X102972936Y-75835000D02*
X103427064Y-75835000D01*
%TO.C,R12*%
X109372500Y-127095276D02*
X109372500Y-127604724D01*
X108327500Y-127095276D02*
X108327500Y-127604724D01*
%TO.C,R11*%
X103072500Y-127145276D02*
X103072500Y-127654724D01*
X102027500Y-127145276D02*
X102027500Y-127654724D01*
%TO.C,R10*%
X107472936Y-114340000D02*
X108927064Y-114340000D01*
X107472936Y-116160000D02*
X108927064Y-116160000D01*
%TO.C,R9*%
X103877064Y-116160000D02*
X102422936Y-116160000D01*
X103877064Y-114340000D02*
X102422936Y-114340000D01*
%TO.C,R8*%
X104995276Y-109827500D02*
X105504724Y-109827500D01*
X104995276Y-110872500D02*
X105504724Y-110872500D01*
%TO.C,R7*%
X108904724Y-112372500D02*
X108395276Y-112372500D01*
X108904724Y-111327500D02*
X108395276Y-111327500D01*
%TO.C,R6*%
X126620000Y-75567621D02*
X126620000Y-75232379D01*
X127380000Y-75567621D02*
X127380000Y-75232379D01*
%TO.C,R5*%
X129340000Y-69092379D02*
X129340000Y-69427621D01*
X128580000Y-69092379D02*
X128580000Y-69427621D01*
%TO.C,R4*%
X127480000Y-67132379D02*
X127480000Y-67467621D01*
X126720000Y-67132379D02*
X126720000Y-67467621D01*
%TO.C,R3*%
X108832379Y-64620000D02*
X109167621Y-64620000D01*
X108832379Y-65380000D02*
X109167621Y-65380000D01*
%TO.C,R2*%
X126220000Y-64167621D02*
X126220000Y-63832379D01*
X126980000Y-64167621D02*
X126980000Y-63832379D01*
%TO.C,R1*%
X117267621Y-60080000D02*
X116932379Y-60080000D01*
X117267621Y-59320000D02*
X116932379Y-59320000D01*
%TO.C,L2*%
X100841421Y-85400000D02*
G75*
G03*
X100841421Y-85400000I-141421J0D01*
G01*
%TO.C,L1*%
X109010000Y-68228733D02*
X109010000Y-68571267D01*
X107990000Y-68228733D02*
X107990000Y-68571267D01*
%TO.C,J5*%
X102580000Y-105270000D02*
X102580000Y-107930000D01*
X105180000Y-105270000D02*
X102580000Y-105270000D01*
X105180000Y-107930000D02*
X102580000Y-107930000D01*
X105180000Y-105270000D02*
X105180000Y-107930000D01*
X106450000Y-105270000D02*
X107780000Y-105270000D01*
X107780000Y-105270000D02*
X107780000Y-106600000D01*
%TO.C,J4*%
X140900000Y-42980000D02*
X140900000Y-40320000D01*
X133220000Y-42980000D02*
X140900000Y-42980000D01*
X133220000Y-40320000D02*
X140900000Y-40320000D01*
X133220000Y-42980000D02*
X133220000Y-40320000D01*
X131950000Y-42980000D02*
X130620000Y-42980000D01*
X130620000Y-42980000D02*
X130620000Y-41650000D01*
%TO.C,J3*%
X135670000Y-54950000D02*
X140870000Y-54950000D01*
X135670000Y-47270000D02*
X135670000Y-54950000D01*
X140870000Y-44670000D02*
X140870000Y-54950000D01*
X135670000Y-47270000D02*
X138270000Y-47270000D01*
X138270000Y-47270000D02*
X138270000Y-44670000D01*
X138270000Y-44670000D02*
X140870000Y-44670000D01*
X135670000Y-46000000D02*
X135670000Y-44670000D01*
X135670000Y-44670000D02*
X137000000Y-44670000D01*
%TO.C,J2*%
X98121421Y-56040000D02*
G75*
G03*
X98121421Y-56040000I-141421J0D01*
G01*
%TO.C,D3*%
X108785000Y-76800000D02*
X108785000Y-74340000D01*
X108785000Y-74340000D02*
X107315000Y-74340000D01*
X107315000Y-74340000D02*
X107315000Y-76800000D01*
%TO.C,D2*%
X105300462Y-139910000D02*
G75*
G02*
X103755170Y-134360000I-462J2990000D01*
G01*
X105299538Y-139910000D02*
G75*
G03*
X106844830Y-134360000I462J2990000D01*
G01*
X107800000Y-136920000D02*
G75*
G03*
X107800000Y-136920000I-2500000J0D01*
G01*
X106845000Y-134360000D02*
X103755000Y-134360000D01*
%TO.C,D1*%
X125065000Y-66100000D02*
X125065000Y-68560000D01*
X125065000Y-68560000D02*
X126535000Y-68560000D01*
X126535000Y-68560000D02*
X126535000Y-66100000D01*
%TO.C,C21*%
X109615835Y-66460000D02*
X109384165Y-66460000D01*
X109615835Y-65740000D02*
X109384165Y-65740000D01*
%TO.C,C20*%
X120472651Y-52163534D02*
X120636466Y-52327349D01*
X119963534Y-52672651D02*
X120127349Y-52836466D01*
%TO.C,C19*%
X107190000Y-99415835D02*
X107190000Y-99184165D01*
X107910000Y-99415835D02*
X107910000Y-99184165D01*
%TO.C,C18*%
X107910000Y-103284165D02*
X107910000Y-103515835D01*
X107190000Y-103284165D02*
X107190000Y-103515835D01*
%TO.C,C17*%
X102715835Y-80110000D02*
X102484165Y-80110000D01*
X102715835Y-79390000D02*
X102484165Y-79390000D01*
%TO.C,C16*%
X110110000Y-81638748D02*
X110110000Y-83061252D01*
X107390000Y-81638748D02*
X107390000Y-83061252D01*
%TO.C,C15*%
X105465000Y-77561252D02*
X105465000Y-77038748D01*
X106935000Y-77561252D02*
X106935000Y-77038748D01*
%TO.C,C14*%
X108365000Y-123961252D02*
X108365000Y-123438748D01*
X109835000Y-123961252D02*
X109835000Y-123438748D01*
%TO.C,C13*%
X101665000Y-123511252D02*
X101665000Y-122988748D01*
X103135000Y-123511252D02*
X103135000Y-122988748D01*
%TO.C,C12*%
X108215835Y-113510000D02*
X107984165Y-113510000D01*
X108215835Y-112790000D02*
X107984165Y-112790000D01*
%TO.C,C11*%
X127360000Y-72084165D02*
X127360000Y-72315835D01*
X126640000Y-72084165D02*
X126640000Y-72315835D01*
%TO.C,C10*%
X106840000Y-63415835D02*
X106840000Y-63184165D01*
X107560000Y-63415835D02*
X107560000Y-63184165D01*
%TO.C,C9*%
X109115835Y-61760000D02*
X108884165Y-61760000D01*
X109115835Y-61040000D02*
X108884165Y-61040000D01*
%TO.C,C8*%
X110540000Y-68815835D02*
X110540000Y-68584165D01*
X111260000Y-68815835D02*
X111260000Y-68584165D01*
%TO.C,C7*%
X109440000Y-68815835D02*
X109440000Y-68584165D01*
X110160000Y-68815835D02*
X110160000Y-68584165D01*
%TO.C,C6*%
X111815835Y-62310000D02*
X111584165Y-62310000D01*
X111815835Y-61590000D02*
X111584165Y-61590000D01*
%TO.C,C5*%
X125860000Y-63284165D02*
X125860000Y-63515835D01*
X125140000Y-63284165D02*
X125140000Y-63515835D01*
%TO.C,C4*%
X115215835Y-74660000D02*
X114984165Y-74660000D01*
X115215835Y-73940000D02*
X114984165Y-73940000D01*
%TO.C,C3*%
X114684165Y-59340000D02*
X114915835Y-59340000D01*
X114684165Y-60060000D02*
X114915835Y-60060000D01*
%TO.C,C2*%
X121515835Y-74660000D02*
X121284165Y-74660000D01*
X121515835Y-73940000D02*
X121284165Y-73940000D01*
%TO.C,C1*%
X111815835Y-61210000D02*
X111584165Y-61210000D01*
X111815835Y-60490000D02*
X111584165Y-60490000D01*
%TO.C,U7*%
D10*
X120384026Y-54521522D02*
X120956446Y-55093942D01*
X121057461Y-55127614D01*
X121124805Y-55127614D01*
X121225820Y-55093942D01*
X121360507Y-54959255D01*
X121394179Y-54858240D01*
X121394179Y-54790896D01*
X121360507Y-54689881D01*
X120788087Y-54117461D01*
X121057461Y-53848087D02*
X121528866Y-53376683D01*
X121932927Y-54386835D01*
%TO.C,U5*%
X102078095Y-131722380D02*
X102078095Y-132531904D01*
X102125714Y-132627142D01*
X102173333Y-132674761D01*
X102268571Y-132722380D01*
X102459047Y-132722380D01*
X102554285Y-132674761D01*
X102601904Y-132627142D01*
X102649523Y-132531904D01*
X102649523Y-131722380D01*
X103601904Y-131722380D02*
X103125714Y-131722380D01*
X103078095Y-132198571D01*
X103125714Y-132150952D01*
X103220952Y-132103333D01*
X103459047Y-132103333D01*
X103554285Y-132150952D01*
X103601904Y-132198571D01*
X103649523Y-132293809D01*
X103649523Y-132531904D01*
X103601904Y-132627142D01*
X103554285Y-132674761D01*
X103459047Y-132722380D01*
X103220952Y-132722380D01*
X103125714Y-132674761D01*
X103078095Y-132627142D01*
%TO.C,U4*%
X104568095Y-79342380D02*
X104568095Y-80151904D01*
X104615714Y-80247142D01*
X104663333Y-80294761D01*
X104758571Y-80342380D01*
X104949047Y-80342380D01*
X105044285Y-80294761D01*
X105091904Y-80247142D01*
X105139523Y-80151904D01*
X105139523Y-79342380D01*
X106044285Y-79675714D02*
X106044285Y-80342380D01*
X105806190Y-79294761D02*
X105568095Y-80009047D01*
X106187142Y-80009047D01*
%TO.C,U3*%
X104828095Y-122612380D02*
X104828095Y-123421904D01*
X104875714Y-123517142D01*
X104923333Y-123564761D01*
X105018571Y-123612380D01*
X105209047Y-123612380D01*
X105304285Y-123564761D01*
X105351904Y-123517142D01*
X105399523Y-123421904D01*
X105399523Y-122612380D01*
X105780476Y-122612380D02*
X106399523Y-122612380D01*
X106066190Y-122993333D01*
X106209047Y-122993333D01*
X106304285Y-123040952D01*
X106351904Y-123088571D01*
X106399523Y-123183809D01*
X106399523Y-123421904D01*
X106351904Y-123517142D01*
X106304285Y-123564761D01*
X106209047Y-123612380D01*
X105923333Y-123612380D01*
X105828095Y-123564761D01*
X105780476Y-123517142D01*
%TO.C,U2*%
X103322380Y-113001904D02*
X104131904Y-113001904D01*
X104227142Y-112954285D01*
X104274761Y-112906666D01*
X104322380Y-112811428D01*
X104322380Y-112620952D01*
X104274761Y-112525714D01*
X104227142Y-112478095D01*
X104131904Y-112430476D01*
X103322380Y-112430476D01*
X103417619Y-112001904D02*
X103370000Y-111954285D01*
X103322380Y-111859047D01*
X103322380Y-111620952D01*
X103370000Y-111525714D01*
X103417619Y-111478095D01*
X103512857Y-111430476D01*
X103608095Y-111430476D01*
X103750952Y-111478095D01*
X104322380Y-112049523D01*
X104322380Y-111430476D01*
%TO.C,U1*%
X122958095Y-72662380D02*
X122958095Y-73471904D01*
X123005714Y-73567142D01*
X123053333Y-73614761D01*
X123148571Y-73662380D01*
X123339047Y-73662380D01*
X123434285Y-73614761D01*
X123481904Y-73567142D01*
X123529523Y-73471904D01*
X123529523Y-72662380D01*
X124529523Y-73662380D02*
X123958095Y-73662380D01*
X124243809Y-73662380D02*
X124243809Y-72662380D01*
X124148571Y-72805238D01*
X124053333Y-72900476D01*
X123958095Y-72948095D01*
%TD*%
M02*
