%TF.GenerationSoftware,KiCad,Pcbnew,(5.1.7)-1*%
%TF.CreationDate,2020-11-25T00:45:14-08:00*%
%TF.ProjectId,eskate_remote,65736b61-7465-45f7-9265-6d6f74652e6b,rev?*%
%TF.SameCoordinates,Original*%
%TF.FileFunction,Copper,L1,Top*%
%TF.FilePolarity,Positive*%
%FSLAX46Y46*%
G04 Gerber Fmt 4.6, Leading zero omitted, Abs format (unit mm)*
G04 Created by KiCad (PCBNEW (5.1.7)-1) date 2020-11-25 00:45:14*
%MOMM*%
%LPD*%
G01*
G04 APERTURE LIST*
%TA.AperFunction,ComponentPad*%
%ADD10O,1.300000X2.600000*%
%TD*%
%TA.AperFunction,ComponentPad*%
%ADD11O,1.100000X2.200000*%
%TD*%
%TA.AperFunction,SMDPad,CuDef*%
%ADD12R,1.000000X0.700000*%
%TD*%
%TA.AperFunction,SMDPad,CuDef*%
%ADD13R,0.300000X0.700000*%
%TD*%
%TA.AperFunction,SMDPad,CuDef*%
%ADD14R,2.450000X1.900000*%
%TD*%
%TA.AperFunction,SMDPad,CuDef*%
%ADD15R,0.500000X0.630000*%
%TD*%
%TA.AperFunction,SMDPad,CuDef*%
%ADD16R,0.775000X0.875000*%
%TD*%
%TA.AperFunction,SMDPad,CuDef*%
%ADD17C,0.100000*%
%TD*%
%TA.AperFunction,SMDPad,CuDef*%
%ADD18R,0.650000X1.560000*%
%TD*%
%TA.AperFunction,SMDPad,CuDef*%
%ADD19R,2.380000X1.650000*%
%TD*%
%TA.AperFunction,SMDPad,CuDef*%
%ADD20R,0.250000X0.700000*%
%TD*%
%TA.AperFunction,SMDPad,CuDef*%
%ADD21R,1.100000X0.600000*%
%TD*%
%TA.AperFunction,SMDPad,CuDef*%
%ADD22R,0.750000X0.280000*%
%TD*%
%TA.AperFunction,SMDPad,CuDef*%
%ADD23R,0.850000X0.280000*%
%TD*%
%TA.AperFunction,ComponentPad*%
%ADD24C,1.600000*%
%TD*%
%TA.AperFunction,SMDPad,CuDef*%
%ADD25R,2.500000X1.200000*%
%TD*%
%TA.AperFunction,SMDPad,CuDef*%
%ADD26R,2.650000X7.300000*%
%TD*%
%TA.AperFunction,SMDPad,CuDef*%
%ADD27R,10.000000X8.000000*%
%TD*%
%TA.AperFunction,ComponentPad*%
%ADD28O,1.700000X1.700000*%
%TD*%
%TA.AperFunction,ComponentPad*%
%ADD29R,1.700000X1.700000*%
%TD*%
%TA.AperFunction,SMDPad,CuDef*%
%ADD30R,2.620000X0.800000*%
%TD*%
%TA.AperFunction,ComponentPad*%
%ADD31C,1.800000*%
%TD*%
%TA.AperFunction,ComponentPad*%
%ADD32R,1.800000X1.800000*%
%TD*%
%TA.AperFunction,ViaPad*%
%ADD33C,0.800000*%
%TD*%
%TA.AperFunction,Conductor*%
%ADD34C,0.250000*%
%TD*%
%TA.AperFunction,Conductor*%
%ADD35C,0.500000*%
%TD*%
%TA.AperFunction,Conductor*%
%ADD36C,0.350000*%
%TD*%
%TA.AperFunction,Conductor*%
%ADD37C,0.261112*%
%TD*%
%TA.AperFunction,Conductor*%
%ADD38C,0.254000*%
%TD*%
%TA.AperFunction,Conductor*%
%ADD39C,0.100000*%
%TD*%
G04 APERTURE END LIST*
D10*
%TO.P,J1,S4*%
%TO.N,N/C*%
X109920000Y-148000000D03*
%TO.P,J1,S3*%
X101280000Y-148000000D03*
D11*
%TO.P,J1,S2*%
X109920000Y-142640000D03*
%TO.P,J1,S1*%
%TO.N,Net-(J1-PadS1)*%
X101280000Y-142640000D03*
D12*
%TO.P,J1,B12*%
%TO.N,GND*%
X102500000Y-143530000D03*
D13*
%TO.P,J1,B11*%
%TO.N,Net-(J1-PadB11)*%
X103350000Y-143530000D03*
%TO.P,J1,B10*%
%TO.N,Net-(J1-PadB10)*%
X103850000Y-143530000D03*
%TO.P,J1,B9*%
%TO.N,+5V*%
X104350000Y-143530000D03*
%TO.P,J1,B8*%
%TO.N,Net-(J1-PadB8)*%
X104850000Y-143530000D03*
%TO.P,J1,B7*%
%TO.N,Net-(J1-PadB7)*%
X105350000Y-143530000D03*
%TO.P,J1,B6*%
%TO.N,Net-(J1-PadB6)*%
X105850000Y-143530000D03*
%TO.P,J1,B5*%
%TO.N,Net-(J1-PadB5)*%
X106350000Y-143530000D03*
%TO.P,J1,B4*%
%TO.N,+5V*%
X106850000Y-143530000D03*
%TO.P,J1,B3*%
%TO.N,Net-(J1-PadB3)*%
X107350000Y-143530000D03*
%TO.P,J1,B2*%
%TO.N,Net-(J1-PadB2)*%
X107850000Y-143530000D03*
D12*
%TO.P,J1,B1*%
%TO.N,GND*%
X108700000Y-143530000D03*
D13*
%TO.P,J1,A12*%
X108600000Y-142230000D03*
%TO.P,J1,A11*%
%TO.N,Net-(J1-PadA11)*%
X108100000Y-142230000D03*
%TO.P,J1,A10*%
%TO.N,Net-(J1-PadA10)*%
X107600000Y-142230000D03*
%TO.P,J1,A9*%
%TO.N,+5V*%
X107100000Y-142230000D03*
%TO.P,J1,A8*%
%TO.N,Net-(J1-PadA8)*%
X106600000Y-142230000D03*
%TO.P,J1,A7*%
%TO.N,USB_CONN_D-*%
X106100000Y-142230000D03*
%TO.P,J1,A6*%
%TO.N,USB_CONN_D+*%
X105100000Y-142230000D03*
%TO.P,J1,A5*%
%TO.N,Net-(J1-PadA5)*%
X104600000Y-142230000D03*
%TO.P,J1,A4*%
%TO.N,+5V*%
X104100000Y-142230000D03*
%TO.P,J1,A3*%
%TO.N,Net-(J1-PadA3)*%
X103600000Y-142230000D03*
%TO.P,J1,A2*%
%TO.N,Net-(J1-PadA2)*%
X103100000Y-142230000D03*
%TO.P,J1,A1*%
%TO.N,GND*%
X102600000Y-142230000D03*
%TD*%
D14*
%TO.P,FET2,5*%
%TO.N,Net-(FET1-Pad5)*%
X107700000Y-118840000D03*
D15*
X106725000Y-119885000D03*
%TO.P,FET2,6*%
X107375000Y-119885000D03*
%TO.P,FET2,8*%
X108675000Y-119885000D03*
%TO.P,FET2,7*%
X108025000Y-119885000D03*
%TO.P,FET2,4*%
%TO.N,Net-(FET2-Pad4)*%
X106725000Y-117015000D03*
%TO.P,FET2,3*%
%TO.N,-BATT*%
X107375000Y-117015000D03*
%TO.P,FET2,2*%
X108025000Y-117015000D03*
%TO.P,FET2,1*%
X108675000Y-117015000D03*
%TD*%
D14*
%TO.P,FET1,5*%
%TO.N,Net-(FET1-Pad5)*%
X103650000Y-118840000D03*
D15*
X102675000Y-119885000D03*
%TO.P,FET1,6*%
X103325000Y-119885000D03*
%TO.P,FET1,8*%
X104625000Y-119885000D03*
%TO.P,FET1,7*%
X103975000Y-119885000D03*
%TO.P,FET1,4*%
%TO.N,Net-(FET1-Pad4)*%
X102675000Y-117015000D03*
%TO.P,FET1,3*%
%TO.N,GND*%
X103325000Y-117015000D03*
%TO.P,FET1,2*%
X103975000Y-117015000D03*
%TO.P,FET1,1*%
X104625000Y-117015000D03*
%TD*%
D16*
%TO.P,Y1,4*%
%TO.N,GND*%
X108512500Y-62562500D03*
%TO.P,Y1,3*%
%TO.N,Net-(C10-Pad1)*%
X108512500Y-63837500D03*
%TO.P,Y1,2*%
%TO.N,GND*%
X109487500Y-63837500D03*
%TO.P,Y1,1*%
%TO.N,HSE_IN*%
X109487500Y-62562500D03*
%TD*%
%TA.AperFunction,SMDPad,CuDef*%
D17*
%TO.P,U7,3*%
%TO.N,GND*%
G36*
X119358975Y-54793289D02*
G01*
X118934711Y-54369025D01*
X119853949Y-53449787D01*
X120278213Y-53874051D01*
X119358975Y-54793289D01*
G37*
%TD.AperFunction*%
%TA.AperFunction,SMDPad,CuDef*%
%TO.P,U7,2*%
%TO.N,HALL_SENSE*%
G36*
X118545802Y-56949965D02*
G01*
X118121538Y-56525701D01*
X119040776Y-55606463D01*
X119465040Y-56030727D01*
X118545802Y-56949965D01*
G37*
%TD.AperFunction*%
%TA.AperFunction,SMDPad,CuDef*%
%TO.P,U7,1*%
%TO.N,Net-(C20-Pad1)*%
G36*
X117202299Y-55606462D02*
G01*
X116778035Y-55182198D01*
X117697273Y-54262960D01*
X118121537Y-54687224D01*
X117202299Y-55606462D01*
G37*
%TD.AperFunction*%
%TD*%
%TO.P,U6,10*%
%TO.N,+3V3*%
%TA.AperFunction,SMDPad,CuDef*%
G36*
G01*
X106175000Y-102775000D02*
X106325000Y-102775000D01*
G75*
G02*
X106400000Y-102850000I0J-75000D01*
G01*
X106400000Y-104150000D01*
G75*
G02*
X106325000Y-104225000I-75000J0D01*
G01*
X106175000Y-104225000D01*
G75*
G02*
X106100000Y-104150000I0J75000D01*
G01*
X106100000Y-102850000D01*
G75*
G02*
X106175000Y-102775000I75000J0D01*
G01*
G37*
%TD.AperFunction*%
%TO.P,U6,9*%
%TO.N,Motor-*%
%TA.AperFunction,SMDPad,CuDef*%
G36*
G01*
X105675000Y-102775000D02*
X105825000Y-102775000D01*
G75*
G02*
X105900000Y-102850000I0J-75000D01*
G01*
X105900000Y-104150000D01*
G75*
G02*
X105825000Y-104225000I-75000J0D01*
G01*
X105675000Y-104225000D01*
G75*
G02*
X105600000Y-104150000I0J75000D01*
G01*
X105600000Y-102850000D01*
G75*
G02*
X105675000Y-102775000I75000J0D01*
G01*
G37*
%TD.AperFunction*%
%TO.P,U6,8*%
%TO.N,GND*%
%TA.AperFunction,SMDPad,CuDef*%
G36*
G01*
X105175000Y-102775000D02*
X105325000Y-102775000D01*
G75*
G02*
X105400000Y-102850000I0J-75000D01*
G01*
X105400000Y-104150000D01*
G75*
G02*
X105325000Y-104225000I-75000J0D01*
G01*
X105175000Y-104225000D01*
G75*
G02*
X105100000Y-104150000I0J75000D01*
G01*
X105100000Y-102850000D01*
G75*
G02*
X105175000Y-102775000I75000J0D01*
G01*
G37*
%TD.AperFunction*%
%TO.P,U6,7*%
%TO.N,Motor+*%
%TA.AperFunction,SMDPad,CuDef*%
G36*
G01*
X104675000Y-102775000D02*
X104825000Y-102775000D01*
G75*
G02*
X104900000Y-102850000I0J-75000D01*
G01*
X104900000Y-104150000D01*
G75*
G02*
X104825000Y-104225000I-75000J0D01*
G01*
X104675000Y-104225000D01*
G75*
G02*
X104600000Y-104150000I0J75000D01*
G01*
X104600000Y-102850000D01*
G75*
G02*
X104675000Y-102775000I75000J0D01*
G01*
G37*
%TD.AperFunction*%
%TO.P,U6,6*%
%TO.N,+3V3*%
%TA.AperFunction,SMDPad,CuDef*%
G36*
G01*
X104175000Y-102775000D02*
X104325000Y-102775000D01*
G75*
G02*
X104400000Y-102850000I0J-75000D01*
G01*
X104400000Y-104150000D01*
G75*
G02*
X104325000Y-104225000I-75000J0D01*
G01*
X104175000Y-104225000D01*
G75*
G02*
X104100000Y-104150000I0J75000D01*
G01*
X104100000Y-102850000D01*
G75*
G02*
X104175000Y-102775000I75000J0D01*
G01*
G37*
%TD.AperFunction*%
%TO.P,U6,5*%
%TA.AperFunction,SMDPad,CuDef*%
G36*
G01*
X104175000Y-98375000D02*
X104325000Y-98375000D01*
G75*
G02*
X104400000Y-98450000I0J-75000D01*
G01*
X104400000Y-99750000D01*
G75*
G02*
X104325000Y-99825000I-75000J0D01*
G01*
X104175000Y-99825000D01*
G75*
G02*
X104100000Y-99750000I0J75000D01*
G01*
X104100000Y-98450000D01*
G75*
G02*
X104175000Y-98375000I75000J0D01*
G01*
G37*
%TD.AperFunction*%
%TO.P,U6,4*%
%TO.N,Net-(U6-Pad4)*%
%TA.AperFunction,SMDPad,CuDef*%
G36*
G01*
X104675000Y-98375000D02*
X104825000Y-98375000D01*
G75*
G02*
X104900000Y-98450000I0J-75000D01*
G01*
X104900000Y-99750000D01*
G75*
G02*
X104825000Y-99825000I-75000J0D01*
G01*
X104675000Y-99825000D01*
G75*
G02*
X104600000Y-99750000I0J75000D01*
G01*
X104600000Y-98450000D01*
G75*
G02*
X104675000Y-98375000I75000J0D01*
G01*
G37*
%TD.AperFunction*%
%TO.P,U6,3*%
%TO.N,HAPTIC_SDA*%
%TA.AperFunction,SMDPad,CuDef*%
G36*
G01*
X105175000Y-98375000D02*
X105325000Y-98375000D01*
G75*
G02*
X105400000Y-98450000I0J-75000D01*
G01*
X105400000Y-99750000D01*
G75*
G02*
X105325000Y-99825000I-75000J0D01*
G01*
X105175000Y-99825000D01*
G75*
G02*
X105100000Y-99750000I0J75000D01*
G01*
X105100000Y-98450000D01*
G75*
G02*
X105175000Y-98375000I75000J0D01*
G01*
G37*
%TD.AperFunction*%
%TO.P,U6,2*%
%TO.N,HAPTIC_SCL*%
%TA.AperFunction,SMDPad,CuDef*%
G36*
G01*
X105675000Y-98375000D02*
X105825000Y-98375000D01*
G75*
G02*
X105900000Y-98450000I0J-75000D01*
G01*
X105900000Y-99750000D01*
G75*
G02*
X105825000Y-99825000I-75000J0D01*
G01*
X105675000Y-99825000D01*
G75*
G02*
X105600000Y-99750000I0J75000D01*
G01*
X105600000Y-98450000D01*
G75*
G02*
X105675000Y-98375000I75000J0D01*
G01*
G37*
%TD.AperFunction*%
%TO.P,U6,1*%
%TO.N,Net-(C19-Pad2)*%
%TA.AperFunction,SMDPad,CuDef*%
G36*
G01*
X106175000Y-98375000D02*
X106325000Y-98375000D01*
G75*
G02*
X106400000Y-98450000I0J-75000D01*
G01*
X106400000Y-99750000D01*
G75*
G02*
X106325000Y-99825000I-75000J0D01*
G01*
X106175000Y-99825000D01*
G75*
G02*
X106100000Y-99750000I0J75000D01*
G01*
X106100000Y-98450000D01*
G75*
G02*
X106175000Y-98375000I75000J0D01*
G01*
G37*
%TD.AperFunction*%
%TD*%
D18*
%TO.P,U5,5*%
%TO.N,+5V*%
X105600000Y-129000000D03*
%TO.P,U5,6*%
%TO.N,USB_D+*%
X104650000Y-129000000D03*
%TO.P,U5,4*%
%TO.N,USB_D-*%
X106550000Y-129000000D03*
%TO.P,U5,3*%
%TO.N,USB_CONN_D-*%
X106550000Y-131700000D03*
%TO.P,U5,2*%
%TO.N,GND*%
X105600000Y-131700000D03*
%TO.P,U5,1*%
%TO.N,USB_CONN_D+*%
X104650000Y-131700000D03*
%TD*%
D19*
%TO.P,U4,11*%
%TO.N,GND*%
X105350000Y-82500000D03*
D20*
%TO.P,U4,7*%
%TO.N,BAT_SENSE*%
X105850000Y-81075000D03*
%TO.P,U4,8*%
X105350000Y-81075000D03*
%TO.P,U4,6*%
%TO.N,+3V3*%
X106350000Y-81075000D03*
%TO.P,U4,10*%
%TO.N,Net-(C17-Pad1)*%
X104350000Y-81075000D03*
%TO.P,U4,9*%
%TO.N,Net-(R13-Pad2)*%
X104850000Y-81075000D03*
%TO.P,U4,5*%
%TO.N,GND*%
X106350000Y-83925000D03*
%TO.P,U4,4*%
%TO.N,Net-(L2-Pad2)*%
X105850000Y-83925000D03*
%TO.P,U4,1*%
%TO.N,Net-(R16-Pad1)*%
X104350000Y-83925000D03*
%TO.P,U4,2*%
%TO.N,GND*%
X104850000Y-83925000D03*
%TO.P,U4,3*%
%TO.N,Net-(L2-Pad1)*%
X105350000Y-83925000D03*
%TD*%
D21*
%TO.P,U3,4*%
%TO.N,+5V*%
X104250000Y-124400000D03*
%TO.P,U3,5*%
%TO.N,Net-(R11-Pad1)*%
X104250000Y-126300000D03*
%TO.P,U3,3*%
%TO.N,BAT_SENSE*%
X107050000Y-124400000D03*
%TO.P,U3,2*%
%TO.N,GND*%
X107050000Y-125350000D03*
%TO.P,U3,1*%
%TO.N,Net-(R12-Pad1)*%
X107050000Y-126300000D03*
%TD*%
D22*
%TO.P,U2,6*%
%TO.N,Net-(R8-Pad2)*%
X106225000Y-111750000D03*
%TO.P,U2,5*%
%TO.N,Net-(C12-Pad1)*%
X106225000Y-112250000D03*
%TO.P,U2,4*%
%TO.N,-BATT*%
X106225000Y-112750000D03*
%TO.P,U2,3*%
%TO.N,Net-(FET2-Pad4)*%
X105075000Y-112750000D03*
%TO.P,U2,2*%
%TO.N,Net-(FET1-Pad4)*%
X105075000Y-112250000D03*
D23*
%TO.P,U2,1*%
%TO.N,Net-(U2-Pad1)*%
X105125000Y-111750000D03*
%TD*%
%TO.P,U1,64*%
%TO.N,+3V3*%
%TA.AperFunction,SMDPad,CuDef*%
G36*
G01*
X114300000Y-62025000D02*
X114300000Y-60625000D01*
G75*
G02*
X114375000Y-60550000I75000J0D01*
G01*
X114525000Y-60550000D01*
G75*
G02*
X114600000Y-60625000I0J-75000D01*
G01*
X114600000Y-62025000D01*
G75*
G02*
X114525000Y-62100000I-75000J0D01*
G01*
X114375000Y-62100000D01*
G75*
G02*
X114300000Y-62025000I0J75000D01*
G01*
G37*
%TD.AperFunction*%
%TO.P,U1,63*%
%TO.N,GND*%
%TA.AperFunction,SMDPad,CuDef*%
G36*
G01*
X114800000Y-62025000D02*
X114800000Y-60625000D01*
G75*
G02*
X114875000Y-60550000I75000J0D01*
G01*
X115025000Y-60550000D01*
G75*
G02*
X115100000Y-60625000I0J-75000D01*
G01*
X115100000Y-62025000D01*
G75*
G02*
X115025000Y-62100000I-75000J0D01*
G01*
X114875000Y-62100000D01*
G75*
G02*
X114800000Y-62025000I0J75000D01*
G01*
G37*
%TD.AperFunction*%
%TO.P,U1,62*%
%TO.N,Net-(U1-Pad62)*%
%TA.AperFunction,SMDPad,CuDef*%
G36*
G01*
X115300000Y-62025000D02*
X115300000Y-60625000D01*
G75*
G02*
X115375000Y-60550000I75000J0D01*
G01*
X115525000Y-60550000D01*
G75*
G02*
X115600000Y-60625000I0J-75000D01*
G01*
X115600000Y-62025000D01*
G75*
G02*
X115525000Y-62100000I-75000J0D01*
G01*
X115375000Y-62100000D01*
G75*
G02*
X115300000Y-62025000I0J75000D01*
G01*
G37*
%TD.AperFunction*%
%TO.P,U1,61*%
%TO.N,Net-(U1-Pad61)*%
%TA.AperFunction,SMDPad,CuDef*%
G36*
G01*
X115800000Y-62025000D02*
X115800000Y-60625000D01*
G75*
G02*
X115875000Y-60550000I75000J0D01*
G01*
X116025000Y-60550000D01*
G75*
G02*
X116100000Y-60625000I0J-75000D01*
G01*
X116100000Y-62025000D01*
G75*
G02*
X116025000Y-62100000I-75000J0D01*
G01*
X115875000Y-62100000D01*
G75*
G02*
X115800000Y-62025000I0J75000D01*
G01*
G37*
%TD.AperFunction*%
%TO.P,U1,60*%
%TO.N,BOOT0*%
%TA.AperFunction,SMDPad,CuDef*%
G36*
G01*
X116300000Y-62025000D02*
X116300000Y-60625000D01*
G75*
G02*
X116375000Y-60550000I75000J0D01*
G01*
X116525000Y-60550000D01*
G75*
G02*
X116600000Y-60625000I0J-75000D01*
G01*
X116600000Y-62025000D01*
G75*
G02*
X116525000Y-62100000I-75000J0D01*
G01*
X116375000Y-62100000D01*
G75*
G02*
X116300000Y-62025000I0J75000D01*
G01*
G37*
%TD.AperFunction*%
%TO.P,U1,59*%
%TO.N,DISPLAY_SDA*%
%TA.AperFunction,SMDPad,CuDef*%
G36*
G01*
X116800000Y-62025000D02*
X116800000Y-60625000D01*
G75*
G02*
X116875000Y-60550000I75000J0D01*
G01*
X117025000Y-60550000D01*
G75*
G02*
X117100000Y-60625000I0J-75000D01*
G01*
X117100000Y-62025000D01*
G75*
G02*
X117025000Y-62100000I-75000J0D01*
G01*
X116875000Y-62100000D01*
G75*
G02*
X116800000Y-62025000I0J75000D01*
G01*
G37*
%TD.AperFunction*%
%TO.P,U1,58*%
%TO.N,DISPLAY_SCL*%
%TA.AperFunction,SMDPad,CuDef*%
G36*
G01*
X117300000Y-62025000D02*
X117300000Y-60625000D01*
G75*
G02*
X117375000Y-60550000I75000J0D01*
G01*
X117525000Y-60550000D01*
G75*
G02*
X117600000Y-60625000I0J-75000D01*
G01*
X117600000Y-62025000D01*
G75*
G02*
X117525000Y-62100000I-75000J0D01*
G01*
X117375000Y-62100000D01*
G75*
G02*
X117300000Y-62025000I0J75000D01*
G01*
G37*
%TD.AperFunction*%
%TO.P,U1,57*%
%TO.N,Net-(U1-Pad57)*%
%TA.AperFunction,SMDPad,CuDef*%
G36*
G01*
X117800000Y-62025000D02*
X117800000Y-60625000D01*
G75*
G02*
X117875000Y-60550000I75000J0D01*
G01*
X118025000Y-60550000D01*
G75*
G02*
X118100000Y-60625000I0J-75000D01*
G01*
X118100000Y-62025000D01*
G75*
G02*
X118025000Y-62100000I-75000J0D01*
G01*
X117875000Y-62100000D01*
G75*
G02*
X117800000Y-62025000I0J75000D01*
G01*
G37*
%TD.AperFunction*%
%TO.P,U1,56*%
%TO.N,Net-(U1-Pad56)*%
%TA.AperFunction,SMDPad,CuDef*%
G36*
G01*
X118300000Y-62025000D02*
X118300000Y-60625000D01*
G75*
G02*
X118375000Y-60550000I75000J0D01*
G01*
X118525000Y-60550000D01*
G75*
G02*
X118600000Y-60625000I0J-75000D01*
G01*
X118600000Y-62025000D01*
G75*
G02*
X118525000Y-62100000I-75000J0D01*
G01*
X118375000Y-62100000D01*
G75*
G02*
X118300000Y-62025000I0J75000D01*
G01*
G37*
%TD.AperFunction*%
%TO.P,U1,55*%
%TO.N,SWO*%
%TA.AperFunction,SMDPad,CuDef*%
G36*
G01*
X118800000Y-62025000D02*
X118800000Y-60625000D01*
G75*
G02*
X118875000Y-60550000I75000J0D01*
G01*
X119025000Y-60550000D01*
G75*
G02*
X119100000Y-60625000I0J-75000D01*
G01*
X119100000Y-62025000D01*
G75*
G02*
X119025000Y-62100000I-75000J0D01*
G01*
X118875000Y-62100000D01*
G75*
G02*
X118800000Y-62025000I0J75000D01*
G01*
G37*
%TD.AperFunction*%
%TO.P,U1,54*%
%TO.N,Net-(U1-Pad54)*%
%TA.AperFunction,SMDPad,CuDef*%
G36*
G01*
X119300000Y-62025000D02*
X119300000Y-60625000D01*
G75*
G02*
X119375000Y-60550000I75000J0D01*
G01*
X119525000Y-60550000D01*
G75*
G02*
X119600000Y-60625000I0J-75000D01*
G01*
X119600000Y-62025000D01*
G75*
G02*
X119525000Y-62100000I-75000J0D01*
G01*
X119375000Y-62100000D01*
G75*
G02*
X119300000Y-62025000I0J75000D01*
G01*
G37*
%TD.AperFunction*%
%TO.P,U1,53*%
%TO.N,Net-(U1-Pad53)*%
%TA.AperFunction,SMDPad,CuDef*%
G36*
G01*
X119800000Y-62025000D02*
X119800000Y-60625000D01*
G75*
G02*
X119875000Y-60550000I75000J0D01*
G01*
X120025000Y-60550000D01*
G75*
G02*
X120100000Y-60625000I0J-75000D01*
G01*
X120100000Y-62025000D01*
G75*
G02*
X120025000Y-62100000I-75000J0D01*
G01*
X119875000Y-62100000D01*
G75*
G02*
X119800000Y-62025000I0J75000D01*
G01*
G37*
%TD.AperFunction*%
%TO.P,U1,52*%
%TO.N,Net-(U1-Pad52)*%
%TA.AperFunction,SMDPad,CuDef*%
G36*
G01*
X120300000Y-62025000D02*
X120300000Y-60625000D01*
G75*
G02*
X120375000Y-60550000I75000J0D01*
G01*
X120525000Y-60550000D01*
G75*
G02*
X120600000Y-60625000I0J-75000D01*
G01*
X120600000Y-62025000D01*
G75*
G02*
X120525000Y-62100000I-75000J0D01*
G01*
X120375000Y-62100000D01*
G75*
G02*
X120300000Y-62025000I0J75000D01*
G01*
G37*
%TD.AperFunction*%
%TO.P,U1,51*%
%TO.N,Net-(U1-Pad51)*%
%TA.AperFunction,SMDPad,CuDef*%
G36*
G01*
X120800000Y-62025000D02*
X120800000Y-60625000D01*
G75*
G02*
X120875000Y-60550000I75000J0D01*
G01*
X121025000Y-60550000D01*
G75*
G02*
X121100000Y-60625000I0J-75000D01*
G01*
X121100000Y-62025000D01*
G75*
G02*
X121025000Y-62100000I-75000J0D01*
G01*
X120875000Y-62100000D01*
G75*
G02*
X120800000Y-62025000I0J75000D01*
G01*
G37*
%TD.AperFunction*%
%TO.P,U1,50*%
%TO.N,Net-(U1-Pad50)*%
%TA.AperFunction,SMDPad,CuDef*%
G36*
G01*
X121300000Y-62025000D02*
X121300000Y-60625000D01*
G75*
G02*
X121375000Y-60550000I75000J0D01*
G01*
X121525000Y-60550000D01*
G75*
G02*
X121600000Y-60625000I0J-75000D01*
G01*
X121600000Y-62025000D01*
G75*
G02*
X121525000Y-62100000I-75000J0D01*
G01*
X121375000Y-62100000D01*
G75*
G02*
X121300000Y-62025000I0J75000D01*
G01*
G37*
%TD.AperFunction*%
%TO.P,U1,49*%
%TO.N,SWCLK*%
%TA.AperFunction,SMDPad,CuDef*%
G36*
G01*
X121800000Y-62025000D02*
X121800000Y-60625000D01*
G75*
G02*
X121875000Y-60550000I75000J0D01*
G01*
X122025000Y-60550000D01*
G75*
G02*
X122100000Y-60625000I0J-75000D01*
G01*
X122100000Y-62025000D01*
G75*
G02*
X122025000Y-62100000I-75000J0D01*
G01*
X121875000Y-62100000D01*
G75*
G02*
X121800000Y-62025000I0J75000D01*
G01*
G37*
%TD.AperFunction*%
%TO.P,U1,48*%
%TO.N,+3V3*%
%TA.AperFunction,SMDPad,CuDef*%
G36*
G01*
X123100000Y-63325000D02*
X123100000Y-63175000D01*
G75*
G02*
X123175000Y-63100000I75000J0D01*
G01*
X124575000Y-63100000D01*
G75*
G02*
X124650000Y-63175000I0J-75000D01*
G01*
X124650000Y-63325000D01*
G75*
G02*
X124575000Y-63400000I-75000J0D01*
G01*
X123175000Y-63400000D01*
G75*
G02*
X123100000Y-63325000I0J75000D01*
G01*
G37*
%TD.AperFunction*%
%TO.P,U1,47*%
%TO.N,GND*%
%TA.AperFunction,SMDPad,CuDef*%
G36*
G01*
X123100000Y-63825000D02*
X123100000Y-63675000D01*
G75*
G02*
X123175000Y-63600000I75000J0D01*
G01*
X124575000Y-63600000D01*
G75*
G02*
X124650000Y-63675000I0J-75000D01*
G01*
X124650000Y-63825000D01*
G75*
G02*
X124575000Y-63900000I-75000J0D01*
G01*
X123175000Y-63900000D01*
G75*
G02*
X123100000Y-63825000I0J75000D01*
G01*
G37*
%TD.AperFunction*%
%TO.P,U1,46*%
%TO.N,SWDIO*%
%TA.AperFunction,SMDPad,CuDef*%
G36*
G01*
X123100000Y-64325000D02*
X123100000Y-64175000D01*
G75*
G02*
X123175000Y-64100000I75000J0D01*
G01*
X124575000Y-64100000D01*
G75*
G02*
X124650000Y-64175000I0J-75000D01*
G01*
X124650000Y-64325000D01*
G75*
G02*
X124575000Y-64400000I-75000J0D01*
G01*
X123175000Y-64400000D01*
G75*
G02*
X123100000Y-64325000I0J75000D01*
G01*
G37*
%TD.AperFunction*%
%TO.P,U1,45*%
%TO.N,USB_D+*%
%TA.AperFunction,SMDPad,CuDef*%
G36*
G01*
X123100000Y-64825000D02*
X123100000Y-64675000D01*
G75*
G02*
X123175000Y-64600000I75000J0D01*
G01*
X124575000Y-64600000D01*
G75*
G02*
X124650000Y-64675000I0J-75000D01*
G01*
X124650000Y-64825000D01*
G75*
G02*
X124575000Y-64900000I-75000J0D01*
G01*
X123175000Y-64900000D01*
G75*
G02*
X123100000Y-64825000I0J75000D01*
G01*
G37*
%TD.AperFunction*%
%TO.P,U1,44*%
%TO.N,USB_D-*%
%TA.AperFunction,SMDPad,CuDef*%
G36*
G01*
X123100000Y-65325000D02*
X123100000Y-65175000D01*
G75*
G02*
X123175000Y-65100000I75000J0D01*
G01*
X124575000Y-65100000D01*
G75*
G02*
X124650000Y-65175000I0J-75000D01*
G01*
X124650000Y-65325000D01*
G75*
G02*
X124575000Y-65400000I-75000J0D01*
G01*
X123175000Y-65400000D01*
G75*
G02*
X123100000Y-65325000I0J75000D01*
G01*
G37*
%TD.AperFunction*%
%TO.P,U1,43*%
%TO.N,LED_STATUS*%
%TA.AperFunction,SMDPad,CuDef*%
G36*
G01*
X123100000Y-65825000D02*
X123100000Y-65675000D01*
G75*
G02*
X123175000Y-65600000I75000J0D01*
G01*
X124575000Y-65600000D01*
G75*
G02*
X124650000Y-65675000I0J-75000D01*
G01*
X124650000Y-65825000D01*
G75*
G02*
X124575000Y-65900000I-75000J0D01*
G01*
X123175000Y-65900000D01*
G75*
G02*
X123100000Y-65825000I0J75000D01*
G01*
G37*
%TD.AperFunction*%
%TO.P,U1,42*%
%TO.N,Net-(U1-Pad42)*%
%TA.AperFunction,SMDPad,CuDef*%
G36*
G01*
X123100000Y-66325000D02*
X123100000Y-66175000D01*
G75*
G02*
X123175000Y-66100000I75000J0D01*
G01*
X124575000Y-66100000D01*
G75*
G02*
X124650000Y-66175000I0J-75000D01*
G01*
X124650000Y-66325000D01*
G75*
G02*
X124575000Y-66400000I-75000J0D01*
G01*
X123175000Y-66400000D01*
G75*
G02*
X123100000Y-66325000I0J75000D01*
G01*
G37*
%TD.AperFunction*%
%TO.P,U1,41*%
%TO.N,HAPTIC_SCL*%
%TA.AperFunction,SMDPad,CuDef*%
G36*
G01*
X123100000Y-66825000D02*
X123100000Y-66675000D01*
G75*
G02*
X123175000Y-66600000I75000J0D01*
G01*
X124575000Y-66600000D01*
G75*
G02*
X124650000Y-66675000I0J-75000D01*
G01*
X124650000Y-66825000D01*
G75*
G02*
X124575000Y-66900000I-75000J0D01*
G01*
X123175000Y-66900000D01*
G75*
G02*
X123100000Y-66825000I0J75000D01*
G01*
G37*
%TD.AperFunction*%
%TO.P,U1,40*%
%TO.N,HAPTIC_SDA*%
%TA.AperFunction,SMDPad,CuDef*%
G36*
G01*
X123100000Y-67325000D02*
X123100000Y-67175000D01*
G75*
G02*
X123175000Y-67100000I75000J0D01*
G01*
X124575000Y-67100000D01*
G75*
G02*
X124650000Y-67175000I0J-75000D01*
G01*
X124650000Y-67325000D01*
G75*
G02*
X124575000Y-67400000I-75000J0D01*
G01*
X123175000Y-67400000D01*
G75*
G02*
X123100000Y-67325000I0J75000D01*
G01*
G37*
%TD.AperFunction*%
%TO.P,U1,39*%
%TO.N,Net-(U1-Pad39)*%
%TA.AperFunction,SMDPad,CuDef*%
G36*
G01*
X123100000Y-67825000D02*
X123100000Y-67675000D01*
G75*
G02*
X123175000Y-67600000I75000J0D01*
G01*
X124575000Y-67600000D01*
G75*
G02*
X124650000Y-67675000I0J-75000D01*
G01*
X124650000Y-67825000D01*
G75*
G02*
X124575000Y-67900000I-75000J0D01*
G01*
X123175000Y-67900000D01*
G75*
G02*
X123100000Y-67825000I0J75000D01*
G01*
G37*
%TD.AperFunction*%
%TO.P,U1,38*%
%TO.N,Net-(U1-Pad38)*%
%TA.AperFunction,SMDPad,CuDef*%
G36*
G01*
X123100000Y-68325000D02*
X123100000Y-68175000D01*
G75*
G02*
X123175000Y-68100000I75000J0D01*
G01*
X124575000Y-68100000D01*
G75*
G02*
X124650000Y-68175000I0J-75000D01*
G01*
X124650000Y-68325000D01*
G75*
G02*
X124575000Y-68400000I-75000J0D01*
G01*
X123175000Y-68400000D01*
G75*
G02*
X123100000Y-68325000I0J75000D01*
G01*
G37*
%TD.AperFunction*%
%TO.P,U1,37*%
%TO.N,Net-(U1-Pad37)*%
%TA.AperFunction,SMDPad,CuDef*%
G36*
G01*
X123100000Y-68825000D02*
X123100000Y-68675000D01*
G75*
G02*
X123175000Y-68600000I75000J0D01*
G01*
X124575000Y-68600000D01*
G75*
G02*
X124650000Y-68675000I0J-75000D01*
G01*
X124650000Y-68825000D01*
G75*
G02*
X124575000Y-68900000I-75000J0D01*
G01*
X123175000Y-68900000D01*
G75*
G02*
X123100000Y-68825000I0J75000D01*
G01*
G37*
%TD.AperFunction*%
%TO.P,U1,36*%
%TO.N,Net-(U1-Pad36)*%
%TA.AperFunction,SMDPad,CuDef*%
G36*
G01*
X123100000Y-69325000D02*
X123100000Y-69175000D01*
G75*
G02*
X123175000Y-69100000I75000J0D01*
G01*
X124575000Y-69100000D01*
G75*
G02*
X124650000Y-69175000I0J-75000D01*
G01*
X124650000Y-69325000D01*
G75*
G02*
X124575000Y-69400000I-75000J0D01*
G01*
X123175000Y-69400000D01*
G75*
G02*
X123100000Y-69325000I0J75000D01*
G01*
G37*
%TD.AperFunction*%
%TO.P,U1,35*%
%TO.N,Net-(U1-Pad35)*%
%TA.AperFunction,SMDPad,CuDef*%
G36*
G01*
X123100000Y-69825000D02*
X123100000Y-69675000D01*
G75*
G02*
X123175000Y-69600000I75000J0D01*
G01*
X124575000Y-69600000D01*
G75*
G02*
X124650000Y-69675000I0J-75000D01*
G01*
X124650000Y-69825000D01*
G75*
G02*
X124575000Y-69900000I-75000J0D01*
G01*
X123175000Y-69900000D01*
G75*
G02*
X123100000Y-69825000I0J75000D01*
G01*
G37*
%TD.AperFunction*%
%TO.P,U1,34*%
%TO.N,Net-(U1-Pad34)*%
%TA.AperFunction,SMDPad,CuDef*%
G36*
G01*
X123100000Y-70325000D02*
X123100000Y-70175000D01*
G75*
G02*
X123175000Y-70100000I75000J0D01*
G01*
X124575000Y-70100000D01*
G75*
G02*
X124650000Y-70175000I0J-75000D01*
G01*
X124650000Y-70325000D01*
G75*
G02*
X124575000Y-70400000I-75000J0D01*
G01*
X123175000Y-70400000D01*
G75*
G02*
X123100000Y-70325000I0J75000D01*
G01*
G37*
%TD.AperFunction*%
%TO.P,U1,33*%
%TO.N,HALL_SENSE*%
%TA.AperFunction,SMDPad,CuDef*%
G36*
G01*
X123100000Y-70825000D02*
X123100000Y-70675000D01*
G75*
G02*
X123175000Y-70600000I75000J0D01*
G01*
X124575000Y-70600000D01*
G75*
G02*
X124650000Y-70675000I0J-75000D01*
G01*
X124650000Y-70825000D01*
G75*
G02*
X124575000Y-70900000I-75000J0D01*
G01*
X123175000Y-70900000D01*
G75*
G02*
X123100000Y-70825000I0J75000D01*
G01*
G37*
%TD.AperFunction*%
%TO.P,U1,32*%
%TO.N,+3V3*%
%TA.AperFunction,SMDPad,CuDef*%
G36*
G01*
X121800000Y-73375000D02*
X121800000Y-71975000D01*
G75*
G02*
X121875000Y-71900000I75000J0D01*
G01*
X122025000Y-71900000D01*
G75*
G02*
X122100000Y-71975000I0J-75000D01*
G01*
X122100000Y-73375000D01*
G75*
G02*
X122025000Y-73450000I-75000J0D01*
G01*
X121875000Y-73450000D01*
G75*
G02*
X121800000Y-73375000I0J75000D01*
G01*
G37*
%TD.AperFunction*%
%TO.P,U1,31*%
%TO.N,GND*%
%TA.AperFunction,SMDPad,CuDef*%
G36*
G01*
X121300000Y-73375000D02*
X121300000Y-71975000D01*
G75*
G02*
X121375000Y-71900000I75000J0D01*
G01*
X121525000Y-71900000D01*
G75*
G02*
X121600000Y-71975000I0J-75000D01*
G01*
X121600000Y-73375000D01*
G75*
G02*
X121525000Y-73450000I-75000J0D01*
G01*
X121375000Y-73450000D01*
G75*
G02*
X121300000Y-73375000I0J75000D01*
G01*
G37*
%TD.AperFunction*%
%TO.P,U1,30*%
%TO.N,Net-(U1-Pad30)*%
%TA.AperFunction,SMDPad,CuDef*%
G36*
G01*
X120800000Y-73375000D02*
X120800000Y-71975000D01*
G75*
G02*
X120875000Y-71900000I75000J0D01*
G01*
X121025000Y-71900000D01*
G75*
G02*
X121100000Y-71975000I0J-75000D01*
G01*
X121100000Y-73375000D01*
G75*
G02*
X121025000Y-73450000I-75000J0D01*
G01*
X120875000Y-73450000D01*
G75*
G02*
X120800000Y-73375000I0J75000D01*
G01*
G37*
%TD.AperFunction*%
%TO.P,U1,29*%
%TO.N,Net-(U1-Pad29)*%
%TA.AperFunction,SMDPad,CuDef*%
G36*
G01*
X120300000Y-73375000D02*
X120300000Y-71975000D01*
G75*
G02*
X120375000Y-71900000I75000J0D01*
G01*
X120525000Y-71900000D01*
G75*
G02*
X120600000Y-71975000I0J-75000D01*
G01*
X120600000Y-73375000D01*
G75*
G02*
X120525000Y-73450000I-75000J0D01*
G01*
X120375000Y-73450000D01*
G75*
G02*
X120300000Y-73375000I0J75000D01*
G01*
G37*
%TD.AperFunction*%
%TO.P,U1,28*%
%TO.N,Net-(U1-Pad28)*%
%TA.AperFunction,SMDPad,CuDef*%
G36*
G01*
X119800000Y-73375000D02*
X119800000Y-71975000D01*
G75*
G02*
X119875000Y-71900000I75000J0D01*
G01*
X120025000Y-71900000D01*
G75*
G02*
X120100000Y-71975000I0J-75000D01*
G01*
X120100000Y-73375000D01*
G75*
G02*
X120025000Y-73450000I-75000J0D01*
G01*
X119875000Y-73450000D01*
G75*
G02*
X119800000Y-73375000I0J75000D01*
G01*
G37*
%TD.AperFunction*%
%TO.P,U1,27*%
%TO.N,BAT_SENSE*%
%TA.AperFunction,SMDPad,CuDef*%
G36*
G01*
X119300000Y-73375000D02*
X119300000Y-71975000D01*
G75*
G02*
X119375000Y-71900000I75000J0D01*
G01*
X119525000Y-71900000D01*
G75*
G02*
X119600000Y-71975000I0J-75000D01*
G01*
X119600000Y-73375000D01*
G75*
G02*
X119525000Y-73450000I-75000J0D01*
G01*
X119375000Y-73450000D01*
G75*
G02*
X119300000Y-73375000I0J75000D01*
G01*
G37*
%TD.AperFunction*%
%TO.P,U1,26*%
%TO.N,Net-(U1-Pad26)*%
%TA.AperFunction,SMDPad,CuDef*%
G36*
G01*
X118800000Y-73375000D02*
X118800000Y-71975000D01*
G75*
G02*
X118875000Y-71900000I75000J0D01*
G01*
X119025000Y-71900000D01*
G75*
G02*
X119100000Y-71975000I0J-75000D01*
G01*
X119100000Y-73375000D01*
G75*
G02*
X119025000Y-73450000I-75000J0D01*
G01*
X118875000Y-73450000D01*
G75*
G02*
X118800000Y-73375000I0J75000D01*
G01*
G37*
%TD.AperFunction*%
%TO.P,U1,25*%
%TO.N,Net-(U1-Pad25)*%
%TA.AperFunction,SMDPad,CuDef*%
G36*
G01*
X118300000Y-73375000D02*
X118300000Y-71975000D01*
G75*
G02*
X118375000Y-71900000I75000J0D01*
G01*
X118525000Y-71900000D01*
G75*
G02*
X118600000Y-71975000I0J-75000D01*
G01*
X118600000Y-73375000D01*
G75*
G02*
X118525000Y-73450000I-75000J0D01*
G01*
X118375000Y-73450000D01*
G75*
G02*
X118300000Y-73375000I0J75000D01*
G01*
G37*
%TD.AperFunction*%
%TO.P,U1,24*%
%TO.N,Net-(U1-Pad24)*%
%TA.AperFunction,SMDPad,CuDef*%
G36*
G01*
X117800000Y-73375000D02*
X117800000Y-71975000D01*
G75*
G02*
X117875000Y-71900000I75000J0D01*
G01*
X118025000Y-71900000D01*
G75*
G02*
X118100000Y-71975000I0J-75000D01*
G01*
X118100000Y-73375000D01*
G75*
G02*
X118025000Y-73450000I-75000J0D01*
G01*
X117875000Y-73450000D01*
G75*
G02*
X117800000Y-73375000I0J75000D01*
G01*
G37*
%TD.AperFunction*%
%TO.P,U1,23*%
%TO.N,NRF_MOSI*%
%TA.AperFunction,SMDPad,CuDef*%
G36*
G01*
X117300000Y-73375000D02*
X117300000Y-71975000D01*
G75*
G02*
X117375000Y-71900000I75000J0D01*
G01*
X117525000Y-71900000D01*
G75*
G02*
X117600000Y-71975000I0J-75000D01*
G01*
X117600000Y-73375000D01*
G75*
G02*
X117525000Y-73450000I-75000J0D01*
G01*
X117375000Y-73450000D01*
G75*
G02*
X117300000Y-73375000I0J75000D01*
G01*
G37*
%TD.AperFunction*%
%TO.P,U1,22*%
%TO.N,NRF_MISO*%
%TA.AperFunction,SMDPad,CuDef*%
G36*
G01*
X116800000Y-73375000D02*
X116800000Y-71975000D01*
G75*
G02*
X116875000Y-71900000I75000J0D01*
G01*
X117025000Y-71900000D01*
G75*
G02*
X117100000Y-71975000I0J-75000D01*
G01*
X117100000Y-73375000D01*
G75*
G02*
X117025000Y-73450000I-75000J0D01*
G01*
X116875000Y-73450000D01*
G75*
G02*
X116800000Y-73375000I0J75000D01*
G01*
G37*
%TD.AperFunction*%
%TO.P,U1,21*%
%TO.N,NRF_SCK*%
%TA.AperFunction,SMDPad,CuDef*%
G36*
G01*
X116300000Y-73375000D02*
X116300000Y-71975000D01*
G75*
G02*
X116375000Y-71900000I75000J0D01*
G01*
X116525000Y-71900000D01*
G75*
G02*
X116600000Y-71975000I0J-75000D01*
G01*
X116600000Y-73375000D01*
G75*
G02*
X116525000Y-73450000I-75000J0D01*
G01*
X116375000Y-73450000D01*
G75*
G02*
X116300000Y-73375000I0J75000D01*
G01*
G37*
%TD.AperFunction*%
%TO.P,U1,20*%
%TO.N,Net-(U1-Pad20)*%
%TA.AperFunction,SMDPad,CuDef*%
G36*
G01*
X115800000Y-73375000D02*
X115800000Y-71975000D01*
G75*
G02*
X115875000Y-71900000I75000J0D01*
G01*
X116025000Y-71900000D01*
G75*
G02*
X116100000Y-71975000I0J-75000D01*
G01*
X116100000Y-73375000D01*
G75*
G02*
X116025000Y-73450000I-75000J0D01*
G01*
X115875000Y-73450000D01*
G75*
G02*
X115800000Y-73375000I0J75000D01*
G01*
G37*
%TD.AperFunction*%
%TO.P,U1,19*%
%TO.N,+3V3*%
%TA.AperFunction,SMDPad,CuDef*%
G36*
G01*
X115300000Y-73375000D02*
X115300000Y-71975000D01*
G75*
G02*
X115375000Y-71900000I75000J0D01*
G01*
X115525000Y-71900000D01*
G75*
G02*
X115600000Y-71975000I0J-75000D01*
G01*
X115600000Y-73375000D01*
G75*
G02*
X115525000Y-73450000I-75000J0D01*
G01*
X115375000Y-73450000D01*
G75*
G02*
X115300000Y-73375000I0J75000D01*
G01*
G37*
%TD.AperFunction*%
%TO.P,U1,18*%
%TO.N,GND*%
%TA.AperFunction,SMDPad,CuDef*%
G36*
G01*
X114800000Y-73375000D02*
X114800000Y-71975000D01*
G75*
G02*
X114875000Y-71900000I75000J0D01*
G01*
X115025000Y-71900000D01*
G75*
G02*
X115100000Y-71975000I0J-75000D01*
G01*
X115100000Y-73375000D01*
G75*
G02*
X115025000Y-73450000I-75000J0D01*
G01*
X114875000Y-73450000D01*
G75*
G02*
X114800000Y-73375000I0J75000D01*
G01*
G37*
%TD.AperFunction*%
%TO.P,U1,17*%
%TO.N,Net-(U1-Pad17)*%
%TA.AperFunction,SMDPad,CuDef*%
G36*
G01*
X114300000Y-73375000D02*
X114300000Y-71975000D01*
G75*
G02*
X114375000Y-71900000I75000J0D01*
G01*
X114525000Y-71900000D01*
G75*
G02*
X114600000Y-71975000I0J-75000D01*
G01*
X114600000Y-73375000D01*
G75*
G02*
X114525000Y-73450000I-75000J0D01*
G01*
X114375000Y-73450000D01*
G75*
G02*
X114300000Y-73375000I0J75000D01*
G01*
G37*
%TD.AperFunction*%
%TO.P,U1,16*%
%TO.N,Net-(U1-Pad16)*%
%TA.AperFunction,SMDPad,CuDef*%
G36*
G01*
X111750000Y-70825000D02*
X111750000Y-70675000D01*
G75*
G02*
X111825000Y-70600000I75000J0D01*
G01*
X113225000Y-70600000D01*
G75*
G02*
X113300000Y-70675000I0J-75000D01*
G01*
X113300000Y-70825000D01*
G75*
G02*
X113225000Y-70900000I-75000J0D01*
G01*
X111825000Y-70900000D01*
G75*
G02*
X111750000Y-70825000I0J75000D01*
G01*
G37*
%TD.AperFunction*%
%TO.P,U1,15*%
%TO.N,NRF_CE*%
%TA.AperFunction,SMDPad,CuDef*%
G36*
G01*
X111750000Y-70325000D02*
X111750000Y-70175000D01*
G75*
G02*
X111825000Y-70100000I75000J0D01*
G01*
X113225000Y-70100000D01*
G75*
G02*
X113300000Y-70175000I0J-75000D01*
G01*
X113300000Y-70325000D01*
G75*
G02*
X113225000Y-70400000I-75000J0D01*
G01*
X111825000Y-70400000D01*
G75*
G02*
X111750000Y-70325000I0J75000D01*
G01*
G37*
%TD.AperFunction*%
%TO.P,U1,14*%
%TO.N,NRF_CSN*%
%TA.AperFunction,SMDPad,CuDef*%
G36*
G01*
X111750000Y-69825000D02*
X111750000Y-69675000D01*
G75*
G02*
X111825000Y-69600000I75000J0D01*
G01*
X113225000Y-69600000D01*
G75*
G02*
X113300000Y-69675000I0J-75000D01*
G01*
X113300000Y-69825000D01*
G75*
G02*
X113225000Y-69900000I-75000J0D01*
G01*
X111825000Y-69900000D01*
G75*
G02*
X111750000Y-69825000I0J75000D01*
G01*
G37*
%TD.AperFunction*%
%TO.P,U1,13*%
%TO.N,+3.3VA*%
%TA.AperFunction,SMDPad,CuDef*%
G36*
G01*
X111750000Y-69325000D02*
X111750000Y-69175000D01*
G75*
G02*
X111825000Y-69100000I75000J0D01*
G01*
X113225000Y-69100000D01*
G75*
G02*
X113300000Y-69175000I0J-75000D01*
G01*
X113300000Y-69325000D01*
G75*
G02*
X113225000Y-69400000I-75000J0D01*
G01*
X111825000Y-69400000D01*
G75*
G02*
X111750000Y-69325000I0J75000D01*
G01*
G37*
%TD.AperFunction*%
%TO.P,U1,12*%
%TO.N,GND*%
%TA.AperFunction,SMDPad,CuDef*%
G36*
G01*
X111750000Y-68825000D02*
X111750000Y-68675000D01*
G75*
G02*
X111825000Y-68600000I75000J0D01*
G01*
X113225000Y-68600000D01*
G75*
G02*
X113300000Y-68675000I0J-75000D01*
G01*
X113300000Y-68825000D01*
G75*
G02*
X113225000Y-68900000I-75000J0D01*
G01*
X111825000Y-68900000D01*
G75*
G02*
X111750000Y-68825000I0J75000D01*
G01*
G37*
%TD.AperFunction*%
%TO.P,U1,11*%
%TO.N,Net-(U1-Pad11)*%
%TA.AperFunction,SMDPad,CuDef*%
G36*
G01*
X111750000Y-68325000D02*
X111750000Y-68175000D01*
G75*
G02*
X111825000Y-68100000I75000J0D01*
G01*
X113225000Y-68100000D01*
G75*
G02*
X113300000Y-68175000I0J-75000D01*
G01*
X113300000Y-68325000D01*
G75*
G02*
X113225000Y-68400000I-75000J0D01*
G01*
X111825000Y-68400000D01*
G75*
G02*
X111750000Y-68325000I0J75000D01*
G01*
G37*
%TD.AperFunction*%
%TO.P,U1,10*%
%TO.N,Net-(U1-Pad10)*%
%TA.AperFunction,SMDPad,CuDef*%
G36*
G01*
X111750000Y-67825000D02*
X111750000Y-67675000D01*
G75*
G02*
X111825000Y-67600000I75000J0D01*
G01*
X113225000Y-67600000D01*
G75*
G02*
X113300000Y-67675000I0J-75000D01*
G01*
X113300000Y-67825000D01*
G75*
G02*
X113225000Y-67900000I-75000J0D01*
G01*
X111825000Y-67900000D01*
G75*
G02*
X111750000Y-67825000I0J75000D01*
G01*
G37*
%TD.AperFunction*%
%TO.P,U1,9*%
%TO.N,Net-(U1-Pad9)*%
%TA.AperFunction,SMDPad,CuDef*%
G36*
G01*
X111750000Y-67325000D02*
X111750000Y-67175000D01*
G75*
G02*
X111825000Y-67100000I75000J0D01*
G01*
X113225000Y-67100000D01*
G75*
G02*
X113300000Y-67175000I0J-75000D01*
G01*
X113300000Y-67325000D01*
G75*
G02*
X113225000Y-67400000I-75000J0D01*
G01*
X111825000Y-67400000D01*
G75*
G02*
X111750000Y-67325000I0J75000D01*
G01*
G37*
%TD.AperFunction*%
%TO.P,U1,8*%
%TO.N,BTN_POWER_SELECT*%
%TA.AperFunction,SMDPad,CuDef*%
G36*
G01*
X111750000Y-66825000D02*
X111750000Y-66675000D01*
G75*
G02*
X111825000Y-66600000I75000J0D01*
G01*
X113225000Y-66600000D01*
G75*
G02*
X113300000Y-66675000I0J-75000D01*
G01*
X113300000Y-66825000D01*
G75*
G02*
X113225000Y-66900000I-75000J0D01*
G01*
X111825000Y-66900000D01*
G75*
G02*
X111750000Y-66825000I0J75000D01*
G01*
G37*
%TD.AperFunction*%
%TO.P,U1,7*%
%TO.N,NRST*%
%TA.AperFunction,SMDPad,CuDef*%
G36*
G01*
X111750000Y-66325000D02*
X111750000Y-66175000D01*
G75*
G02*
X111825000Y-66100000I75000J0D01*
G01*
X113225000Y-66100000D01*
G75*
G02*
X113300000Y-66175000I0J-75000D01*
G01*
X113300000Y-66325000D01*
G75*
G02*
X113225000Y-66400000I-75000J0D01*
G01*
X111825000Y-66400000D01*
G75*
G02*
X111750000Y-66325000I0J75000D01*
G01*
G37*
%TD.AperFunction*%
%TO.P,U1,6*%
%TO.N,HSE_OUT*%
%TA.AperFunction,SMDPad,CuDef*%
G36*
G01*
X111750000Y-65825000D02*
X111750000Y-65675000D01*
G75*
G02*
X111825000Y-65600000I75000J0D01*
G01*
X113225000Y-65600000D01*
G75*
G02*
X113300000Y-65675000I0J-75000D01*
G01*
X113300000Y-65825000D01*
G75*
G02*
X113225000Y-65900000I-75000J0D01*
G01*
X111825000Y-65900000D01*
G75*
G02*
X111750000Y-65825000I0J75000D01*
G01*
G37*
%TD.AperFunction*%
%TO.P,U1,5*%
%TO.N,HSE_IN*%
%TA.AperFunction,SMDPad,CuDef*%
G36*
G01*
X111750000Y-65325000D02*
X111750000Y-65175000D01*
G75*
G02*
X111825000Y-65100000I75000J0D01*
G01*
X113225000Y-65100000D01*
G75*
G02*
X113300000Y-65175000I0J-75000D01*
G01*
X113300000Y-65325000D01*
G75*
G02*
X113225000Y-65400000I-75000J0D01*
G01*
X111825000Y-65400000D01*
G75*
G02*
X111750000Y-65325000I0J75000D01*
G01*
G37*
%TD.AperFunction*%
%TO.P,U1,4*%
%TO.N,Net-(U1-Pad4)*%
%TA.AperFunction,SMDPad,CuDef*%
G36*
G01*
X111750000Y-64825000D02*
X111750000Y-64675000D01*
G75*
G02*
X111825000Y-64600000I75000J0D01*
G01*
X113225000Y-64600000D01*
G75*
G02*
X113300000Y-64675000I0J-75000D01*
G01*
X113300000Y-64825000D01*
G75*
G02*
X113225000Y-64900000I-75000J0D01*
G01*
X111825000Y-64900000D01*
G75*
G02*
X111750000Y-64825000I0J75000D01*
G01*
G37*
%TD.AperFunction*%
%TO.P,U1,3*%
%TO.N,Net-(U1-Pad3)*%
%TA.AperFunction,SMDPad,CuDef*%
G36*
G01*
X111750000Y-64325000D02*
X111750000Y-64175000D01*
G75*
G02*
X111825000Y-64100000I75000J0D01*
G01*
X113225000Y-64100000D01*
G75*
G02*
X113300000Y-64175000I0J-75000D01*
G01*
X113300000Y-64325000D01*
G75*
G02*
X113225000Y-64400000I-75000J0D01*
G01*
X111825000Y-64400000D01*
G75*
G02*
X111750000Y-64325000I0J75000D01*
G01*
G37*
%TD.AperFunction*%
%TO.P,U1,2*%
%TO.N,Net-(U1-Pad2)*%
%TA.AperFunction,SMDPad,CuDef*%
G36*
G01*
X111750000Y-63825000D02*
X111750000Y-63675000D01*
G75*
G02*
X111825000Y-63600000I75000J0D01*
G01*
X113225000Y-63600000D01*
G75*
G02*
X113300000Y-63675000I0J-75000D01*
G01*
X113300000Y-63825000D01*
G75*
G02*
X113225000Y-63900000I-75000J0D01*
G01*
X111825000Y-63900000D01*
G75*
G02*
X111750000Y-63825000I0J75000D01*
G01*
G37*
%TD.AperFunction*%
%TO.P,U1,1*%
%TO.N,+3V3*%
%TA.AperFunction,SMDPad,CuDef*%
G36*
G01*
X111750000Y-63325000D02*
X111750000Y-63175000D01*
G75*
G02*
X111825000Y-63100000I75000J0D01*
G01*
X113225000Y-63100000D01*
G75*
G02*
X113300000Y-63175000I0J-75000D01*
G01*
X113300000Y-63325000D01*
G75*
G02*
X113225000Y-63400000I-75000J0D01*
G01*
X111825000Y-63400000D01*
G75*
G02*
X111750000Y-63325000I0J75000D01*
G01*
G37*
%TD.AperFunction*%
%TD*%
D24*
%TO.P,SW2,2*%
%TO.N,BTN_POWER_SELECT*%
X128950000Y-71564000D03*
%TO.P,SW2,1*%
%TO.N,GND*%
X128950000Y-76064000D03*
%TD*%
D25*
%TO.P,SW1,3*%
%TO.N,GND*%
X121700000Y-42400000D03*
%TO.P,SW1,1*%
%TO.N,+3V3*%
X121700000Y-47400000D03*
%TO.P,SW1,2*%
%TO.N,Net-(R1-Pad1)*%
X121700000Y-44900000D03*
%TD*%
%TO.P,R19,2*%
%TO.N,+3V3*%
%TA.AperFunction,SMDPad,CuDef*%
G36*
G01*
X106487500Y-95775000D02*
X106012500Y-95775000D01*
G75*
G02*
X105775000Y-95537500I0J237500D01*
G01*
X105775000Y-95037500D01*
G75*
G02*
X106012500Y-94800000I237500J0D01*
G01*
X106487500Y-94800000D01*
G75*
G02*
X106725000Y-95037500I0J-237500D01*
G01*
X106725000Y-95537500D01*
G75*
G02*
X106487500Y-95775000I-237500J0D01*
G01*
G37*
%TD.AperFunction*%
%TO.P,R19,1*%
%TO.N,HAPTIC_SCL*%
%TA.AperFunction,SMDPad,CuDef*%
G36*
G01*
X106487500Y-97600000D02*
X106012500Y-97600000D01*
G75*
G02*
X105775000Y-97362500I0J237500D01*
G01*
X105775000Y-96862500D01*
G75*
G02*
X106012500Y-96625000I237500J0D01*
G01*
X106487500Y-96625000D01*
G75*
G02*
X106725000Y-96862500I0J-237500D01*
G01*
X106725000Y-97362500D01*
G75*
G02*
X106487500Y-97600000I-237500J0D01*
G01*
G37*
%TD.AperFunction*%
%TD*%
%TO.P,R18,2*%
%TO.N,+3V3*%
%TA.AperFunction,SMDPad,CuDef*%
G36*
G01*
X104937500Y-95775000D02*
X104462500Y-95775000D01*
G75*
G02*
X104225000Y-95537500I0J237500D01*
G01*
X104225000Y-95037500D01*
G75*
G02*
X104462500Y-94800000I237500J0D01*
G01*
X104937500Y-94800000D01*
G75*
G02*
X105175000Y-95037500I0J-237500D01*
G01*
X105175000Y-95537500D01*
G75*
G02*
X104937500Y-95775000I-237500J0D01*
G01*
G37*
%TD.AperFunction*%
%TO.P,R18,1*%
%TO.N,HAPTIC_SDA*%
%TA.AperFunction,SMDPad,CuDef*%
G36*
G01*
X104937500Y-97600000D02*
X104462500Y-97600000D01*
G75*
G02*
X104225000Y-97362500I0J237500D01*
G01*
X104225000Y-96862500D01*
G75*
G02*
X104462500Y-96625000I237500J0D01*
G01*
X104937500Y-96625000D01*
G75*
G02*
X105175000Y-96862500I0J-237500D01*
G01*
X105175000Y-97362500D01*
G75*
G02*
X104937500Y-97600000I-237500J0D01*
G01*
G37*
%TD.AperFunction*%
%TD*%
%TO.P,R17,2*%
%TO.N,Net-(D3-Pad1)*%
%TA.AperFunction,SMDPad,CuDef*%
G36*
G01*
X107490000Y-73960000D02*
X107490000Y-73640000D01*
G75*
G02*
X107650000Y-73480000I160000J0D01*
G01*
X108045000Y-73480000D01*
G75*
G02*
X108205000Y-73640000I0J-160000D01*
G01*
X108205000Y-73960000D01*
G75*
G02*
X108045000Y-74120000I-160000J0D01*
G01*
X107650000Y-74120000D01*
G75*
G02*
X107490000Y-73960000I0J160000D01*
G01*
G37*
%TD.AperFunction*%
%TO.P,R17,1*%
%TO.N,GND*%
%TA.AperFunction,SMDPad,CuDef*%
G36*
G01*
X106295000Y-73960000D02*
X106295000Y-73640000D01*
G75*
G02*
X106455000Y-73480000I160000J0D01*
G01*
X106850000Y-73480000D01*
G75*
G02*
X107010000Y-73640000I0J-160000D01*
G01*
X107010000Y-73960000D01*
G75*
G02*
X106850000Y-74120000I-160000J0D01*
G01*
X106455000Y-74120000D01*
G75*
G02*
X106295000Y-73960000I0J160000D01*
G01*
G37*
%TD.AperFunction*%
%TD*%
%TO.P,R16,2*%
%TO.N,GND*%
%TA.AperFunction,SMDPad,CuDef*%
G36*
G01*
X103387500Y-82475000D02*
X102912500Y-82475000D01*
G75*
G02*
X102675000Y-82237500I0J237500D01*
G01*
X102675000Y-81737500D01*
G75*
G02*
X102912500Y-81500000I237500J0D01*
G01*
X103387500Y-81500000D01*
G75*
G02*
X103625000Y-81737500I0J-237500D01*
G01*
X103625000Y-82237500D01*
G75*
G02*
X103387500Y-82475000I-237500J0D01*
G01*
G37*
%TD.AperFunction*%
%TO.P,R16,1*%
%TO.N,Net-(R16-Pad1)*%
%TA.AperFunction,SMDPad,CuDef*%
G36*
G01*
X103387500Y-84300000D02*
X102912500Y-84300000D01*
G75*
G02*
X102675000Y-84062500I0J237500D01*
G01*
X102675000Y-83562500D01*
G75*
G02*
X102912500Y-83325000I237500J0D01*
G01*
X103387500Y-83325000D01*
G75*
G02*
X103625000Y-83562500I0J-237500D01*
G01*
X103625000Y-84062500D01*
G75*
G02*
X103387500Y-84300000I-237500J0D01*
G01*
G37*
%TD.AperFunction*%
%TD*%
%TO.P,R15,2*%
%TO.N,Net-(R13-Pad2)*%
%TA.AperFunction,SMDPad,CuDef*%
G36*
G01*
X103575000Y-78687500D02*
X103575000Y-78212500D01*
G75*
G02*
X103812500Y-77975000I237500J0D01*
G01*
X104312500Y-77975000D01*
G75*
G02*
X104550000Y-78212500I0J-237500D01*
G01*
X104550000Y-78687500D01*
G75*
G02*
X104312500Y-78925000I-237500J0D01*
G01*
X103812500Y-78925000D01*
G75*
G02*
X103575000Y-78687500I0J237500D01*
G01*
G37*
%TD.AperFunction*%
%TO.P,R15,1*%
%TO.N,Net-(C17-Pad2)*%
%TA.AperFunction,SMDPad,CuDef*%
G36*
G01*
X101750000Y-78687500D02*
X101750000Y-78212500D01*
G75*
G02*
X101987500Y-77975000I237500J0D01*
G01*
X102487500Y-77975000D01*
G75*
G02*
X102725000Y-78212500I0J-237500D01*
G01*
X102725000Y-78687500D01*
G75*
G02*
X102487500Y-78925000I-237500J0D01*
G01*
X101987500Y-78925000D01*
G75*
G02*
X101750000Y-78687500I0J237500D01*
G01*
G37*
%TD.AperFunction*%
%TD*%
%TO.P,R14,2*%
%TO.N,GND*%
%TA.AperFunction,SMDPad,CuDef*%
G36*
G01*
X102725000Y-76612500D02*
X102725000Y-77087500D01*
G75*
G02*
X102487500Y-77325000I-237500J0D01*
G01*
X101987500Y-77325000D01*
G75*
G02*
X101750000Y-77087500I0J237500D01*
G01*
X101750000Y-76612500D01*
G75*
G02*
X101987500Y-76375000I237500J0D01*
G01*
X102487500Y-76375000D01*
G75*
G02*
X102725000Y-76612500I0J-237500D01*
G01*
G37*
%TD.AperFunction*%
%TO.P,R14,1*%
%TO.N,Net-(R13-Pad2)*%
%TA.AperFunction,SMDPad,CuDef*%
G36*
G01*
X104550000Y-76612500D02*
X104550000Y-77087500D01*
G75*
G02*
X104312500Y-77325000I-237500J0D01*
G01*
X103812500Y-77325000D01*
G75*
G02*
X103575000Y-77087500I0J237500D01*
G01*
X103575000Y-76612500D01*
G75*
G02*
X103812500Y-76375000I237500J0D01*
G01*
X104312500Y-76375000D01*
G75*
G02*
X104550000Y-76612500I0J-237500D01*
G01*
G37*
%TD.AperFunction*%
%TD*%
%TO.P,R13,2*%
%TO.N,Net-(R13-Pad2)*%
%TA.AperFunction,SMDPad,CuDef*%
G36*
G01*
X103600000Y-75550001D02*
X103600000Y-74649999D01*
G75*
G02*
X103849999Y-74400000I249999J0D01*
G01*
X104550001Y-74400000D01*
G75*
G02*
X104800000Y-74649999I0J-249999D01*
G01*
X104800000Y-75550001D01*
G75*
G02*
X104550001Y-75800000I-249999J0D01*
G01*
X103849999Y-75800000D01*
G75*
G02*
X103600000Y-75550001I0J249999D01*
G01*
G37*
%TD.AperFunction*%
%TO.P,R13,1*%
%TO.N,+3V3*%
%TA.AperFunction,SMDPad,CuDef*%
G36*
G01*
X101600000Y-75550001D02*
X101600000Y-74649999D01*
G75*
G02*
X101849999Y-74400000I249999J0D01*
G01*
X102550001Y-74400000D01*
G75*
G02*
X102800000Y-74649999I0J-249999D01*
G01*
X102800000Y-75550001D01*
G75*
G02*
X102550001Y-75800000I-249999J0D01*
G01*
X101849999Y-75800000D01*
G75*
G02*
X101600000Y-75550001I0J249999D01*
G01*
G37*
%TD.AperFunction*%
%TD*%
%TO.P,R12,2*%
%TO.N,Net-(D2-Pad1)*%
%TA.AperFunction,SMDPad,CuDef*%
G36*
G01*
X108612500Y-127775000D02*
X109087500Y-127775000D01*
G75*
G02*
X109325000Y-128012500I0J-237500D01*
G01*
X109325000Y-128512500D01*
G75*
G02*
X109087500Y-128750000I-237500J0D01*
G01*
X108612500Y-128750000D01*
G75*
G02*
X108375000Y-128512500I0J237500D01*
G01*
X108375000Y-128012500D01*
G75*
G02*
X108612500Y-127775000I237500J0D01*
G01*
G37*
%TD.AperFunction*%
%TO.P,R12,1*%
%TO.N,Net-(R12-Pad1)*%
%TA.AperFunction,SMDPad,CuDef*%
G36*
G01*
X108612500Y-125950000D02*
X109087500Y-125950000D01*
G75*
G02*
X109325000Y-126187500I0J-237500D01*
G01*
X109325000Y-126687500D01*
G75*
G02*
X109087500Y-126925000I-237500J0D01*
G01*
X108612500Y-126925000D01*
G75*
G02*
X108375000Y-126687500I0J237500D01*
G01*
X108375000Y-126187500D01*
G75*
G02*
X108612500Y-125950000I237500J0D01*
G01*
G37*
%TD.AperFunction*%
%TD*%
%TO.P,R11,2*%
%TO.N,GND*%
%TA.AperFunction,SMDPad,CuDef*%
G36*
G01*
X102312500Y-127825000D02*
X102787500Y-127825000D01*
G75*
G02*
X103025000Y-128062500I0J-237500D01*
G01*
X103025000Y-128562500D01*
G75*
G02*
X102787500Y-128800000I-237500J0D01*
G01*
X102312500Y-128800000D01*
G75*
G02*
X102075000Y-128562500I0J237500D01*
G01*
X102075000Y-128062500D01*
G75*
G02*
X102312500Y-127825000I237500J0D01*
G01*
G37*
%TD.AperFunction*%
%TO.P,R11,1*%
%TO.N,Net-(R11-Pad1)*%
%TA.AperFunction,SMDPad,CuDef*%
G36*
G01*
X102312500Y-126000000D02*
X102787500Y-126000000D01*
G75*
G02*
X103025000Y-126237500I0J-237500D01*
G01*
X103025000Y-126737500D01*
G75*
G02*
X102787500Y-126975000I-237500J0D01*
G01*
X102312500Y-126975000D01*
G75*
G02*
X102075000Y-126737500I0J237500D01*
G01*
X102075000Y-126237500D01*
G75*
G02*
X102312500Y-126000000I237500J0D01*
G01*
G37*
%TD.AperFunction*%
%TD*%
%TO.P,R10,2*%
%TO.N,-BATT*%
%TA.AperFunction,SMDPad,CuDef*%
G36*
G01*
X109100000Y-115875000D02*
X109100000Y-114625000D01*
G75*
G02*
X109350000Y-114375000I250000J0D01*
G01*
X110150000Y-114375000D01*
G75*
G02*
X110400000Y-114625000I0J-250000D01*
G01*
X110400000Y-115875000D01*
G75*
G02*
X110150000Y-116125000I-250000J0D01*
G01*
X109350000Y-116125000D01*
G75*
G02*
X109100000Y-115875000I0J250000D01*
G01*
G37*
%TD.AperFunction*%
%TO.P,R10,1*%
%TO.N,Net-(FET2-Pad4)*%
%TA.AperFunction,SMDPad,CuDef*%
G36*
G01*
X106000000Y-115875000D02*
X106000000Y-114625000D01*
G75*
G02*
X106250000Y-114375000I250000J0D01*
G01*
X107050000Y-114375000D01*
G75*
G02*
X107300000Y-114625000I0J-250000D01*
G01*
X107300000Y-115875000D01*
G75*
G02*
X107050000Y-116125000I-250000J0D01*
G01*
X106250000Y-116125000D01*
G75*
G02*
X106000000Y-115875000I0J250000D01*
G01*
G37*
%TD.AperFunction*%
%TD*%
%TO.P,R9,2*%
%TO.N,Net-(FET1-Pad4)*%
%TA.AperFunction,SMDPad,CuDef*%
G36*
G01*
X102250000Y-114625000D02*
X102250000Y-115875000D01*
G75*
G02*
X102000000Y-116125000I-250000J0D01*
G01*
X101200000Y-116125000D01*
G75*
G02*
X100950000Y-115875000I0J250000D01*
G01*
X100950000Y-114625000D01*
G75*
G02*
X101200000Y-114375000I250000J0D01*
G01*
X102000000Y-114375000D01*
G75*
G02*
X102250000Y-114625000I0J-250000D01*
G01*
G37*
%TD.AperFunction*%
%TO.P,R9,1*%
%TO.N,GND*%
%TA.AperFunction,SMDPad,CuDef*%
G36*
G01*
X105350000Y-114625000D02*
X105350000Y-115875000D01*
G75*
G02*
X105100000Y-116125000I-250000J0D01*
G01*
X104300000Y-116125000D01*
G75*
G02*
X104050000Y-115875000I0J250000D01*
G01*
X104050000Y-114625000D01*
G75*
G02*
X104300000Y-114375000I250000J0D01*
G01*
X105100000Y-114375000D01*
G75*
G02*
X105350000Y-114625000I0J-250000D01*
G01*
G37*
%TD.AperFunction*%
%TD*%
%TO.P,R8,2*%
%TO.N,Net-(R8-Pad2)*%
%TA.AperFunction,SMDPad,CuDef*%
G36*
G01*
X105675000Y-110587500D02*
X105675000Y-110112500D01*
G75*
G02*
X105912500Y-109875000I237500J0D01*
G01*
X106412500Y-109875000D01*
G75*
G02*
X106650000Y-110112500I0J-237500D01*
G01*
X106650000Y-110587500D01*
G75*
G02*
X106412500Y-110825000I-237500J0D01*
G01*
X105912500Y-110825000D01*
G75*
G02*
X105675000Y-110587500I0J237500D01*
G01*
G37*
%TD.AperFunction*%
%TO.P,R8,1*%
%TO.N,GND*%
%TA.AperFunction,SMDPad,CuDef*%
G36*
G01*
X103850000Y-110587500D02*
X103850000Y-110112500D01*
G75*
G02*
X104087500Y-109875000I237500J0D01*
G01*
X104587500Y-109875000D01*
G75*
G02*
X104825000Y-110112500I0J-237500D01*
G01*
X104825000Y-110587500D01*
G75*
G02*
X104587500Y-110825000I-237500J0D01*
G01*
X104087500Y-110825000D01*
G75*
G02*
X103850000Y-110587500I0J237500D01*
G01*
G37*
%TD.AperFunction*%
%TD*%
%TO.P,R7,2*%
%TO.N,Net-(C12-Pad1)*%
%TA.AperFunction,SMDPad,CuDef*%
G36*
G01*
X108225000Y-111612500D02*
X108225000Y-112087500D01*
G75*
G02*
X107987500Y-112325000I-237500J0D01*
G01*
X107487500Y-112325000D01*
G75*
G02*
X107250000Y-112087500I0J237500D01*
G01*
X107250000Y-111612500D01*
G75*
G02*
X107487500Y-111375000I237500J0D01*
G01*
X107987500Y-111375000D01*
G75*
G02*
X108225000Y-111612500I0J-237500D01*
G01*
G37*
%TD.AperFunction*%
%TO.P,R7,1*%
%TO.N,BAT_SENSE*%
%TA.AperFunction,SMDPad,CuDef*%
G36*
G01*
X110050000Y-111612500D02*
X110050000Y-112087500D01*
G75*
G02*
X109812500Y-112325000I-237500J0D01*
G01*
X109312500Y-112325000D01*
G75*
G02*
X109075000Y-112087500I0J237500D01*
G01*
X109075000Y-111612500D01*
G75*
G02*
X109312500Y-111375000I237500J0D01*
G01*
X109812500Y-111375000D01*
G75*
G02*
X110050000Y-111612500I0J-237500D01*
G01*
G37*
%TD.AperFunction*%
%TD*%
%TO.P,R6,2*%
%TO.N,Net-(C11-Pad2)*%
%TA.AperFunction,SMDPad,CuDef*%
G36*
G01*
X127160000Y-75160000D02*
X126840000Y-75160000D01*
G75*
G02*
X126680000Y-75000000I0J160000D01*
G01*
X126680000Y-74605000D01*
G75*
G02*
X126840000Y-74445000I160000J0D01*
G01*
X127160000Y-74445000D01*
G75*
G02*
X127320000Y-74605000I0J-160000D01*
G01*
X127320000Y-75000000D01*
G75*
G02*
X127160000Y-75160000I-160000J0D01*
G01*
G37*
%TD.AperFunction*%
%TO.P,R6,1*%
%TO.N,GND*%
%TA.AperFunction,SMDPad,CuDef*%
G36*
G01*
X127160000Y-76355000D02*
X126840000Y-76355000D01*
G75*
G02*
X126680000Y-76195000I0J160000D01*
G01*
X126680000Y-75800000D01*
G75*
G02*
X126840000Y-75640000I160000J0D01*
G01*
X127160000Y-75640000D01*
G75*
G02*
X127320000Y-75800000I0J-160000D01*
G01*
X127320000Y-76195000D01*
G75*
G02*
X127160000Y-76355000I-160000J0D01*
G01*
G37*
%TD.AperFunction*%
%TD*%
%TO.P,R5,2*%
%TO.N,BTN_POWER_SELECT*%
%TA.AperFunction,SMDPad,CuDef*%
G36*
G01*
X128800000Y-69500000D02*
X129120000Y-69500000D01*
G75*
G02*
X129280000Y-69660000I0J-160000D01*
G01*
X129280000Y-70055000D01*
G75*
G02*
X129120000Y-70215000I-160000J0D01*
G01*
X128800000Y-70215000D01*
G75*
G02*
X128640000Y-70055000I0J160000D01*
G01*
X128640000Y-69660000D01*
G75*
G02*
X128800000Y-69500000I160000J0D01*
G01*
G37*
%TD.AperFunction*%
%TO.P,R5,1*%
%TO.N,+3V3*%
%TA.AperFunction,SMDPad,CuDef*%
G36*
G01*
X128800000Y-68305000D02*
X129120000Y-68305000D01*
G75*
G02*
X129280000Y-68465000I0J-160000D01*
G01*
X129280000Y-68860000D01*
G75*
G02*
X129120000Y-69020000I-160000J0D01*
G01*
X128800000Y-69020000D01*
G75*
G02*
X128640000Y-68860000I0J160000D01*
G01*
X128640000Y-68465000D01*
G75*
G02*
X128800000Y-68305000I160000J0D01*
G01*
G37*
%TD.AperFunction*%
%TD*%
%TO.P,R4,2*%
%TO.N,Net-(D1-Pad1)*%
%TA.AperFunction,SMDPad,CuDef*%
G36*
G01*
X126940000Y-67540000D02*
X127260000Y-67540000D01*
G75*
G02*
X127420000Y-67700000I0J-160000D01*
G01*
X127420000Y-68095000D01*
G75*
G02*
X127260000Y-68255000I-160000J0D01*
G01*
X126940000Y-68255000D01*
G75*
G02*
X126780000Y-68095000I0J160000D01*
G01*
X126780000Y-67700000D01*
G75*
G02*
X126940000Y-67540000I160000J0D01*
G01*
G37*
%TD.AperFunction*%
%TO.P,R4,1*%
%TO.N,GND*%
%TA.AperFunction,SMDPad,CuDef*%
G36*
G01*
X126940000Y-66345000D02*
X127260000Y-66345000D01*
G75*
G02*
X127420000Y-66505000I0J-160000D01*
G01*
X127420000Y-66900000D01*
G75*
G02*
X127260000Y-67060000I-160000J0D01*
G01*
X126940000Y-67060000D01*
G75*
G02*
X126780000Y-66900000I0J160000D01*
G01*
X126780000Y-66505000D01*
G75*
G02*
X126940000Y-66345000I160000J0D01*
G01*
G37*
%TD.AperFunction*%
%TD*%
%TO.P,R3,2*%
%TO.N,HSE_OUT*%
%TA.AperFunction,SMDPad,CuDef*%
G36*
G01*
X109240000Y-65160000D02*
X109240000Y-64840000D01*
G75*
G02*
X109400000Y-64680000I160000J0D01*
G01*
X109795000Y-64680000D01*
G75*
G02*
X109955000Y-64840000I0J-160000D01*
G01*
X109955000Y-65160000D01*
G75*
G02*
X109795000Y-65320000I-160000J0D01*
G01*
X109400000Y-65320000D01*
G75*
G02*
X109240000Y-65160000I0J160000D01*
G01*
G37*
%TD.AperFunction*%
%TO.P,R3,1*%
%TO.N,Net-(C10-Pad1)*%
%TA.AperFunction,SMDPad,CuDef*%
G36*
G01*
X108045000Y-65160000D02*
X108045000Y-64840000D01*
G75*
G02*
X108205000Y-64680000I160000J0D01*
G01*
X108600000Y-64680000D01*
G75*
G02*
X108760000Y-64840000I0J-160000D01*
G01*
X108760000Y-65160000D01*
G75*
G02*
X108600000Y-65320000I-160000J0D01*
G01*
X108205000Y-65320000D01*
G75*
G02*
X108045000Y-65160000I0J160000D01*
G01*
G37*
%TD.AperFunction*%
%TD*%
%TO.P,R2,2*%
%TO.N,+3V3*%
%TA.AperFunction,SMDPad,CuDef*%
G36*
G01*
X126760000Y-63760000D02*
X126440000Y-63760000D01*
G75*
G02*
X126280000Y-63600000I0J160000D01*
G01*
X126280000Y-63205000D01*
G75*
G02*
X126440000Y-63045000I160000J0D01*
G01*
X126760000Y-63045000D01*
G75*
G02*
X126920000Y-63205000I0J-160000D01*
G01*
X126920000Y-63600000D01*
G75*
G02*
X126760000Y-63760000I-160000J0D01*
G01*
G37*
%TD.AperFunction*%
%TO.P,R2,1*%
%TO.N,USB_D+*%
%TA.AperFunction,SMDPad,CuDef*%
G36*
G01*
X126760000Y-64955000D02*
X126440000Y-64955000D01*
G75*
G02*
X126280000Y-64795000I0J160000D01*
G01*
X126280000Y-64400000D01*
G75*
G02*
X126440000Y-64240000I160000J0D01*
G01*
X126760000Y-64240000D01*
G75*
G02*
X126920000Y-64400000I0J-160000D01*
G01*
X126920000Y-64795000D01*
G75*
G02*
X126760000Y-64955000I-160000J0D01*
G01*
G37*
%TD.AperFunction*%
%TD*%
%TO.P,R1,2*%
%TO.N,BOOT0*%
%TA.AperFunction,SMDPad,CuDef*%
G36*
G01*
X116860000Y-59540000D02*
X116860000Y-59860000D01*
G75*
G02*
X116700000Y-60020000I-160000J0D01*
G01*
X116305000Y-60020000D01*
G75*
G02*
X116145000Y-59860000I0J160000D01*
G01*
X116145000Y-59540000D01*
G75*
G02*
X116305000Y-59380000I160000J0D01*
G01*
X116700000Y-59380000D01*
G75*
G02*
X116860000Y-59540000I0J-160000D01*
G01*
G37*
%TD.AperFunction*%
%TO.P,R1,1*%
%TO.N,Net-(R1-Pad1)*%
%TA.AperFunction,SMDPad,CuDef*%
G36*
G01*
X118055000Y-59540000D02*
X118055000Y-59860000D01*
G75*
G02*
X117895000Y-60020000I-160000J0D01*
G01*
X117500000Y-60020000D01*
G75*
G02*
X117340000Y-59860000I0J160000D01*
G01*
X117340000Y-59540000D01*
G75*
G02*
X117500000Y-59380000I160000J0D01*
G01*
X117895000Y-59380000D01*
G75*
G02*
X118055000Y-59540000I0J-160000D01*
G01*
G37*
%TD.AperFunction*%
%TD*%
D26*
%TO.P,L2,2*%
%TO.N,Net-(L2-Pad2)*%
X107025000Y-89300000D03*
%TO.P,L2,1*%
%TO.N,Net-(L2-Pad1)*%
X102375000Y-89300000D03*
%TD*%
%TO.P,L1,2*%
%TO.N,+3.3VA*%
%TA.AperFunction,SMDPad,CuDef*%
G36*
G01*
X108262500Y-68750000D02*
X108737500Y-68750000D01*
G75*
G02*
X108975000Y-68987500I0J-237500D01*
G01*
X108975000Y-69562500D01*
G75*
G02*
X108737500Y-69800000I-237500J0D01*
G01*
X108262500Y-69800000D01*
G75*
G02*
X108025000Y-69562500I0J237500D01*
G01*
X108025000Y-68987500D01*
G75*
G02*
X108262500Y-68750000I237500J0D01*
G01*
G37*
%TD.AperFunction*%
%TO.P,L1,1*%
%TO.N,+3V3*%
%TA.AperFunction,SMDPad,CuDef*%
G36*
G01*
X108262500Y-67000000D02*
X108737500Y-67000000D01*
G75*
G02*
X108975000Y-67237500I0J-237500D01*
G01*
X108975000Y-67812500D01*
G75*
G02*
X108737500Y-68050000I-237500J0D01*
G01*
X108262500Y-68050000D01*
G75*
G02*
X108025000Y-67812500I0J237500D01*
G01*
X108025000Y-67237500D01*
G75*
G02*
X108262500Y-67000000I237500J0D01*
G01*
G37*
%TD.AperFunction*%
%TD*%
D27*
%TO.P,J7,1*%
%TO.N,-BATT*%
X122000000Y-138400000D03*
%TD*%
%TO.P,J6,1*%
%TO.N,BAT_SENSE*%
X120200000Y-84000000D03*
%TD*%
D28*
%TO.P,J5,2*%
%TO.N,Motor+*%
X103910000Y-106600000D03*
D29*
%TO.P,J5,1*%
%TO.N,Motor-*%
X106450000Y-106600000D03*
%TD*%
D28*
%TO.P,J4,4*%
%TO.N,+3V3*%
X139570000Y-41650000D03*
%TO.P,J4,3*%
%TO.N,GND*%
X137030000Y-41650000D03*
%TO.P,J4,2*%
%TO.N,DISPLAY_SCL*%
X134490000Y-41650000D03*
D29*
%TO.P,J4,1*%
%TO.N,DISPLAY_SDA*%
X131950000Y-41650000D03*
%TD*%
D28*
%TO.P,J3,8*%
%TO.N,Net-(J3-Pad8)*%
X139540000Y-53620000D03*
%TO.P,J3,7*%
%TO.N,NRF_MISO*%
X137000000Y-53620000D03*
%TO.P,J3,6*%
%TO.N,NRF_MOSI*%
X139540000Y-51080000D03*
%TO.P,J3,5*%
%TO.N,NRF_SCK*%
X137000000Y-51080000D03*
%TO.P,J3,4*%
%TO.N,NRF_CSN*%
X139540000Y-48540000D03*
%TO.P,J3,3*%
%TO.N,NRF_CE*%
X137000000Y-48540000D03*
%TO.P,J3,2*%
%TO.N,+3V3*%
X139540000Y-46000000D03*
D29*
%TO.P,J3,1*%
%TO.N,GND*%
X137000000Y-46000000D03*
%TD*%
D30*
%TO.P,J2,8*%
%TO.N,SWO*%
X103430000Y-60640000D03*
%TO.P,J2,6*%
%TO.N,SWCLK*%
X103430000Y-59370000D03*
%TO.P,J2,12*%
%TO.N,NRST*%
X103430000Y-63180000D03*
%TO.P,J2,4*%
%TO.N,SWDIO*%
X103430000Y-58100000D03*
%TO.P,J2,10*%
%TO.N,Net-(J2-Pad10)*%
X103430000Y-61910000D03*
%TO.P,J2,14*%
%TO.N,Net-(J2-Pad14)*%
X103430000Y-64450000D03*
%TO.P,J2,2*%
%TO.N,Net-(J2-Pad2)*%
X103430000Y-56830000D03*
%TO.P,J2,13*%
%TO.N,Net-(J2-Pad13)*%
X99530000Y-64450000D03*
%TO.P,J2,11*%
%TO.N,GND*%
X99530000Y-63180000D03*
%TO.P,J2,9*%
%TO.N,Net-(J2-Pad9)*%
X99530000Y-61910000D03*
%TO.P,J2,1*%
%TO.N,Net-(J2-Pad1)*%
X99530000Y-56830000D03*
%TO.P,J2,3*%
%TO.N,+3V3*%
X99530000Y-58100000D03*
%TO.P,J2,5*%
%TO.N,GND*%
X99530000Y-59370000D03*
%TO.P,J2,7*%
X99530000Y-60640000D03*
%TD*%
%TO.P,D3,2*%
%TO.N,+3V3*%
%TA.AperFunction,SMDPad,CuDef*%
G36*
G01*
X107812500Y-76350000D02*
X108287500Y-76350000D01*
G75*
G02*
X108525000Y-76587500I0J-237500D01*
G01*
X108525000Y-77162500D01*
G75*
G02*
X108287500Y-77400000I-237500J0D01*
G01*
X107812500Y-77400000D01*
G75*
G02*
X107575000Y-77162500I0J237500D01*
G01*
X107575000Y-76587500D01*
G75*
G02*
X107812500Y-76350000I237500J0D01*
G01*
G37*
%TD.AperFunction*%
%TO.P,D3,1*%
%TO.N,Net-(D3-Pad1)*%
%TA.AperFunction,SMDPad,CuDef*%
G36*
G01*
X107812500Y-74600000D02*
X108287500Y-74600000D01*
G75*
G02*
X108525000Y-74837500I0J-237500D01*
G01*
X108525000Y-75412500D01*
G75*
G02*
X108287500Y-75650000I-237500J0D01*
G01*
X107812500Y-75650000D01*
G75*
G02*
X107575000Y-75412500I0J237500D01*
G01*
X107575000Y-74837500D01*
G75*
G02*
X107812500Y-74600000I237500J0D01*
G01*
G37*
%TD.AperFunction*%
%TD*%
D31*
%TO.P,D2,2*%
%TO.N,+5V*%
X105300000Y-138190000D03*
D32*
%TO.P,D2,1*%
%TO.N,Net-(D2-Pad1)*%
X105300000Y-135650000D03*
%TD*%
%TO.P,D1,2*%
%TO.N,LED_STATUS*%
%TA.AperFunction,SMDPad,CuDef*%
G36*
G01*
X126037500Y-66550000D02*
X125562500Y-66550000D01*
G75*
G02*
X125325000Y-66312500I0J237500D01*
G01*
X125325000Y-65737500D01*
G75*
G02*
X125562500Y-65500000I237500J0D01*
G01*
X126037500Y-65500000D01*
G75*
G02*
X126275000Y-65737500I0J-237500D01*
G01*
X126275000Y-66312500D01*
G75*
G02*
X126037500Y-66550000I-237500J0D01*
G01*
G37*
%TD.AperFunction*%
%TO.P,D1,1*%
%TO.N,Net-(D1-Pad1)*%
%TA.AperFunction,SMDPad,CuDef*%
G36*
G01*
X126037500Y-68300000D02*
X125562500Y-68300000D01*
G75*
G02*
X125325000Y-68062500I0J237500D01*
G01*
X125325000Y-67487500D01*
G75*
G02*
X125562500Y-67250000I237500J0D01*
G01*
X126037500Y-67250000D01*
G75*
G02*
X126275000Y-67487500I0J-237500D01*
G01*
X126275000Y-68062500D01*
G75*
G02*
X126037500Y-68300000I-237500J0D01*
G01*
G37*
%TD.AperFunction*%
%TD*%
%TO.P,C21,2*%
%TO.N,GND*%
%TA.AperFunction,SMDPad,CuDef*%
G36*
G01*
X109300000Y-65945000D02*
X109300000Y-66255000D01*
G75*
G02*
X109145000Y-66410000I-155000J0D01*
G01*
X108720000Y-66410000D01*
G75*
G02*
X108565000Y-66255000I0J155000D01*
G01*
X108565000Y-65945000D01*
G75*
G02*
X108720000Y-65790000I155000J0D01*
G01*
X109145000Y-65790000D01*
G75*
G02*
X109300000Y-65945000I0J-155000D01*
G01*
G37*
%TD.AperFunction*%
%TO.P,C21,1*%
%TO.N,NRST*%
%TA.AperFunction,SMDPad,CuDef*%
G36*
G01*
X110435000Y-65945000D02*
X110435000Y-66255000D01*
G75*
G02*
X110280000Y-66410000I-155000J0D01*
G01*
X109855000Y-66410000D01*
G75*
G02*
X109700000Y-66255000I0J155000D01*
G01*
X109700000Y-65945000D01*
G75*
G02*
X109855000Y-65790000I155000J0D01*
G01*
X110280000Y-65790000D01*
G75*
G02*
X110435000Y-65945000I0J-155000D01*
G01*
G37*
%TD.AperFunction*%
%TD*%
%TO.P,C20,2*%
%TO.N,GND*%
%TA.AperFunction,SMDPad,CuDef*%
G36*
G01*
X120331819Y-52751022D02*
X120551022Y-52531819D01*
G75*
G02*
X120770226Y-52531819I109602J-109602D01*
G01*
X121070747Y-52832340D01*
G75*
G02*
X121070747Y-53051544I-109602J-109602D01*
G01*
X120851544Y-53270747D01*
G75*
G02*
X120632340Y-53270747I-109602J109602D01*
G01*
X120331819Y-52970226D01*
G75*
G02*
X120331819Y-52751022I109602J109602D01*
G01*
G37*
%TD.AperFunction*%
%TO.P,C20,1*%
%TO.N,Net-(C20-Pad1)*%
%TA.AperFunction,SMDPad,CuDef*%
G36*
G01*
X119529253Y-51948456D02*
X119748456Y-51729253D01*
G75*
G02*
X119967660Y-51729253I109602J-109602D01*
G01*
X120268181Y-52029774D01*
G75*
G02*
X120268181Y-52248978I-109602J-109602D01*
G01*
X120048978Y-52468181D01*
G75*
G02*
X119829774Y-52468181I-109602J109602D01*
G01*
X119529253Y-52167660D01*
G75*
G02*
X119529253Y-51948456I109602J109602D01*
G01*
G37*
%TD.AperFunction*%
%TD*%
%TO.P,C19,2*%
%TO.N,Net-(C19-Pad2)*%
%TA.AperFunction,SMDPad,CuDef*%
G36*
G01*
X107705000Y-99100000D02*
X107395000Y-99100000D01*
G75*
G02*
X107240000Y-98945000I0J155000D01*
G01*
X107240000Y-98520000D01*
G75*
G02*
X107395000Y-98365000I155000J0D01*
G01*
X107705000Y-98365000D01*
G75*
G02*
X107860000Y-98520000I0J-155000D01*
G01*
X107860000Y-98945000D01*
G75*
G02*
X107705000Y-99100000I-155000J0D01*
G01*
G37*
%TD.AperFunction*%
%TO.P,C19,1*%
%TO.N,GND*%
%TA.AperFunction,SMDPad,CuDef*%
G36*
G01*
X107705000Y-100235000D02*
X107395000Y-100235000D01*
G75*
G02*
X107240000Y-100080000I0J155000D01*
G01*
X107240000Y-99655000D01*
G75*
G02*
X107395000Y-99500000I155000J0D01*
G01*
X107705000Y-99500000D01*
G75*
G02*
X107860000Y-99655000I0J-155000D01*
G01*
X107860000Y-100080000D01*
G75*
G02*
X107705000Y-100235000I-155000J0D01*
G01*
G37*
%TD.AperFunction*%
%TD*%
%TO.P,C18,2*%
%TO.N,+3V3*%
%TA.AperFunction,SMDPad,CuDef*%
G36*
G01*
X107395000Y-103600000D02*
X107705000Y-103600000D01*
G75*
G02*
X107860000Y-103755000I0J-155000D01*
G01*
X107860000Y-104180000D01*
G75*
G02*
X107705000Y-104335000I-155000J0D01*
G01*
X107395000Y-104335000D01*
G75*
G02*
X107240000Y-104180000I0J155000D01*
G01*
X107240000Y-103755000D01*
G75*
G02*
X107395000Y-103600000I155000J0D01*
G01*
G37*
%TD.AperFunction*%
%TO.P,C18,1*%
%TO.N,GND*%
%TA.AperFunction,SMDPad,CuDef*%
G36*
G01*
X107395000Y-102465000D02*
X107705000Y-102465000D01*
G75*
G02*
X107860000Y-102620000I0J-155000D01*
G01*
X107860000Y-103045000D01*
G75*
G02*
X107705000Y-103200000I-155000J0D01*
G01*
X107395000Y-103200000D01*
G75*
G02*
X107240000Y-103045000I0J155000D01*
G01*
X107240000Y-102620000D01*
G75*
G02*
X107395000Y-102465000I155000J0D01*
G01*
G37*
%TD.AperFunction*%
%TD*%
%TO.P,C17,2*%
%TO.N,Net-(C17-Pad2)*%
%TA.AperFunction,SMDPad,CuDef*%
G36*
G01*
X102400000Y-79595000D02*
X102400000Y-79905000D01*
G75*
G02*
X102245000Y-80060000I-155000J0D01*
G01*
X101820000Y-80060000D01*
G75*
G02*
X101665000Y-79905000I0J155000D01*
G01*
X101665000Y-79595000D01*
G75*
G02*
X101820000Y-79440000I155000J0D01*
G01*
X102245000Y-79440000D01*
G75*
G02*
X102400000Y-79595000I0J-155000D01*
G01*
G37*
%TD.AperFunction*%
%TO.P,C17,1*%
%TO.N,Net-(C17-Pad1)*%
%TA.AperFunction,SMDPad,CuDef*%
G36*
G01*
X103535000Y-79595000D02*
X103535000Y-79905000D01*
G75*
G02*
X103380000Y-80060000I-155000J0D01*
G01*
X102955000Y-80060000D01*
G75*
G02*
X102800000Y-79905000I0J155000D01*
G01*
X102800000Y-79595000D01*
G75*
G02*
X102955000Y-79440000I155000J0D01*
G01*
X103380000Y-79440000D01*
G75*
G02*
X103535000Y-79595000I0J-155000D01*
G01*
G37*
%TD.AperFunction*%
%TD*%
%TO.P,C16,2*%
%TO.N,GND*%
%TA.AperFunction,SMDPad,CuDef*%
G36*
G01*
X107649999Y-83250000D02*
X109850001Y-83250000D01*
G75*
G02*
X110100000Y-83499999I0J-249999D01*
G01*
X110100000Y-84325001D01*
G75*
G02*
X109850001Y-84575000I-249999J0D01*
G01*
X107649999Y-84575000D01*
G75*
G02*
X107400000Y-84325001I0J249999D01*
G01*
X107400000Y-83499999D01*
G75*
G02*
X107649999Y-83250000I249999J0D01*
G01*
G37*
%TD.AperFunction*%
%TO.P,C16,1*%
%TO.N,+3V3*%
%TA.AperFunction,SMDPad,CuDef*%
G36*
G01*
X107649999Y-80125000D02*
X109850001Y-80125000D01*
G75*
G02*
X110100000Y-80374999I0J-249999D01*
G01*
X110100000Y-81200001D01*
G75*
G02*
X109850001Y-81450000I-249999J0D01*
G01*
X107649999Y-81450000D01*
G75*
G02*
X107400000Y-81200001I0J249999D01*
G01*
X107400000Y-80374999D01*
G75*
G02*
X107649999Y-80125000I249999J0D01*
G01*
G37*
%TD.AperFunction*%
%TD*%
%TO.P,C15,2*%
%TO.N,GND*%
%TA.AperFunction,SMDPad,CuDef*%
G36*
G01*
X106675000Y-76850000D02*
X105725000Y-76850000D01*
G75*
G02*
X105475000Y-76600000I0J250000D01*
G01*
X105475000Y-75925000D01*
G75*
G02*
X105725000Y-75675000I250000J0D01*
G01*
X106675000Y-75675000D01*
G75*
G02*
X106925000Y-75925000I0J-250000D01*
G01*
X106925000Y-76600000D01*
G75*
G02*
X106675000Y-76850000I-250000J0D01*
G01*
G37*
%TD.AperFunction*%
%TO.P,C15,1*%
%TO.N,BAT_SENSE*%
%TA.AperFunction,SMDPad,CuDef*%
G36*
G01*
X106675000Y-78925000D02*
X105725000Y-78925000D01*
G75*
G02*
X105475000Y-78675000I0J250000D01*
G01*
X105475000Y-78000000D01*
G75*
G02*
X105725000Y-77750000I250000J0D01*
G01*
X106675000Y-77750000D01*
G75*
G02*
X106925000Y-78000000I0J-250000D01*
G01*
X106925000Y-78675000D01*
G75*
G02*
X106675000Y-78925000I-250000J0D01*
G01*
G37*
%TD.AperFunction*%
%TD*%
%TO.P,C14,2*%
%TO.N,BAT_SENSE*%
%TA.AperFunction,SMDPad,CuDef*%
G36*
G01*
X109575000Y-123250000D02*
X108625000Y-123250000D01*
G75*
G02*
X108375000Y-123000000I0J250000D01*
G01*
X108375000Y-122325000D01*
G75*
G02*
X108625000Y-122075000I250000J0D01*
G01*
X109575000Y-122075000D01*
G75*
G02*
X109825000Y-122325000I0J-250000D01*
G01*
X109825000Y-123000000D01*
G75*
G02*
X109575000Y-123250000I-250000J0D01*
G01*
G37*
%TD.AperFunction*%
%TO.P,C14,1*%
%TO.N,GND*%
%TA.AperFunction,SMDPad,CuDef*%
G36*
G01*
X109575000Y-125325000D02*
X108625000Y-125325000D01*
G75*
G02*
X108375000Y-125075000I0J250000D01*
G01*
X108375000Y-124400000D01*
G75*
G02*
X108625000Y-124150000I250000J0D01*
G01*
X109575000Y-124150000D01*
G75*
G02*
X109825000Y-124400000I0J-250000D01*
G01*
X109825000Y-125075000D01*
G75*
G02*
X109575000Y-125325000I-250000J0D01*
G01*
G37*
%TD.AperFunction*%
%TD*%
%TO.P,C13,2*%
%TO.N,GND*%
%TA.AperFunction,SMDPad,CuDef*%
G36*
G01*
X102875000Y-122800000D02*
X101925000Y-122800000D01*
G75*
G02*
X101675000Y-122550000I0J250000D01*
G01*
X101675000Y-121875000D01*
G75*
G02*
X101925000Y-121625000I250000J0D01*
G01*
X102875000Y-121625000D01*
G75*
G02*
X103125000Y-121875000I0J-250000D01*
G01*
X103125000Y-122550000D01*
G75*
G02*
X102875000Y-122800000I-250000J0D01*
G01*
G37*
%TD.AperFunction*%
%TO.P,C13,1*%
%TO.N,+5V*%
%TA.AperFunction,SMDPad,CuDef*%
G36*
G01*
X102875000Y-124875000D02*
X101925000Y-124875000D01*
G75*
G02*
X101675000Y-124625000I0J250000D01*
G01*
X101675000Y-123950000D01*
G75*
G02*
X101925000Y-123700000I250000J0D01*
G01*
X102875000Y-123700000D01*
G75*
G02*
X103125000Y-123950000I0J-250000D01*
G01*
X103125000Y-124625000D01*
G75*
G02*
X102875000Y-124875000I-250000J0D01*
G01*
G37*
%TD.AperFunction*%
%TD*%
%TO.P,C12,2*%
%TO.N,-BATT*%
%TA.AperFunction,SMDPad,CuDef*%
G36*
G01*
X107900000Y-112995000D02*
X107900000Y-113305000D01*
G75*
G02*
X107745000Y-113460000I-155000J0D01*
G01*
X107320000Y-113460000D01*
G75*
G02*
X107165000Y-113305000I0J155000D01*
G01*
X107165000Y-112995000D01*
G75*
G02*
X107320000Y-112840000I155000J0D01*
G01*
X107745000Y-112840000D01*
G75*
G02*
X107900000Y-112995000I0J-155000D01*
G01*
G37*
%TD.AperFunction*%
%TO.P,C12,1*%
%TO.N,Net-(C12-Pad1)*%
%TA.AperFunction,SMDPad,CuDef*%
G36*
G01*
X109035000Y-112995000D02*
X109035000Y-113305000D01*
G75*
G02*
X108880000Y-113460000I-155000J0D01*
G01*
X108455000Y-113460000D01*
G75*
G02*
X108300000Y-113305000I0J155000D01*
G01*
X108300000Y-112995000D01*
G75*
G02*
X108455000Y-112840000I155000J0D01*
G01*
X108880000Y-112840000D01*
G75*
G02*
X109035000Y-112995000I0J-155000D01*
G01*
G37*
%TD.AperFunction*%
%TD*%
%TO.P,C11,2*%
%TO.N,Net-(C11-Pad2)*%
%TA.AperFunction,SMDPad,CuDef*%
G36*
G01*
X126845000Y-72400000D02*
X127155000Y-72400000D01*
G75*
G02*
X127310000Y-72555000I0J-155000D01*
G01*
X127310000Y-72980000D01*
G75*
G02*
X127155000Y-73135000I-155000J0D01*
G01*
X126845000Y-73135000D01*
G75*
G02*
X126690000Y-72980000I0J155000D01*
G01*
X126690000Y-72555000D01*
G75*
G02*
X126845000Y-72400000I155000J0D01*
G01*
G37*
%TD.AperFunction*%
%TO.P,C11,1*%
%TO.N,BTN_POWER_SELECT*%
%TA.AperFunction,SMDPad,CuDef*%
G36*
G01*
X126845000Y-71265000D02*
X127155000Y-71265000D01*
G75*
G02*
X127310000Y-71420000I0J-155000D01*
G01*
X127310000Y-71845000D01*
G75*
G02*
X127155000Y-72000000I-155000J0D01*
G01*
X126845000Y-72000000D01*
G75*
G02*
X126690000Y-71845000I0J155000D01*
G01*
X126690000Y-71420000D01*
G75*
G02*
X126845000Y-71265000I155000J0D01*
G01*
G37*
%TD.AperFunction*%
%TD*%
%TO.P,C10,2*%
%TO.N,GND*%
%TA.AperFunction,SMDPad,CuDef*%
G36*
G01*
X107355000Y-63100000D02*
X107045000Y-63100000D01*
G75*
G02*
X106890000Y-62945000I0J155000D01*
G01*
X106890000Y-62520000D01*
G75*
G02*
X107045000Y-62365000I155000J0D01*
G01*
X107355000Y-62365000D01*
G75*
G02*
X107510000Y-62520000I0J-155000D01*
G01*
X107510000Y-62945000D01*
G75*
G02*
X107355000Y-63100000I-155000J0D01*
G01*
G37*
%TD.AperFunction*%
%TO.P,C10,1*%
%TO.N,Net-(C10-Pad1)*%
%TA.AperFunction,SMDPad,CuDef*%
G36*
G01*
X107355000Y-64235000D02*
X107045000Y-64235000D01*
G75*
G02*
X106890000Y-64080000I0J155000D01*
G01*
X106890000Y-63655000D01*
G75*
G02*
X107045000Y-63500000I155000J0D01*
G01*
X107355000Y-63500000D01*
G75*
G02*
X107510000Y-63655000I0J-155000D01*
G01*
X107510000Y-64080000D01*
G75*
G02*
X107355000Y-64235000I-155000J0D01*
G01*
G37*
%TD.AperFunction*%
%TD*%
%TO.P,C9,2*%
%TO.N,GND*%
%TA.AperFunction,SMDPad,CuDef*%
G36*
G01*
X108800000Y-61245000D02*
X108800000Y-61555000D01*
G75*
G02*
X108645000Y-61710000I-155000J0D01*
G01*
X108220000Y-61710000D01*
G75*
G02*
X108065000Y-61555000I0J155000D01*
G01*
X108065000Y-61245000D01*
G75*
G02*
X108220000Y-61090000I155000J0D01*
G01*
X108645000Y-61090000D01*
G75*
G02*
X108800000Y-61245000I0J-155000D01*
G01*
G37*
%TD.AperFunction*%
%TO.P,C9,1*%
%TO.N,HSE_IN*%
%TA.AperFunction,SMDPad,CuDef*%
G36*
G01*
X109935000Y-61245000D02*
X109935000Y-61555000D01*
G75*
G02*
X109780000Y-61710000I-155000J0D01*
G01*
X109355000Y-61710000D01*
G75*
G02*
X109200000Y-61555000I0J155000D01*
G01*
X109200000Y-61245000D01*
G75*
G02*
X109355000Y-61090000I155000J0D01*
G01*
X109780000Y-61090000D01*
G75*
G02*
X109935000Y-61245000I0J-155000D01*
G01*
G37*
%TD.AperFunction*%
%TD*%
%TO.P,C8,2*%
%TO.N,GND*%
%TA.AperFunction,SMDPad,CuDef*%
G36*
G01*
X111055000Y-68500000D02*
X110745000Y-68500000D01*
G75*
G02*
X110590000Y-68345000I0J155000D01*
G01*
X110590000Y-67920000D01*
G75*
G02*
X110745000Y-67765000I155000J0D01*
G01*
X111055000Y-67765000D01*
G75*
G02*
X111210000Y-67920000I0J-155000D01*
G01*
X111210000Y-68345000D01*
G75*
G02*
X111055000Y-68500000I-155000J0D01*
G01*
G37*
%TD.AperFunction*%
%TO.P,C8,1*%
%TO.N,+3.3VA*%
%TA.AperFunction,SMDPad,CuDef*%
G36*
G01*
X111055000Y-69635000D02*
X110745000Y-69635000D01*
G75*
G02*
X110590000Y-69480000I0J155000D01*
G01*
X110590000Y-69055000D01*
G75*
G02*
X110745000Y-68900000I155000J0D01*
G01*
X111055000Y-68900000D01*
G75*
G02*
X111210000Y-69055000I0J-155000D01*
G01*
X111210000Y-69480000D01*
G75*
G02*
X111055000Y-69635000I-155000J0D01*
G01*
G37*
%TD.AperFunction*%
%TD*%
%TO.P,C7,2*%
%TO.N,GND*%
%TA.AperFunction,SMDPad,CuDef*%
G36*
G01*
X109955000Y-68500000D02*
X109645000Y-68500000D01*
G75*
G02*
X109490000Y-68345000I0J155000D01*
G01*
X109490000Y-67920000D01*
G75*
G02*
X109645000Y-67765000I155000J0D01*
G01*
X109955000Y-67765000D01*
G75*
G02*
X110110000Y-67920000I0J-155000D01*
G01*
X110110000Y-68345000D01*
G75*
G02*
X109955000Y-68500000I-155000J0D01*
G01*
G37*
%TD.AperFunction*%
%TO.P,C7,1*%
%TO.N,+3.3VA*%
%TA.AperFunction,SMDPad,CuDef*%
G36*
G01*
X109955000Y-69635000D02*
X109645000Y-69635000D01*
G75*
G02*
X109490000Y-69480000I0J155000D01*
G01*
X109490000Y-69055000D01*
G75*
G02*
X109645000Y-68900000I155000J0D01*
G01*
X109955000Y-68900000D01*
G75*
G02*
X110110000Y-69055000I0J-155000D01*
G01*
X110110000Y-69480000D01*
G75*
G02*
X109955000Y-69635000I-155000J0D01*
G01*
G37*
%TD.AperFunction*%
%TD*%
%TO.P,C6,2*%
%TO.N,GND*%
%TA.AperFunction,SMDPad,CuDef*%
G36*
G01*
X111500000Y-61795000D02*
X111500000Y-62105000D01*
G75*
G02*
X111345000Y-62260000I-155000J0D01*
G01*
X110920000Y-62260000D01*
G75*
G02*
X110765000Y-62105000I0J155000D01*
G01*
X110765000Y-61795000D01*
G75*
G02*
X110920000Y-61640000I155000J0D01*
G01*
X111345000Y-61640000D01*
G75*
G02*
X111500000Y-61795000I0J-155000D01*
G01*
G37*
%TD.AperFunction*%
%TO.P,C6,1*%
%TO.N,+3V3*%
%TA.AperFunction,SMDPad,CuDef*%
G36*
G01*
X112635000Y-61795000D02*
X112635000Y-62105000D01*
G75*
G02*
X112480000Y-62260000I-155000J0D01*
G01*
X112055000Y-62260000D01*
G75*
G02*
X111900000Y-62105000I0J155000D01*
G01*
X111900000Y-61795000D01*
G75*
G02*
X112055000Y-61640000I155000J0D01*
G01*
X112480000Y-61640000D01*
G75*
G02*
X112635000Y-61795000I0J-155000D01*
G01*
G37*
%TD.AperFunction*%
%TD*%
%TO.P,C5,2*%
%TO.N,GND*%
%TA.AperFunction,SMDPad,CuDef*%
G36*
G01*
X125345000Y-63600000D02*
X125655000Y-63600000D01*
G75*
G02*
X125810000Y-63755000I0J-155000D01*
G01*
X125810000Y-64180000D01*
G75*
G02*
X125655000Y-64335000I-155000J0D01*
G01*
X125345000Y-64335000D01*
G75*
G02*
X125190000Y-64180000I0J155000D01*
G01*
X125190000Y-63755000D01*
G75*
G02*
X125345000Y-63600000I155000J0D01*
G01*
G37*
%TD.AperFunction*%
%TO.P,C5,1*%
%TO.N,+3V3*%
%TA.AperFunction,SMDPad,CuDef*%
G36*
G01*
X125345000Y-62465000D02*
X125655000Y-62465000D01*
G75*
G02*
X125810000Y-62620000I0J-155000D01*
G01*
X125810000Y-63045000D01*
G75*
G02*
X125655000Y-63200000I-155000J0D01*
G01*
X125345000Y-63200000D01*
G75*
G02*
X125190000Y-63045000I0J155000D01*
G01*
X125190000Y-62620000D01*
G75*
G02*
X125345000Y-62465000I155000J0D01*
G01*
G37*
%TD.AperFunction*%
%TD*%
%TO.P,C4,2*%
%TO.N,GND*%
%TA.AperFunction,SMDPad,CuDef*%
G36*
G01*
X114900000Y-74145000D02*
X114900000Y-74455000D01*
G75*
G02*
X114745000Y-74610000I-155000J0D01*
G01*
X114320000Y-74610000D01*
G75*
G02*
X114165000Y-74455000I0J155000D01*
G01*
X114165000Y-74145000D01*
G75*
G02*
X114320000Y-73990000I155000J0D01*
G01*
X114745000Y-73990000D01*
G75*
G02*
X114900000Y-74145000I0J-155000D01*
G01*
G37*
%TD.AperFunction*%
%TO.P,C4,1*%
%TO.N,+3V3*%
%TA.AperFunction,SMDPad,CuDef*%
G36*
G01*
X116035000Y-74145000D02*
X116035000Y-74455000D01*
G75*
G02*
X115880000Y-74610000I-155000J0D01*
G01*
X115455000Y-74610000D01*
G75*
G02*
X115300000Y-74455000I0J155000D01*
G01*
X115300000Y-74145000D01*
G75*
G02*
X115455000Y-73990000I155000J0D01*
G01*
X115880000Y-73990000D01*
G75*
G02*
X116035000Y-74145000I0J-155000D01*
G01*
G37*
%TD.AperFunction*%
%TD*%
%TO.P,C3,2*%
%TO.N,GND*%
%TA.AperFunction,SMDPad,CuDef*%
G36*
G01*
X115000000Y-59855000D02*
X115000000Y-59545000D01*
G75*
G02*
X115155000Y-59390000I155000J0D01*
G01*
X115580000Y-59390000D01*
G75*
G02*
X115735000Y-59545000I0J-155000D01*
G01*
X115735000Y-59855000D01*
G75*
G02*
X115580000Y-60010000I-155000J0D01*
G01*
X115155000Y-60010000D01*
G75*
G02*
X115000000Y-59855000I0J155000D01*
G01*
G37*
%TD.AperFunction*%
%TO.P,C3,1*%
%TO.N,+3V3*%
%TA.AperFunction,SMDPad,CuDef*%
G36*
G01*
X113865000Y-59855000D02*
X113865000Y-59545000D01*
G75*
G02*
X114020000Y-59390000I155000J0D01*
G01*
X114445000Y-59390000D01*
G75*
G02*
X114600000Y-59545000I0J-155000D01*
G01*
X114600000Y-59855000D01*
G75*
G02*
X114445000Y-60010000I-155000J0D01*
G01*
X114020000Y-60010000D01*
G75*
G02*
X113865000Y-59855000I0J155000D01*
G01*
G37*
%TD.AperFunction*%
%TD*%
%TO.P,C2,2*%
%TO.N,GND*%
%TA.AperFunction,SMDPad,CuDef*%
G36*
G01*
X121200000Y-74145000D02*
X121200000Y-74455000D01*
G75*
G02*
X121045000Y-74610000I-155000J0D01*
G01*
X120620000Y-74610000D01*
G75*
G02*
X120465000Y-74455000I0J155000D01*
G01*
X120465000Y-74145000D01*
G75*
G02*
X120620000Y-73990000I155000J0D01*
G01*
X121045000Y-73990000D01*
G75*
G02*
X121200000Y-74145000I0J-155000D01*
G01*
G37*
%TD.AperFunction*%
%TO.P,C2,1*%
%TO.N,+3V3*%
%TA.AperFunction,SMDPad,CuDef*%
G36*
G01*
X122335000Y-74145000D02*
X122335000Y-74455000D01*
G75*
G02*
X122180000Y-74610000I-155000J0D01*
G01*
X121755000Y-74610000D01*
G75*
G02*
X121600000Y-74455000I0J155000D01*
G01*
X121600000Y-74145000D01*
G75*
G02*
X121755000Y-73990000I155000J0D01*
G01*
X122180000Y-73990000D01*
G75*
G02*
X122335000Y-74145000I0J-155000D01*
G01*
G37*
%TD.AperFunction*%
%TD*%
%TO.P,C1,2*%
%TO.N,GND*%
%TA.AperFunction,SMDPad,CuDef*%
G36*
G01*
X111500000Y-60695000D02*
X111500000Y-61005000D01*
G75*
G02*
X111345000Y-61160000I-155000J0D01*
G01*
X110920000Y-61160000D01*
G75*
G02*
X110765000Y-61005000I0J155000D01*
G01*
X110765000Y-60695000D01*
G75*
G02*
X110920000Y-60540000I155000J0D01*
G01*
X111345000Y-60540000D01*
G75*
G02*
X111500000Y-60695000I0J-155000D01*
G01*
G37*
%TD.AperFunction*%
%TO.P,C1,1*%
%TO.N,+3V3*%
%TA.AperFunction,SMDPad,CuDef*%
G36*
G01*
X112635000Y-60695000D02*
X112635000Y-61005000D01*
G75*
G02*
X112480000Y-61160000I-155000J0D01*
G01*
X112055000Y-61160000D01*
G75*
G02*
X111900000Y-61005000I0J155000D01*
G01*
X111900000Y-60695000D01*
G75*
G02*
X112055000Y-60540000I155000J0D01*
G01*
X112480000Y-60540000D01*
G75*
G02*
X112635000Y-60695000I0J-155000D01*
G01*
G37*
%TD.AperFunction*%
%TD*%
D33*
%TO.N,GND*%
X110500000Y-64050000D03*
%TO.N,-BATT*%
X109900000Y-113700000D03*
%TO.N,+3V3*%
X126600000Y-62400000D03*
X125500000Y-61800000D03*
%TO.N,GND*%
X105600000Y-133200000D03*
%TO.N,+5V*%
X105650000Y-127450000D03*
X104100000Y-140850000D03*
X107100000Y-140850000D03*
%TO.N,+3V3*%
X107200000Y-67550000D03*
%TO.N,GND*%
X109800000Y-67100000D03*
X102600000Y-140650000D03*
X108600000Y-140650000D03*
X105250000Y-101950000D03*
X105800000Y-74900000D03*
X106650000Y-74900000D03*
%TO.N,+3V3*%
X110850000Y-81550000D03*
X110850000Y-80650000D03*
X110850000Y-79750000D03*
X102800000Y-103500000D03*
X100900000Y-75100000D03*
X109250000Y-76850000D03*
X104700000Y-94100000D03*
X106250000Y-94100000D03*
X102900000Y-99100000D03*
X108500000Y-103950000D03*
X112300000Y-59750000D03*
X114250000Y-58600000D03*
X128950000Y-67520000D03*
X115700000Y-75410000D03*
X121990000Y-75390000D03*
X97400000Y-58070000D03*
X121710000Y-48770000D03*
%TO.N,GND*%
X110900000Y-82950000D03*
X110900000Y-83850000D03*
X110900000Y-84750000D03*
X101050000Y-76850000D03*
X108500000Y-99850000D03*
X108500000Y-102800000D03*
X103150000Y-110350000D03*
X104300000Y-113650000D03*
X101350000Y-128300000D03*
X110750000Y-124750000D03*
X100800000Y-122200000D03*
X108450000Y-60250000D03*
X111150000Y-59750000D03*
X115400000Y-58600000D03*
X127150000Y-65750000D03*
X121500000Y-52100000D03*
X114540000Y-75400000D03*
X120840000Y-75410000D03*
X97370000Y-63170000D03*
X97400000Y-60650000D03*
X97400000Y-59360000D03*
X121740000Y-40940000D03*
X117660000Y-64840000D03*
%TO.N,BTN_POWER_SELECT*%
X114000000Y-66750000D03*
X120550000Y-66400000D03*
%TO.N,-BATT*%
X109900000Y-116800000D03*
X112100000Y-144950000D03*
%TO.N,+5V*%
X100950000Y-124300000D03*
%TO.N,NRST*%
X110860000Y-67000000D03*
X105610000Y-63180000D03*
%TO.N,Net-(D2-Pad1)*%
X108850000Y-132850000D03*
%TO.N,SWDIO*%
X118413329Y-65673325D03*
X110130000Y-59840000D03*
X109470000Y-58200000D03*
X105550000Y-58190000D03*
%TO.N,SWCLK*%
X121960000Y-59660000D03*
X105540000Y-59380000D03*
%TO.N,SWO*%
X119497653Y-58707653D03*
X107920000Y-57470000D03*
%TO.N,NRF_CE*%
X115732795Y-64025000D03*
X134250000Y-52390000D03*
%TO.N,NRF_CSN*%
X115000000Y-63300000D03*
%TO.N,NRF_SCK*%
X118750000Y-68899994D03*
%TO.N,NRF_MOSI*%
X118750000Y-70900000D03*
%TO.N,NRF_MISO*%
X118750000Y-69899997D03*
%TO.N,DISPLAY_SDA*%
X124000000Y-60370000D03*
X131940000Y-52420000D03*
%TO.N,DISPLAY_SCL*%
X123050000Y-59630000D03*
%TO.N,Net-(R1-Pad1)*%
X120010000Y-57170000D03*
X122170000Y-55000000D03*
%TO.N,USB_D+*%
X104650000Y-127450000D03*
X109545315Y-109445315D03*
X110048400Y-86600000D03*
X110048400Y-75350000D03*
%TO.N,HAPTIC_SDA*%
X103350000Y-97100000D03*
X121950000Y-67250000D03*
%TO.N,HAPTIC_SCL*%
X107600000Y-97100000D03*
X120150000Y-68050000D03*
%TO.N,USB_D-*%
X106650000Y-127450000D03*
X111051600Y-86600000D03*
X111051600Y-75350000D03*
X110254685Y-110154685D03*
%TD*%
D34*
%TO.N,+3V3*%
X104250000Y-103500000D02*
X102800000Y-103500000D01*
X106717500Y-103967500D02*
X107550000Y-103967500D01*
X106250000Y-103500000D02*
X106717500Y-103967500D01*
X107225000Y-67525000D02*
X107200000Y-67550000D01*
X108500000Y-67525000D02*
X107225000Y-67525000D01*
D35*
X125500000Y-62832500D02*
X125500000Y-61800000D01*
D34*
X125082500Y-63250000D02*
X125500000Y-62832500D01*
X123875000Y-63250000D02*
X125082500Y-63250000D01*
D35*
X126600000Y-63402500D02*
X126600000Y-62400000D01*
X102200000Y-75100000D02*
X100900000Y-75100000D01*
X109225000Y-76875000D02*
X109250000Y-76850000D01*
X108050000Y-76875000D02*
X109225000Y-76875000D01*
X104700000Y-95287500D02*
X104700000Y-94100000D01*
X106250000Y-95287500D02*
X106250000Y-94100000D01*
D34*
X104250000Y-99100000D02*
X102900000Y-99100000D01*
D35*
X108482500Y-103967500D02*
X108500000Y-103950000D01*
X107550000Y-103967500D02*
X108482500Y-103967500D01*
D34*
X112525000Y-62207500D02*
X112267500Y-61950000D01*
X112525000Y-63250000D02*
X112525000Y-62207500D01*
D35*
X112267500Y-61950000D02*
X112267500Y-60850000D01*
X112267500Y-59782500D02*
X112300000Y-59750000D01*
X112267500Y-60850000D02*
X112267500Y-59782500D01*
X114232500Y-58617500D02*
X114250000Y-58600000D01*
X114232500Y-59700000D02*
X114232500Y-58617500D01*
D34*
X114450000Y-59917500D02*
X114232500Y-59700000D01*
X114450000Y-61325000D02*
X114450000Y-59917500D01*
D35*
X128960000Y-67530000D02*
X128950000Y-67520000D01*
X128960000Y-68662500D02*
X128960000Y-67530000D01*
D34*
X115450000Y-74082500D02*
X115667500Y-74300000D01*
X115450000Y-72675000D02*
X115450000Y-74082500D01*
X115667500Y-75377500D02*
X115700000Y-75410000D01*
X115667500Y-74300000D02*
X115667500Y-75377500D01*
X121950000Y-74282500D02*
X121967500Y-74300000D01*
X121950000Y-72675000D02*
X121950000Y-74282500D01*
X121967500Y-75367500D02*
X121990000Y-75390000D01*
X121967500Y-74300000D02*
X121967500Y-75367500D01*
X97430000Y-58100000D02*
X97400000Y-58070000D01*
X99530000Y-58100000D02*
X97430000Y-58100000D01*
D35*
X121700000Y-48760000D02*
X121710000Y-48770000D01*
X121700000Y-47400000D02*
X121700000Y-48760000D01*
D34*
%TO.N,GND*%
X104850000Y-83000000D02*
X105350000Y-82500000D01*
X104850000Y-83925000D02*
X104850000Y-83000000D01*
X106652500Y-74897500D02*
X106650000Y-74900000D01*
X106652500Y-73800000D02*
X106652500Y-74897500D01*
X105250000Y-103500000D02*
X105250000Y-101950000D01*
X102500000Y-142330000D02*
X102600000Y-142230000D01*
X102500000Y-143530000D02*
X102500000Y-142330000D01*
X102600000Y-142230000D02*
X102600000Y-140650000D01*
X108600000Y-142230000D02*
X108600000Y-140650000D01*
X108700000Y-142330000D02*
X108600000Y-142230000D01*
X108700000Y-143530000D02*
X108700000Y-142330000D01*
X111517500Y-68750000D02*
X110900000Y-68132500D01*
X112525000Y-68750000D02*
X111517500Y-68750000D01*
X110900000Y-68132500D02*
X109800000Y-68132500D01*
X109800000Y-68132500D02*
X109800000Y-67100000D01*
X109800000Y-66967500D02*
X108932500Y-66100000D01*
X109800000Y-67100000D02*
X109800000Y-66967500D01*
X105600000Y-131700000D02*
X105600000Y-133200000D01*
X125282500Y-63750000D02*
X123875000Y-63750000D01*
X125500000Y-63967500D02*
X125282500Y-63750000D01*
D35*
X102237500Y-76850000D02*
X101050000Y-76850000D01*
X108482500Y-99867500D02*
X108500000Y-99850000D01*
X107550000Y-99867500D02*
X108482500Y-99867500D01*
X108467500Y-102832500D02*
X108500000Y-102800000D01*
X107550000Y-102832500D02*
X108467500Y-102832500D01*
D34*
X106350000Y-83325000D02*
X105525000Y-82500000D01*
X105525000Y-82500000D02*
X105350000Y-82500000D01*
X106350000Y-83925000D02*
X106350000Y-83325000D01*
D35*
X104837500Y-81987500D02*
X105350000Y-82500000D01*
X103150000Y-81987500D02*
X104837500Y-81987500D01*
X104700000Y-116290000D02*
X103975000Y-117015000D01*
X104700000Y-115250000D02*
X104700000Y-116290000D01*
X104337500Y-110350000D02*
X103150000Y-110350000D01*
X104300000Y-114850000D02*
X104300000Y-113650000D01*
X104700000Y-115250000D02*
X104300000Y-114850000D01*
X101362500Y-128312500D02*
X101350000Y-128300000D01*
X102550000Y-128312500D02*
X101362500Y-128312500D01*
X108487500Y-125350000D02*
X109100000Y-124737500D01*
X107050000Y-125350000D02*
X108487500Y-125350000D01*
X110737500Y-124737500D02*
X110750000Y-124750000D01*
X109100000Y-124737500D02*
X110737500Y-124737500D01*
X100812500Y-122212500D02*
X100800000Y-122200000D01*
X102400000Y-122212500D02*
X100812500Y-122212500D01*
D34*
X108342500Y-62732500D02*
X108512500Y-62562500D01*
X107200000Y-62732500D02*
X108342500Y-62732500D01*
X108512500Y-61480000D02*
X108432500Y-61400000D01*
X108512500Y-62562500D02*
X108512500Y-61480000D01*
X110287500Y-63837500D02*
X110500000Y-64050000D01*
X109487500Y-63837500D02*
X110287500Y-63837500D01*
X108432500Y-60267500D02*
X108450000Y-60250000D01*
X108432500Y-61400000D02*
X108432500Y-60267500D01*
D35*
X111132500Y-61950000D02*
X111132500Y-60850000D01*
X111132500Y-59767500D02*
X111150000Y-59750000D01*
X111132500Y-60850000D02*
X111132500Y-59767500D01*
X115367500Y-58632500D02*
X115400000Y-58600000D01*
X115367500Y-59700000D02*
X115367500Y-58632500D01*
D34*
X114950000Y-60117500D02*
X115367500Y-59700000D01*
X114950000Y-61325000D02*
X114950000Y-60117500D01*
D35*
X127100000Y-65800000D02*
X127150000Y-65750000D01*
X127100000Y-66702500D02*
X127100000Y-65800000D01*
D34*
X119606462Y-53996104D02*
X120701283Y-52901283D01*
X119606462Y-54121538D02*
X119606462Y-53996104D01*
D35*
X120701283Y-52898717D02*
X121500000Y-52100000D01*
X120701283Y-52901283D02*
X120701283Y-52898717D01*
X127066500Y-76064000D02*
X127000000Y-75997500D01*
X128950000Y-76064000D02*
X127066500Y-76064000D01*
D34*
X114950000Y-73882500D02*
X114532500Y-74300000D01*
X114950000Y-72675000D02*
X114950000Y-73882500D01*
X114532500Y-75392500D02*
X114540000Y-75400000D01*
X114532500Y-74300000D02*
X114532500Y-75392500D01*
X121450000Y-73682500D02*
X120832500Y-74300000D01*
X121450000Y-72675000D02*
X121450000Y-73682500D01*
X120832500Y-75402500D02*
X120840000Y-75410000D01*
X120832500Y-74300000D02*
X120832500Y-75402500D01*
X97380000Y-63180000D02*
X97370000Y-63170000D01*
X99530000Y-63180000D02*
X97380000Y-63180000D01*
X97410000Y-60640000D02*
X97400000Y-60650000D01*
X99530000Y-60640000D02*
X97410000Y-60640000D01*
X97410000Y-59370000D02*
X97400000Y-59360000D01*
X99530000Y-59370000D02*
X97410000Y-59370000D01*
D35*
X121700000Y-40980000D02*
X121740000Y-40940000D01*
X121700000Y-42400000D02*
X121700000Y-40980000D01*
D34*
X118750000Y-63750000D02*
X117660000Y-64840000D01*
X123875000Y-63750000D02*
X118750000Y-63750000D01*
%TO.N,+3.3VA*%
X110917500Y-69250000D02*
X110900000Y-69267500D01*
X112525000Y-69250000D02*
X110917500Y-69250000D01*
X110900000Y-69267500D02*
X109800000Y-69267500D01*
X108507500Y-69267500D02*
X108500000Y-69275000D01*
X109800000Y-69267500D02*
X108507500Y-69267500D01*
%TO.N,HSE_IN*%
X109567500Y-62482500D02*
X109487500Y-62562500D01*
X109567500Y-61400000D02*
X109567500Y-62482500D01*
X111684298Y-65250000D02*
X111250000Y-64815702D01*
X112525000Y-65250000D02*
X111684298Y-65250000D01*
X110125000Y-62562500D02*
X109487500Y-62562500D01*
X111250000Y-63687500D02*
X110125000Y-62562500D01*
X111250000Y-64815702D02*
X111250000Y-63687500D01*
%TO.N,Net-(C10-Pad1)*%
X108402500Y-63947500D02*
X108512500Y-63837500D01*
X108402500Y-65000000D02*
X108402500Y-63947500D01*
X107230000Y-63837500D02*
X107200000Y-63867500D01*
X108512500Y-63837500D02*
X107230000Y-63837500D01*
%TO.N,BTN_POWER_SELECT*%
X112525000Y-66750000D02*
X114000000Y-66750000D01*
X127068500Y-71564000D02*
X127000000Y-71632500D01*
X128950000Y-71564000D02*
X127068500Y-71564000D01*
X119424999Y-67525001D02*
X120550000Y-66400000D01*
X119424999Y-68398001D02*
X119424999Y-67525001D01*
X122659498Y-71632500D02*
X119424999Y-68398001D01*
X127000000Y-71632500D02*
X122659498Y-71632500D01*
D35*
X128950000Y-69867500D02*
X128960000Y-69857500D01*
X128950000Y-71564000D02*
X128950000Y-69867500D01*
%TO.N,Net-(C11-Pad2)*%
X127000000Y-72767500D02*
X127000000Y-74802500D01*
%TO.N,-BATT*%
X108675000Y-117015000D02*
X108985000Y-117015000D01*
X109750000Y-116250000D02*
X109750000Y-115250000D01*
X108985000Y-117015000D02*
X109750000Y-116250000D01*
D34*
X107132500Y-112750000D02*
X107532500Y-113150000D01*
X106225000Y-112750000D02*
X107132500Y-112750000D01*
X109632500Y-115250000D02*
X109750000Y-115250000D01*
X107532500Y-113150000D02*
X109632500Y-115250000D01*
D35*
X109750000Y-113850000D02*
X109900000Y-113700000D01*
X109750000Y-115250000D02*
X109750000Y-113850000D01*
X112100000Y-144950000D02*
X122050000Y-144950000D01*
X122050000Y-138450000D02*
X122000000Y-138400000D01*
X122050000Y-144950000D02*
X122050000Y-138450000D01*
D34*
%TO.N,Net-(C12-Pad1)*%
X107337500Y-112250000D02*
X107737500Y-111850000D01*
X106225000Y-112250000D02*
X107337500Y-112250000D01*
X107737500Y-112220000D02*
X108667500Y-113150000D01*
X107737500Y-111850000D02*
X107737500Y-112220000D01*
%TO.N,+5V*%
X104124999Y-142254999D02*
X104100000Y-142230000D01*
X104124999Y-142840001D02*
X104124999Y-142254999D01*
X104350000Y-143065002D02*
X104124999Y-142840001D01*
X104350000Y-143530000D02*
X104350000Y-143065002D01*
X107100000Y-142815002D02*
X107100000Y-142230000D01*
X106874999Y-143040003D02*
X107100000Y-142815002D01*
X106874999Y-143525001D02*
X106874999Y-143040003D01*
X106870000Y-143530000D02*
X106874999Y-143525001D01*
X106850000Y-143530000D02*
X106870000Y-143530000D01*
X104100000Y-142230000D02*
X104100000Y-140850000D01*
X107100000Y-142230000D02*
X107100000Y-140850000D01*
X105600000Y-127500000D02*
X105650000Y-127450000D01*
X105600000Y-129000000D02*
X105600000Y-127500000D01*
D36*
X102512500Y-124400000D02*
X102400000Y-124287500D01*
X104250000Y-124400000D02*
X102512500Y-124400000D01*
X100962500Y-124287500D02*
X100950000Y-124300000D01*
X102400000Y-124287500D02*
X100962500Y-124287500D01*
D35*
%TO.N,BAT_SENSE*%
X107362500Y-124400000D02*
X109100000Y-122662500D01*
X107050000Y-124400000D02*
X107362500Y-124400000D01*
X109100000Y-122662500D02*
X111901601Y-119860899D01*
X111790702Y-78337500D02*
X106200000Y-78337500D01*
X111901601Y-78448399D02*
X111790702Y-78337500D01*
X111901601Y-109998399D02*
X111901601Y-108451601D01*
X110050000Y-111850000D02*
X111901601Y-109998399D01*
X109562500Y-111850000D02*
X110050000Y-111850000D01*
X111901601Y-108451601D02*
X111901601Y-78448399D01*
X111901601Y-119860899D02*
X111901601Y-108451601D01*
D34*
X119450000Y-83250000D02*
X120200000Y-84000000D01*
X119450000Y-72675000D02*
X119450000Y-83250000D01*
%TO.N,Net-(C17-Pad2)*%
X102032500Y-78655000D02*
X102237500Y-78450000D01*
X102032500Y-79750000D02*
X102032500Y-78655000D01*
%TO.N,Net-(C17-Pad1)*%
X104350000Y-80932500D02*
X103167500Y-79750000D01*
X104350000Y-81075000D02*
X104350000Y-80932500D01*
%TO.N,Net-(C19-Pad2)*%
X106250000Y-99100000D02*
X106650000Y-98700000D01*
X107517500Y-98700000D02*
X107550000Y-98732500D01*
X106650000Y-98700000D02*
X107517500Y-98700000D01*
%TO.N,Net-(C20-Pad1)*%
X119898717Y-52485780D02*
X119898717Y-52098717D01*
X117449786Y-54934711D02*
X119898717Y-52485780D01*
%TO.N,NRST*%
X110217500Y-66250000D02*
X110067500Y-66100000D01*
X112525000Y-66250000D02*
X110217500Y-66250000D01*
X110067500Y-66207500D02*
X110860000Y-67000000D01*
X110067500Y-66100000D02*
X110067500Y-66207500D01*
X105610000Y-63180000D02*
X103430000Y-63180000D01*
%TO.N,LED_STATUS*%
X125525000Y-65750000D02*
X125800000Y-66025000D01*
X123875000Y-65750000D02*
X125525000Y-65750000D01*
%TO.N,Net-(D1-Pad1)*%
X126977500Y-67775000D02*
X127100000Y-67897500D01*
X125800000Y-67775000D02*
X126977500Y-67775000D01*
%TO.N,Net-(D2-Pad1)*%
X108850000Y-132850000D02*
X108850000Y-128262500D01*
%TO.N,Net-(D3-Pad1)*%
X108050000Y-74002500D02*
X107847500Y-73800000D01*
X108050000Y-75125000D02*
X108050000Y-74002500D01*
D36*
%TO.N,Net-(FET1-Pad4)*%
X102675000Y-116325000D02*
X101600000Y-115250000D01*
X102675000Y-117015000D02*
X102675000Y-116325000D01*
D34*
X104600000Y-112250000D02*
X105075000Y-112250000D01*
X101600000Y-115250000D02*
X104600000Y-112250000D01*
D35*
%TO.N,Net-(FET1-Pad5)*%
X102675000Y-119885000D02*
X102675000Y-120725000D01*
X103325000Y-119885000D02*
X103325000Y-120625000D01*
X103975000Y-119885000D02*
X103975000Y-120625000D01*
X104625000Y-119885000D02*
X104625000Y-120575000D01*
X106725000Y-119885000D02*
X106725000Y-120575000D01*
X108025000Y-119885000D02*
X108025000Y-120525000D01*
X108675000Y-119885000D02*
X108675000Y-120475000D01*
X107375000Y-119885000D02*
X107375000Y-120525000D01*
D34*
X103650000Y-119560000D02*
X103325000Y-119885000D01*
X103650000Y-118840000D02*
X103650000Y-119560000D01*
X107700000Y-119560000D02*
X107375000Y-119885000D01*
X107700000Y-118840000D02*
X107700000Y-119560000D01*
D36*
%TO.N,Net-(FET2-Pad4)*%
X106725000Y-115325000D02*
X106650000Y-115250000D01*
X106725000Y-117015000D02*
X106725000Y-115325000D01*
D34*
X105075000Y-113675000D02*
X106650000Y-115250000D01*
X105075000Y-112750000D02*
X105075000Y-113675000D01*
D37*
%TO.N,USB_CONN_D+*%
X105100000Y-142230000D02*
X105100000Y-141704999D01*
X105100000Y-141704999D02*
X105367844Y-141437155D01*
X105367844Y-141437155D02*
X105367844Y-139943381D01*
X105367844Y-139943381D02*
X106530557Y-138780668D01*
X106530557Y-138780668D02*
X106530557Y-134485554D01*
X106530557Y-134485554D02*
X105975560Y-133930557D01*
X105975560Y-133930557D02*
X105199332Y-133930557D01*
X105199332Y-133930557D02*
X104819443Y-133550668D01*
X104819443Y-133550668D02*
X104819443Y-133039444D01*
X104819443Y-133039444D02*
X104650000Y-132870001D01*
X104650000Y-132870001D02*
X104650000Y-131700000D01*
%TO.N,USB_CONN_D-*%
X106550000Y-132870001D02*
X106550000Y-131700000D01*
X106994860Y-138972988D02*
X106994860Y-133314861D01*
X105832156Y-140135692D02*
X106994860Y-138972988D01*
X105832156Y-141437155D02*
X105832156Y-140135692D01*
X106994860Y-133314861D02*
X106550000Y-132870001D01*
X106100000Y-142230000D02*
X106100000Y-141704999D01*
X106100000Y-141704999D02*
X105832156Y-141437155D01*
D34*
%TO.N,SWDIO*%
X119836654Y-64250000D02*
X118413329Y-65673325D01*
X123875000Y-64250000D02*
X119836654Y-64250000D01*
X110130000Y-58860000D02*
X109470000Y-58200000D01*
X110130000Y-59840000D02*
X110130000Y-58860000D01*
X103520000Y-58190000D02*
X103430000Y-58100000D01*
X105550000Y-58190000D02*
X103520000Y-58190000D01*
%TO.N,SWCLK*%
X121950000Y-59670000D02*
X121960000Y-59660000D01*
X121950000Y-61325000D02*
X121950000Y-59670000D01*
X103440000Y-59380000D02*
X103430000Y-59370000D01*
X105540000Y-59380000D02*
X103440000Y-59380000D01*
%TO.N,SWO*%
X118950000Y-59255306D02*
X119497653Y-58707653D01*
X118950000Y-61325000D02*
X118950000Y-59255306D01*
X105353002Y-60640000D02*
X103430000Y-60640000D01*
X107920000Y-58073002D02*
X105353002Y-60640000D01*
X107920000Y-57470000D02*
X107920000Y-58073002D01*
%TO.N,NRF_CE*%
X115732795Y-68019317D02*
X115732795Y-64025000D01*
X113502112Y-70250000D02*
X115732795Y-68019317D01*
X112525000Y-70250000D02*
X113502112Y-70250000D01*
X134250000Y-51290000D02*
X137000000Y-48540000D01*
X134250000Y-52390000D02*
X134250000Y-51290000D01*
%TO.N,NRF_CSN*%
X115000000Y-68115702D02*
X115000000Y-63300000D01*
X113365702Y-69750000D02*
X115000000Y-68115702D01*
X112525000Y-69750000D02*
X113365702Y-69750000D01*
%TO.N,NRF_SCK*%
X118677001Y-68899994D02*
X118750000Y-68899994D01*
X116450000Y-71126995D02*
X118677001Y-68899994D01*
X116450000Y-72675000D02*
X116450000Y-71126995D01*
%TO.N,NRF_MOSI*%
X118384298Y-70900000D02*
X118750000Y-70900000D01*
X117450000Y-71834298D02*
X118384298Y-70900000D01*
X117450000Y-72675000D02*
X117450000Y-71834298D01*
%TO.N,NRF_MISO*%
X118677001Y-69899997D02*
X118750000Y-69899997D01*
X116950000Y-71626998D02*
X118677001Y-69899997D01*
X116950000Y-72675000D02*
X116950000Y-71626998D01*
%TO.N,DISPLAY_SDA*%
X122377093Y-62875019D02*
X123990000Y-61262112D01*
X117522908Y-62875020D02*
X122377093Y-62875019D01*
X116950000Y-62302112D02*
X117522908Y-62875020D01*
X116950000Y-61325000D02*
X116950000Y-62302112D01*
X123990000Y-60380000D02*
X124000000Y-60370000D01*
X123990000Y-61262112D02*
X123990000Y-60380000D01*
X131940000Y-41660000D02*
X131950000Y-41650000D01*
X131940000Y-52420000D02*
X131940000Y-41660000D01*
%TO.N,DISPLAY_SCL*%
X123050000Y-61565702D02*
X123050000Y-59630000D01*
X122190692Y-62425010D02*
X123050000Y-61565702D01*
X117709308Y-62425010D02*
X122190692Y-62425010D01*
X117450000Y-62165702D02*
X117709308Y-62425010D01*
X117450000Y-61325000D02*
X117450000Y-62165702D01*
%TO.N,Motor-*%
X105750000Y-105900000D02*
X106450000Y-106600000D01*
X105750000Y-103500000D02*
X105750000Y-105900000D01*
%TO.N,Motor+*%
X104750000Y-105760000D02*
X103910000Y-106600000D01*
X104750000Y-103500000D02*
X104750000Y-105760000D01*
%TO.N,Net-(R1-Pad1)*%
X117697500Y-59482500D02*
X120010000Y-57170000D01*
X117697500Y-59700000D02*
X117697500Y-59482500D01*
X123275001Y-46475001D02*
X121700000Y-44900000D01*
X123275001Y-53894999D02*
X123275001Y-46475001D01*
X122170000Y-55000000D02*
X123275001Y-53894999D01*
%TO.N,BOOT0*%
X116450000Y-59752500D02*
X116502500Y-59700000D01*
X116450000Y-61325000D02*
X116450000Y-59752500D01*
%TO.N,USB_D+*%
X126447500Y-64750000D02*
X126600000Y-64597500D01*
X123875000Y-64750000D02*
X126447500Y-64750000D01*
D37*
X104650000Y-129000000D02*
X104944443Y-128705557D01*
X104919443Y-127800668D02*
X104919443Y-127719443D01*
X104944443Y-127825668D02*
X104919443Y-127800668D01*
X104944443Y-128705557D02*
X104944443Y-127825668D01*
X104919443Y-127719443D02*
X104650000Y-127450000D01*
X123857156Y-64767844D02*
X123875000Y-64750000D01*
X120351973Y-64767844D02*
X123857156Y-64767844D01*
X110778957Y-74619443D02*
X113505131Y-71893269D01*
X110321043Y-75077357D02*
X110321043Y-74999332D01*
X113505131Y-71893269D02*
X113505131Y-71614686D01*
X110700932Y-74619443D02*
X110778957Y-74619443D01*
X110321043Y-74999332D02*
X110700932Y-74619443D01*
X110048400Y-75350000D02*
X110321043Y-75077357D01*
X113505131Y-71614686D02*
X120351973Y-64767844D01*
X109926366Y-109445315D02*
X110317844Y-109053837D01*
X109545315Y-109445315D02*
X109926366Y-109445315D01*
X110317844Y-86869444D02*
X110048400Y-86600000D01*
X110317844Y-109053837D02*
X110317844Y-86869444D01*
D34*
%TO.N,HSE_OUT*%
X111547888Y-65750000D02*
X112525000Y-65750000D01*
X110797888Y-65000000D02*
X111547888Y-65750000D01*
X109597500Y-65000000D02*
X110797888Y-65000000D01*
%TO.N,Net-(R8-Pad2)*%
X106225000Y-110412500D02*
X106162500Y-110350000D01*
X106225000Y-111750000D02*
X106225000Y-110412500D01*
D36*
%TO.N,Net-(R11-Pad1)*%
X102737500Y-126300000D02*
X102550000Y-126487500D01*
X104250000Y-126300000D02*
X102737500Y-126300000D01*
D34*
%TO.N,Net-(R12-Pad1)*%
X108712500Y-126300000D02*
X108850000Y-126437500D01*
X107050000Y-126300000D02*
X108712500Y-126300000D01*
%TO.N,Net-(R13-Pad2)*%
X104800001Y-79187501D02*
X104062500Y-78450000D01*
X104800001Y-80800001D02*
X104800001Y-79187501D01*
X104850000Y-80850000D02*
X104800001Y-80800001D01*
X104850000Y-81075000D02*
X104850000Y-80850000D01*
X104062500Y-78450000D02*
X104062500Y-76850000D01*
X104062500Y-75237500D02*
X104200000Y-75100000D01*
X104062500Y-76850000D02*
X104062500Y-75237500D01*
D35*
%TO.N,Net-(R16-Pad1)*%
X104162490Y-83812500D02*
X104274990Y-83925000D01*
X103150000Y-83812500D02*
X104162490Y-83812500D01*
D34*
%TO.N,HAPTIC_SDA*%
X105250000Y-97662500D02*
X104700000Y-97112500D01*
X105250000Y-99100000D02*
X105250000Y-97662500D01*
X103362500Y-97112500D02*
X103350000Y-97100000D01*
X104700000Y-97112500D02*
X103362500Y-97112500D01*
X121950000Y-67250000D02*
X123875000Y-67250000D01*
%TO.N,HAPTIC_SCL*%
X105750000Y-97612500D02*
X106250000Y-97112500D01*
X105750000Y-99100000D02*
X105750000Y-97612500D01*
X107587500Y-97112500D02*
X107600000Y-97100000D01*
X106250000Y-97112500D02*
X107587500Y-97112500D01*
X122900000Y-66750000D02*
X123875000Y-66750000D01*
X122674999Y-66524999D02*
X122900000Y-66750000D01*
X121601999Y-66524999D02*
X122674999Y-66524999D01*
X120150000Y-67976998D02*
X121601999Y-66524999D01*
X120150000Y-68050000D02*
X120150000Y-67976998D01*
%TO.N,HALL_SENSE*%
X121551216Y-56278214D02*
X118793289Y-56278214D01*
X127875001Y-62601999D02*
X121551216Y-56278214D01*
X127875001Y-68165909D02*
X127875001Y-62601999D01*
X125290910Y-70750000D02*
X127875001Y-68165909D01*
X123875000Y-70750000D02*
X125290910Y-70750000D01*
D37*
%TO.N,USB_D-*%
X106380557Y-127619443D02*
X106550000Y-127450000D01*
X106255557Y-128705557D02*
X106255557Y-127925668D01*
X106550000Y-129000000D02*
X106255557Y-128705557D01*
X106380557Y-127800668D02*
X106380557Y-127619443D01*
X106255557Y-127925668D02*
X106380557Y-127800668D01*
X123857156Y-65232156D02*
X123875000Y-65250000D01*
X111051600Y-75350000D02*
X111051600Y-75003437D01*
X111051600Y-75003437D02*
X113969434Y-72085603D01*
X113969434Y-71807006D02*
X120544284Y-65232156D01*
X113969434Y-72085603D02*
X113969434Y-71807006D01*
X120544284Y-65232156D02*
X123857156Y-65232156D01*
X110254685Y-109773634D02*
X110782156Y-109246163D01*
X110254685Y-110154685D02*
X110254685Y-109773634D01*
X110782156Y-109246163D02*
X110782156Y-86869444D01*
X110782156Y-86869444D02*
X111051600Y-86600000D01*
%TD*%
D38*
%TO.N,BAT_SENSE*%
X125222004Y-84023000D02*
X115227000Y-84023000D01*
X115227000Y-78950000D01*
X115224560Y-78925224D01*
X115217333Y-78901399D01*
X115205597Y-78879443D01*
X115189803Y-78860197D01*
X115170557Y-78844403D01*
X115148601Y-78832667D01*
X115124776Y-78825440D01*
X115100000Y-78823000D01*
X106000000Y-78823000D01*
X105975224Y-78825440D01*
X105951399Y-78832667D01*
X105929443Y-78844403D01*
X105910197Y-78860197D01*
X105894403Y-78879443D01*
X105882667Y-78901399D01*
X105875440Y-78925224D01*
X105873000Y-78950000D01*
X105873000Y-80586663D01*
X105853455Y-80651095D01*
X105846176Y-80725000D01*
X105846176Y-81296176D01*
X105353824Y-81296176D01*
X105353824Y-80856122D01*
X105354427Y-80849999D01*
X105353824Y-80843876D01*
X105353824Y-80725000D01*
X105346545Y-80651095D01*
X105338180Y-80623517D01*
X105375295Y-77877000D01*
X125173988Y-77877000D01*
X125222004Y-84023000D01*
%TA.AperFunction,Conductor*%
D39*
G36*
X125222004Y-84023000D02*
G01*
X115227000Y-84023000D01*
X115227000Y-78950000D01*
X115224560Y-78925224D01*
X115217333Y-78901399D01*
X115205597Y-78879443D01*
X115189803Y-78860197D01*
X115170557Y-78844403D01*
X115148601Y-78832667D01*
X115124776Y-78825440D01*
X115100000Y-78823000D01*
X106000000Y-78823000D01*
X105975224Y-78825440D01*
X105951399Y-78832667D01*
X105929443Y-78844403D01*
X105910197Y-78860197D01*
X105894403Y-78879443D01*
X105882667Y-78901399D01*
X105875440Y-78925224D01*
X105873000Y-78950000D01*
X105873000Y-80586663D01*
X105853455Y-80651095D01*
X105846176Y-80725000D01*
X105846176Y-81296176D01*
X105353824Y-81296176D01*
X105353824Y-80856122D01*
X105354427Y-80849999D01*
X105353824Y-80843876D01*
X105353824Y-80725000D01*
X105346545Y-80651095D01*
X105338180Y-80623517D01*
X105375295Y-77877000D01*
X125173988Y-77877000D01*
X125222004Y-84023000D01*
G37*
%TD.AperFunction*%
%TD*%
D38*
%TO.N,+3V3*%
X111173000Y-81873000D02*
X110549401Y-81873000D01*
X109985817Y-81356381D01*
X109965904Y-81341438D01*
X109943458Y-81330667D01*
X109919343Y-81324482D01*
X109901740Y-81323012D01*
X106377000Y-81274728D01*
X106377000Y-80227000D01*
X109850000Y-80227000D01*
X109874776Y-80224560D01*
X109898601Y-80217333D01*
X109920557Y-80205597D01*
X109939803Y-80189803D01*
X109954653Y-80171949D01*
X110466805Y-79427000D01*
X111173000Y-79427000D01*
X111173000Y-81873000D01*
%TA.AperFunction,Conductor*%
D39*
G36*
X111173000Y-81873000D02*
G01*
X110549401Y-81873000D01*
X109985817Y-81356381D01*
X109965904Y-81341438D01*
X109943458Y-81330667D01*
X109919343Y-81324482D01*
X109901740Y-81323012D01*
X106377000Y-81274728D01*
X106377000Y-80227000D01*
X109850000Y-80227000D01*
X109874776Y-80224560D01*
X109898601Y-80217333D01*
X109920557Y-80205597D01*
X109939803Y-80189803D01*
X109954653Y-80171949D01*
X110466805Y-79427000D01*
X111173000Y-79427000D01*
X111173000Y-81873000D01*
G37*
%TD.AperFunction*%
%TD*%
D38*
%TO.N,GND*%
X111223000Y-85073000D02*
X110552606Y-85073000D01*
X109989803Y-84510197D01*
X109970557Y-84494403D01*
X109948601Y-84482667D01*
X109924776Y-84475440D01*
X109900000Y-84473000D01*
X106377000Y-84473000D01*
X106377000Y-83327000D01*
X109900000Y-83327000D01*
X109924776Y-83324560D01*
X109948601Y-83317333D01*
X109970557Y-83305597D01*
X109996426Y-83282651D01*
X110558413Y-82627000D01*
X111223000Y-82627000D01*
X111223000Y-85073000D01*
%TA.AperFunction,Conductor*%
D39*
G36*
X111223000Y-85073000D02*
G01*
X110552606Y-85073000D01*
X109989803Y-84510197D01*
X109970557Y-84494403D01*
X109948601Y-84482667D01*
X109924776Y-84475440D01*
X109900000Y-84473000D01*
X106377000Y-84473000D01*
X106377000Y-83327000D01*
X109900000Y-83327000D01*
X109924776Y-83324560D01*
X109948601Y-83317333D01*
X109970557Y-83305597D01*
X109996426Y-83282651D01*
X110558413Y-82627000D01*
X111223000Y-82627000D01*
X111223000Y-85073000D01*
G37*
%TD.AperFunction*%
%TD*%
D38*
%TO.N,Net-(L2-Pad2)*%
X105873000Y-85150000D02*
X105875440Y-85174776D01*
X105882667Y-85198601D01*
X105894403Y-85220557D01*
X105910197Y-85239803D01*
X105929443Y-85255597D01*
X105951399Y-85267333D01*
X105975224Y-85274560D01*
X106000000Y-85277000D01*
X108223000Y-85277000D01*
X108223000Y-89473000D01*
X105827000Y-89473000D01*
X105827000Y-83677000D01*
X105873000Y-83677000D01*
X105873000Y-85150000D01*
%TA.AperFunction,Conductor*%
D39*
G36*
X105873000Y-85150000D02*
G01*
X105875440Y-85174776D01*
X105882667Y-85198601D01*
X105894403Y-85220557D01*
X105910197Y-85239803D01*
X105929443Y-85255597D01*
X105951399Y-85267333D01*
X105975224Y-85274560D01*
X106000000Y-85277000D01*
X108223000Y-85277000D01*
X108223000Y-89473000D01*
X105827000Y-89473000D01*
X105827000Y-83677000D01*
X105873000Y-83677000D01*
X105873000Y-85150000D01*
G37*
%TD.AperFunction*%
%TD*%
D38*
%TO.N,Net-(L2-Pad1)*%
X105373000Y-85423000D02*
X103700000Y-85423000D01*
X103675224Y-85425440D01*
X103651399Y-85432667D01*
X103629443Y-85444403D01*
X103610197Y-85460197D01*
X103594403Y-85479443D01*
X103582667Y-85501399D01*
X103575440Y-85525224D01*
X103573000Y-85550000D01*
X103573000Y-89423000D01*
X101177000Y-89423000D01*
X101177000Y-84877000D01*
X105200000Y-84877000D01*
X105224776Y-84874560D01*
X105248601Y-84867333D01*
X105270557Y-84855597D01*
X105289803Y-84839803D01*
X105305597Y-84820557D01*
X105317333Y-84798601D01*
X105324560Y-84774776D01*
X105327000Y-84750000D01*
X105327000Y-83677000D01*
X105373000Y-83677000D01*
X105373000Y-85423000D01*
%TA.AperFunction,Conductor*%
D39*
G36*
X105373000Y-85423000D02*
G01*
X103700000Y-85423000D01*
X103675224Y-85425440D01*
X103651399Y-85432667D01*
X103629443Y-85444403D01*
X103610197Y-85460197D01*
X103594403Y-85479443D01*
X103582667Y-85501399D01*
X103575440Y-85525224D01*
X103573000Y-85550000D01*
X103573000Y-89423000D01*
X101177000Y-89423000D01*
X101177000Y-84877000D01*
X105200000Y-84877000D01*
X105224776Y-84874560D01*
X105248601Y-84867333D01*
X105270557Y-84855597D01*
X105289803Y-84839803D01*
X105305597Y-84820557D01*
X105317333Y-84798601D01*
X105324560Y-84774776D01*
X105327000Y-84750000D01*
X105327000Y-83677000D01*
X105373000Y-83677000D01*
X105373000Y-85423000D01*
G37*
%TD.AperFunction*%
%TD*%
D38*
%TO.N,GND*%
X106823000Y-76723000D02*
X105577000Y-76723000D01*
X105577000Y-74577000D01*
X106823000Y-74577000D01*
X106823000Y-76723000D01*
%TA.AperFunction,Conductor*%
D39*
G36*
X106823000Y-76723000D02*
G01*
X105577000Y-76723000D01*
X105577000Y-74577000D01*
X106823000Y-74577000D01*
X106823000Y-76723000D01*
G37*
%TD.AperFunction*%
%TD*%
D38*
%TO.N,GND*%
X105173000Y-117173000D02*
X103253582Y-117173000D01*
X103253582Y-116827000D01*
X104050000Y-116827000D01*
X104074776Y-116824560D01*
X104098601Y-116817333D01*
X104120557Y-116805597D01*
X104139803Y-116789803D01*
X104155597Y-116770557D01*
X104167333Y-116748601D01*
X104174560Y-116724776D01*
X104177000Y-116700000D01*
X104177000Y-115127000D01*
X105173000Y-115127000D01*
X105173000Y-117173000D01*
%TA.AperFunction,Conductor*%
D39*
G36*
X105173000Y-117173000D02*
G01*
X103253582Y-117173000D01*
X103253582Y-116827000D01*
X104050000Y-116827000D01*
X104074776Y-116824560D01*
X104098601Y-116817333D01*
X104120557Y-116805597D01*
X104139803Y-116789803D01*
X104155597Y-116770557D01*
X104167333Y-116748601D01*
X104174560Y-116724776D01*
X104177000Y-116700000D01*
X104177000Y-115127000D01*
X105173000Y-115127000D01*
X105173000Y-117173000D01*
G37*
%TD.AperFunction*%
%TD*%
D38*
%TO.N,Net-(FET1-Pad5)*%
X108873000Y-121123000D02*
X102527000Y-121123000D01*
X102527000Y-119827000D01*
X108873000Y-119827000D01*
X108873000Y-121123000D01*
%TA.AperFunction,Conductor*%
D39*
G36*
X108873000Y-121123000D02*
G01*
X102527000Y-121123000D01*
X102527000Y-119827000D01*
X108873000Y-119827000D01*
X108873000Y-121123000D01*
G37*
%TD.AperFunction*%
%TD*%
%TO.N,-BATT*%
X110350000Y-117250000D02*
X107226209Y-117250000D01*
X107226209Y-116750000D01*
X109100000Y-116750000D01*
X109109755Y-116749039D01*
X109119134Y-116746194D01*
X109127779Y-116741573D01*
X109135355Y-116735355D01*
X109141573Y-116727779D01*
X109146194Y-116719134D01*
X109149039Y-116709755D01*
X109150000Y-116700000D01*
X109150000Y-114450000D01*
X110350000Y-114450000D01*
X110350000Y-117250000D01*
%TA.AperFunction,Conductor*%
G36*
X110350000Y-117250000D02*
G01*
X107226209Y-117250000D01*
X107226209Y-116750000D01*
X109100000Y-116750000D01*
X109109755Y-116749039D01*
X109119134Y-116746194D01*
X109127779Y-116741573D01*
X109135355Y-116735355D01*
X109141573Y-116727779D01*
X109146194Y-116719134D01*
X109149039Y-116709755D01*
X109150000Y-116700000D01*
X109150000Y-114450000D01*
X110350000Y-114450000D01*
X110350000Y-117250000D01*
G37*
%TD.AperFunction*%
%TD*%
%TO.N,-BATT*%
X126999773Y-145300000D02*
X117000000Y-145300000D01*
X117000000Y-134449751D01*
X126950228Y-134400248D01*
X126999773Y-145300000D01*
%TA.AperFunction,Conductor*%
G36*
X126999773Y-145300000D02*
G01*
X117000000Y-145300000D01*
X117000000Y-134449751D01*
X126950228Y-134400248D01*
X126999773Y-145300000D01*
G37*
%TD.AperFunction*%
%TD*%
M02*
