%TF.GenerationSoftware,KiCad,Pcbnew,(5.1.7)-1*%
%TF.CreationDate,2020-11-25T00:45:14-08:00*%
%TF.ProjectId,eskate_remote,65736b61-7465-45f7-9265-6d6f74652e6b,rev?*%
%TF.SameCoordinates,Original*%
%TF.FileFunction,Copper,L2,Inr*%
%TF.FilePolarity,Positive*%
%FSLAX46Y46*%
G04 Gerber Fmt 4.6, Leading zero omitted, Abs format (unit mm)*
G04 Created by KiCad (PCBNEW (5.1.7)-1) date 2020-11-25 00:45:14*
%MOMM*%
%LPD*%
G01*
G04 APERTURE LIST*
%TA.AperFunction,ComponentPad*%
%ADD10O,1.300000X2.600000*%
%TD*%
%TA.AperFunction,ComponentPad*%
%ADD11O,1.100000X2.200000*%
%TD*%
%TA.AperFunction,ComponentPad*%
%ADD12C,1.600000*%
%TD*%
%TA.AperFunction,ComponentPad*%
%ADD13O,1.700000X1.700000*%
%TD*%
%TA.AperFunction,ComponentPad*%
%ADD14R,1.700000X1.700000*%
%TD*%
%TA.AperFunction,ComponentPad*%
%ADD15C,1.800000*%
%TD*%
%TA.AperFunction,ComponentPad*%
%ADD16R,1.800000X1.800000*%
%TD*%
%TA.AperFunction,ViaPad*%
%ADD17C,0.800000*%
%TD*%
%TA.AperFunction,Conductor*%
%ADD18C,0.254000*%
%TD*%
%TA.AperFunction,Conductor*%
%ADD19C,0.100000*%
%TD*%
G04 APERTURE END LIST*
D10*
%TO.N,N/C*%
%TO.C,J1*%
X109920000Y-148000000D03*
X101280000Y-148000000D03*
D11*
X109920000Y-142640000D03*
%TO.N,Net-(J1-PadS1)*%
X101280000Y-142640000D03*
%TD*%
D12*
%TO.N,BTN_POWER_SELECT*%
%TO.C,SW2*%
X128950000Y-71564000D03*
%TO.N,GND*%
X128950000Y-76064000D03*
%TD*%
D13*
%TO.N,Motor+*%
%TO.C,J5*%
X103910000Y-106600000D03*
D14*
%TO.N,Motor-*%
X106450000Y-106600000D03*
%TD*%
D13*
%TO.N,+3V3*%
%TO.C,J4*%
X139570000Y-41650000D03*
%TO.N,GND*%
X137030000Y-41650000D03*
%TO.N,DISPLAY_SCL*%
X134490000Y-41650000D03*
D14*
%TO.N,DISPLAY_SDA*%
X131950000Y-41650000D03*
%TD*%
D13*
%TO.N,Net-(J3-Pad8)*%
%TO.C,J3*%
X139540000Y-53620000D03*
%TO.N,NRF_MISO*%
X137000000Y-53620000D03*
%TO.N,NRF_MOSI*%
X139540000Y-51080000D03*
%TO.N,NRF_SCK*%
X137000000Y-51080000D03*
%TO.N,NRF_CSN*%
X139540000Y-48540000D03*
%TO.N,NRF_CE*%
X137000000Y-48540000D03*
%TO.N,+3V3*%
X139540000Y-46000000D03*
D14*
%TO.N,GND*%
X137000000Y-46000000D03*
%TD*%
D15*
%TO.N,+5V*%
%TO.C,D2*%
X105300000Y-138190000D03*
D16*
%TO.N,Net-(D2-Pad1)*%
X105300000Y-135650000D03*
%TD*%
D17*
%TO.N,GND*%
X110500000Y-64050000D03*
%TO.N,-BATT*%
X109900000Y-113700000D03*
%TO.N,+3V3*%
X126600000Y-62400000D03*
X125500000Y-61800000D03*
%TO.N,GND*%
X105600000Y-133200000D03*
%TO.N,+5V*%
X105650000Y-127450000D03*
X104100000Y-140850000D03*
X107100000Y-140850000D03*
%TO.N,+3V3*%
X107200000Y-67550000D03*
%TO.N,GND*%
X109800000Y-67100000D03*
X102600000Y-140650000D03*
X108600000Y-140650000D03*
X105250000Y-101950000D03*
X105800000Y-74900000D03*
X106650000Y-74900000D03*
%TO.N,+3V3*%
X110850000Y-81550000D03*
X110850000Y-80650000D03*
X110850000Y-79750000D03*
X102800000Y-103500000D03*
X100900000Y-75100000D03*
X109250000Y-76850000D03*
X104700000Y-94100000D03*
X106250000Y-94100000D03*
X102900000Y-99100000D03*
X108500000Y-103950000D03*
X112300000Y-59750000D03*
X114250000Y-58600000D03*
X128950000Y-67520000D03*
X115700000Y-75410000D03*
X121990000Y-75390000D03*
X97400000Y-58070000D03*
X121710000Y-48770000D03*
%TO.N,GND*%
X110900000Y-82950000D03*
X110900000Y-83850000D03*
X110900000Y-84750000D03*
X101050000Y-76850000D03*
X108500000Y-99850000D03*
X108500000Y-102800000D03*
X103150000Y-110350000D03*
X104300000Y-113650000D03*
X101350000Y-128300000D03*
X110750000Y-124750000D03*
X100800000Y-122200000D03*
X108450000Y-60250000D03*
X111150000Y-59750000D03*
X115400000Y-58600000D03*
X127150000Y-65750000D03*
X121500000Y-52100000D03*
X114540000Y-75400000D03*
X120840000Y-75410000D03*
X97370000Y-63170000D03*
X97400000Y-60650000D03*
X97400000Y-59360000D03*
X121740000Y-40940000D03*
X117660000Y-64840000D03*
%TO.N,BTN_POWER_SELECT*%
X114000000Y-66750000D03*
X120550000Y-66400000D03*
%TO.N,-BATT*%
X109900000Y-116800000D03*
X112100000Y-144950000D03*
%TO.N,+5V*%
X100950000Y-124300000D03*
%TO.N,NRST*%
X110860000Y-67000000D03*
X105610000Y-63180000D03*
%TO.N,Net-(D2-Pad1)*%
X108850000Y-132850000D03*
%TO.N,SWDIO*%
X118413329Y-65673325D03*
X110130000Y-59840000D03*
X109470000Y-58200000D03*
X105550000Y-58190000D03*
%TO.N,SWCLK*%
X121960000Y-59660000D03*
X105540000Y-59380000D03*
%TO.N,SWO*%
X119497653Y-58707653D03*
X107920000Y-57470000D03*
%TO.N,NRF_CE*%
X115732795Y-64025000D03*
X134250000Y-52390000D03*
%TO.N,NRF_CSN*%
X115000000Y-63300000D03*
%TO.N,NRF_SCK*%
X118750000Y-68899994D03*
%TO.N,NRF_MOSI*%
X118750000Y-70900000D03*
%TO.N,NRF_MISO*%
X118750000Y-69899997D03*
%TO.N,DISPLAY_SDA*%
X124000000Y-60370000D03*
X131940000Y-52420000D03*
%TO.N,DISPLAY_SCL*%
X123050000Y-59630000D03*
%TO.N,Net-(R1-Pad1)*%
X120010000Y-57170000D03*
X122170000Y-55000000D03*
%TO.N,USB_D+*%
X104650000Y-127450000D03*
X109545315Y-109445315D03*
X110048400Y-86600000D03*
X110048400Y-75350000D03*
%TO.N,HAPTIC_SDA*%
X103350000Y-97100000D03*
X121950000Y-67250000D03*
%TO.N,HAPTIC_SCL*%
X107600000Y-97100000D03*
X120150000Y-68050000D03*
%TO.N,USB_D-*%
X106650000Y-127450000D03*
X111051600Y-86600000D03*
X111051600Y-75350000D03*
X110254685Y-110154685D03*
%TD*%
D18*
%TO.N,+3V3*%
X121249744Y-40022795D02*
X121080226Y-40136063D01*
X120936063Y-40280226D01*
X120822795Y-40449744D01*
X120744774Y-40638102D01*
X120705000Y-40838061D01*
X120705000Y-41041939D01*
X120744774Y-41241898D01*
X120822795Y-41430256D01*
X120936063Y-41599774D01*
X121080226Y-41743937D01*
X121249744Y-41857205D01*
X121438102Y-41935226D01*
X121638061Y-41975000D01*
X121841939Y-41975000D01*
X122041898Y-41935226D01*
X122230256Y-41857205D01*
X122399774Y-41743937D01*
X122543937Y-41599774D01*
X122657205Y-41430256D01*
X122672580Y-41393137D01*
X123365000Y-41393137D01*
X123365000Y-41606863D01*
X123406696Y-41816483D01*
X123488485Y-42013940D01*
X123607225Y-42191647D01*
X123758353Y-42342775D01*
X123936060Y-42461515D01*
X124133517Y-42543304D01*
X124343137Y-42585000D01*
X124556863Y-42585000D01*
X124766483Y-42543304D01*
X124963940Y-42461515D01*
X125141647Y-42342775D01*
X125292775Y-42191647D01*
X125411515Y-42013940D01*
X125493304Y-41816483D01*
X125535000Y-41606863D01*
X125535000Y-41393137D01*
X125493304Y-41183517D01*
X125411515Y-40986060D01*
X125292775Y-40808353D01*
X125284422Y-40800000D01*
X130461928Y-40800000D01*
X130461928Y-42500000D01*
X130474188Y-42624482D01*
X130510498Y-42744180D01*
X130569463Y-42854494D01*
X130648815Y-42951185D01*
X130745506Y-43030537D01*
X130855820Y-43089502D01*
X130975518Y-43125812D01*
X131100000Y-43138072D01*
X132800000Y-43138072D01*
X132924482Y-43125812D01*
X133044180Y-43089502D01*
X133154494Y-43030537D01*
X133251185Y-42951185D01*
X133330537Y-42854494D01*
X133389502Y-42744180D01*
X133411513Y-42671620D01*
X133543368Y-42803475D01*
X133786589Y-42965990D01*
X134056842Y-43077932D01*
X134343740Y-43135000D01*
X134636260Y-43135000D01*
X134923158Y-43077932D01*
X135193411Y-42965990D01*
X135436632Y-42803475D01*
X135643475Y-42596632D01*
X135760000Y-42422240D01*
X135876525Y-42596632D01*
X136083368Y-42803475D01*
X136326589Y-42965990D01*
X136596842Y-43077932D01*
X136883740Y-43135000D01*
X137176260Y-43135000D01*
X137463158Y-43077932D01*
X137733411Y-42965990D01*
X137976632Y-42803475D01*
X138183475Y-42596632D01*
X138305195Y-42414466D01*
X138374822Y-42531355D01*
X138569731Y-42747588D01*
X138803080Y-42921641D01*
X139065901Y-43046825D01*
X139213110Y-43091476D01*
X139443000Y-42970155D01*
X139443000Y-41777000D01*
X139697000Y-41777000D01*
X139697000Y-42970155D01*
X139926890Y-43091476D01*
X140074099Y-43046825D01*
X140336920Y-42921641D01*
X140570269Y-42747588D01*
X140765178Y-42531355D01*
X140914157Y-42281252D01*
X141011481Y-42006891D01*
X140890814Y-41777000D01*
X139697000Y-41777000D01*
X139443000Y-41777000D01*
X139423000Y-41777000D01*
X139423000Y-41523000D01*
X139443000Y-41523000D01*
X139443000Y-40329845D01*
X139697000Y-40329845D01*
X139697000Y-41523000D01*
X140890814Y-41523000D01*
X141011481Y-41293109D01*
X140914157Y-41018748D01*
X140765178Y-40768645D01*
X140570269Y-40552412D01*
X140336920Y-40378359D01*
X140074099Y-40253175D01*
X139926890Y-40208524D01*
X139697000Y-40329845D01*
X139443000Y-40329845D01*
X139213110Y-40208524D01*
X139065901Y-40253175D01*
X138803080Y-40378359D01*
X138569731Y-40552412D01*
X138374822Y-40768645D01*
X138305195Y-40885534D01*
X138183475Y-40703368D01*
X137976632Y-40496525D01*
X137733411Y-40334010D01*
X137463158Y-40222068D01*
X137176260Y-40165000D01*
X136883740Y-40165000D01*
X136596842Y-40222068D01*
X136326589Y-40334010D01*
X136083368Y-40496525D01*
X135876525Y-40703368D01*
X135760000Y-40877760D01*
X135643475Y-40703368D01*
X135436632Y-40496525D01*
X135193411Y-40334010D01*
X134923158Y-40222068D01*
X134636260Y-40165000D01*
X134343740Y-40165000D01*
X134056842Y-40222068D01*
X133786589Y-40334010D01*
X133543368Y-40496525D01*
X133411513Y-40628380D01*
X133389502Y-40555820D01*
X133330537Y-40445506D01*
X133251185Y-40348815D01*
X133154494Y-40269463D01*
X133044180Y-40210498D01*
X132924482Y-40174188D01*
X132800000Y-40161928D01*
X131100000Y-40161928D01*
X130975518Y-40174188D01*
X130855820Y-40210498D01*
X130745506Y-40269463D01*
X130648815Y-40348815D01*
X130569463Y-40445506D01*
X130510498Y-40555820D01*
X130474188Y-40675518D01*
X130461928Y-40800000D01*
X125284422Y-40800000D01*
X125141647Y-40657225D01*
X124963940Y-40538485D01*
X124766483Y-40456696D01*
X124556863Y-40415000D01*
X124343137Y-40415000D01*
X124133517Y-40456696D01*
X123936060Y-40538485D01*
X123758353Y-40657225D01*
X123607225Y-40808353D01*
X123488485Y-40986060D01*
X123406696Y-41183517D01*
X123365000Y-41393137D01*
X122672580Y-41393137D01*
X122735226Y-41241898D01*
X122775000Y-41041939D01*
X122775000Y-40838061D01*
X122735226Y-40638102D01*
X122657205Y-40449744D01*
X122543937Y-40280226D01*
X122399774Y-40136063D01*
X122230256Y-40022795D01*
X122199366Y-40010000D01*
X141340001Y-40010000D01*
X141340000Y-58340000D01*
X133616802Y-58340000D01*
X133585779Y-58336813D01*
X133551970Y-58340000D01*
X133550581Y-58340000D01*
X133519614Y-58343050D01*
X133456344Y-58349014D01*
X133455009Y-58349413D01*
X133453617Y-58349550D01*
X133392688Y-58368033D01*
X133331776Y-58386232D01*
X133330542Y-58386885D01*
X133329207Y-58387290D01*
X133273065Y-58417298D01*
X133216863Y-58447037D01*
X133215782Y-58447916D01*
X133214550Y-58448575D01*
X133165358Y-58488946D01*
X133116021Y-58529091D01*
X133115130Y-58530167D01*
X133114052Y-58531052D01*
X133073704Y-58580216D01*
X133053895Y-58604148D01*
X133053120Y-58605298D01*
X133031575Y-58631550D01*
X133016873Y-58659057D01*
X129470121Y-63919298D01*
X129448576Y-63945550D01*
X129418598Y-64001635D01*
X129388359Y-64057643D01*
X129387948Y-64058978D01*
X129387291Y-64060207D01*
X129368819Y-64121100D01*
X129350099Y-64181894D01*
X129349957Y-64183280D01*
X129349551Y-64184617D01*
X129343322Y-64247861D01*
X129336813Y-64311221D01*
X129340001Y-64345038D01*
X129340001Y-70178463D01*
X129091335Y-70129000D01*
X128808665Y-70129000D01*
X128531426Y-70184147D01*
X128270273Y-70292320D01*
X128035241Y-70449363D01*
X127835363Y-70649241D01*
X127678320Y-70884273D01*
X127570147Y-71145426D01*
X127515000Y-71422665D01*
X127515000Y-71705335D01*
X127570147Y-71982574D01*
X127678320Y-72243727D01*
X127835363Y-72478759D01*
X128035241Y-72678637D01*
X128270273Y-72835680D01*
X128531426Y-72943853D01*
X128808665Y-72999000D01*
X129091335Y-72999000D01*
X129340001Y-72949537D01*
X129340001Y-74678463D01*
X129091335Y-74629000D01*
X128808665Y-74629000D01*
X128531426Y-74684147D01*
X128270273Y-74792320D01*
X128035241Y-74949363D01*
X127835363Y-75149241D01*
X127678320Y-75384273D01*
X127570147Y-75645426D01*
X127515000Y-75922665D01*
X127515000Y-76205335D01*
X127570147Y-76482574D01*
X127678320Y-76743727D01*
X127835363Y-76978759D01*
X128035241Y-77178637D01*
X128270273Y-77335680D01*
X128531426Y-77443853D01*
X128808665Y-77499000D01*
X129091335Y-77499000D01*
X129340001Y-77449537D01*
X129340000Y-143845619D01*
X129075401Y-144020081D01*
X129040104Y-144048308D01*
X129003538Y-144074874D01*
X128990698Y-144086436D01*
X128359070Y-144670306D01*
X128324423Y-144708785D01*
X128288769Y-144746356D01*
X128278251Y-144760064D01*
X127763602Y-145449263D01*
X127736558Y-145493395D01*
X127708337Y-145536851D01*
X127700493Y-145552247D01*
X127320059Y-146323693D01*
X127301503Y-146372034D01*
X127281682Y-146419885D01*
X127276775Y-146436452D01*
X127043295Y-147264307D01*
X127033857Y-147315229D01*
X127023090Y-147365884D01*
X127021284Y-147383067D01*
X126942579Y-148239609D01*
X126942579Y-148241406D01*
X126940001Y-148267581D01*
X126940000Y-149340000D01*
X111008233Y-149340000D01*
X111112929Y-149144127D01*
X111186407Y-148901904D01*
X111205000Y-148713123D01*
X111205000Y-147286877D01*
X111186407Y-147098096D01*
X111112929Y-146855873D01*
X110993608Y-146632638D01*
X110833028Y-146436972D01*
X110637361Y-146276392D01*
X110414126Y-146157071D01*
X110171903Y-146083593D01*
X109920000Y-146058783D01*
X109668096Y-146083593D01*
X109425873Y-146157071D01*
X109202638Y-146276392D01*
X109006972Y-146436972D01*
X108846392Y-146632639D01*
X108727071Y-146855874D01*
X108653593Y-147098097D01*
X108635000Y-147286878D01*
X108635000Y-148713123D01*
X108653593Y-148901904D01*
X108727071Y-149144127D01*
X108831768Y-149340000D01*
X102368233Y-149340000D01*
X102472929Y-149144127D01*
X102546407Y-148901904D01*
X102565000Y-148713123D01*
X102565000Y-147286877D01*
X102546407Y-147098096D01*
X102472929Y-146855873D01*
X102353608Y-146632638D01*
X102193028Y-146436972D01*
X101997361Y-146276392D01*
X101774126Y-146157071D01*
X101531903Y-146083593D01*
X101280000Y-146058783D01*
X101028096Y-146083593D01*
X100785873Y-146157071D01*
X100660000Y-146224351D01*
X100660000Y-144848061D01*
X111065000Y-144848061D01*
X111065000Y-145051939D01*
X111104774Y-145251898D01*
X111182795Y-145440256D01*
X111296063Y-145609774D01*
X111440226Y-145753937D01*
X111609744Y-145867205D01*
X111798102Y-145945226D01*
X111998061Y-145985000D01*
X112201939Y-145985000D01*
X112401898Y-145945226D01*
X112590256Y-145867205D01*
X112759774Y-145753937D01*
X112903937Y-145609774D01*
X113017205Y-145440256D01*
X113095226Y-145251898D01*
X113135000Y-145051939D01*
X113135000Y-144848061D01*
X113095226Y-144648102D01*
X113017205Y-144459744D01*
X112903937Y-144290226D01*
X112759774Y-144146063D01*
X112590256Y-144032795D01*
X112401898Y-143954774D01*
X112201939Y-143915000D01*
X111998061Y-143915000D01*
X111798102Y-143954774D01*
X111609744Y-144032795D01*
X111440226Y-144146063D01*
X111296063Y-144290226D01*
X111182795Y-144459744D01*
X111104774Y-144648102D01*
X111065000Y-144848061D01*
X100660000Y-144848061D01*
X100660000Y-144202259D01*
X100824327Y-144290094D01*
X101047701Y-144357853D01*
X101280000Y-144380733D01*
X101512300Y-144357853D01*
X101735674Y-144290094D01*
X101941536Y-144180058D01*
X102121975Y-144031975D01*
X102270058Y-143851536D01*
X102380094Y-143645674D01*
X102447853Y-143422300D01*
X102465000Y-143248207D01*
X102465000Y-142031793D01*
X102447853Y-141857700D01*
X102388878Y-141663282D01*
X102498061Y-141685000D01*
X102701939Y-141685000D01*
X102901898Y-141645226D01*
X103090256Y-141567205D01*
X103259069Y-141454408D01*
X103296063Y-141509774D01*
X103440226Y-141653937D01*
X103609744Y-141767205D01*
X103798102Y-141845226D01*
X103998061Y-141885000D01*
X104201939Y-141885000D01*
X104401898Y-141845226D01*
X104590256Y-141767205D01*
X104759774Y-141653937D01*
X104903937Y-141509774D01*
X105017205Y-141340256D01*
X105095226Y-141151898D01*
X105135000Y-140951939D01*
X105135000Y-140748061D01*
X106065000Y-140748061D01*
X106065000Y-140951939D01*
X106104774Y-141151898D01*
X106182795Y-141340256D01*
X106296063Y-141509774D01*
X106440226Y-141653937D01*
X106609744Y-141767205D01*
X106798102Y-141845226D01*
X106998061Y-141885000D01*
X107201939Y-141885000D01*
X107401898Y-141845226D01*
X107590256Y-141767205D01*
X107759774Y-141653937D01*
X107903937Y-141509774D01*
X107940931Y-141454408D01*
X108109744Y-141567205D01*
X108298102Y-141645226D01*
X108498061Y-141685000D01*
X108701939Y-141685000D01*
X108811123Y-141663282D01*
X108752147Y-141857701D01*
X108735000Y-142031794D01*
X108735000Y-143248207D01*
X108752147Y-143422300D01*
X108819906Y-143645674D01*
X108929943Y-143851536D01*
X109078026Y-144031975D01*
X109258465Y-144180058D01*
X109464327Y-144290094D01*
X109687701Y-144357853D01*
X109920000Y-144380733D01*
X110152300Y-144357853D01*
X110375674Y-144290094D01*
X110581536Y-144180058D01*
X110761975Y-144031975D01*
X110910058Y-143851536D01*
X111020094Y-143645674D01*
X111087853Y-143422300D01*
X111105000Y-143248207D01*
X111105000Y-142031793D01*
X111087853Y-141857700D01*
X111020094Y-141634326D01*
X110910058Y-141428464D01*
X110761975Y-141248025D01*
X110581535Y-141099942D01*
X110375673Y-140989906D01*
X110152299Y-140922147D01*
X109920000Y-140899267D01*
X109687700Y-140922147D01*
X109595586Y-140950089D01*
X109635000Y-140751939D01*
X109635000Y-140548061D01*
X109595226Y-140348102D01*
X109517205Y-140159744D01*
X109403937Y-139990226D01*
X109259774Y-139846063D01*
X109090256Y-139732795D01*
X108901898Y-139654774D01*
X108701939Y-139615000D01*
X108498061Y-139615000D01*
X108298102Y-139654774D01*
X108109744Y-139732795D01*
X107940226Y-139846063D01*
X107796063Y-139990226D01*
X107759069Y-140045592D01*
X107590256Y-139932795D01*
X107401898Y-139854774D01*
X107201939Y-139815000D01*
X106998061Y-139815000D01*
X106798102Y-139854774D01*
X106609744Y-139932795D01*
X106440226Y-140046063D01*
X106296063Y-140190226D01*
X106182795Y-140359744D01*
X106104774Y-140548102D01*
X106065000Y-140748061D01*
X105135000Y-140748061D01*
X105095226Y-140548102D01*
X105017205Y-140359744D01*
X104903937Y-140190226D01*
X104759774Y-140046063D01*
X104590256Y-139932795D01*
X104401898Y-139854774D01*
X104201939Y-139815000D01*
X103998061Y-139815000D01*
X103798102Y-139854774D01*
X103609744Y-139932795D01*
X103440931Y-140045592D01*
X103403937Y-139990226D01*
X103259774Y-139846063D01*
X103090256Y-139732795D01*
X102901898Y-139654774D01*
X102701939Y-139615000D01*
X102498061Y-139615000D01*
X102298102Y-139654774D01*
X102109744Y-139732795D01*
X101940226Y-139846063D01*
X101796063Y-139990226D01*
X101682795Y-140159744D01*
X101604774Y-140348102D01*
X101565000Y-140548061D01*
X101565000Y-140751939D01*
X101604414Y-140950090D01*
X101512299Y-140922147D01*
X101280000Y-140899267D01*
X101047700Y-140922147D01*
X100824326Y-140989906D01*
X100660000Y-141077740D01*
X100660000Y-134750000D01*
X103761928Y-134750000D01*
X103761928Y-136550000D01*
X103774188Y-136674482D01*
X103810498Y-136794180D01*
X103869463Y-136904494D01*
X103948815Y-137001185D01*
X104045506Y-137080537D01*
X104155820Y-137139502D01*
X104174127Y-137145056D01*
X104107688Y-137211495D01*
X103939701Y-137462905D01*
X103823989Y-137742257D01*
X103765000Y-138038816D01*
X103765000Y-138341184D01*
X103823989Y-138637743D01*
X103939701Y-138917095D01*
X104107688Y-139168505D01*
X104321495Y-139382312D01*
X104572905Y-139550299D01*
X104852257Y-139666011D01*
X105148816Y-139725000D01*
X105451184Y-139725000D01*
X105747743Y-139666011D01*
X106027095Y-139550299D01*
X106278505Y-139382312D01*
X106492312Y-139168505D01*
X106660299Y-138917095D01*
X106776011Y-138637743D01*
X106835000Y-138341184D01*
X106835000Y-138038816D01*
X106776011Y-137742257D01*
X106660299Y-137462905D01*
X106492312Y-137211495D01*
X106425873Y-137145056D01*
X106444180Y-137139502D01*
X106554494Y-137080537D01*
X106651185Y-137001185D01*
X106730537Y-136904494D01*
X106789502Y-136794180D01*
X106825812Y-136674482D01*
X106838072Y-136550000D01*
X106838072Y-134750000D01*
X106825812Y-134625518D01*
X106789502Y-134505820D01*
X106730537Y-134395506D01*
X106651185Y-134298815D01*
X106554494Y-134219463D01*
X106444180Y-134160498D01*
X106324482Y-134124188D01*
X106200000Y-134111928D01*
X106098154Y-134111928D01*
X106259774Y-134003937D01*
X106403937Y-133859774D01*
X106517205Y-133690256D01*
X106595226Y-133501898D01*
X106635000Y-133301939D01*
X106635000Y-133098061D01*
X106595226Y-132898102D01*
X106533077Y-132748061D01*
X107815000Y-132748061D01*
X107815000Y-132951939D01*
X107854774Y-133151898D01*
X107932795Y-133340256D01*
X108046063Y-133509774D01*
X108190226Y-133653937D01*
X108359744Y-133767205D01*
X108548102Y-133845226D01*
X108748061Y-133885000D01*
X108951939Y-133885000D01*
X109151898Y-133845226D01*
X109340256Y-133767205D01*
X109509774Y-133653937D01*
X109653937Y-133509774D01*
X109767205Y-133340256D01*
X109845226Y-133151898D01*
X109885000Y-132951939D01*
X109885000Y-132748061D01*
X109845226Y-132548102D01*
X109767205Y-132359744D01*
X109653937Y-132190226D01*
X109509774Y-132046063D01*
X109340256Y-131932795D01*
X109151898Y-131854774D01*
X108951939Y-131815000D01*
X108748061Y-131815000D01*
X108548102Y-131854774D01*
X108359744Y-131932795D01*
X108190226Y-132046063D01*
X108046063Y-132190226D01*
X107932795Y-132359744D01*
X107854774Y-132548102D01*
X107815000Y-132748061D01*
X106533077Y-132748061D01*
X106517205Y-132709744D01*
X106403937Y-132540226D01*
X106259774Y-132396063D01*
X106090256Y-132282795D01*
X105901898Y-132204774D01*
X105701939Y-132165000D01*
X105498061Y-132165000D01*
X105298102Y-132204774D01*
X105109744Y-132282795D01*
X104940226Y-132396063D01*
X104796063Y-132540226D01*
X104682795Y-132709744D01*
X104604774Y-132898102D01*
X104565000Y-133098061D01*
X104565000Y-133301939D01*
X104604774Y-133501898D01*
X104682795Y-133690256D01*
X104796063Y-133859774D01*
X104940226Y-134003937D01*
X105101846Y-134111928D01*
X104400000Y-134111928D01*
X104275518Y-134124188D01*
X104155820Y-134160498D01*
X104045506Y-134219463D01*
X103948815Y-134298815D01*
X103869463Y-134395506D01*
X103810498Y-134505820D01*
X103774188Y-134625518D01*
X103761928Y-134750000D01*
X100660000Y-134750000D01*
X100660000Y-129073711D01*
X100690226Y-129103937D01*
X100859744Y-129217205D01*
X101048102Y-129295226D01*
X101248061Y-129335000D01*
X101451939Y-129335000D01*
X101651898Y-129295226D01*
X101840256Y-129217205D01*
X102009774Y-129103937D01*
X102153937Y-128959774D01*
X102267205Y-128790256D01*
X102345226Y-128601898D01*
X102385000Y-128401939D01*
X102385000Y-128198061D01*
X102345226Y-127998102D01*
X102267205Y-127809744D01*
X102153937Y-127640226D01*
X102009774Y-127496063D01*
X101840256Y-127382795D01*
X101756402Y-127348061D01*
X103615000Y-127348061D01*
X103615000Y-127551939D01*
X103654774Y-127751898D01*
X103732795Y-127940256D01*
X103846063Y-128109774D01*
X103990226Y-128253937D01*
X104159744Y-128367205D01*
X104348102Y-128445226D01*
X104548061Y-128485000D01*
X104751939Y-128485000D01*
X104951898Y-128445226D01*
X105140256Y-128367205D01*
X105150000Y-128360694D01*
X105159744Y-128367205D01*
X105348102Y-128445226D01*
X105548061Y-128485000D01*
X105751939Y-128485000D01*
X105951898Y-128445226D01*
X106140256Y-128367205D01*
X106150000Y-128360694D01*
X106159744Y-128367205D01*
X106348102Y-128445226D01*
X106548061Y-128485000D01*
X106751939Y-128485000D01*
X106951898Y-128445226D01*
X107140256Y-128367205D01*
X107309774Y-128253937D01*
X107453937Y-128109774D01*
X107567205Y-127940256D01*
X107645226Y-127751898D01*
X107685000Y-127551939D01*
X107685000Y-127348061D01*
X107645226Y-127148102D01*
X107567205Y-126959744D01*
X107453937Y-126790226D01*
X107309774Y-126646063D01*
X107140256Y-126532795D01*
X106951898Y-126454774D01*
X106751939Y-126415000D01*
X106548061Y-126415000D01*
X106348102Y-126454774D01*
X106159744Y-126532795D01*
X106150000Y-126539306D01*
X106140256Y-126532795D01*
X105951898Y-126454774D01*
X105751939Y-126415000D01*
X105548061Y-126415000D01*
X105348102Y-126454774D01*
X105159744Y-126532795D01*
X105150000Y-126539306D01*
X105140256Y-126532795D01*
X104951898Y-126454774D01*
X104751939Y-126415000D01*
X104548061Y-126415000D01*
X104348102Y-126454774D01*
X104159744Y-126532795D01*
X103990226Y-126646063D01*
X103846063Y-126790226D01*
X103732795Y-126959744D01*
X103654774Y-127148102D01*
X103615000Y-127348061D01*
X101756402Y-127348061D01*
X101651898Y-127304774D01*
X101451939Y-127265000D01*
X101248061Y-127265000D01*
X101048102Y-127304774D01*
X100859744Y-127382795D01*
X100690226Y-127496063D01*
X100660000Y-127526289D01*
X100660000Y-125297593D01*
X100848061Y-125335000D01*
X101051939Y-125335000D01*
X101251898Y-125295226D01*
X101440256Y-125217205D01*
X101609774Y-125103937D01*
X101753937Y-124959774D01*
X101867205Y-124790256D01*
X101926104Y-124648061D01*
X109715000Y-124648061D01*
X109715000Y-124851939D01*
X109754774Y-125051898D01*
X109832795Y-125240256D01*
X109946063Y-125409774D01*
X110090226Y-125553937D01*
X110259744Y-125667205D01*
X110448102Y-125745226D01*
X110648061Y-125785000D01*
X110851939Y-125785000D01*
X111051898Y-125745226D01*
X111240256Y-125667205D01*
X111409774Y-125553937D01*
X111553937Y-125409774D01*
X111667205Y-125240256D01*
X111745226Y-125051898D01*
X111785000Y-124851939D01*
X111785000Y-124648061D01*
X111745226Y-124448102D01*
X111667205Y-124259744D01*
X111553937Y-124090226D01*
X111409774Y-123946063D01*
X111240256Y-123832795D01*
X111051898Y-123754774D01*
X110851939Y-123715000D01*
X110648061Y-123715000D01*
X110448102Y-123754774D01*
X110259744Y-123832795D01*
X110090226Y-123946063D01*
X109946063Y-124090226D01*
X109832795Y-124259744D01*
X109754774Y-124448102D01*
X109715000Y-124648061D01*
X101926104Y-124648061D01*
X101945226Y-124601898D01*
X101985000Y-124401939D01*
X101985000Y-124198061D01*
X101945226Y-123998102D01*
X101867205Y-123809744D01*
X101753937Y-123640226D01*
X101609774Y-123496063D01*
X101440256Y-123382795D01*
X101251898Y-123304774D01*
X101051939Y-123265000D01*
X100848061Y-123265000D01*
X100660000Y-123302407D01*
X100660000Y-123227429D01*
X100698061Y-123235000D01*
X100901939Y-123235000D01*
X101101898Y-123195226D01*
X101290256Y-123117205D01*
X101459774Y-123003937D01*
X101603937Y-122859774D01*
X101717205Y-122690256D01*
X101795226Y-122501898D01*
X101835000Y-122301939D01*
X101835000Y-122098061D01*
X101795226Y-121898102D01*
X101717205Y-121709744D01*
X101603937Y-121540226D01*
X101459774Y-121396063D01*
X101290256Y-121282795D01*
X101101898Y-121204774D01*
X100901939Y-121165000D01*
X100698061Y-121165000D01*
X100660000Y-121172571D01*
X100660000Y-116698061D01*
X108865000Y-116698061D01*
X108865000Y-116901939D01*
X108904774Y-117101898D01*
X108982795Y-117290256D01*
X109096063Y-117459774D01*
X109240226Y-117603937D01*
X109409744Y-117717205D01*
X109598102Y-117795226D01*
X109798061Y-117835000D01*
X110001939Y-117835000D01*
X110201898Y-117795226D01*
X110390256Y-117717205D01*
X110559774Y-117603937D01*
X110703937Y-117459774D01*
X110817205Y-117290256D01*
X110895226Y-117101898D01*
X110935000Y-116901939D01*
X110935000Y-116698061D01*
X110895226Y-116498102D01*
X110817205Y-116309744D01*
X110703937Y-116140226D01*
X110559774Y-115996063D01*
X110390256Y-115882795D01*
X110201898Y-115804774D01*
X110001939Y-115765000D01*
X109798061Y-115765000D01*
X109598102Y-115804774D01*
X109409744Y-115882795D01*
X109240226Y-115996063D01*
X109096063Y-116140226D01*
X108982795Y-116309744D01*
X108904774Y-116498102D01*
X108865000Y-116698061D01*
X100660000Y-116698061D01*
X100660000Y-113548061D01*
X103265000Y-113548061D01*
X103265000Y-113751939D01*
X103304774Y-113951898D01*
X103382795Y-114140256D01*
X103496063Y-114309774D01*
X103640226Y-114453937D01*
X103809744Y-114567205D01*
X103998102Y-114645226D01*
X104198061Y-114685000D01*
X104401939Y-114685000D01*
X104601898Y-114645226D01*
X104790256Y-114567205D01*
X104959774Y-114453937D01*
X105103937Y-114309774D01*
X105217205Y-114140256D01*
X105295226Y-113951898D01*
X105335000Y-113751939D01*
X105335000Y-113598061D01*
X108865000Y-113598061D01*
X108865000Y-113801939D01*
X108904774Y-114001898D01*
X108982795Y-114190256D01*
X109096063Y-114359774D01*
X109240226Y-114503937D01*
X109409744Y-114617205D01*
X109598102Y-114695226D01*
X109798061Y-114735000D01*
X110001939Y-114735000D01*
X110201898Y-114695226D01*
X110390256Y-114617205D01*
X110559774Y-114503937D01*
X110703937Y-114359774D01*
X110817205Y-114190256D01*
X110895226Y-114001898D01*
X110935000Y-113801939D01*
X110935000Y-113598061D01*
X110895226Y-113398102D01*
X110817205Y-113209744D01*
X110703937Y-113040226D01*
X110559774Y-112896063D01*
X110390256Y-112782795D01*
X110201898Y-112704774D01*
X110001939Y-112665000D01*
X109798061Y-112665000D01*
X109598102Y-112704774D01*
X109409744Y-112782795D01*
X109240226Y-112896063D01*
X109096063Y-113040226D01*
X108982795Y-113209744D01*
X108904774Y-113398102D01*
X108865000Y-113598061D01*
X105335000Y-113598061D01*
X105335000Y-113548061D01*
X105295226Y-113348102D01*
X105217205Y-113159744D01*
X105103937Y-112990226D01*
X104959774Y-112846063D01*
X104790256Y-112732795D01*
X104601898Y-112654774D01*
X104401939Y-112615000D01*
X104198061Y-112615000D01*
X103998102Y-112654774D01*
X103809744Y-112732795D01*
X103640226Y-112846063D01*
X103496063Y-112990226D01*
X103382795Y-113159744D01*
X103304774Y-113348102D01*
X103265000Y-113548061D01*
X100660000Y-113548061D01*
X100660000Y-110248061D01*
X102115000Y-110248061D01*
X102115000Y-110451939D01*
X102154774Y-110651898D01*
X102232795Y-110840256D01*
X102346063Y-111009774D01*
X102490226Y-111153937D01*
X102659744Y-111267205D01*
X102848102Y-111345226D01*
X103048061Y-111385000D01*
X103251939Y-111385000D01*
X103451898Y-111345226D01*
X103640256Y-111267205D01*
X103809774Y-111153937D01*
X103953937Y-111009774D01*
X104067205Y-110840256D01*
X104145226Y-110651898D01*
X104185000Y-110451939D01*
X104185000Y-110248061D01*
X104145226Y-110048102D01*
X104067205Y-109859744D01*
X103953937Y-109690226D01*
X103809774Y-109546063D01*
X103640256Y-109432795D01*
X103451898Y-109354774D01*
X103394596Y-109343376D01*
X108510315Y-109343376D01*
X108510315Y-109547254D01*
X108550089Y-109747213D01*
X108628110Y-109935571D01*
X108741378Y-110105089D01*
X108885541Y-110249252D01*
X109055059Y-110362520D01*
X109243417Y-110440541D01*
X109256797Y-110443203D01*
X109259459Y-110456583D01*
X109337480Y-110644941D01*
X109450748Y-110814459D01*
X109594911Y-110958622D01*
X109764429Y-111071890D01*
X109952787Y-111149911D01*
X110152746Y-111189685D01*
X110356624Y-111189685D01*
X110556583Y-111149911D01*
X110744941Y-111071890D01*
X110914459Y-110958622D01*
X111058622Y-110814459D01*
X111171890Y-110644941D01*
X111249911Y-110456583D01*
X111289685Y-110256624D01*
X111289685Y-110052746D01*
X111249911Y-109852787D01*
X111171890Y-109664429D01*
X111058622Y-109494911D01*
X110914459Y-109350748D01*
X110744941Y-109237480D01*
X110556583Y-109159459D01*
X110543203Y-109156797D01*
X110540541Y-109143417D01*
X110462520Y-108955059D01*
X110349252Y-108785541D01*
X110205089Y-108641378D01*
X110035571Y-108528110D01*
X109847213Y-108450089D01*
X109647254Y-108410315D01*
X109443376Y-108410315D01*
X109243417Y-108450089D01*
X109055059Y-108528110D01*
X108885541Y-108641378D01*
X108741378Y-108785541D01*
X108628110Y-108955059D01*
X108550089Y-109143417D01*
X108510315Y-109343376D01*
X103394596Y-109343376D01*
X103251939Y-109315000D01*
X103048061Y-109315000D01*
X102848102Y-109354774D01*
X102659744Y-109432795D01*
X102490226Y-109546063D01*
X102346063Y-109690226D01*
X102232795Y-109859744D01*
X102154774Y-110048102D01*
X102115000Y-110248061D01*
X100660000Y-110248061D01*
X100660000Y-106453740D01*
X102425000Y-106453740D01*
X102425000Y-106746260D01*
X102482068Y-107033158D01*
X102594010Y-107303411D01*
X102756525Y-107546632D01*
X102963368Y-107753475D01*
X103206589Y-107915990D01*
X103476842Y-108027932D01*
X103763740Y-108085000D01*
X104056260Y-108085000D01*
X104343158Y-108027932D01*
X104613411Y-107915990D01*
X104856632Y-107753475D01*
X104988487Y-107621620D01*
X105010498Y-107694180D01*
X105069463Y-107804494D01*
X105148815Y-107901185D01*
X105245506Y-107980537D01*
X105355820Y-108039502D01*
X105475518Y-108075812D01*
X105600000Y-108088072D01*
X107300000Y-108088072D01*
X107424482Y-108075812D01*
X107544180Y-108039502D01*
X107654494Y-107980537D01*
X107751185Y-107901185D01*
X107830537Y-107804494D01*
X107889502Y-107694180D01*
X107925812Y-107574482D01*
X107938072Y-107450000D01*
X107938072Y-105750000D01*
X107925812Y-105625518D01*
X107889502Y-105505820D01*
X107830537Y-105395506D01*
X107751185Y-105298815D01*
X107654494Y-105219463D01*
X107544180Y-105160498D01*
X107424482Y-105124188D01*
X107300000Y-105111928D01*
X105600000Y-105111928D01*
X105475518Y-105124188D01*
X105355820Y-105160498D01*
X105245506Y-105219463D01*
X105148815Y-105298815D01*
X105069463Y-105395506D01*
X105010498Y-105505820D01*
X104988487Y-105578380D01*
X104856632Y-105446525D01*
X104613411Y-105284010D01*
X104343158Y-105172068D01*
X104056260Y-105115000D01*
X103763740Y-105115000D01*
X103476842Y-105172068D01*
X103206589Y-105284010D01*
X102963368Y-105446525D01*
X102756525Y-105653368D01*
X102594010Y-105896589D01*
X102482068Y-106166842D01*
X102425000Y-106453740D01*
X100660000Y-106453740D01*
X100660000Y-101848061D01*
X104215000Y-101848061D01*
X104215000Y-102051939D01*
X104254774Y-102251898D01*
X104332795Y-102440256D01*
X104446063Y-102609774D01*
X104590226Y-102753937D01*
X104759744Y-102867205D01*
X104948102Y-102945226D01*
X105148061Y-102985000D01*
X105351939Y-102985000D01*
X105551898Y-102945226D01*
X105740256Y-102867205D01*
X105909774Y-102753937D01*
X105965650Y-102698061D01*
X107465000Y-102698061D01*
X107465000Y-102901939D01*
X107504774Y-103101898D01*
X107582795Y-103290256D01*
X107696063Y-103459774D01*
X107840226Y-103603937D01*
X108009744Y-103717205D01*
X108198102Y-103795226D01*
X108398061Y-103835000D01*
X108601939Y-103835000D01*
X108801898Y-103795226D01*
X108990256Y-103717205D01*
X109159774Y-103603937D01*
X109303937Y-103459774D01*
X109417205Y-103290256D01*
X109495226Y-103101898D01*
X109535000Y-102901939D01*
X109535000Y-102698061D01*
X109495226Y-102498102D01*
X109417205Y-102309744D01*
X109303937Y-102140226D01*
X109159774Y-101996063D01*
X108990256Y-101882795D01*
X108801898Y-101804774D01*
X108601939Y-101765000D01*
X108398061Y-101765000D01*
X108198102Y-101804774D01*
X108009744Y-101882795D01*
X107840226Y-101996063D01*
X107696063Y-102140226D01*
X107582795Y-102309744D01*
X107504774Y-102498102D01*
X107465000Y-102698061D01*
X105965650Y-102698061D01*
X106053937Y-102609774D01*
X106167205Y-102440256D01*
X106245226Y-102251898D01*
X106285000Y-102051939D01*
X106285000Y-101848061D01*
X106245226Y-101648102D01*
X106167205Y-101459744D01*
X106053937Y-101290226D01*
X105909774Y-101146063D01*
X105740256Y-101032795D01*
X105551898Y-100954774D01*
X105351939Y-100915000D01*
X105148061Y-100915000D01*
X104948102Y-100954774D01*
X104759744Y-101032795D01*
X104590226Y-101146063D01*
X104446063Y-101290226D01*
X104332795Y-101459744D01*
X104254774Y-101648102D01*
X104215000Y-101848061D01*
X100660000Y-101848061D01*
X100660000Y-99748061D01*
X107465000Y-99748061D01*
X107465000Y-99951939D01*
X107504774Y-100151898D01*
X107582795Y-100340256D01*
X107696063Y-100509774D01*
X107840226Y-100653937D01*
X108009744Y-100767205D01*
X108198102Y-100845226D01*
X108398061Y-100885000D01*
X108601939Y-100885000D01*
X108801898Y-100845226D01*
X108990256Y-100767205D01*
X109159774Y-100653937D01*
X109303937Y-100509774D01*
X109417205Y-100340256D01*
X109495226Y-100151898D01*
X109535000Y-99951939D01*
X109535000Y-99748061D01*
X109495226Y-99548102D01*
X109417205Y-99359744D01*
X109303937Y-99190226D01*
X109159774Y-99046063D01*
X108990256Y-98932795D01*
X108801898Y-98854774D01*
X108601939Y-98815000D01*
X108398061Y-98815000D01*
X108198102Y-98854774D01*
X108009744Y-98932795D01*
X107840226Y-99046063D01*
X107696063Y-99190226D01*
X107582795Y-99359744D01*
X107504774Y-99548102D01*
X107465000Y-99748061D01*
X100660000Y-99748061D01*
X100660000Y-96998061D01*
X102315000Y-96998061D01*
X102315000Y-97201939D01*
X102354774Y-97401898D01*
X102432795Y-97590256D01*
X102546063Y-97759774D01*
X102690226Y-97903937D01*
X102859744Y-98017205D01*
X103048102Y-98095226D01*
X103248061Y-98135000D01*
X103451939Y-98135000D01*
X103651898Y-98095226D01*
X103840256Y-98017205D01*
X104009774Y-97903937D01*
X104153937Y-97759774D01*
X104267205Y-97590256D01*
X104345226Y-97401898D01*
X104385000Y-97201939D01*
X104385000Y-96998061D01*
X106565000Y-96998061D01*
X106565000Y-97201939D01*
X106604774Y-97401898D01*
X106682795Y-97590256D01*
X106796063Y-97759774D01*
X106940226Y-97903937D01*
X107109744Y-98017205D01*
X107298102Y-98095226D01*
X107498061Y-98135000D01*
X107701939Y-98135000D01*
X107901898Y-98095226D01*
X108090256Y-98017205D01*
X108259774Y-97903937D01*
X108403937Y-97759774D01*
X108517205Y-97590256D01*
X108595226Y-97401898D01*
X108635000Y-97201939D01*
X108635000Y-96998061D01*
X108595226Y-96798102D01*
X108517205Y-96609744D01*
X108403937Y-96440226D01*
X108259774Y-96296063D01*
X108090256Y-96182795D01*
X107901898Y-96104774D01*
X107701939Y-96065000D01*
X107498061Y-96065000D01*
X107298102Y-96104774D01*
X107109744Y-96182795D01*
X106940226Y-96296063D01*
X106796063Y-96440226D01*
X106682795Y-96609744D01*
X106604774Y-96798102D01*
X106565000Y-96998061D01*
X104385000Y-96998061D01*
X104345226Y-96798102D01*
X104267205Y-96609744D01*
X104153937Y-96440226D01*
X104009774Y-96296063D01*
X103840256Y-96182795D01*
X103651898Y-96104774D01*
X103451939Y-96065000D01*
X103248061Y-96065000D01*
X103048102Y-96104774D01*
X102859744Y-96182795D01*
X102690226Y-96296063D01*
X102546063Y-96440226D01*
X102432795Y-96609744D01*
X102354774Y-96798102D01*
X102315000Y-96998061D01*
X100660000Y-96998061D01*
X100660000Y-86498061D01*
X109013400Y-86498061D01*
X109013400Y-86701939D01*
X109053174Y-86901898D01*
X109131195Y-87090256D01*
X109244463Y-87259774D01*
X109388626Y-87403937D01*
X109558144Y-87517205D01*
X109746502Y-87595226D01*
X109946461Y-87635000D01*
X110150339Y-87635000D01*
X110350298Y-87595226D01*
X110538656Y-87517205D01*
X110550000Y-87509625D01*
X110561344Y-87517205D01*
X110749702Y-87595226D01*
X110949661Y-87635000D01*
X111153539Y-87635000D01*
X111353498Y-87595226D01*
X111541856Y-87517205D01*
X111711374Y-87403937D01*
X111855537Y-87259774D01*
X111968805Y-87090256D01*
X112046826Y-86901898D01*
X112086600Y-86701939D01*
X112086600Y-86498061D01*
X112046826Y-86298102D01*
X111968805Y-86109744D01*
X111855537Y-85940226D01*
X111711374Y-85796063D01*
X111541856Y-85682795D01*
X111433868Y-85638065D01*
X111559774Y-85553937D01*
X111703937Y-85409774D01*
X111817205Y-85240256D01*
X111895226Y-85051898D01*
X111935000Y-84851939D01*
X111935000Y-84648061D01*
X111895226Y-84448102D01*
X111833880Y-84300000D01*
X111895226Y-84151898D01*
X111935000Y-83951939D01*
X111935000Y-83748061D01*
X111895226Y-83548102D01*
X111833880Y-83400000D01*
X111895226Y-83251898D01*
X111935000Y-83051939D01*
X111935000Y-82848061D01*
X111895226Y-82648102D01*
X111817205Y-82459744D01*
X111703937Y-82290226D01*
X111559774Y-82146063D01*
X111390256Y-82032795D01*
X111201898Y-81954774D01*
X111001939Y-81915000D01*
X110798061Y-81915000D01*
X110598102Y-81954774D01*
X110409744Y-82032795D01*
X110240226Y-82146063D01*
X110096063Y-82290226D01*
X109982795Y-82459744D01*
X109904774Y-82648102D01*
X109865000Y-82848061D01*
X109865000Y-83051939D01*
X109904774Y-83251898D01*
X109966120Y-83400000D01*
X109904774Y-83548102D01*
X109865000Y-83748061D01*
X109865000Y-83951939D01*
X109904774Y-84151898D01*
X109966120Y-84300000D01*
X109904774Y-84448102D01*
X109865000Y-84648061D01*
X109865000Y-84851939D01*
X109904774Y-85051898D01*
X109982795Y-85240256D01*
X110096063Y-85409774D01*
X110240226Y-85553937D01*
X110301902Y-85595148D01*
X110150339Y-85565000D01*
X109946461Y-85565000D01*
X109746502Y-85604774D01*
X109558144Y-85682795D01*
X109388626Y-85796063D01*
X109244463Y-85940226D01*
X109131195Y-86109744D01*
X109053174Y-86298102D01*
X109013400Y-86498061D01*
X100660000Y-86498061D01*
X100660000Y-77808733D01*
X100748102Y-77845226D01*
X100948061Y-77885000D01*
X101151939Y-77885000D01*
X101351898Y-77845226D01*
X101540256Y-77767205D01*
X101709774Y-77653937D01*
X101853937Y-77509774D01*
X101967205Y-77340256D01*
X102045226Y-77151898D01*
X102085000Y-76951939D01*
X102085000Y-76748061D01*
X102045226Y-76548102D01*
X101967205Y-76359744D01*
X101853937Y-76190226D01*
X101709774Y-76046063D01*
X101540256Y-75932795D01*
X101351898Y-75854774D01*
X101151939Y-75815000D01*
X100948061Y-75815000D01*
X100748102Y-75854774D01*
X100660000Y-75891267D01*
X100660000Y-74798061D01*
X104765000Y-74798061D01*
X104765000Y-75001939D01*
X104804774Y-75201898D01*
X104882795Y-75390256D01*
X104996063Y-75559774D01*
X105140226Y-75703937D01*
X105309744Y-75817205D01*
X105498102Y-75895226D01*
X105698061Y-75935000D01*
X105901939Y-75935000D01*
X106101898Y-75895226D01*
X106225000Y-75844235D01*
X106348102Y-75895226D01*
X106548061Y-75935000D01*
X106751939Y-75935000D01*
X106951898Y-75895226D01*
X107140256Y-75817205D01*
X107309774Y-75703937D01*
X107453937Y-75559774D01*
X107567205Y-75390256D01*
X107626104Y-75248061D01*
X109013400Y-75248061D01*
X109013400Y-75451939D01*
X109053174Y-75651898D01*
X109131195Y-75840256D01*
X109244463Y-76009774D01*
X109388626Y-76153937D01*
X109558144Y-76267205D01*
X109746502Y-76345226D01*
X109946461Y-76385000D01*
X110150339Y-76385000D01*
X110350298Y-76345226D01*
X110538656Y-76267205D01*
X110550000Y-76259625D01*
X110561344Y-76267205D01*
X110749702Y-76345226D01*
X110949661Y-76385000D01*
X111153539Y-76385000D01*
X111353498Y-76345226D01*
X111541856Y-76267205D01*
X111711374Y-76153937D01*
X111855537Y-76009774D01*
X111968805Y-75840256D01*
X112046826Y-75651898D01*
X112086600Y-75451939D01*
X112086600Y-75298061D01*
X113505000Y-75298061D01*
X113505000Y-75501939D01*
X113544774Y-75701898D01*
X113622795Y-75890256D01*
X113736063Y-76059774D01*
X113880226Y-76203937D01*
X114049744Y-76317205D01*
X114238102Y-76395226D01*
X114438061Y-76435000D01*
X114641939Y-76435000D01*
X114841898Y-76395226D01*
X115030256Y-76317205D01*
X115199774Y-76203937D01*
X115343937Y-76059774D01*
X115457205Y-75890256D01*
X115535226Y-75701898D01*
X115575000Y-75501939D01*
X115575000Y-75308061D01*
X119805000Y-75308061D01*
X119805000Y-75511939D01*
X119844774Y-75711898D01*
X119922795Y-75900256D01*
X120036063Y-76069774D01*
X120180226Y-76213937D01*
X120349744Y-76327205D01*
X120538102Y-76405226D01*
X120738061Y-76445000D01*
X120941939Y-76445000D01*
X121141898Y-76405226D01*
X121330256Y-76327205D01*
X121499774Y-76213937D01*
X121643937Y-76069774D01*
X121757205Y-75900256D01*
X121835226Y-75711898D01*
X121875000Y-75511939D01*
X121875000Y-75308061D01*
X121835226Y-75108102D01*
X121757205Y-74919744D01*
X121643937Y-74750226D01*
X121499774Y-74606063D01*
X121330256Y-74492795D01*
X121141898Y-74414774D01*
X120941939Y-74375000D01*
X120738061Y-74375000D01*
X120538102Y-74414774D01*
X120349744Y-74492795D01*
X120180226Y-74606063D01*
X120036063Y-74750226D01*
X119922795Y-74919744D01*
X119844774Y-75108102D01*
X119805000Y-75308061D01*
X115575000Y-75308061D01*
X115575000Y-75298061D01*
X115535226Y-75098102D01*
X115457205Y-74909744D01*
X115343937Y-74740226D01*
X115199774Y-74596063D01*
X115030256Y-74482795D01*
X114841898Y-74404774D01*
X114641939Y-74365000D01*
X114438061Y-74365000D01*
X114238102Y-74404774D01*
X114049744Y-74482795D01*
X113880226Y-74596063D01*
X113736063Y-74740226D01*
X113622795Y-74909744D01*
X113544774Y-75098102D01*
X113505000Y-75298061D01*
X112086600Y-75298061D01*
X112086600Y-75248061D01*
X112046826Y-75048102D01*
X111968805Y-74859744D01*
X111855537Y-74690226D01*
X111711374Y-74546063D01*
X111541856Y-74432795D01*
X111353498Y-74354774D01*
X111153539Y-74315000D01*
X110949661Y-74315000D01*
X110749702Y-74354774D01*
X110561344Y-74432795D01*
X110550000Y-74440375D01*
X110538656Y-74432795D01*
X110350298Y-74354774D01*
X110150339Y-74315000D01*
X109946461Y-74315000D01*
X109746502Y-74354774D01*
X109558144Y-74432795D01*
X109388626Y-74546063D01*
X109244463Y-74690226D01*
X109131195Y-74859744D01*
X109053174Y-75048102D01*
X109013400Y-75248061D01*
X107626104Y-75248061D01*
X107645226Y-75201898D01*
X107685000Y-75001939D01*
X107685000Y-74798061D01*
X107645226Y-74598102D01*
X107567205Y-74409744D01*
X107453937Y-74240226D01*
X107309774Y-74096063D01*
X107140256Y-73982795D01*
X106951898Y-73904774D01*
X106751939Y-73865000D01*
X106548061Y-73865000D01*
X106348102Y-73904774D01*
X106225000Y-73955765D01*
X106101898Y-73904774D01*
X105901939Y-73865000D01*
X105698061Y-73865000D01*
X105498102Y-73904774D01*
X105309744Y-73982795D01*
X105140226Y-74096063D01*
X104996063Y-74240226D01*
X104882795Y-74409744D01*
X104804774Y-74598102D01*
X104765000Y-74798061D01*
X100660000Y-74798061D01*
X100660000Y-71674000D01*
X101732419Y-71674000D01*
X101749622Y-71672306D01*
X102225825Y-71647349D01*
X102264305Y-71641769D01*
X102303054Y-71638720D01*
X102320044Y-71635571D01*
X103163632Y-71467771D01*
X103213268Y-71453068D01*
X103263309Y-71439660D01*
X103279440Y-71433467D01*
X104078323Y-71114745D01*
X104124448Y-71091243D01*
X104171208Y-71068940D01*
X104185940Y-71059911D01*
X104913365Y-70600941D01*
X104954459Y-70569408D01*
X104996347Y-70538975D01*
X105009188Y-70527414D01*
X105640789Y-69943567D01*
X105675445Y-69905078D01*
X105711090Y-69867516D01*
X105721609Y-69853808D01*
X106236236Y-69164637D01*
X106263280Y-69120505D01*
X106291501Y-69077049D01*
X106299345Y-69061653D01*
X106429337Y-68798055D01*
X117715000Y-68798055D01*
X117715000Y-69001933D01*
X117754774Y-69201892D01*
X117832795Y-69390250D01*
X117839307Y-69399996D01*
X117832795Y-69409741D01*
X117754774Y-69598099D01*
X117715000Y-69798058D01*
X117715000Y-70001936D01*
X117754774Y-70201895D01*
X117832795Y-70390253D01*
X117839307Y-70399999D01*
X117832795Y-70409744D01*
X117754774Y-70598102D01*
X117715000Y-70798061D01*
X117715000Y-71001939D01*
X117754774Y-71201898D01*
X117832795Y-71390256D01*
X117946063Y-71559774D01*
X118090226Y-71703937D01*
X118259744Y-71817205D01*
X118448102Y-71895226D01*
X118648061Y-71935000D01*
X118851939Y-71935000D01*
X119051898Y-71895226D01*
X119240256Y-71817205D01*
X119409774Y-71703937D01*
X119553937Y-71559774D01*
X119667205Y-71390256D01*
X119745226Y-71201898D01*
X119785000Y-71001939D01*
X119785000Y-70798061D01*
X119745226Y-70598102D01*
X119667205Y-70409744D01*
X119660693Y-70399999D01*
X119667205Y-70390253D01*
X119745226Y-70201895D01*
X119785000Y-70001936D01*
X119785000Y-69798058D01*
X119745226Y-69598099D01*
X119667205Y-69409741D01*
X119660693Y-69399995D01*
X119667205Y-69390250D01*
X119745226Y-69201892D01*
X119781847Y-69017782D01*
X119848102Y-69045226D01*
X120048061Y-69085000D01*
X120251939Y-69085000D01*
X120451898Y-69045226D01*
X120640256Y-68967205D01*
X120809774Y-68853937D01*
X120953937Y-68709774D01*
X121067205Y-68540256D01*
X121145226Y-68351898D01*
X121185000Y-68151939D01*
X121185000Y-67948711D01*
X121290226Y-68053937D01*
X121459744Y-68167205D01*
X121648102Y-68245226D01*
X121848061Y-68285000D01*
X122051939Y-68285000D01*
X122251898Y-68245226D01*
X122440256Y-68167205D01*
X122609774Y-68053937D01*
X122753937Y-67909774D01*
X122867205Y-67740256D01*
X122945226Y-67551898D01*
X122985000Y-67351939D01*
X122985000Y-67148061D01*
X122945226Y-66948102D01*
X122867205Y-66759744D01*
X122753937Y-66590226D01*
X122609774Y-66446063D01*
X122440256Y-66332795D01*
X122251898Y-66254774D01*
X122051939Y-66215000D01*
X121848061Y-66215000D01*
X121648102Y-66254774D01*
X121581849Y-66282217D01*
X121545226Y-66098102D01*
X121467205Y-65909744D01*
X121353937Y-65740226D01*
X121261772Y-65648061D01*
X126115000Y-65648061D01*
X126115000Y-65851939D01*
X126154774Y-66051898D01*
X126232795Y-66240256D01*
X126346063Y-66409774D01*
X126490226Y-66553937D01*
X126659744Y-66667205D01*
X126848102Y-66745226D01*
X127048061Y-66785000D01*
X127251939Y-66785000D01*
X127451898Y-66745226D01*
X127640256Y-66667205D01*
X127809774Y-66553937D01*
X127953937Y-66409774D01*
X128067205Y-66240256D01*
X128145226Y-66051898D01*
X128185000Y-65851939D01*
X128185000Y-65648061D01*
X128145226Y-65448102D01*
X128067205Y-65259744D01*
X127953937Y-65090226D01*
X127809774Y-64946063D01*
X127640256Y-64832795D01*
X127451898Y-64754774D01*
X127251939Y-64715000D01*
X127048061Y-64715000D01*
X126848102Y-64754774D01*
X126659744Y-64832795D01*
X126490226Y-64946063D01*
X126346063Y-65090226D01*
X126232795Y-65259744D01*
X126154774Y-65448102D01*
X126115000Y-65648061D01*
X121261772Y-65648061D01*
X121209774Y-65596063D01*
X121040256Y-65482795D01*
X120851898Y-65404774D01*
X120651939Y-65365000D01*
X120448061Y-65365000D01*
X120248102Y-65404774D01*
X120059744Y-65482795D01*
X119890226Y-65596063D01*
X119746063Y-65740226D01*
X119632795Y-65909744D01*
X119554774Y-66098102D01*
X119515000Y-66298061D01*
X119515000Y-66501939D01*
X119554774Y-66701898D01*
X119632795Y-66890256D01*
X119746063Y-67059774D01*
X119772414Y-67086125D01*
X119659744Y-67132795D01*
X119490226Y-67246063D01*
X119346063Y-67390226D01*
X119232795Y-67559744D01*
X119154774Y-67748102D01*
X119118153Y-67932212D01*
X119051898Y-67904768D01*
X118851939Y-67864994D01*
X118648061Y-67864994D01*
X118448102Y-67904768D01*
X118259744Y-67982789D01*
X118090226Y-68096057D01*
X117946063Y-68240220D01*
X117832795Y-68409738D01*
X117754774Y-68598096D01*
X117715000Y-68798055D01*
X106429337Y-68798055D01*
X106679764Y-68290240D01*
X106698325Y-68241885D01*
X106718141Y-68194047D01*
X106723048Y-68177480D01*
X106956518Y-67349658D01*
X106965954Y-67298747D01*
X106976723Y-67248082D01*
X106978529Y-67230898D01*
X106999923Y-66998061D01*
X108765000Y-66998061D01*
X108765000Y-67201939D01*
X108804774Y-67401898D01*
X108882795Y-67590256D01*
X108996063Y-67759774D01*
X109140226Y-67903937D01*
X109309744Y-68017205D01*
X109498102Y-68095226D01*
X109698061Y-68135000D01*
X109901939Y-68135000D01*
X110101898Y-68095226D01*
X110290256Y-68017205D01*
X110413063Y-67935148D01*
X110558102Y-67995226D01*
X110758061Y-68035000D01*
X110961939Y-68035000D01*
X111161898Y-67995226D01*
X111350256Y-67917205D01*
X111519774Y-67803937D01*
X111663937Y-67659774D01*
X111777205Y-67490256D01*
X111855226Y-67301898D01*
X111895000Y-67101939D01*
X111895000Y-66898061D01*
X111855226Y-66698102D01*
X111834499Y-66648061D01*
X112965000Y-66648061D01*
X112965000Y-66851939D01*
X113004774Y-67051898D01*
X113082795Y-67240256D01*
X113196063Y-67409774D01*
X113340226Y-67553937D01*
X113509744Y-67667205D01*
X113698102Y-67745226D01*
X113898061Y-67785000D01*
X114101939Y-67785000D01*
X114301898Y-67745226D01*
X114490256Y-67667205D01*
X114659774Y-67553937D01*
X114803937Y-67409774D01*
X114917205Y-67240256D01*
X114995226Y-67051898D01*
X115035000Y-66851939D01*
X115035000Y-66648061D01*
X114995226Y-66448102D01*
X114917205Y-66259744D01*
X114803937Y-66090226D01*
X114659774Y-65946063D01*
X114490256Y-65832795D01*
X114301898Y-65754774D01*
X114101939Y-65715000D01*
X113898061Y-65715000D01*
X113698102Y-65754774D01*
X113509744Y-65832795D01*
X113340226Y-65946063D01*
X113196063Y-66090226D01*
X113082795Y-66259744D01*
X113004774Y-66448102D01*
X112965000Y-66648061D01*
X111834499Y-66648061D01*
X111777205Y-66509744D01*
X111663937Y-66340226D01*
X111519774Y-66196063D01*
X111350256Y-66082795D01*
X111161898Y-66004774D01*
X110961939Y-65965000D01*
X110758061Y-65965000D01*
X110558102Y-66004774D01*
X110369744Y-66082795D01*
X110246937Y-66164852D01*
X110101898Y-66104774D01*
X109901939Y-66065000D01*
X109698061Y-66065000D01*
X109498102Y-66104774D01*
X109309744Y-66182795D01*
X109140226Y-66296063D01*
X108996063Y-66440226D01*
X108882795Y-66609744D01*
X108804774Y-66798102D01*
X108765000Y-66998061D01*
X106999923Y-66998061D01*
X107057036Y-66376516D01*
X107060000Y-66346419D01*
X107060000Y-65782419D01*
X107063193Y-65750000D01*
X107050450Y-65620617D01*
X107012710Y-65496207D01*
X106951425Y-65381550D01*
X106868948Y-65281052D01*
X106768450Y-65198575D01*
X106653793Y-65137290D01*
X106529383Y-65099550D01*
X106432419Y-65090000D01*
X106400000Y-65086807D01*
X106367581Y-65090000D01*
X97060000Y-65090000D01*
X97060000Y-64161870D01*
X97068102Y-64165226D01*
X97268061Y-64205000D01*
X97471939Y-64205000D01*
X97671898Y-64165226D01*
X97860256Y-64087205D01*
X98029774Y-63973937D01*
X98173937Y-63829774D01*
X98256857Y-63705675D01*
X100370000Y-63705675D01*
X100370000Y-63924325D01*
X100412657Y-64138775D01*
X100496331Y-64340782D01*
X100617807Y-64522584D01*
X100772416Y-64677193D01*
X100954218Y-64798669D01*
X101156225Y-64882343D01*
X101370675Y-64925000D01*
X101589325Y-64925000D01*
X101803775Y-64882343D01*
X102005782Y-64798669D01*
X102187584Y-64677193D01*
X102342193Y-64522584D01*
X102463669Y-64340782D01*
X102547343Y-64138775D01*
X102590000Y-63924325D01*
X102590000Y-63705675D01*
X102547343Y-63491225D01*
X102463669Y-63289218D01*
X102342193Y-63107416D01*
X102312838Y-63078061D01*
X104575000Y-63078061D01*
X104575000Y-63281939D01*
X104614774Y-63481898D01*
X104692795Y-63670256D01*
X104806063Y-63839774D01*
X104950226Y-63983937D01*
X105119744Y-64097205D01*
X105308102Y-64175226D01*
X105508061Y-64215000D01*
X105711939Y-64215000D01*
X105911898Y-64175226D01*
X106100256Y-64097205D01*
X106269774Y-63983937D01*
X106305650Y-63948061D01*
X109465000Y-63948061D01*
X109465000Y-64151939D01*
X109504774Y-64351898D01*
X109582795Y-64540256D01*
X109696063Y-64709774D01*
X109840226Y-64853937D01*
X110009744Y-64967205D01*
X110198102Y-65045226D01*
X110398061Y-65085000D01*
X110601939Y-65085000D01*
X110801898Y-65045226D01*
X110990256Y-64967205D01*
X111159774Y-64853937D01*
X111303937Y-64709774D01*
X111417205Y-64540256D01*
X111495226Y-64351898D01*
X111535000Y-64151939D01*
X111535000Y-63948061D01*
X111495226Y-63748102D01*
X111417205Y-63559744D01*
X111303937Y-63390226D01*
X111159774Y-63246063D01*
X111087934Y-63198061D01*
X113965000Y-63198061D01*
X113965000Y-63401939D01*
X114004774Y-63601898D01*
X114082795Y-63790256D01*
X114196063Y-63959774D01*
X114340226Y-64103937D01*
X114509744Y-64217205D01*
X114698102Y-64295226D01*
X114732635Y-64302095D01*
X114737569Y-64326898D01*
X114815590Y-64515256D01*
X114928858Y-64684774D01*
X115073021Y-64828937D01*
X115242539Y-64942205D01*
X115430897Y-65020226D01*
X115630856Y-65060000D01*
X115834734Y-65060000D01*
X116034693Y-65020226D01*
X116223051Y-64942205D01*
X116392569Y-64828937D01*
X116483445Y-64738061D01*
X116625000Y-64738061D01*
X116625000Y-64941939D01*
X116664774Y-65141898D01*
X116742795Y-65330256D01*
X116856063Y-65499774D01*
X117000226Y-65643937D01*
X117169744Y-65757205D01*
X117358102Y-65835226D01*
X117391581Y-65841885D01*
X117418103Y-65975223D01*
X117496124Y-66163581D01*
X117609392Y-66333099D01*
X117753555Y-66477262D01*
X117923073Y-66590530D01*
X118111431Y-66668551D01*
X118311390Y-66708325D01*
X118515268Y-66708325D01*
X118715227Y-66668551D01*
X118903585Y-66590530D01*
X119073103Y-66477262D01*
X119217266Y-66333099D01*
X119330534Y-66163581D01*
X119408555Y-65975223D01*
X119448329Y-65775264D01*
X119448329Y-65571386D01*
X119408555Y-65371427D01*
X119330534Y-65183069D01*
X119217266Y-65013551D01*
X119073103Y-64869388D01*
X118903585Y-64756120D01*
X118715227Y-64678099D01*
X118681748Y-64671440D01*
X118655226Y-64538102D01*
X118577205Y-64349744D01*
X118463937Y-64180226D01*
X118319774Y-64036063D01*
X118150256Y-63922795D01*
X117961898Y-63844774D01*
X117761939Y-63805000D01*
X117558061Y-63805000D01*
X117358102Y-63844774D01*
X117169744Y-63922795D01*
X117000226Y-64036063D01*
X116856063Y-64180226D01*
X116742795Y-64349744D01*
X116664774Y-64538102D01*
X116625000Y-64738061D01*
X116483445Y-64738061D01*
X116536732Y-64684774D01*
X116650000Y-64515256D01*
X116728021Y-64326898D01*
X116767795Y-64126939D01*
X116767795Y-63923061D01*
X116728021Y-63723102D01*
X116650000Y-63534744D01*
X116536732Y-63365226D01*
X116392569Y-63221063D01*
X116223051Y-63107795D01*
X116034693Y-63029774D01*
X116000160Y-63022905D01*
X115995226Y-62998102D01*
X115917205Y-62809744D01*
X115803937Y-62640226D01*
X115659774Y-62496063D01*
X115490256Y-62382795D01*
X115301898Y-62304774D01*
X115101939Y-62265000D01*
X114898061Y-62265000D01*
X114698102Y-62304774D01*
X114509744Y-62382795D01*
X114340226Y-62496063D01*
X114196063Y-62640226D01*
X114082795Y-62809744D01*
X114004774Y-62998102D01*
X113965000Y-63198061D01*
X111087934Y-63198061D01*
X110990256Y-63132795D01*
X110801898Y-63054774D01*
X110601939Y-63015000D01*
X110398061Y-63015000D01*
X110198102Y-63054774D01*
X110009744Y-63132795D01*
X109840226Y-63246063D01*
X109696063Y-63390226D01*
X109582795Y-63559744D01*
X109504774Y-63748102D01*
X109465000Y-63948061D01*
X106305650Y-63948061D01*
X106413937Y-63839774D01*
X106527205Y-63670256D01*
X106605226Y-63481898D01*
X106645000Y-63281939D01*
X106645000Y-63078061D01*
X106605226Y-62878102D01*
X106527205Y-62689744D01*
X106413937Y-62520226D01*
X106269774Y-62376063D01*
X106100256Y-62262795D01*
X105911898Y-62184774D01*
X105711939Y-62145000D01*
X105508061Y-62145000D01*
X105308102Y-62184774D01*
X105119744Y-62262795D01*
X104950226Y-62376063D01*
X104806063Y-62520226D01*
X104692795Y-62689744D01*
X104614774Y-62878102D01*
X104575000Y-63078061D01*
X102312838Y-63078061D01*
X102187584Y-62952807D01*
X102005782Y-62831331D01*
X101803775Y-62747657D01*
X101589325Y-62705000D01*
X101370675Y-62705000D01*
X101156225Y-62747657D01*
X100954218Y-62831331D01*
X100772416Y-62952807D01*
X100617807Y-63107416D01*
X100496331Y-63289218D01*
X100412657Y-63491225D01*
X100370000Y-63705675D01*
X98256857Y-63705675D01*
X98287205Y-63660256D01*
X98365226Y-63471898D01*
X98405000Y-63271939D01*
X98405000Y-63068061D01*
X98365226Y-62868102D01*
X98287205Y-62679744D01*
X98173937Y-62510226D01*
X98029774Y-62366063D01*
X97860256Y-62252795D01*
X97671898Y-62174774D01*
X97471939Y-62135000D01*
X97268061Y-62135000D01*
X97068102Y-62174774D01*
X97060000Y-62178130D01*
X97060000Y-61629444D01*
X97098102Y-61645226D01*
X97298061Y-61685000D01*
X97501939Y-61685000D01*
X97701898Y-61645226D01*
X97890256Y-61567205D01*
X98059774Y-61453937D01*
X98203937Y-61309774D01*
X98317205Y-61140256D01*
X98395226Y-60951898D01*
X98435000Y-60751939D01*
X98435000Y-60548061D01*
X98395226Y-60348102D01*
X98317205Y-60159744D01*
X98213809Y-60005000D01*
X98317205Y-59850256D01*
X98395226Y-59661898D01*
X98435000Y-59461939D01*
X98435000Y-59278061D01*
X104505000Y-59278061D01*
X104505000Y-59481939D01*
X104544774Y-59681898D01*
X104622795Y-59870256D01*
X104736063Y-60039774D01*
X104880226Y-60183937D01*
X105049744Y-60297205D01*
X105238102Y-60375226D01*
X105438061Y-60415000D01*
X105641939Y-60415000D01*
X105841898Y-60375226D01*
X106030256Y-60297205D01*
X106199774Y-60183937D01*
X106343937Y-60039774D01*
X106457205Y-59870256D01*
X106535226Y-59681898D01*
X106575000Y-59481939D01*
X106575000Y-59278061D01*
X106535226Y-59078102D01*
X106457205Y-58889744D01*
X106392217Y-58792483D01*
X106467205Y-58680256D01*
X106545226Y-58491898D01*
X106585000Y-58291939D01*
X106585000Y-58088061D01*
X106545226Y-57888102D01*
X106467205Y-57699744D01*
X106353937Y-57530226D01*
X106209774Y-57386063D01*
X106182833Y-57368061D01*
X106885000Y-57368061D01*
X106885000Y-57571939D01*
X106924774Y-57771898D01*
X107002795Y-57960256D01*
X107116063Y-58129774D01*
X107260226Y-58273937D01*
X107429744Y-58387205D01*
X107618102Y-58465226D01*
X107818061Y-58505000D01*
X108021939Y-58505000D01*
X108221898Y-58465226D01*
X108410256Y-58387205D01*
X108447068Y-58362608D01*
X108474774Y-58501898D01*
X108552795Y-58690256D01*
X108666063Y-58859774D01*
X108810226Y-59003937D01*
X108979744Y-59117205D01*
X109168102Y-59195226D01*
X109298685Y-59221200D01*
X109212795Y-59349744D01*
X109154409Y-59490698D01*
X109109774Y-59446063D01*
X108940256Y-59332795D01*
X108751898Y-59254774D01*
X108551939Y-59215000D01*
X108348061Y-59215000D01*
X108148102Y-59254774D01*
X107959744Y-59332795D01*
X107790226Y-59446063D01*
X107646063Y-59590226D01*
X107532795Y-59759744D01*
X107454774Y-59948102D01*
X107415000Y-60148061D01*
X107415000Y-60351939D01*
X107454774Y-60551898D01*
X107532795Y-60740256D01*
X107646063Y-60909774D01*
X107790226Y-61053937D01*
X107959744Y-61167205D01*
X108148102Y-61245226D01*
X108348061Y-61285000D01*
X108551939Y-61285000D01*
X108751898Y-61245226D01*
X108940256Y-61167205D01*
X109109774Y-61053937D01*
X109253937Y-60909774D01*
X109367205Y-60740256D01*
X109425591Y-60599302D01*
X109470226Y-60643937D01*
X109639744Y-60757205D01*
X109828102Y-60835226D01*
X110028061Y-60875000D01*
X110231939Y-60875000D01*
X110431898Y-60835226D01*
X110620256Y-60757205D01*
X110718517Y-60691550D01*
X110848102Y-60745226D01*
X111048061Y-60785000D01*
X111251939Y-60785000D01*
X111451898Y-60745226D01*
X111640256Y-60667205D01*
X111809774Y-60553937D01*
X111953937Y-60409774D01*
X112067205Y-60240256D01*
X112145226Y-60051898D01*
X112185000Y-59851939D01*
X112185000Y-59648061D01*
X112145226Y-59448102D01*
X112067205Y-59259744D01*
X111953937Y-59090226D01*
X111809774Y-58946063D01*
X111640256Y-58832795D01*
X111451898Y-58754774D01*
X111251939Y-58715000D01*
X111048061Y-58715000D01*
X110848102Y-58754774D01*
X110659744Y-58832795D01*
X110561483Y-58898450D01*
X110431898Y-58844774D01*
X110301315Y-58818800D01*
X110387205Y-58690256D01*
X110465226Y-58501898D01*
X110465989Y-58498061D01*
X114365000Y-58498061D01*
X114365000Y-58701939D01*
X114404774Y-58901898D01*
X114482795Y-59090256D01*
X114596063Y-59259774D01*
X114740226Y-59403937D01*
X114909744Y-59517205D01*
X115098102Y-59595226D01*
X115298061Y-59635000D01*
X115501939Y-59635000D01*
X115701898Y-59595226D01*
X115890256Y-59517205D01*
X116059774Y-59403937D01*
X116203937Y-59259774D01*
X116317205Y-59090256D01*
X116395226Y-58901898D01*
X116435000Y-58701939D01*
X116435000Y-58605714D01*
X118462653Y-58605714D01*
X118462653Y-58809592D01*
X118502427Y-59009551D01*
X118580448Y-59197909D01*
X118693716Y-59367427D01*
X118837879Y-59511590D01*
X119007397Y-59624858D01*
X119195755Y-59702879D01*
X119395714Y-59742653D01*
X119599592Y-59742653D01*
X119799551Y-59702879D01*
X119987909Y-59624858D01*
X120087878Y-59558061D01*
X120925000Y-59558061D01*
X120925000Y-59761939D01*
X120964774Y-59961898D01*
X121042795Y-60150256D01*
X121156063Y-60319774D01*
X121300226Y-60463937D01*
X121469744Y-60577205D01*
X121658102Y-60655226D01*
X121858061Y-60695000D01*
X122061939Y-60695000D01*
X122261898Y-60655226D01*
X122450256Y-60577205D01*
X122527449Y-60525626D01*
X122559744Y-60547205D01*
X122748102Y-60625226D01*
X122948061Y-60665000D01*
X123003402Y-60665000D01*
X123004774Y-60671898D01*
X123082795Y-60860256D01*
X123196063Y-61029774D01*
X123340226Y-61173937D01*
X123509744Y-61287205D01*
X123698102Y-61365226D01*
X123898061Y-61405000D01*
X124101939Y-61405000D01*
X124301898Y-61365226D01*
X124490256Y-61287205D01*
X124659774Y-61173937D01*
X124803937Y-61029774D01*
X124917205Y-60860256D01*
X124995226Y-60671898D01*
X125035000Y-60471939D01*
X125035000Y-60268061D01*
X124995226Y-60068102D01*
X124917205Y-59879744D01*
X124803937Y-59710226D01*
X124659774Y-59566063D01*
X124490256Y-59452795D01*
X124301898Y-59374774D01*
X124101939Y-59335000D01*
X124046598Y-59335000D01*
X124045226Y-59328102D01*
X123967205Y-59139744D01*
X123853937Y-58970226D01*
X123709774Y-58826063D01*
X123540256Y-58712795D01*
X123351898Y-58634774D01*
X123151939Y-58595000D01*
X122948061Y-58595000D01*
X122748102Y-58634774D01*
X122559744Y-58712795D01*
X122482551Y-58764374D01*
X122450256Y-58742795D01*
X122261898Y-58664774D01*
X122061939Y-58625000D01*
X121858061Y-58625000D01*
X121658102Y-58664774D01*
X121469744Y-58742795D01*
X121300226Y-58856063D01*
X121156063Y-59000226D01*
X121042795Y-59169744D01*
X120964774Y-59358102D01*
X120925000Y-59558061D01*
X120087878Y-59558061D01*
X120157427Y-59511590D01*
X120301590Y-59367427D01*
X120414858Y-59197909D01*
X120492879Y-59009551D01*
X120532653Y-58809592D01*
X120532653Y-58605714D01*
X120492879Y-58405755D01*
X120414858Y-58217397D01*
X120365236Y-58143132D01*
X120500256Y-58087205D01*
X120669774Y-57973937D01*
X120813937Y-57829774D01*
X120927205Y-57660256D01*
X121005226Y-57471898D01*
X121045000Y-57271939D01*
X121045000Y-57068061D01*
X121005226Y-56868102D01*
X120927205Y-56679744D01*
X120813937Y-56510226D01*
X120669774Y-56366063D01*
X120500256Y-56252795D01*
X120311898Y-56174774D01*
X120111939Y-56135000D01*
X119908061Y-56135000D01*
X119708102Y-56174774D01*
X119519744Y-56252795D01*
X119350226Y-56366063D01*
X119206063Y-56510226D01*
X119092795Y-56679744D01*
X119014774Y-56868102D01*
X118975000Y-57068061D01*
X118975000Y-57271939D01*
X119014774Y-57471898D01*
X119092795Y-57660256D01*
X119142417Y-57734521D01*
X119007397Y-57790448D01*
X118837879Y-57903716D01*
X118693716Y-58047879D01*
X118580448Y-58217397D01*
X118502427Y-58405755D01*
X118462653Y-58605714D01*
X116435000Y-58605714D01*
X116435000Y-58498061D01*
X116395226Y-58298102D01*
X116317205Y-58109744D01*
X116203937Y-57940226D01*
X116059774Y-57796063D01*
X115890256Y-57682795D01*
X115701898Y-57604774D01*
X115501939Y-57565000D01*
X115298061Y-57565000D01*
X115098102Y-57604774D01*
X114909744Y-57682795D01*
X114740226Y-57796063D01*
X114596063Y-57940226D01*
X114482795Y-58109744D01*
X114404774Y-58298102D01*
X114365000Y-58498061D01*
X110465989Y-58498061D01*
X110505000Y-58301939D01*
X110505000Y-58098061D01*
X110465226Y-57898102D01*
X110387205Y-57709744D01*
X110273937Y-57540226D01*
X110129774Y-57396063D01*
X109960256Y-57282795D01*
X109771898Y-57204774D01*
X109571939Y-57165000D01*
X109368061Y-57165000D01*
X109168102Y-57204774D01*
X108979744Y-57282795D01*
X108942932Y-57307392D01*
X108915226Y-57168102D01*
X108837205Y-56979744D01*
X108723937Y-56810226D01*
X108579774Y-56666063D01*
X108410256Y-56552795D01*
X108221898Y-56474774D01*
X108021939Y-56435000D01*
X107818061Y-56435000D01*
X107618102Y-56474774D01*
X107429744Y-56552795D01*
X107260226Y-56666063D01*
X107116063Y-56810226D01*
X107002795Y-56979744D01*
X106924774Y-57168102D01*
X106885000Y-57368061D01*
X106182833Y-57368061D01*
X106040256Y-57272795D01*
X105851898Y-57194774D01*
X105651939Y-57155000D01*
X105448061Y-57155000D01*
X105248102Y-57194774D01*
X105059744Y-57272795D01*
X104890226Y-57386063D01*
X104746063Y-57530226D01*
X104632795Y-57699744D01*
X104554774Y-57888102D01*
X104515000Y-58088061D01*
X104515000Y-58291939D01*
X104554774Y-58491898D01*
X104632795Y-58680256D01*
X104697783Y-58777517D01*
X104622795Y-58889744D01*
X104544774Y-59078102D01*
X104505000Y-59278061D01*
X98435000Y-59278061D01*
X98435000Y-59258061D01*
X98395226Y-59058102D01*
X98317205Y-58869744D01*
X98203937Y-58700226D01*
X98059774Y-58556063D01*
X97890256Y-58442795D01*
X97701898Y-58364774D01*
X97501939Y-58325000D01*
X97298061Y-58325000D01*
X97098102Y-58364774D01*
X97060000Y-58380556D01*
X97060000Y-57355675D01*
X100370000Y-57355675D01*
X100370000Y-57574325D01*
X100412657Y-57788775D01*
X100496331Y-57990782D01*
X100617807Y-58172584D01*
X100772416Y-58327193D01*
X100954218Y-58448669D01*
X101156225Y-58532343D01*
X101370675Y-58575000D01*
X101589325Y-58575000D01*
X101803775Y-58532343D01*
X102005782Y-58448669D01*
X102187584Y-58327193D01*
X102342193Y-58172584D01*
X102463669Y-57990782D01*
X102547343Y-57788775D01*
X102590000Y-57574325D01*
X102590000Y-57355675D01*
X102547343Y-57141225D01*
X102463669Y-56939218D01*
X102342193Y-56757416D01*
X102187584Y-56602807D01*
X102005782Y-56481331D01*
X101803775Y-56397657D01*
X101589325Y-56355000D01*
X101370675Y-56355000D01*
X101156225Y-56397657D01*
X100954218Y-56481331D01*
X100772416Y-56602807D01*
X100617807Y-56757416D01*
X100496331Y-56939218D01*
X100412657Y-57141225D01*
X100370000Y-57355675D01*
X97060000Y-57355675D01*
X97060000Y-56210000D01*
X112532419Y-56210000D01*
X112546764Y-56208587D01*
X113143236Y-56182545D01*
X113173263Y-56178991D01*
X113203450Y-56177145D01*
X113220538Y-56174591D01*
X114251880Y-56006626D01*
X114291070Y-55997217D01*
X114330477Y-55988841D01*
X114347001Y-55983789D01*
X115342187Y-55665227D01*
X115379537Y-55650136D01*
X115417291Y-55636021D01*
X115432886Y-55628582D01*
X116370055Y-55166422D01*
X116404763Y-55145977D01*
X116440018Y-55126435D01*
X116454343Y-55116773D01*
X116769615Y-54898061D01*
X121135000Y-54898061D01*
X121135000Y-55101939D01*
X121174774Y-55301898D01*
X121252795Y-55490256D01*
X121366063Y-55659774D01*
X121510226Y-55803937D01*
X121679744Y-55917205D01*
X121868102Y-55995226D01*
X122068061Y-56035000D01*
X122271939Y-56035000D01*
X122471898Y-55995226D01*
X122660256Y-55917205D01*
X122829774Y-55803937D01*
X122973937Y-55659774D01*
X123087205Y-55490256D01*
X123165226Y-55301898D01*
X123205000Y-55101939D01*
X123205000Y-54898061D01*
X123165226Y-54698102D01*
X123087205Y-54509744D01*
X122973937Y-54340226D01*
X122829774Y-54196063D01*
X122660256Y-54082795D01*
X122471898Y-54004774D01*
X122271939Y-53965000D01*
X122068061Y-53965000D01*
X121868102Y-54004774D01*
X121679744Y-54082795D01*
X121510226Y-54196063D01*
X121366063Y-54340226D01*
X121252795Y-54509744D01*
X121174774Y-54698102D01*
X121135000Y-54898061D01*
X116769615Y-54898061D01*
X117312907Y-54521166D01*
X117344218Y-54495811D01*
X117376191Y-54471277D01*
X117388930Y-54459604D01*
X118150026Y-53743636D01*
X118177243Y-53713933D01*
X118205241Y-53684941D01*
X118216114Y-53671513D01*
X118863024Y-52850912D01*
X118885551Y-52817515D01*
X118908957Y-52784700D01*
X118917726Y-52769813D01*
X119358817Y-51998061D01*
X120465000Y-51998061D01*
X120465000Y-52201939D01*
X120504774Y-52401898D01*
X120582795Y-52590256D01*
X120696063Y-52759774D01*
X120840226Y-52903937D01*
X121009744Y-53017205D01*
X121198102Y-53095226D01*
X121398061Y-53135000D01*
X121601939Y-53135000D01*
X121801898Y-53095226D01*
X121990256Y-53017205D01*
X122159774Y-52903937D01*
X122303937Y-52759774D01*
X122417205Y-52590256D01*
X122495226Y-52401898D01*
X122511902Y-52318061D01*
X130905000Y-52318061D01*
X130905000Y-52521939D01*
X130944774Y-52721898D01*
X131022795Y-52910256D01*
X131136063Y-53079774D01*
X131280226Y-53223937D01*
X131449744Y-53337205D01*
X131638102Y-53415226D01*
X131838061Y-53455000D01*
X132041939Y-53455000D01*
X132241898Y-53415226D01*
X132430256Y-53337205D01*
X132599774Y-53223937D01*
X132743937Y-53079774D01*
X132857205Y-52910256D01*
X132935226Y-52721898D01*
X132975000Y-52521939D01*
X132975000Y-52318061D01*
X132969033Y-52288061D01*
X133215000Y-52288061D01*
X133215000Y-52491939D01*
X133254774Y-52691898D01*
X133332795Y-52880256D01*
X133446063Y-53049774D01*
X133590226Y-53193937D01*
X133759744Y-53307205D01*
X133948102Y-53385226D01*
X134148061Y-53425000D01*
X134351939Y-53425000D01*
X134551898Y-53385226D01*
X134740256Y-53307205D01*
X134909774Y-53193937D01*
X135053937Y-53049774D01*
X135167205Y-52880256D01*
X135245226Y-52691898D01*
X135285000Y-52491939D01*
X135285000Y-52288061D01*
X135245226Y-52088102D01*
X135167205Y-51899744D01*
X135053937Y-51730226D01*
X134909774Y-51586063D01*
X134740256Y-51472795D01*
X134551898Y-51394774D01*
X134351939Y-51355000D01*
X134148061Y-51355000D01*
X133948102Y-51394774D01*
X133759744Y-51472795D01*
X133590226Y-51586063D01*
X133446063Y-51730226D01*
X133332795Y-51899744D01*
X133254774Y-52088102D01*
X133215000Y-52288061D01*
X132969033Y-52288061D01*
X132935226Y-52118102D01*
X132857205Y-51929744D01*
X132743937Y-51760226D01*
X132599774Y-51616063D01*
X132430256Y-51502795D01*
X132241898Y-51424774D01*
X132041939Y-51385000D01*
X131838061Y-51385000D01*
X131638102Y-51424774D01*
X131449744Y-51502795D01*
X131280226Y-51616063D01*
X131136063Y-51760226D01*
X131022795Y-51929744D01*
X130944774Y-52118102D01*
X130905000Y-52318061D01*
X122511902Y-52318061D01*
X122535000Y-52201939D01*
X122535000Y-51998061D01*
X122495226Y-51798102D01*
X122417205Y-51609744D01*
X122303937Y-51440226D01*
X122159774Y-51296063D01*
X121990256Y-51182795D01*
X121801898Y-51104774D01*
X121601939Y-51065000D01*
X121398061Y-51065000D01*
X121198102Y-51104774D01*
X121009744Y-51182795D01*
X120840226Y-51296063D01*
X120696063Y-51440226D01*
X120582795Y-51609744D01*
X120504774Y-51798102D01*
X120465000Y-51998061D01*
X119358817Y-51998061D01*
X119436237Y-51862605D01*
X119453583Y-51826240D01*
X119471878Y-51790333D01*
X119478351Y-51774313D01*
X119857074Y-50800431D01*
X119868848Y-50761919D01*
X119881642Y-50723682D01*
X119885675Y-50706881D01*
X120116288Y-49687716D01*
X120122246Y-49647852D01*
X120129241Y-49608180D01*
X120130747Y-49590968D01*
X120207599Y-48556795D01*
X120210000Y-48532419D01*
X120210000Y-48193137D01*
X123365000Y-48193137D01*
X123365000Y-48406863D01*
X123406696Y-48616483D01*
X123488485Y-48813940D01*
X123607225Y-48991647D01*
X123758353Y-49142775D01*
X123936060Y-49261515D01*
X124133517Y-49343304D01*
X124343137Y-49385000D01*
X124556863Y-49385000D01*
X124766483Y-49343304D01*
X124963940Y-49261515D01*
X125141647Y-49142775D01*
X125292775Y-48991647D01*
X125411515Y-48813940D01*
X125493304Y-48616483D01*
X125535000Y-48406863D01*
X125535000Y-48193137D01*
X125493304Y-47983517D01*
X125411515Y-47786060D01*
X125292775Y-47608353D01*
X125141647Y-47457225D01*
X124963940Y-47338485D01*
X124766483Y-47256696D01*
X124556863Y-47215000D01*
X124343137Y-47215000D01*
X124133517Y-47256696D01*
X123936060Y-47338485D01*
X123758353Y-47457225D01*
X123607225Y-47608353D01*
X123488485Y-47786060D01*
X123406696Y-47983517D01*
X123365000Y-48193137D01*
X120210000Y-48193137D01*
X120210000Y-45150000D01*
X135511928Y-45150000D01*
X135511928Y-46850000D01*
X135524188Y-46974482D01*
X135560498Y-47094180D01*
X135619463Y-47204494D01*
X135698815Y-47301185D01*
X135795506Y-47380537D01*
X135905820Y-47439502D01*
X135978380Y-47461513D01*
X135846525Y-47593368D01*
X135684010Y-47836589D01*
X135572068Y-48106842D01*
X135515000Y-48393740D01*
X135515000Y-48686260D01*
X135572068Y-48973158D01*
X135684010Y-49243411D01*
X135846525Y-49486632D01*
X136053368Y-49693475D01*
X136227760Y-49810000D01*
X136053368Y-49926525D01*
X135846525Y-50133368D01*
X135684010Y-50376589D01*
X135572068Y-50646842D01*
X135515000Y-50933740D01*
X135515000Y-51226260D01*
X135572068Y-51513158D01*
X135684010Y-51783411D01*
X135846525Y-52026632D01*
X136053368Y-52233475D01*
X136227760Y-52350000D01*
X136053368Y-52466525D01*
X135846525Y-52673368D01*
X135684010Y-52916589D01*
X135572068Y-53186842D01*
X135515000Y-53473740D01*
X135515000Y-53766260D01*
X135572068Y-54053158D01*
X135684010Y-54323411D01*
X135846525Y-54566632D01*
X136053368Y-54773475D01*
X136296589Y-54935990D01*
X136566842Y-55047932D01*
X136853740Y-55105000D01*
X137146260Y-55105000D01*
X137433158Y-55047932D01*
X137703411Y-54935990D01*
X137946632Y-54773475D01*
X138153475Y-54566632D01*
X138270000Y-54392240D01*
X138386525Y-54566632D01*
X138593368Y-54773475D01*
X138836589Y-54935990D01*
X139106842Y-55047932D01*
X139393740Y-55105000D01*
X139686260Y-55105000D01*
X139973158Y-55047932D01*
X140243411Y-54935990D01*
X140486632Y-54773475D01*
X140693475Y-54566632D01*
X140855990Y-54323411D01*
X140967932Y-54053158D01*
X141025000Y-53766260D01*
X141025000Y-53473740D01*
X140967932Y-53186842D01*
X140855990Y-52916589D01*
X140693475Y-52673368D01*
X140486632Y-52466525D01*
X140312240Y-52350000D01*
X140486632Y-52233475D01*
X140693475Y-52026632D01*
X140855990Y-51783411D01*
X140967932Y-51513158D01*
X141025000Y-51226260D01*
X141025000Y-50933740D01*
X140967932Y-50646842D01*
X140855990Y-50376589D01*
X140693475Y-50133368D01*
X140486632Y-49926525D01*
X140312240Y-49810000D01*
X140486632Y-49693475D01*
X140693475Y-49486632D01*
X140855990Y-49243411D01*
X140967932Y-48973158D01*
X141025000Y-48686260D01*
X141025000Y-48393740D01*
X140967932Y-48106842D01*
X140855990Y-47836589D01*
X140693475Y-47593368D01*
X140486632Y-47386525D01*
X140304466Y-47264805D01*
X140421355Y-47195178D01*
X140637588Y-47000269D01*
X140811641Y-46766920D01*
X140936825Y-46504099D01*
X140981476Y-46356890D01*
X140860155Y-46127000D01*
X139667000Y-46127000D01*
X139667000Y-46147000D01*
X139413000Y-46147000D01*
X139413000Y-46127000D01*
X139393000Y-46127000D01*
X139393000Y-45873000D01*
X139413000Y-45873000D01*
X139413000Y-44679186D01*
X139667000Y-44679186D01*
X139667000Y-45873000D01*
X140860155Y-45873000D01*
X140981476Y-45643110D01*
X140936825Y-45495901D01*
X140811641Y-45233080D01*
X140637588Y-44999731D01*
X140421355Y-44804822D01*
X140171252Y-44655843D01*
X139896891Y-44558519D01*
X139667000Y-44679186D01*
X139413000Y-44679186D01*
X139183109Y-44558519D01*
X138908748Y-44655843D01*
X138658645Y-44804822D01*
X138462498Y-44981626D01*
X138439502Y-44905820D01*
X138380537Y-44795506D01*
X138301185Y-44698815D01*
X138204494Y-44619463D01*
X138094180Y-44560498D01*
X137974482Y-44524188D01*
X137850000Y-44511928D01*
X136150000Y-44511928D01*
X136025518Y-44524188D01*
X135905820Y-44560498D01*
X135795506Y-44619463D01*
X135698815Y-44698815D01*
X135619463Y-44795506D01*
X135560498Y-44905820D01*
X135524188Y-45025518D01*
X135511928Y-45150000D01*
X120210000Y-45150000D01*
X120210000Y-40010000D01*
X121280634Y-40010000D01*
X121249744Y-40022795D01*
%TA.AperFunction,Conductor*%
D19*
G36*
X121249744Y-40022795D02*
G01*
X121080226Y-40136063D01*
X120936063Y-40280226D01*
X120822795Y-40449744D01*
X120744774Y-40638102D01*
X120705000Y-40838061D01*
X120705000Y-41041939D01*
X120744774Y-41241898D01*
X120822795Y-41430256D01*
X120936063Y-41599774D01*
X121080226Y-41743937D01*
X121249744Y-41857205D01*
X121438102Y-41935226D01*
X121638061Y-41975000D01*
X121841939Y-41975000D01*
X122041898Y-41935226D01*
X122230256Y-41857205D01*
X122399774Y-41743937D01*
X122543937Y-41599774D01*
X122657205Y-41430256D01*
X122672580Y-41393137D01*
X123365000Y-41393137D01*
X123365000Y-41606863D01*
X123406696Y-41816483D01*
X123488485Y-42013940D01*
X123607225Y-42191647D01*
X123758353Y-42342775D01*
X123936060Y-42461515D01*
X124133517Y-42543304D01*
X124343137Y-42585000D01*
X124556863Y-42585000D01*
X124766483Y-42543304D01*
X124963940Y-42461515D01*
X125141647Y-42342775D01*
X125292775Y-42191647D01*
X125411515Y-42013940D01*
X125493304Y-41816483D01*
X125535000Y-41606863D01*
X125535000Y-41393137D01*
X125493304Y-41183517D01*
X125411515Y-40986060D01*
X125292775Y-40808353D01*
X125284422Y-40800000D01*
X130461928Y-40800000D01*
X130461928Y-42500000D01*
X130474188Y-42624482D01*
X130510498Y-42744180D01*
X130569463Y-42854494D01*
X130648815Y-42951185D01*
X130745506Y-43030537D01*
X130855820Y-43089502D01*
X130975518Y-43125812D01*
X131100000Y-43138072D01*
X132800000Y-43138072D01*
X132924482Y-43125812D01*
X133044180Y-43089502D01*
X133154494Y-43030537D01*
X133251185Y-42951185D01*
X133330537Y-42854494D01*
X133389502Y-42744180D01*
X133411513Y-42671620D01*
X133543368Y-42803475D01*
X133786589Y-42965990D01*
X134056842Y-43077932D01*
X134343740Y-43135000D01*
X134636260Y-43135000D01*
X134923158Y-43077932D01*
X135193411Y-42965990D01*
X135436632Y-42803475D01*
X135643475Y-42596632D01*
X135760000Y-42422240D01*
X135876525Y-42596632D01*
X136083368Y-42803475D01*
X136326589Y-42965990D01*
X136596842Y-43077932D01*
X136883740Y-43135000D01*
X137176260Y-43135000D01*
X137463158Y-43077932D01*
X137733411Y-42965990D01*
X137976632Y-42803475D01*
X138183475Y-42596632D01*
X138305195Y-42414466D01*
X138374822Y-42531355D01*
X138569731Y-42747588D01*
X138803080Y-42921641D01*
X139065901Y-43046825D01*
X139213110Y-43091476D01*
X139443000Y-42970155D01*
X139443000Y-41777000D01*
X139697000Y-41777000D01*
X139697000Y-42970155D01*
X139926890Y-43091476D01*
X140074099Y-43046825D01*
X140336920Y-42921641D01*
X140570269Y-42747588D01*
X140765178Y-42531355D01*
X140914157Y-42281252D01*
X141011481Y-42006891D01*
X140890814Y-41777000D01*
X139697000Y-41777000D01*
X139443000Y-41777000D01*
X139423000Y-41777000D01*
X139423000Y-41523000D01*
X139443000Y-41523000D01*
X139443000Y-40329845D01*
X139697000Y-40329845D01*
X139697000Y-41523000D01*
X140890814Y-41523000D01*
X141011481Y-41293109D01*
X140914157Y-41018748D01*
X140765178Y-40768645D01*
X140570269Y-40552412D01*
X140336920Y-40378359D01*
X140074099Y-40253175D01*
X139926890Y-40208524D01*
X139697000Y-40329845D01*
X139443000Y-40329845D01*
X139213110Y-40208524D01*
X139065901Y-40253175D01*
X138803080Y-40378359D01*
X138569731Y-40552412D01*
X138374822Y-40768645D01*
X138305195Y-40885534D01*
X138183475Y-40703368D01*
X137976632Y-40496525D01*
X137733411Y-40334010D01*
X137463158Y-40222068D01*
X137176260Y-40165000D01*
X136883740Y-40165000D01*
X136596842Y-40222068D01*
X136326589Y-40334010D01*
X136083368Y-40496525D01*
X135876525Y-40703368D01*
X135760000Y-40877760D01*
X135643475Y-40703368D01*
X135436632Y-40496525D01*
X135193411Y-40334010D01*
X134923158Y-40222068D01*
X134636260Y-40165000D01*
X134343740Y-40165000D01*
X134056842Y-40222068D01*
X133786589Y-40334010D01*
X133543368Y-40496525D01*
X133411513Y-40628380D01*
X133389502Y-40555820D01*
X133330537Y-40445506D01*
X133251185Y-40348815D01*
X133154494Y-40269463D01*
X133044180Y-40210498D01*
X132924482Y-40174188D01*
X132800000Y-40161928D01*
X131100000Y-40161928D01*
X130975518Y-40174188D01*
X130855820Y-40210498D01*
X130745506Y-40269463D01*
X130648815Y-40348815D01*
X130569463Y-40445506D01*
X130510498Y-40555820D01*
X130474188Y-40675518D01*
X130461928Y-40800000D01*
X125284422Y-40800000D01*
X125141647Y-40657225D01*
X124963940Y-40538485D01*
X124766483Y-40456696D01*
X124556863Y-40415000D01*
X124343137Y-40415000D01*
X124133517Y-40456696D01*
X123936060Y-40538485D01*
X123758353Y-40657225D01*
X123607225Y-40808353D01*
X123488485Y-40986060D01*
X123406696Y-41183517D01*
X123365000Y-41393137D01*
X122672580Y-41393137D01*
X122735226Y-41241898D01*
X122775000Y-41041939D01*
X122775000Y-40838061D01*
X122735226Y-40638102D01*
X122657205Y-40449744D01*
X122543937Y-40280226D01*
X122399774Y-40136063D01*
X122230256Y-40022795D01*
X122199366Y-40010000D01*
X141340001Y-40010000D01*
X141340000Y-58340000D01*
X133616802Y-58340000D01*
X133585779Y-58336813D01*
X133551970Y-58340000D01*
X133550581Y-58340000D01*
X133519614Y-58343050D01*
X133456344Y-58349014D01*
X133455009Y-58349413D01*
X133453617Y-58349550D01*
X133392688Y-58368033D01*
X133331776Y-58386232D01*
X133330542Y-58386885D01*
X133329207Y-58387290D01*
X133273065Y-58417298D01*
X133216863Y-58447037D01*
X133215782Y-58447916D01*
X133214550Y-58448575D01*
X133165358Y-58488946D01*
X133116021Y-58529091D01*
X133115130Y-58530167D01*
X133114052Y-58531052D01*
X133073704Y-58580216D01*
X133053895Y-58604148D01*
X133053120Y-58605298D01*
X133031575Y-58631550D01*
X133016873Y-58659057D01*
X129470121Y-63919298D01*
X129448576Y-63945550D01*
X129418598Y-64001635D01*
X129388359Y-64057643D01*
X129387948Y-64058978D01*
X129387291Y-64060207D01*
X129368819Y-64121100D01*
X129350099Y-64181894D01*
X129349957Y-64183280D01*
X129349551Y-64184617D01*
X129343322Y-64247861D01*
X129336813Y-64311221D01*
X129340001Y-64345038D01*
X129340001Y-70178463D01*
X129091335Y-70129000D01*
X128808665Y-70129000D01*
X128531426Y-70184147D01*
X128270273Y-70292320D01*
X128035241Y-70449363D01*
X127835363Y-70649241D01*
X127678320Y-70884273D01*
X127570147Y-71145426D01*
X127515000Y-71422665D01*
X127515000Y-71705335D01*
X127570147Y-71982574D01*
X127678320Y-72243727D01*
X127835363Y-72478759D01*
X128035241Y-72678637D01*
X128270273Y-72835680D01*
X128531426Y-72943853D01*
X128808665Y-72999000D01*
X129091335Y-72999000D01*
X129340001Y-72949537D01*
X129340001Y-74678463D01*
X129091335Y-74629000D01*
X128808665Y-74629000D01*
X128531426Y-74684147D01*
X128270273Y-74792320D01*
X128035241Y-74949363D01*
X127835363Y-75149241D01*
X127678320Y-75384273D01*
X127570147Y-75645426D01*
X127515000Y-75922665D01*
X127515000Y-76205335D01*
X127570147Y-76482574D01*
X127678320Y-76743727D01*
X127835363Y-76978759D01*
X128035241Y-77178637D01*
X128270273Y-77335680D01*
X128531426Y-77443853D01*
X128808665Y-77499000D01*
X129091335Y-77499000D01*
X129340001Y-77449537D01*
X129340000Y-143845619D01*
X129075401Y-144020081D01*
X129040104Y-144048308D01*
X129003538Y-144074874D01*
X128990698Y-144086436D01*
X128359070Y-144670306D01*
X128324423Y-144708785D01*
X128288769Y-144746356D01*
X128278251Y-144760064D01*
X127763602Y-145449263D01*
X127736558Y-145493395D01*
X127708337Y-145536851D01*
X127700493Y-145552247D01*
X127320059Y-146323693D01*
X127301503Y-146372034D01*
X127281682Y-146419885D01*
X127276775Y-146436452D01*
X127043295Y-147264307D01*
X127033857Y-147315229D01*
X127023090Y-147365884D01*
X127021284Y-147383067D01*
X126942579Y-148239609D01*
X126942579Y-148241406D01*
X126940001Y-148267581D01*
X126940000Y-149340000D01*
X111008233Y-149340000D01*
X111112929Y-149144127D01*
X111186407Y-148901904D01*
X111205000Y-148713123D01*
X111205000Y-147286877D01*
X111186407Y-147098096D01*
X111112929Y-146855873D01*
X110993608Y-146632638D01*
X110833028Y-146436972D01*
X110637361Y-146276392D01*
X110414126Y-146157071D01*
X110171903Y-146083593D01*
X109920000Y-146058783D01*
X109668096Y-146083593D01*
X109425873Y-146157071D01*
X109202638Y-146276392D01*
X109006972Y-146436972D01*
X108846392Y-146632639D01*
X108727071Y-146855874D01*
X108653593Y-147098097D01*
X108635000Y-147286878D01*
X108635000Y-148713123D01*
X108653593Y-148901904D01*
X108727071Y-149144127D01*
X108831768Y-149340000D01*
X102368233Y-149340000D01*
X102472929Y-149144127D01*
X102546407Y-148901904D01*
X102565000Y-148713123D01*
X102565000Y-147286877D01*
X102546407Y-147098096D01*
X102472929Y-146855873D01*
X102353608Y-146632638D01*
X102193028Y-146436972D01*
X101997361Y-146276392D01*
X101774126Y-146157071D01*
X101531903Y-146083593D01*
X101280000Y-146058783D01*
X101028096Y-146083593D01*
X100785873Y-146157071D01*
X100660000Y-146224351D01*
X100660000Y-144848061D01*
X111065000Y-144848061D01*
X111065000Y-145051939D01*
X111104774Y-145251898D01*
X111182795Y-145440256D01*
X111296063Y-145609774D01*
X111440226Y-145753937D01*
X111609744Y-145867205D01*
X111798102Y-145945226D01*
X111998061Y-145985000D01*
X112201939Y-145985000D01*
X112401898Y-145945226D01*
X112590256Y-145867205D01*
X112759774Y-145753937D01*
X112903937Y-145609774D01*
X113017205Y-145440256D01*
X113095226Y-145251898D01*
X113135000Y-145051939D01*
X113135000Y-144848061D01*
X113095226Y-144648102D01*
X113017205Y-144459744D01*
X112903937Y-144290226D01*
X112759774Y-144146063D01*
X112590256Y-144032795D01*
X112401898Y-143954774D01*
X112201939Y-143915000D01*
X111998061Y-143915000D01*
X111798102Y-143954774D01*
X111609744Y-144032795D01*
X111440226Y-144146063D01*
X111296063Y-144290226D01*
X111182795Y-144459744D01*
X111104774Y-144648102D01*
X111065000Y-144848061D01*
X100660000Y-144848061D01*
X100660000Y-144202259D01*
X100824327Y-144290094D01*
X101047701Y-144357853D01*
X101280000Y-144380733D01*
X101512300Y-144357853D01*
X101735674Y-144290094D01*
X101941536Y-144180058D01*
X102121975Y-144031975D01*
X102270058Y-143851536D01*
X102380094Y-143645674D01*
X102447853Y-143422300D01*
X102465000Y-143248207D01*
X102465000Y-142031793D01*
X102447853Y-141857700D01*
X102388878Y-141663282D01*
X102498061Y-141685000D01*
X102701939Y-141685000D01*
X102901898Y-141645226D01*
X103090256Y-141567205D01*
X103259069Y-141454408D01*
X103296063Y-141509774D01*
X103440226Y-141653937D01*
X103609744Y-141767205D01*
X103798102Y-141845226D01*
X103998061Y-141885000D01*
X104201939Y-141885000D01*
X104401898Y-141845226D01*
X104590256Y-141767205D01*
X104759774Y-141653937D01*
X104903937Y-141509774D01*
X105017205Y-141340256D01*
X105095226Y-141151898D01*
X105135000Y-140951939D01*
X105135000Y-140748061D01*
X106065000Y-140748061D01*
X106065000Y-140951939D01*
X106104774Y-141151898D01*
X106182795Y-141340256D01*
X106296063Y-141509774D01*
X106440226Y-141653937D01*
X106609744Y-141767205D01*
X106798102Y-141845226D01*
X106998061Y-141885000D01*
X107201939Y-141885000D01*
X107401898Y-141845226D01*
X107590256Y-141767205D01*
X107759774Y-141653937D01*
X107903937Y-141509774D01*
X107940931Y-141454408D01*
X108109744Y-141567205D01*
X108298102Y-141645226D01*
X108498061Y-141685000D01*
X108701939Y-141685000D01*
X108811123Y-141663282D01*
X108752147Y-141857701D01*
X108735000Y-142031794D01*
X108735000Y-143248207D01*
X108752147Y-143422300D01*
X108819906Y-143645674D01*
X108929943Y-143851536D01*
X109078026Y-144031975D01*
X109258465Y-144180058D01*
X109464327Y-144290094D01*
X109687701Y-144357853D01*
X109920000Y-144380733D01*
X110152300Y-144357853D01*
X110375674Y-144290094D01*
X110581536Y-144180058D01*
X110761975Y-144031975D01*
X110910058Y-143851536D01*
X111020094Y-143645674D01*
X111087853Y-143422300D01*
X111105000Y-143248207D01*
X111105000Y-142031793D01*
X111087853Y-141857700D01*
X111020094Y-141634326D01*
X110910058Y-141428464D01*
X110761975Y-141248025D01*
X110581535Y-141099942D01*
X110375673Y-140989906D01*
X110152299Y-140922147D01*
X109920000Y-140899267D01*
X109687700Y-140922147D01*
X109595586Y-140950089D01*
X109635000Y-140751939D01*
X109635000Y-140548061D01*
X109595226Y-140348102D01*
X109517205Y-140159744D01*
X109403937Y-139990226D01*
X109259774Y-139846063D01*
X109090256Y-139732795D01*
X108901898Y-139654774D01*
X108701939Y-139615000D01*
X108498061Y-139615000D01*
X108298102Y-139654774D01*
X108109744Y-139732795D01*
X107940226Y-139846063D01*
X107796063Y-139990226D01*
X107759069Y-140045592D01*
X107590256Y-139932795D01*
X107401898Y-139854774D01*
X107201939Y-139815000D01*
X106998061Y-139815000D01*
X106798102Y-139854774D01*
X106609744Y-139932795D01*
X106440226Y-140046063D01*
X106296063Y-140190226D01*
X106182795Y-140359744D01*
X106104774Y-140548102D01*
X106065000Y-140748061D01*
X105135000Y-140748061D01*
X105095226Y-140548102D01*
X105017205Y-140359744D01*
X104903937Y-140190226D01*
X104759774Y-140046063D01*
X104590256Y-139932795D01*
X104401898Y-139854774D01*
X104201939Y-139815000D01*
X103998061Y-139815000D01*
X103798102Y-139854774D01*
X103609744Y-139932795D01*
X103440931Y-140045592D01*
X103403937Y-139990226D01*
X103259774Y-139846063D01*
X103090256Y-139732795D01*
X102901898Y-139654774D01*
X102701939Y-139615000D01*
X102498061Y-139615000D01*
X102298102Y-139654774D01*
X102109744Y-139732795D01*
X101940226Y-139846063D01*
X101796063Y-139990226D01*
X101682795Y-140159744D01*
X101604774Y-140348102D01*
X101565000Y-140548061D01*
X101565000Y-140751939D01*
X101604414Y-140950090D01*
X101512299Y-140922147D01*
X101280000Y-140899267D01*
X101047700Y-140922147D01*
X100824326Y-140989906D01*
X100660000Y-141077740D01*
X100660000Y-134750000D01*
X103761928Y-134750000D01*
X103761928Y-136550000D01*
X103774188Y-136674482D01*
X103810498Y-136794180D01*
X103869463Y-136904494D01*
X103948815Y-137001185D01*
X104045506Y-137080537D01*
X104155820Y-137139502D01*
X104174127Y-137145056D01*
X104107688Y-137211495D01*
X103939701Y-137462905D01*
X103823989Y-137742257D01*
X103765000Y-138038816D01*
X103765000Y-138341184D01*
X103823989Y-138637743D01*
X103939701Y-138917095D01*
X104107688Y-139168505D01*
X104321495Y-139382312D01*
X104572905Y-139550299D01*
X104852257Y-139666011D01*
X105148816Y-139725000D01*
X105451184Y-139725000D01*
X105747743Y-139666011D01*
X106027095Y-139550299D01*
X106278505Y-139382312D01*
X106492312Y-139168505D01*
X106660299Y-138917095D01*
X106776011Y-138637743D01*
X106835000Y-138341184D01*
X106835000Y-138038816D01*
X106776011Y-137742257D01*
X106660299Y-137462905D01*
X106492312Y-137211495D01*
X106425873Y-137145056D01*
X106444180Y-137139502D01*
X106554494Y-137080537D01*
X106651185Y-137001185D01*
X106730537Y-136904494D01*
X106789502Y-136794180D01*
X106825812Y-136674482D01*
X106838072Y-136550000D01*
X106838072Y-134750000D01*
X106825812Y-134625518D01*
X106789502Y-134505820D01*
X106730537Y-134395506D01*
X106651185Y-134298815D01*
X106554494Y-134219463D01*
X106444180Y-134160498D01*
X106324482Y-134124188D01*
X106200000Y-134111928D01*
X106098154Y-134111928D01*
X106259774Y-134003937D01*
X106403937Y-133859774D01*
X106517205Y-133690256D01*
X106595226Y-133501898D01*
X106635000Y-133301939D01*
X106635000Y-133098061D01*
X106595226Y-132898102D01*
X106533077Y-132748061D01*
X107815000Y-132748061D01*
X107815000Y-132951939D01*
X107854774Y-133151898D01*
X107932795Y-133340256D01*
X108046063Y-133509774D01*
X108190226Y-133653937D01*
X108359744Y-133767205D01*
X108548102Y-133845226D01*
X108748061Y-133885000D01*
X108951939Y-133885000D01*
X109151898Y-133845226D01*
X109340256Y-133767205D01*
X109509774Y-133653937D01*
X109653937Y-133509774D01*
X109767205Y-133340256D01*
X109845226Y-133151898D01*
X109885000Y-132951939D01*
X109885000Y-132748061D01*
X109845226Y-132548102D01*
X109767205Y-132359744D01*
X109653937Y-132190226D01*
X109509774Y-132046063D01*
X109340256Y-131932795D01*
X109151898Y-131854774D01*
X108951939Y-131815000D01*
X108748061Y-131815000D01*
X108548102Y-131854774D01*
X108359744Y-131932795D01*
X108190226Y-132046063D01*
X108046063Y-132190226D01*
X107932795Y-132359744D01*
X107854774Y-132548102D01*
X107815000Y-132748061D01*
X106533077Y-132748061D01*
X106517205Y-132709744D01*
X106403937Y-132540226D01*
X106259774Y-132396063D01*
X106090256Y-132282795D01*
X105901898Y-132204774D01*
X105701939Y-132165000D01*
X105498061Y-132165000D01*
X105298102Y-132204774D01*
X105109744Y-132282795D01*
X104940226Y-132396063D01*
X104796063Y-132540226D01*
X104682795Y-132709744D01*
X104604774Y-132898102D01*
X104565000Y-133098061D01*
X104565000Y-133301939D01*
X104604774Y-133501898D01*
X104682795Y-133690256D01*
X104796063Y-133859774D01*
X104940226Y-134003937D01*
X105101846Y-134111928D01*
X104400000Y-134111928D01*
X104275518Y-134124188D01*
X104155820Y-134160498D01*
X104045506Y-134219463D01*
X103948815Y-134298815D01*
X103869463Y-134395506D01*
X103810498Y-134505820D01*
X103774188Y-134625518D01*
X103761928Y-134750000D01*
X100660000Y-134750000D01*
X100660000Y-129073711D01*
X100690226Y-129103937D01*
X100859744Y-129217205D01*
X101048102Y-129295226D01*
X101248061Y-129335000D01*
X101451939Y-129335000D01*
X101651898Y-129295226D01*
X101840256Y-129217205D01*
X102009774Y-129103937D01*
X102153937Y-128959774D01*
X102267205Y-128790256D01*
X102345226Y-128601898D01*
X102385000Y-128401939D01*
X102385000Y-128198061D01*
X102345226Y-127998102D01*
X102267205Y-127809744D01*
X102153937Y-127640226D01*
X102009774Y-127496063D01*
X101840256Y-127382795D01*
X101756402Y-127348061D01*
X103615000Y-127348061D01*
X103615000Y-127551939D01*
X103654774Y-127751898D01*
X103732795Y-127940256D01*
X103846063Y-128109774D01*
X103990226Y-128253937D01*
X104159744Y-128367205D01*
X104348102Y-128445226D01*
X104548061Y-128485000D01*
X104751939Y-128485000D01*
X104951898Y-128445226D01*
X105140256Y-128367205D01*
X105150000Y-128360694D01*
X105159744Y-128367205D01*
X105348102Y-128445226D01*
X105548061Y-128485000D01*
X105751939Y-128485000D01*
X105951898Y-128445226D01*
X106140256Y-128367205D01*
X106150000Y-128360694D01*
X106159744Y-128367205D01*
X106348102Y-128445226D01*
X106548061Y-128485000D01*
X106751939Y-128485000D01*
X106951898Y-128445226D01*
X107140256Y-128367205D01*
X107309774Y-128253937D01*
X107453937Y-128109774D01*
X107567205Y-127940256D01*
X107645226Y-127751898D01*
X107685000Y-127551939D01*
X107685000Y-127348061D01*
X107645226Y-127148102D01*
X107567205Y-126959744D01*
X107453937Y-126790226D01*
X107309774Y-126646063D01*
X107140256Y-126532795D01*
X106951898Y-126454774D01*
X106751939Y-126415000D01*
X106548061Y-126415000D01*
X106348102Y-126454774D01*
X106159744Y-126532795D01*
X106150000Y-126539306D01*
X106140256Y-126532795D01*
X105951898Y-126454774D01*
X105751939Y-126415000D01*
X105548061Y-126415000D01*
X105348102Y-126454774D01*
X105159744Y-126532795D01*
X105150000Y-126539306D01*
X105140256Y-126532795D01*
X104951898Y-126454774D01*
X104751939Y-126415000D01*
X104548061Y-126415000D01*
X104348102Y-126454774D01*
X104159744Y-126532795D01*
X103990226Y-126646063D01*
X103846063Y-126790226D01*
X103732795Y-126959744D01*
X103654774Y-127148102D01*
X103615000Y-127348061D01*
X101756402Y-127348061D01*
X101651898Y-127304774D01*
X101451939Y-127265000D01*
X101248061Y-127265000D01*
X101048102Y-127304774D01*
X100859744Y-127382795D01*
X100690226Y-127496063D01*
X100660000Y-127526289D01*
X100660000Y-125297593D01*
X100848061Y-125335000D01*
X101051939Y-125335000D01*
X101251898Y-125295226D01*
X101440256Y-125217205D01*
X101609774Y-125103937D01*
X101753937Y-124959774D01*
X101867205Y-124790256D01*
X101926104Y-124648061D01*
X109715000Y-124648061D01*
X109715000Y-124851939D01*
X109754774Y-125051898D01*
X109832795Y-125240256D01*
X109946063Y-125409774D01*
X110090226Y-125553937D01*
X110259744Y-125667205D01*
X110448102Y-125745226D01*
X110648061Y-125785000D01*
X110851939Y-125785000D01*
X111051898Y-125745226D01*
X111240256Y-125667205D01*
X111409774Y-125553937D01*
X111553937Y-125409774D01*
X111667205Y-125240256D01*
X111745226Y-125051898D01*
X111785000Y-124851939D01*
X111785000Y-124648061D01*
X111745226Y-124448102D01*
X111667205Y-124259744D01*
X111553937Y-124090226D01*
X111409774Y-123946063D01*
X111240256Y-123832795D01*
X111051898Y-123754774D01*
X110851939Y-123715000D01*
X110648061Y-123715000D01*
X110448102Y-123754774D01*
X110259744Y-123832795D01*
X110090226Y-123946063D01*
X109946063Y-124090226D01*
X109832795Y-124259744D01*
X109754774Y-124448102D01*
X109715000Y-124648061D01*
X101926104Y-124648061D01*
X101945226Y-124601898D01*
X101985000Y-124401939D01*
X101985000Y-124198061D01*
X101945226Y-123998102D01*
X101867205Y-123809744D01*
X101753937Y-123640226D01*
X101609774Y-123496063D01*
X101440256Y-123382795D01*
X101251898Y-123304774D01*
X101051939Y-123265000D01*
X100848061Y-123265000D01*
X100660000Y-123302407D01*
X100660000Y-123227429D01*
X100698061Y-123235000D01*
X100901939Y-123235000D01*
X101101898Y-123195226D01*
X101290256Y-123117205D01*
X101459774Y-123003937D01*
X101603937Y-122859774D01*
X101717205Y-122690256D01*
X101795226Y-122501898D01*
X101835000Y-122301939D01*
X101835000Y-122098061D01*
X101795226Y-121898102D01*
X101717205Y-121709744D01*
X101603937Y-121540226D01*
X101459774Y-121396063D01*
X101290256Y-121282795D01*
X101101898Y-121204774D01*
X100901939Y-121165000D01*
X100698061Y-121165000D01*
X100660000Y-121172571D01*
X100660000Y-116698061D01*
X108865000Y-116698061D01*
X108865000Y-116901939D01*
X108904774Y-117101898D01*
X108982795Y-117290256D01*
X109096063Y-117459774D01*
X109240226Y-117603937D01*
X109409744Y-117717205D01*
X109598102Y-117795226D01*
X109798061Y-117835000D01*
X110001939Y-117835000D01*
X110201898Y-117795226D01*
X110390256Y-117717205D01*
X110559774Y-117603937D01*
X110703937Y-117459774D01*
X110817205Y-117290256D01*
X110895226Y-117101898D01*
X110935000Y-116901939D01*
X110935000Y-116698061D01*
X110895226Y-116498102D01*
X110817205Y-116309744D01*
X110703937Y-116140226D01*
X110559774Y-115996063D01*
X110390256Y-115882795D01*
X110201898Y-115804774D01*
X110001939Y-115765000D01*
X109798061Y-115765000D01*
X109598102Y-115804774D01*
X109409744Y-115882795D01*
X109240226Y-115996063D01*
X109096063Y-116140226D01*
X108982795Y-116309744D01*
X108904774Y-116498102D01*
X108865000Y-116698061D01*
X100660000Y-116698061D01*
X100660000Y-113548061D01*
X103265000Y-113548061D01*
X103265000Y-113751939D01*
X103304774Y-113951898D01*
X103382795Y-114140256D01*
X103496063Y-114309774D01*
X103640226Y-114453937D01*
X103809744Y-114567205D01*
X103998102Y-114645226D01*
X104198061Y-114685000D01*
X104401939Y-114685000D01*
X104601898Y-114645226D01*
X104790256Y-114567205D01*
X104959774Y-114453937D01*
X105103937Y-114309774D01*
X105217205Y-114140256D01*
X105295226Y-113951898D01*
X105335000Y-113751939D01*
X105335000Y-113598061D01*
X108865000Y-113598061D01*
X108865000Y-113801939D01*
X108904774Y-114001898D01*
X108982795Y-114190256D01*
X109096063Y-114359774D01*
X109240226Y-114503937D01*
X109409744Y-114617205D01*
X109598102Y-114695226D01*
X109798061Y-114735000D01*
X110001939Y-114735000D01*
X110201898Y-114695226D01*
X110390256Y-114617205D01*
X110559774Y-114503937D01*
X110703937Y-114359774D01*
X110817205Y-114190256D01*
X110895226Y-114001898D01*
X110935000Y-113801939D01*
X110935000Y-113598061D01*
X110895226Y-113398102D01*
X110817205Y-113209744D01*
X110703937Y-113040226D01*
X110559774Y-112896063D01*
X110390256Y-112782795D01*
X110201898Y-112704774D01*
X110001939Y-112665000D01*
X109798061Y-112665000D01*
X109598102Y-112704774D01*
X109409744Y-112782795D01*
X109240226Y-112896063D01*
X109096063Y-113040226D01*
X108982795Y-113209744D01*
X108904774Y-113398102D01*
X108865000Y-113598061D01*
X105335000Y-113598061D01*
X105335000Y-113548061D01*
X105295226Y-113348102D01*
X105217205Y-113159744D01*
X105103937Y-112990226D01*
X104959774Y-112846063D01*
X104790256Y-112732795D01*
X104601898Y-112654774D01*
X104401939Y-112615000D01*
X104198061Y-112615000D01*
X103998102Y-112654774D01*
X103809744Y-112732795D01*
X103640226Y-112846063D01*
X103496063Y-112990226D01*
X103382795Y-113159744D01*
X103304774Y-113348102D01*
X103265000Y-113548061D01*
X100660000Y-113548061D01*
X100660000Y-110248061D01*
X102115000Y-110248061D01*
X102115000Y-110451939D01*
X102154774Y-110651898D01*
X102232795Y-110840256D01*
X102346063Y-111009774D01*
X102490226Y-111153937D01*
X102659744Y-111267205D01*
X102848102Y-111345226D01*
X103048061Y-111385000D01*
X103251939Y-111385000D01*
X103451898Y-111345226D01*
X103640256Y-111267205D01*
X103809774Y-111153937D01*
X103953937Y-111009774D01*
X104067205Y-110840256D01*
X104145226Y-110651898D01*
X104185000Y-110451939D01*
X104185000Y-110248061D01*
X104145226Y-110048102D01*
X104067205Y-109859744D01*
X103953937Y-109690226D01*
X103809774Y-109546063D01*
X103640256Y-109432795D01*
X103451898Y-109354774D01*
X103394596Y-109343376D01*
X108510315Y-109343376D01*
X108510315Y-109547254D01*
X108550089Y-109747213D01*
X108628110Y-109935571D01*
X108741378Y-110105089D01*
X108885541Y-110249252D01*
X109055059Y-110362520D01*
X109243417Y-110440541D01*
X109256797Y-110443203D01*
X109259459Y-110456583D01*
X109337480Y-110644941D01*
X109450748Y-110814459D01*
X109594911Y-110958622D01*
X109764429Y-111071890D01*
X109952787Y-111149911D01*
X110152746Y-111189685D01*
X110356624Y-111189685D01*
X110556583Y-111149911D01*
X110744941Y-111071890D01*
X110914459Y-110958622D01*
X111058622Y-110814459D01*
X111171890Y-110644941D01*
X111249911Y-110456583D01*
X111289685Y-110256624D01*
X111289685Y-110052746D01*
X111249911Y-109852787D01*
X111171890Y-109664429D01*
X111058622Y-109494911D01*
X110914459Y-109350748D01*
X110744941Y-109237480D01*
X110556583Y-109159459D01*
X110543203Y-109156797D01*
X110540541Y-109143417D01*
X110462520Y-108955059D01*
X110349252Y-108785541D01*
X110205089Y-108641378D01*
X110035571Y-108528110D01*
X109847213Y-108450089D01*
X109647254Y-108410315D01*
X109443376Y-108410315D01*
X109243417Y-108450089D01*
X109055059Y-108528110D01*
X108885541Y-108641378D01*
X108741378Y-108785541D01*
X108628110Y-108955059D01*
X108550089Y-109143417D01*
X108510315Y-109343376D01*
X103394596Y-109343376D01*
X103251939Y-109315000D01*
X103048061Y-109315000D01*
X102848102Y-109354774D01*
X102659744Y-109432795D01*
X102490226Y-109546063D01*
X102346063Y-109690226D01*
X102232795Y-109859744D01*
X102154774Y-110048102D01*
X102115000Y-110248061D01*
X100660000Y-110248061D01*
X100660000Y-106453740D01*
X102425000Y-106453740D01*
X102425000Y-106746260D01*
X102482068Y-107033158D01*
X102594010Y-107303411D01*
X102756525Y-107546632D01*
X102963368Y-107753475D01*
X103206589Y-107915990D01*
X103476842Y-108027932D01*
X103763740Y-108085000D01*
X104056260Y-108085000D01*
X104343158Y-108027932D01*
X104613411Y-107915990D01*
X104856632Y-107753475D01*
X104988487Y-107621620D01*
X105010498Y-107694180D01*
X105069463Y-107804494D01*
X105148815Y-107901185D01*
X105245506Y-107980537D01*
X105355820Y-108039502D01*
X105475518Y-108075812D01*
X105600000Y-108088072D01*
X107300000Y-108088072D01*
X107424482Y-108075812D01*
X107544180Y-108039502D01*
X107654494Y-107980537D01*
X107751185Y-107901185D01*
X107830537Y-107804494D01*
X107889502Y-107694180D01*
X107925812Y-107574482D01*
X107938072Y-107450000D01*
X107938072Y-105750000D01*
X107925812Y-105625518D01*
X107889502Y-105505820D01*
X107830537Y-105395506D01*
X107751185Y-105298815D01*
X107654494Y-105219463D01*
X107544180Y-105160498D01*
X107424482Y-105124188D01*
X107300000Y-105111928D01*
X105600000Y-105111928D01*
X105475518Y-105124188D01*
X105355820Y-105160498D01*
X105245506Y-105219463D01*
X105148815Y-105298815D01*
X105069463Y-105395506D01*
X105010498Y-105505820D01*
X104988487Y-105578380D01*
X104856632Y-105446525D01*
X104613411Y-105284010D01*
X104343158Y-105172068D01*
X104056260Y-105115000D01*
X103763740Y-105115000D01*
X103476842Y-105172068D01*
X103206589Y-105284010D01*
X102963368Y-105446525D01*
X102756525Y-105653368D01*
X102594010Y-105896589D01*
X102482068Y-106166842D01*
X102425000Y-106453740D01*
X100660000Y-106453740D01*
X100660000Y-101848061D01*
X104215000Y-101848061D01*
X104215000Y-102051939D01*
X104254774Y-102251898D01*
X104332795Y-102440256D01*
X104446063Y-102609774D01*
X104590226Y-102753937D01*
X104759744Y-102867205D01*
X104948102Y-102945226D01*
X105148061Y-102985000D01*
X105351939Y-102985000D01*
X105551898Y-102945226D01*
X105740256Y-102867205D01*
X105909774Y-102753937D01*
X105965650Y-102698061D01*
X107465000Y-102698061D01*
X107465000Y-102901939D01*
X107504774Y-103101898D01*
X107582795Y-103290256D01*
X107696063Y-103459774D01*
X107840226Y-103603937D01*
X108009744Y-103717205D01*
X108198102Y-103795226D01*
X108398061Y-103835000D01*
X108601939Y-103835000D01*
X108801898Y-103795226D01*
X108990256Y-103717205D01*
X109159774Y-103603937D01*
X109303937Y-103459774D01*
X109417205Y-103290256D01*
X109495226Y-103101898D01*
X109535000Y-102901939D01*
X109535000Y-102698061D01*
X109495226Y-102498102D01*
X109417205Y-102309744D01*
X109303937Y-102140226D01*
X109159774Y-101996063D01*
X108990256Y-101882795D01*
X108801898Y-101804774D01*
X108601939Y-101765000D01*
X108398061Y-101765000D01*
X108198102Y-101804774D01*
X108009744Y-101882795D01*
X107840226Y-101996063D01*
X107696063Y-102140226D01*
X107582795Y-102309744D01*
X107504774Y-102498102D01*
X107465000Y-102698061D01*
X105965650Y-102698061D01*
X106053937Y-102609774D01*
X106167205Y-102440256D01*
X106245226Y-102251898D01*
X106285000Y-102051939D01*
X106285000Y-101848061D01*
X106245226Y-101648102D01*
X106167205Y-101459744D01*
X106053937Y-101290226D01*
X105909774Y-101146063D01*
X105740256Y-101032795D01*
X105551898Y-100954774D01*
X105351939Y-100915000D01*
X105148061Y-100915000D01*
X104948102Y-100954774D01*
X104759744Y-101032795D01*
X104590226Y-101146063D01*
X104446063Y-101290226D01*
X104332795Y-101459744D01*
X104254774Y-101648102D01*
X104215000Y-101848061D01*
X100660000Y-101848061D01*
X100660000Y-99748061D01*
X107465000Y-99748061D01*
X107465000Y-99951939D01*
X107504774Y-100151898D01*
X107582795Y-100340256D01*
X107696063Y-100509774D01*
X107840226Y-100653937D01*
X108009744Y-100767205D01*
X108198102Y-100845226D01*
X108398061Y-100885000D01*
X108601939Y-100885000D01*
X108801898Y-100845226D01*
X108990256Y-100767205D01*
X109159774Y-100653937D01*
X109303937Y-100509774D01*
X109417205Y-100340256D01*
X109495226Y-100151898D01*
X109535000Y-99951939D01*
X109535000Y-99748061D01*
X109495226Y-99548102D01*
X109417205Y-99359744D01*
X109303937Y-99190226D01*
X109159774Y-99046063D01*
X108990256Y-98932795D01*
X108801898Y-98854774D01*
X108601939Y-98815000D01*
X108398061Y-98815000D01*
X108198102Y-98854774D01*
X108009744Y-98932795D01*
X107840226Y-99046063D01*
X107696063Y-99190226D01*
X107582795Y-99359744D01*
X107504774Y-99548102D01*
X107465000Y-99748061D01*
X100660000Y-99748061D01*
X100660000Y-96998061D01*
X102315000Y-96998061D01*
X102315000Y-97201939D01*
X102354774Y-97401898D01*
X102432795Y-97590256D01*
X102546063Y-97759774D01*
X102690226Y-97903937D01*
X102859744Y-98017205D01*
X103048102Y-98095226D01*
X103248061Y-98135000D01*
X103451939Y-98135000D01*
X103651898Y-98095226D01*
X103840256Y-98017205D01*
X104009774Y-97903937D01*
X104153937Y-97759774D01*
X104267205Y-97590256D01*
X104345226Y-97401898D01*
X104385000Y-97201939D01*
X104385000Y-96998061D01*
X106565000Y-96998061D01*
X106565000Y-97201939D01*
X106604774Y-97401898D01*
X106682795Y-97590256D01*
X106796063Y-97759774D01*
X106940226Y-97903937D01*
X107109744Y-98017205D01*
X107298102Y-98095226D01*
X107498061Y-98135000D01*
X107701939Y-98135000D01*
X107901898Y-98095226D01*
X108090256Y-98017205D01*
X108259774Y-97903937D01*
X108403937Y-97759774D01*
X108517205Y-97590256D01*
X108595226Y-97401898D01*
X108635000Y-97201939D01*
X108635000Y-96998061D01*
X108595226Y-96798102D01*
X108517205Y-96609744D01*
X108403937Y-96440226D01*
X108259774Y-96296063D01*
X108090256Y-96182795D01*
X107901898Y-96104774D01*
X107701939Y-96065000D01*
X107498061Y-96065000D01*
X107298102Y-96104774D01*
X107109744Y-96182795D01*
X106940226Y-96296063D01*
X106796063Y-96440226D01*
X106682795Y-96609744D01*
X106604774Y-96798102D01*
X106565000Y-96998061D01*
X104385000Y-96998061D01*
X104345226Y-96798102D01*
X104267205Y-96609744D01*
X104153937Y-96440226D01*
X104009774Y-96296063D01*
X103840256Y-96182795D01*
X103651898Y-96104774D01*
X103451939Y-96065000D01*
X103248061Y-96065000D01*
X103048102Y-96104774D01*
X102859744Y-96182795D01*
X102690226Y-96296063D01*
X102546063Y-96440226D01*
X102432795Y-96609744D01*
X102354774Y-96798102D01*
X102315000Y-96998061D01*
X100660000Y-96998061D01*
X100660000Y-86498061D01*
X109013400Y-86498061D01*
X109013400Y-86701939D01*
X109053174Y-86901898D01*
X109131195Y-87090256D01*
X109244463Y-87259774D01*
X109388626Y-87403937D01*
X109558144Y-87517205D01*
X109746502Y-87595226D01*
X109946461Y-87635000D01*
X110150339Y-87635000D01*
X110350298Y-87595226D01*
X110538656Y-87517205D01*
X110550000Y-87509625D01*
X110561344Y-87517205D01*
X110749702Y-87595226D01*
X110949661Y-87635000D01*
X111153539Y-87635000D01*
X111353498Y-87595226D01*
X111541856Y-87517205D01*
X111711374Y-87403937D01*
X111855537Y-87259774D01*
X111968805Y-87090256D01*
X112046826Y-86901898D01*
X112086600Y-86701939D01*
X112086600Y-86498061D01*
X112046826Y-86298102D01*
X111968805Y-86109744D01*
X111855537Y-85940226D01*
X111711374Y-85796063D01*
X111541856Y-85682795D01*
X111433868Y-85638065D01*
X111559774Y-85553937D01*
X111703937Y-85409774D01*
X111817205Y-85240256D01*
X111895226Y-85051898D01*
X111935000Y-84851939D01*
X111935000Y-84648061D01*
X111895226Y-84448102D01*
X111833880Y-84300000D01*
X111895226Y-84151898D01*
X111935000Y-83951939D01*
X111935000Y-83748061D01*
X111895226Y-83548102D01*
X111833880Y-83400000D01*
X111895226Y-83251898D01*
X111935000Y-83051939D01*
X111935000Y-82848061D01*
X111895226Y-82648102D01*
X111817205Y-82459744D01*
X111703937Y-82290226D01*
X111559774Y-82146063D01*
X111390256Y-82032795D01*
X111201898Y-81954774D01*
X111001939Y-81915000D01*
X110798061Y-81915000D01*
X110598102Y-81954774D01*
X110409744Y-82032795D01*
X110240226Y-82146063D01*
X110096063Y-82290226D01*
X109982795Y-82459744D01*
X109904774Y-82648102D01*
X109865000Y-82848061D01*
X109865000Y-83051939D01*
X109904774Y-83251898D01*
X109966120Y-83400000D01*
X109904774Y-83548102D01*
X109865000Y-83748061D01*
X109865000Y-83951939D01*
X109904774Y-84151898D01*
X109966120Y-84300000D01*
X109904774Y-84448102D01*
X109865000Y-84648061D01*
X109865000Y-84851939D01*
X109904774Y-85051898D01*
X109982795Y-85240256D01*
X110096063Y-85409774D01*
X110240226Y-85553937D01*
X110301902Y-85595148D01*
X110150339Y-85565000D01*
X109946461Y-85565000D01*
X109746502Y-85604774D01*
X109558144Y-85682795D01*
X109388626Y-85796063D01*
X109244463Y-85940226D01*
X109131195Y-86109744D01*
X109053174Y-86298102D01*
X109013400Y-86498061D01*
X100660000Y-86498061D01*
X100660000Y-77808733D01*
X100748102Y-77845226D01*
X100948061Y-77885000D01*
X101151939Y-77885000D01*
X101351898Y-77845226D01*
X101540256Y-77767205D01*
X101709774Y-77653937D01*
X101853937Y-77509774D01*
X101967205Y-77340256D01*
X102045226Y-77151898D01*
X102085000Y-76951939D01*
X102085000Y-76748061D01*
X102045226Y-76548102D01*
X101967205Y-76359744D01*
X101853937Y-76190226D01*
X101709774Y-76046063D01*
X101540256Y-75932795D01*
X101351898Y-75854774D01*
X101151939Y-75815000D01*
X100948061Y-75815000D01*
X100748102Y-75854774D01*
X100660000Y-75891267D01*
X100660000Y-74798061D01*
X104765000Y-74798061D01*
X104765000Y-75001939D01*
X104804774Y-75201898D01*
X104882795Y-75390256D01*
X104996063Y-75559774D01*
X105140226Y-75703937D01*
X105309744Y-75817205D01*
X105498102Y-75895226D01*
X105698061Y-75935000D01*
X105901939Y-75935000D01*
X106101898Y-75895226D01*
X106225000Y-75844235D01*
X106348102Y-75895226D01*
X106548061Y-75935000D01*
X106751939Y-75935000D01*
X106951898Y-75895226D01*
X107140256Y-75817205D01*
X107309774Y-75703937D01*
X107453937Y-75559774D01*
X107567205Y-75390256D01*
X107626104Y-75248061D01*
X109013400Y-75248061D01*
X109013400Y-75451939D01*
X109053174Y-75651898D01*
X109131195Y-75840256D01*
X109244463Y-76009774D01*
X109388626Y-76153937D01*
X109558144Y-76267205D01*
X109746502Y-76345226D01*
X109946461Y-76385000D01*
X110150339Y-76385000D01*
X110350298Y-76345226D01*
X110538656Y-76267205D01*
X110550000Y-76259625D01*
X110561344Y-76267205D01*
X110749702Y-76345226D01*
X110949661Y-76385000D01*
X111153539Y-76385000D01*
X111353498Y-76345226D01*
X111541856Y-76267205D01*
X111711374Y-76153937D01*
X111855537Y-76009774D01*
X111968805Y-75840256D01*
X112046826Y-75651898D01*
X112086600Y-75451939D01*
X112086600Y-75298061D01*
X113505000Y-75298061D01*
X113505000Y-75501939D01*
X113544774Y-75701898D01*
X113622795Y-75890256D01*
X113736063Y-76059774D01*
X113880226Y-76203937D01*
X114049744Y-76317205D01*
X114238102Y-76395226D01*
X114438061Y-76435000D01*
X114641939Y-76435000D01*
X114841898Y-76395226D01*
X115030256Y-76317205D01*
X115199774Y-76203937D01*
X115343937Y-76059774D01*
X115457205Y-75890256D01*
X115535226Y-75701898D01*
X115575000Y-75501939D01*
X115575000Y-75308061D01*
X119805000Y-75308061D01*
X119805000Y-75511939D01*
X119844774Y-75711898D01*
X119922795Y-75900256D01*
X120036063Y-76069774D01*
X120180226Y-76213937D01*
X120349744Y-76327205D01*
X120538102Y-76405226D01*
X120738061Y-76445000D01*
X120941939Y-76445000D01*
X121141898Y-76405226D01*
X121330256Y-76327205D01*
X121499774Y-76213937D01*
X121643937Y-76069774D01*
X121757205Y-75900256D01*
X121835226Y-75711898D01*
X121875000Y-75511939D01*
X121875000Y-75308061D01*
X121835226Y-75108102D01*
X121757205Y-74919744D01*
X121643937Y-74750226D01*
X121499774Y-74606063D01*
X121330256Y-74492795D01*
X121141898Y-74414774D01*
X120941939Y-74375000D01*
X120738061Y-74375000D01*
X120538102Y-74414774D01*
X120349744Y-74492795D01*
X120180226Y-74606063D01*
X120036063Y-74750226D01*
X119922795Y-74919744D01*
X119844774Y-75108102D01*
X119805000Y-75308061D01*
X115575000Y-75308061D01*
X115575000Y-75298061D01*
X115535226Y-75098102D01*
X115457205Y-74909744D01*
X115343937Y-74740226D01*
X115199774Y-74596063D01*
X115030256Y-74482795D01*
X114841898Y-74404774D01*
X114641939Y-74365000D01*
X114438061Y-74365000D01*
X114238102Y-74404774D01*
X114049744Y-74482795D01*
X113880226Y-74596063D01*
X113736063Y-74740226D01*
X113622795Y-74909744D01*
X113544774Y-75098102D01*
X113505000Y-75298061D01*
X112086600Y-75298061D01*
X112086600Y-75248061D01*
X112046826Y-75048102D01*
X111968805Y-74859744D01*
X111855537Y-74690226D01*
X111711374Y-74546063D01*
X111541856Y-74432795D01*
X111353498Y-74354774D01*
X111153539Y-74315000D01*
X110949661Y-74315000D01*
X110749702Y-74354774D01*
X110561344Y-74432795D01*
X110550000Y-74440375D01*
X110538656Y-74432795D01*
X110350298Y-74354774D01*
X110150339Y-74315000D01*
X109946461Y-74315000D01*
X109746502Y-74354774D01*
X109558144Y-74432795D01*
X109388626Y-74546063D01*
X109244463Y-74690226D01*
X109131195Y-74859744D01*
X109053174Y-75048102D01*
X109013400Y-75248061D01*
X107626104Y-75248061D01*
X107645226Y-75201898D01*
X107685000Y-75001939D01*
X107685000Y-74798061D01*
X107645226Y-74598102D01*
X107567205Y-74409744D01*
X107453937Y-74240226D01*
X107309774Y-74096063D01*
X107140256Y-73982795D01*
X106951898Y-73904774D01*
X106751939Y-73865000D01*
X106548061Y-73865000D01*
X106348102Y-73904774D01*
X106225000Y-73955765D01*
X106101898Y-73904774D01*
X105901939Y-73865000D01*
X105698061Y-73865000D01*
X105498102Y-73904774D01*
X105309744Y-73982795D01*
X105140226Y-74096063D01*
X104996063Y-74240226D01*
X104882795Y-74409744D01*
X104804774Y-74598102D01*
X104765000Y-74798061D01*
X100660000Y-74798061D01*
X100660000Y-71674000D01*
X101732419Y-71674000D01*
X101749622Y-71672306D01*
X102225825Y-71647349D01*
X102264305Y-71641769D01*
X102303054Y-71638720D01*
X102320044Y-71635571D01*
X103163632Y-71467771D01*
X103213268Y-71453068D01*
X103263309Y-71439660D01*
X103279440Y-71433467D01*
X104078323Y-71114745D01*
X104124448Y-71091243D01*
X104171208Y-71068940D01*
X104185940Y-71059911D01*
X104913365Y-70600941D01*
X104954459Y-70569408D01*
X104996347Y-70538975D01*
X105009188Y-70527414D01*
X105640789Y-69943567D01*
X105675445Y-69905078D01*
X105711090Y-69867516D01*
X105721609Y-69853808D01*
X106236236Y-69164637D01*
X106263280Y-69120505D01*
X106291501Y-69077049D01*
X106299345Y-69061653D01*
X106429337Y-68798055D01*
X117715000Y-68798055D01*
X117715000Y-69001933D01*
X117754774Y-69201892D01*
X117832795Y-69390250D01*
X117839307Y-69399996D01*
X117832795Y-69409741D01*
X117754774Y-69598099D01*
X117715000Y-69798058D01*
X117715000Y-70001936D01*
X117754774Y-70201895D01*
X117832795Y-70390253D01*
X117839307Y-70399999D01*
X117832795Y-70409744D01*
X117754774Y-70598102D01*
X117715000Y-70798061D01*
X117715000Y-71001939D01*
X117754774Y-71201898D01*
X117832795Y-71390256D01*
X117946063Y-71559774D01*
X118090226Y-71703937D01*
X118259744Y-71817205D01*
X118448102Y-71895226D01*
X118648061Y-71935000D01*
X118851939Y-71935000D01*
X119051898Y-71895226D01*
X119240256Y-71817205D01*
X119409774Y-71703937D01*
X119553937Y-71559774D01*
X119667205Y-71390256D01*
X119745226Y-71201898D01*
X119785000Y-71001939D01*
X119785000Y-70798061D01*
X119745226Y-70598102D01*
X119667205Y-70409744D01*
X119660693Y-70399999D01*
X119667205Y-70390253D01*
X119745226Y-70201895D01*
X119785000Y-70001936D01*
X119785000Y-69798058D01*
X119745226Y-69598099D01*
X119667205Y-69409741D01*
X119660693Y-69399995D01*
X119667205Y-69390250D01*
X119745226Y-69201892D01*
X119781847Y-69017782D01*
X119848102Y-69045226D01*
X120048061Y-69085000D01*
X120251939Y-69085000D01*
X120451898Y-69045226D01*
X120640256Y-68967205D01*
X120809774Y-68853937D01*
X120953937Y-68709774D01*
X121067205Y-68540256D01*
X121145226Y-68351898D01*
X121185000Y-68151939D01*
X121185000Y-67948711D01*
X121290226Y-68053937D01*
X121459744Y-68167205D01*
X121648102Y-68245226D01*
X121848061Y-68285000D01*
X122051939Y-68285000D01*
X122251898Y-68245226D01*
X122440256Y-68167205D01*
X122609774Y-68053937D01*
X122753937Y-67909774D01*
X122867205Y-67740256D01*
X122945226Y-67551898D01*
X122985000Y-67351939D01*
X122985000Y-67148061D01*
X122945226Y-66948102D01*
X122867205Y-66759744D01*
X122753937Y-66590226D01*
X122609774Y-66446063D01*
X122440256Y-66332795D01*
X122251898Y-66254774D01*
X122051939Y-66215000D01*
X121848061Y-66215000D01*
X121648102Y-66254774D01*
X121581849Y-66282217D01*
X121545226Y-66098102D01*
X121467205Y-65909744D01*
X121353937Y-65740226D01*
X121261772Y-65648061D01*
X126115000Y-65648061D01*
X126115000Y-65851939D01*
X126154774Y-66051898D01*
X126232795Y-66240256D01*
X126346063Y-66409774D01*
X126490226Y-66553937D01*
X126659744Y-66667205D01*
X126848102Y-66745226D01*
X127048061Y-66785000D01*
X127251939Y-66785000D01*
X127451898Y-66745226D01*
X127640256Y-66667205D01*
X127809774Y-66553937D01*
X127953937Y-66409774D01*
X128067205Y-66240256D01*
X128145226Y-66051898D01*
X128185000Y-65851939D01*
X128185000Y-65648061D01*
X128145226Y-65448102D01*
X128067205Y-65259744D01*
X127953937Y-65090226D01*
X127809774Y-64946063D01*
X127640256Y-64832795D01*
X127451898Y-64754774D01*
X127251939Y-64715000D01*
X127048061Y-64715000D01*
X126848102Y-64754774D01*
X126659744Y-64832795D01*
X126490226Y-64946063D01*
X126346063Y-65090226D01*
X126232795Y-65259744D01*
X126154774Y-65448102D01*
X126115000Y-65648061D01*
X121261772Y-65648061D01*
X121209774Y-65596063D01*
X121040256Y-65482795D01*
X120851898Y-65404774D01*
X120651939Y-65365000D01*
X120448061Y-65365000D01*
X120248102Y-65404774D01*
X120059744Y-65482795D01*
X119890226Y-65596063D01*
X119746063Y-65740226D01*
X119632795Y-65909744D01*
X119554774Y-66098102D01*
X119515000Y-66298061D01*
X119515000Y-66501939D01*
X119554774Y-66701898D01*
X119632795Y-66890256D01*
X119746063Y-67059774D01*
X119772414Y-67086125D01*
X119659744Y-67132795D01*
X119490226Y-67246063D01*
X119346063Y-67390226D01*
X119232795Y-67559744D01*
X119154774Y-67748102D01*
X119118153Y-67932212D01*
X119051898Y-67904768D01*
X118851939Y-67864994D01*
X118648061Y-67864994D01*
X118448102Y-67904768D01*
X118259744Y-67982789D01*
X118090226Y-68096057D01*
X117946063Y-68240220D01*
X117832795Y-68409738D01*
X117754774Y-68598096D01*
X117715000Y-68798055D01*
X106429337Y-68798055D01*
X106679764Y-68290240D01*
X106698325Y-68241885D01*
X106718141Y-68194047D01*
X106723048Y-68177480D01*
X106956518Y-67349658D01*
X106965954Y-67298747D01*
X106976723Y-67248082D01*
X106978529Y-67230898D01*
X106999923Y-66998061D01*
X108765000Y-66998061D01*
X108765000Y-67201939D01*
X108804774Y-67401898D01*
X108882795Y-67590256D01*
X108996063Y-67759774D01*
X109140226Y-67903937D01*
X109309744Y-68017205D01*
X109498102Y-68095226D01*
X109698061Y-68135000D01*
X109901939Y-68135000D01*
X110101898Y-68095226D01*
X110290256Y-68017205D01*
X110413063Y-67935148D01*
X110558102Y-67995226D01*
X110758061Y-68035000D01*
X110961939Y-68035000D01*
X111161898Y-67995226D01*
X111350256Y-67917205D01*
X111519774Y-67803937D01*
X111663937Y-67659774D01*
X111777205Y-67490256D01*
X111855226Y-67301898D01*
X111895000Y-67101939D01*
X111895000Y-66898061D01*
X111855226Y-66698102D01*
X111834499Y-66648061D01*
X112965000Y-66648061D01*
X112965000Y-66851939D01*
X113004774Y-67051898D01*
X113082795Y-67240256D01*
X113196063Y-67409774D01*
X113340226Y-67553937D01*
X113509744Y-67667205D01*
X113698102Y-67745226D01*
X113898061Y-67785000D01*
X114101939Y-67785000D01*
X114301898Y-67745226D01*
X114490256Y-67667205D01*
X114659774Y-67553937D01*
X114803937Y-67409774D01*
X114917205Y-67240256D01*
X114995226Y-67051898D01*
X115035000Y-66851939D01*
X115035000Y-66648061D01*
X114995226Y-66448102D01*
X114917205Y-66259744D01*
X114803937Y-66090226D01*
X114659774Y-65946063D01*
X114490256Y-65832795D01*
X114301898Y-65754774D01*
X114101939Y-65715000D01*
X113898061Y-65715000D01*
X113698102Y-65754774D01*
X113509744Y-65832795D01*
X113340226Y-65946063D01*
X113196063Y-66090226D01*
X113082795Y-66259744D01*
X113004774Y-66448102D01*
X112965000Y-66648061D01*
X111834499Y-66648061D01*
X111777205Y-66509744D01*
X111663937Y-66340226D01*
X111519774Y-66196063D01*
X111350256Y-66082795D01*
X111161898Y-66004774D01*
X110961939Y-65965000D01*
X110758061Y-65965000D01*
X110558102Y-66004774D01*
X110369744Y-66082795D01*
X110246937Y-66164852D01*
X110101898Y-66104774D01*
X109901939Y-66065000D01*
X109698061Y-66065000D01*
X109498102Y-66104774D01*
X109309744Y-66182795D01*
X109140226Y-66296063D01*
X108996063Y-66440226D01*
X108882795Y-66609744D01*
X108804774Y-66798102D01*
X108765000Y-66998061D01*
X106999923Y-66998061D01*
X107057036Y-66376516D01*
X107060000Y-66346419D01*
X107060000Y-65782419D01*
X107063193Y-65750000D01*
X107050450Y-65620617D01*
X107012710Y-65496207D01*
X106951425Y-65381550D01*
X106868948Y-65281052D01*
X106768450Y-65198575D01*
X106653793Y-65137290D01*
X106529383Y-65099550D01*
X106432419Y-65090000D01*
X106400000Y-65086807D01*
X106367581Y-65090000D01*
X97060000Y-65090000D01*
X97060000Y-64161870D01*
X97068102Y-64165226D01*
X97268061Y-64205000D01*
X97471939Y-64205000D01*
X97671898Y-64165226D01*
X97860256Y-64087205D01*
X98029774Y-63973937D01*
X98173937Y-63829774D01*
X98256857Y-63705675D01*
X100370000Y-63705675D01*
X100370000Y-63924325D01*
X100412657Y-64138775D01*
X100496331Y-64340782D01*
X100617807Y-64522584D01*
X100772416Y-64677193D01*
X100954218Y-64798669D01*
X101156225Y-64882343D01*
X101370675Y-64925000D01*
X101589325Y-64925000D01*
X101803775Y-64882343D01*
X102005782Y-64798669D01*
X102187584Y-64677193D01*
X102342193Y-64522584D01*
X102463669Y-64340782D01*
X102547343Y-64138775D01*
X102590000Y-63924325D01*
X102590000Y-63705675D01*
X102547343Y-63491225D01*
X102463669Y-63289218D01*
X102342193Y-63107416D01*
X102312838Y-63078061D01*
X104575000Y-63078061D01*
X104575000Y-63281939D01*
X104614774Y-63481898D01*
X104692795Y-63670256D01*
X104806063Y-63839774D01*
X104950226Y-63983937D01*
X105119744Y-64097205D01*
X105308102Y-64175226D01*
X105508061Y-64215000D01*
X105711939Y-64215000D01*
X105911898Y-64175226D01*
X106100256Y-64097205D01*
X106269774Y-63983937D01*
X106305650Y-63948061D01*
X109465000Y-63948061D01*
X109465000Y-64151939D01*
X109504774Y-64351898D01*
X109582795Y-64540256D01*
X109696063Y-64709774D01*
X109840226Y-64853937D01*
X110009744Y-64967205D01*
X110198102Y-65045226D01*
X110398061Y-65085000D01*
X110601939Y-65085000D01*
X110801898Y-65045226D01*
X110990256Y-64967205D01*
X111159774Y-64853937D01*
X111303937Y-64709774D01*
X111417205Y-64540256D01*
X111495226Y-64351898D01*
X111535000Y-64151939D01*
X111535000Y-63948061D01*
X111495226Y-63748102D01*
X111417205Y-63559744D01*
X111303937Y-63390226D01*
X111159774Y-63246063D01*
X111087934Y-63198061D01*
X113965000Y-63198061D01*
X113965000Y-63401939D01*
X114004774Y-63601898D01*
X114082795Y-63790256D01*
X114196063Y-63959774D01*
X114340226Y-64103937D01*
X114509744Y-64217205D01*
X114698102Y-64295226D01*
X114732635Y-64302095D01*
X114737569Y-64326898D01*
X114815590Y-64515256D01*
X114928858Y-64684774D01*
X115073021Y-64828937D01*
X115242539Y-64942205D01*
X115430897Y-65020226D01*
X115630856Y-65060000D01*
X115834734Y-65060000D01*
X116034693Y-65020226D01*
X116223051Y-64942205D01*
X116392569Y-64828937D01*
X116483445Y-64738061D01*
X116625000Y-64738061D01*
X116625000Y-64941939D01*
X116664774Y-65141898D01*
X116742795Y-65330256D01*
X116856063Y-65499774D01*
X117000226Y-65643937D01*
X117169744Y-65757205D01*
X117358102Y-65835226D01*
X117391581Y-65841885D01*
X117418103Y-65975223D01*
X117496124Y-66163581D01*
X117609392Y-66333099D01*
X117753555Y-66477262D01*
X117923073Y-66590530D01*
X118111431Y-66668551D01*
X118311390Y-66708325D01*
X118515268Y-66708325D01*
X118715227Y-66668551D01*
X118903585Y-66590530D01*
X119073103Y-66477262D01*
X119217266Y-66333099D01*
X119330534Y-66163581D01*
X119408555Y-65975223D01*
X119448329Y-65775264D01*
X119448329Y-65571386D01*
X119408555Y-65371427D01*
X119330534Y-65183069D01*
X119217266Y-65013551D01*
X119073103Y-64869388D01*
X118903585Y-64756120D01*
X118715227Y-64678099D01*
X118681748Y-64671440D01*
X118655226Y-64538102D01*
X118577205Y-64349744D01*
X118463937Y-64180226D01*
X118319774Y-64036063D01*
X118150256Y-63922795D01*
X117961898Y-63844774D01*
X117761939Y-63805000D01*
X117558061Y-63805000D01*
X117358102Y-63844774D01*
X117169744Y-63922795D01*
X117000226Y-64036063D01*
X116856063Y-64180226D01*
X116742795Y-64349744D01*
X116664774Y-64538102D01*
X116625000Y-64738061D01*
X116483445Y-64738061D01*
X116536732Y-64684774D01*
X116650000Y-64515256D01*
X116728021Y-64326898D01*
X116767795Y-64126939D01*
X116767795Y-63923061D01*
X116728021Y-63723102D01*
X116650000Y-63534744D01*
X116536732Y-63365226D01*
X116392569Y-63221063D01*
X116223051Y-63107795D01*
X116034693Y-63029774D01*
X116000160Y-63022905D01*
X115995226Y-62998102D01*
X115917205Y-62809744D01*
X115803937Y-62640226D01*
X115659774Y-62496063D01*
X115490256Y-62382795D01*
X115301898Y-62304774D01*
X115101939Y-62265000D01*
X114898061Y-62265000D01*
X114698102Y-62304774D01*
X114509744Y-62382795D01*
X114340226Y-62496063D01*
X114196063Y-62640226D01*
X114082795Y-62809744D01*
X114004774Y-62998102D01*
X113965000Y-63198061D01*
X111087934Y-63198061D01*
X110990256Y-63132795D01*
X110801898Y-63054774D01*
X110601939Y-63015000D01*
X110398061Y-63015000D01*
X110198102Y-63054774D01*
X110009744Y-63132795D01*
X109840226Y-63246063D01*
X109696063Y-63390226D01*
X109582795Y-63559744D01*
X109504774Y-63748102D01*
X109465000Y-63948061D01*
X106305650Y-63948061D01*
X106413937Y-63839774D01*
X106527205Y-63670256D01*
X106605226Y-63481898D01*
X106645000Y-63281939D01*
X106645000Y-63078061D01*
X106605226Y-62878102D01*
X106527205Y-62689744D01*
X106413937Y-62520226D01*
X106269774Y-62376063D01*
X106100256Y-62262795D01*
X105911898Y-62184774D01*
X105711939Y-62145000D01*
X105508061Y-62145000D01*
X105308102Y-62184774D01*
X105119744Y-62262795D01*
X104950226Y-62376063D01*
X104806063Y-62520226D01*
X104692795Y-62689744D01*
X104614774Y-62878102D01*
X104575000Y-63078061D01*
X102312838Y-63078061D01*
X102187584Y-62952807D01*
X102005782Y-62831331D01*
X101803775Y-62747657D01*
X101589325Y-62705000D01*
X101370675Y-62705000D01*
X101156225Y-62747657D01*
X100954218Y-62831331D01*
X100772416Y-62952807D01*
X100617807Y-63107416D01*
X100496331Y-63289218D01*
X100412657Y-63491225D01*
X100370000Y-63705675D01*
X98256857Y-63705675D01*
X98287205Y-63660256D01*
X98365226Y-63471898D01*
X98405000Y-63271939D01*
X98405000Y-63068061D01*
X98365226Y-62868102D01*
X98287205Y-62679744D01*
X98173937Y-62510226D01*
X98029774Y-62366063D01*
X97860256Y-62252795D01*
X97671898Y-62174774D01*
X97471939Y-62135000D01*
X97268061Y-62135000D01*
X97068102Y-62174774D01*
X97060000Y-62178130D01*
X97060000Y-61629444D01*
X97098102Y-61645226D01*
X97298061Y-61685000D01*
X97501939Y-61685000D01*
X97701898Y-61645226D01*
X97890256Y-61567205D01*
X98059774Y-61453937D01*
X98203937Y-61309774D01*
X98317205Y-61140256D01*
X98395226Y-60951898D01*
X98435000Y-60751939D01*
X98435000Y-60548061D01*
X98395226Y-60348102D01*
X98317205Y-60159744D01*
X98213809Y-60005000D01*
X98317205Y-59850256D01*
X98395226Y-59661898D01*
X98435000Y-59461939D01*
X98435000Y-59278061D01*
X104505000Y-59278061D01*
X104505000Y-59481939D01*
X104544774Y-59681898D01*
X104622795Y-59870256D01*
X104736063Y-60039774D01*
X104880226Y-60183937D01*
X105049744Y-60297205D01*
X105238102Y-60375226D01*
X105438061Y-60415000D01*
X105641939Y-60415000D01*
X105841898Y-60375226D01*
X106030256Y-60297205D01*
X106199774Y-60183937D01*
X106343937Y-60039774D01*
X106457205Y-59870256D01*
X106535226Y-59681898D01*
X106575000Y-59481939D01*
X106575000Y-59278061D01*
X106535226Y-59078102D01*
X106457205Y-58889744D01*
X106392217Y-58792483D01*
X106467205Y-58680256D01*
X106545226Y-58491898D01*
X106585000Y-58291939D01*
X106585000Y-58088061D01*
X106545226Y-57888102D01*
X106467205Y-57699744D01*
X106353937Y-57530226D01*
X106209774Y-57386063D01*
X106182833Y-57368061D01*
X106885000Y-57368061D01*
X106885000Y-57571939D01*
X106924774Y-57771898D01*
X107002795Y-57960256D01*
X107116063Y-58129774D01*
X107260226Y-58273937D01*
X107429744Y-58387205D01*
X107618102Y-58465226D01*
X107818061Y-58505000D01*
X108021939Y-58505000D01*
X108221898Y-58465226D01*
X108410256Y-58387205D01*
X108447068Y-58362608D01*
X108474774Y-58501898D01*
X108552795Y-58690256D01*
X108666063Y-58859774D01*
X108810226Y-59003937D01*
X108979744Y-59117205D01*
X109168102Y-59195226D01*
X109298685Y-59221200D01*
X109212795Y-59349744D01*
X109154409Y-59490698D01*
X109109774Y-59446063D01*
X108940256Y-59332795D01*
X108751898Y-59254774D01*
X108551939Y-59215000D01*
X108348061Y-59215000D01*
X108148102Y-59254774D01*
X107959744Y-59332795D01*
X107790226Y-59446063D01*
X107646063Y-59590226D01*
X107532795Y-59759744D01*
X107454774Y-59948102D01*
X107415000Y-60148061D01*
X107415000Y-60351939D01*
X107454774Y-60551898D01*
X107532795Y-60740256D01*
X107646063Y-60909774D01*
X107790226Y-61053937D01*
X107959744Y-61167205D01*
X108148102Y-61245226D01*
X108348061Y-61285000D01*
X108551939Y-61285000D01*
X108751898Y-61245226D01*
X108940256Y-61167205D01*
X109109774Y-61053937D01*
X109253937Y-60909774D01*
X109367205Y-60740256D01*
X109425591Y-60599302D01*
X109470226Y-60643937D01*
X109639744Y-60757205D01*
X109828102Y-60835226D01*
X110028061Y-60875000D01*
X110231939Y-60875000D01*
X110431898Y-60835226D01*
X110620256Y-60757205D01*
X110718517Y-60691550D01*
X110848102Y-60745226D01*
X111048061Y-60785000D01*
X111251939Y-60785000D01*
X111451898Y-60745226D01*
X111640256Y-60667205D01*
X111809774Y-60553937D01*
X111953937Y-60409774D01*
X112067205Y-60240256D01*
X112145226Y-60051898D01*
X112185000Y-59851939D01*
X112185000Y-59648061D01*
X112145226Y-59448102D01*
X112067205Y-59259744D01*
X111953937Y-59090226D01*
X111809774Y-58946063D01*
X111640256Y-58832795D01*
X111451898Y-58754774D01*
X111251939Y-58715000D01*
X111048061Y-58715000D01*
X110848102Y-58754774D01*
X110659744Y-58832795D01*
X110561483Y-58898450D01*
X110431898Y-58844774D01*
X110301315Y-58818800D01*
X110387205Y-58690256D01*
X110465226Y-58501898D01*
X110465989Y-58498061D01*
X114365000Y-58498061D01*
X114365000Y-58701939D01*
X114404774Y-58901898D01*
X114482795Y-59090256D01*
X114596063Y-59259774D01*
X114740226Y-59403937D01*
X114909744Y-59517205D01*
X115098102Y-59595226D01*
X115298061Y-59635000D01*
X115501939Y-59635000D01*
X115701898Y-59595226D01*
X115890256Y-59517205D01*
X116059774Y-59403937D01*
X116203937Y-59259774D01*
X116317205Y-59090256D01*
X116395226Y-58901898D01*
X116435000Y-58701939D01*
X116435000Y-58605714D01*
X118462653Y-58605714D01*
X118462653Y-58809592D01*
X118502427Y-59009551D01*
X118580448Y-59197909D01*
X118693716Y-59367427D01*
X118837879Y-59511590D01*
X119007397Y-59624858D01*
X119195755Y-59702879D01*
X119395714Y-59742653D01*
X119599592Y-59742653D01*
X119799551Y-59702879D01*
X119987909Y-59624858D01*
X120087878Y-59558061D01*
X120925000Y-59558061D01*
X120925000Y-59761939D01*
X120964774Y-59961898D01*
X121042795Y-60150256D01*
X121156063Y-60319774D01*
X121300226Y-60463937D01*
X121469744Y-60577205D01*
X121658102Y-60655226D01*
X121858061Y-60695000D01*
X122061939Y-60695000D01*
X122261898Y-60655226D01*
X122450256Y-60577205D01*
X122527449Y-60525626D01*
X122559744Y-60547205D01*
X122748102Y-60625226D01*
X122948061Y-60665000D01*
X123003402Y-60665000D01*
X123004774Y-60671898D01*
X123082795Y-60860256D01*
X123196063Y-61029774D01*
X123340226Y-61173937D01*
X123509744Y-61287205D01*
X123698102Y-61365226D01*
X123898061Y-61405000D01*
X124101939Y-61405000D01*
X124301898Y-61365226D01*
X124490256Y-61287205D01*
X124659774Y-61173937D01*
X124803937Y-61029774D01*
X124917205Y-60860256D01*
X124995226Y-60671898D01*
X125035000Y-60471939D01*
X125035000Y-60268061D01*
X124995226Y-60068102D01*
X124917205Y-59879744D01*
X124803937Y-59710226D01*
X124659774Y-59566063D01*
X124490256Y-59452795D01*
X124301898Y-59374774D01*
X124101939Y-59335000D01*
X124046598Y-59335000D01*
X124045226Y-59328102D01*
X123967205Y-59139744D01*
X123853937Y-58970226D01*
X123709774Y-58826063D01*
X123540256Y-58712795D01*
X123351898Y-58634774D01*
X123151939Y-58595000D01*
X122948061Y-58595000D01*
X122748102Y-58634774D01*
X122559744Y-58712795D01*
X122482551Y-58764374D01*
X122450256Y-58742795D01*
X122261898Y-58664774D01*
X122061939Y-58625000D01*
X121858061Y-58625000D01*
X121658102Y-58664774D01*
X121469744Y-58742795D01*
X121300226Y-58856063D01*
X121156063Y-59000226D01*
X121042795Y-59169744D01*
X120964774Y-59358102D01*
X120925000Y-59558061D01*
X120087878Y-59558061D01*
X120157427Y-59511590D01*
X120301590Y-59367427D01*
X120414858Y-59197909D01*
X120492879Y-59009551D01*
X120532653Y-58809592D01*
X120532653Y-58605714D01*
X120492879Y-58405755D01*
X120414858Y-58217397D01*
X120365236Y-58143132D01*
X120500256Y-58087205D01*
X120669774Y-57973937D01*
X120813937Y-57829774D01*
X120927205Y-57660256D01*
X121005226Y-57471898D01*
X121045000Y-57271939D01*
X121045000Y-57068061D01*
X121005226Y-56868102D01*
X120927205Y-56679744D01*
X120813937Y-56510226D01*
X120669774Y-56366063D01*
X120500256Y-56252795D01*
X120311898Y-56174774D01*
X120111939Y-56135000D01*
X119908061Y-56135000D01*
X119708102Y-56174774D01*
X119519744Y-56252795D01*
X119350226Y-56366063D01*
X119206063Y-56510226D01*
X119092795Y-56679744D01*
X119014774Y-56868102D01*
X118975000Y-57068061D01*
X118975000Y-57271939D01*
X119014774Y-57471898D01*
X119092795Y-57660256D01*
X119142417Y-57734521D01*
X119007397Y-57790448D01*
X118837879Y-57903716D01*
X118693716Y-58047879D01*
X118580448Y-58217397D01*
X118502427Y-58405755D01*
X118462653Y-58605714D01*
X116435000Y-58605714D01*
X116435000Y-58498061D01*
X116395226Y-58298102D01*
X116317205Y-58109744D01*
X116203937Y-57940226D01*
X116059774Y-57796063D01*
X115890256Y-57682795D01*
X115701898Y-57604774D01*
X115501939Y-57565000D01*
X115298061Y-57565000D01*
X115098102Y-57604774D01*
X114909744Y-57682795D01*
X114740226Y-57796063D01*
X114596063Y-57940226D01*
X114482795Y-58109744D01*
X114404774Y-58298102D01*
X114365000Y-58498061D01*
X110465989Y-58498061D01*
X110505000Y-58301939D01*
X110505000Y-58098061D01*
X110465226Y-57898102D01*
X110387205Y-57709744D01*
X110273937Y-57540226D01*
X110129774Y-57396063D01*
X109960256Y-57282795D01*
X109771898Y-57204774D01*
X109571939Y-57165000D01*
X109368061Y-57165000D01*
X109168102Y-57204774D01*
X108979744Y-57282795D01*
X108942932Y-57307392D01*
X108915226Y-57168102D01*
X108837205Y-56979744D01*
X108723937Y-56810226D01*
X108579774Y-56666063D01*
X108410256Y-56552795D01*
X108221898Y-56474774D01*
X108021939Y-56435000D01*
X107818061Y-56435000D01*
X107618102Y-56474774D01*
X107429744Y-56552795D01*
X107260226Y-56666063D01*
X107116063Y-56810226D01*
X107002795Y-56979744D01*
X106924774Y-57168102D01*
X106885000Y-57368061D01*
X106182833Y-57368061D01*
X106040256Y-57272795D01*
X105851898Y-57194774D01*
X105651939Y-57155000D01*
X105448061Y-57155000D01*
X105248102Y-57194774D01*
X105059744Y-57272795D01*
X104890226Y-57386063D01*
X104746063Y-57530226D01*
X104632795Y-57699744D01*
X104554774Y-57888102D01*
X104515000Y-58088061D01*
X104515000Y-58291939D01*
X104554774Y-58491898D01*
X104632795Y-58680256D01*
X104697783Y-58777517D01*
X104622795Y-58889744D01*
X104544774Y-59078102D01*
X104505000Y-59278061D01*
X98435000Y-59278061D01*
X98435000Y-59258061D01*
X98395226Y-59058102D01*
X98317205Y-58869744D01*
X98203937Y-58700226D01*
X98059774Y-58556063D01*
X97890256Y-58442795D01*
X97701898Y-58364774D01*
X97501939Y-58325000D01*
X97298061Y-58325000D01*
X97098102Y-58364774D01*
X97060000Y-58380556D01*
X97060000Y-57355675D01*
X100370000Y-57355675D01*
X100370000Y-57574325D01*
X100412657Y-57788775D01*
X100496331Y-57990782D01*
X100617807Y-58172584D01*
X100772416Y-58327193D01*
X100954218Y-58448669D01*
X101156225Y-58532343D01*
X101370675Y-58575000D01*
X101589325Y-58575000D01*
X101803775Y-58532343D01*
X102005782Y-58448669D01*
X102187584Y-58327193D01*
X102342193Y-58172584D01*
X102463669Y-57990782D01*
X102547343Y-57788775D01*
X102590000Y-57574325D01*
X102590000Y-57355675D01*
X102547343Y-57141225D01*
X102463669Y-56939218D01*
X102342193Y-56757416D01*
X102187584Y-56602807D01*
X102005782Y-56481331D01*
X101803775Y-56397657D01*
X101589325Y-56355000D01*
X101370675Y-56355000D01*
X101156225Y-56397657D01*
X100954218Y-56481331D01*
X100772416Y-56602807D01*
X100617807Y-56757416D01*
X100496331Y-56939218D01*
X100412657Y-57141225D01*
X100370000Y-57355675D01*
X97060000Y-57355675D01*
X97060000Y-56210000D01*
X112532419Y-56210000D01*
X112546764Y-56208587D01*
X113143236Y-56182545D01*
X113173263Y-56178991D01*
X113203450Y-56177145D01*
X113220538Y-56174591D01*
X114251880Y-56006626D01*
X114291070Y-55997217D01*
X114330477Y-55988841D01*
X114347001Y-55983789D01*
X115342187Y-55665227D01*
X115379537Y-55650136D01*
X115417291Y-55636021D01*
X115432886Y-55628582D01*
X116370055Y-55166422D01*
X116404763Y-55145977D01*
X116440018Y-55126435D01*
X116454343Y-55116773D01*
X116769615Y-54898061D01*
X121135000Y-54898061D01*
X121135000Y-55101939D01*
X121174774Y-55301898D01*
X121252795Y-55490256D01*
X121366063Y-55659774D01*
X121510226Y-55803937D01*
X121679744Y-55917205D01*
X121868102Y-55995226D01*
X122068061Y-56035000D01*
X122271939Y-56035000D01*
X122471898Y-55995226D01*
X122660256Y-55917205D01*
X122829774Y-55803937D01*
X122973937Y-55659774D01*
X123087205Y-55490256D01*
X123165226Y-55301898D01*
X123205000Y-55101939D01*
X123205000Y-54898061D01*
X123165226Y-54698102D01*
X123087205Y-54509744D01*
X122973937Y-54340226D01*
X122829774Y-54196063D01*
X122660256Y-54082795D01*
X122471898Y-54004774D01*
X122271939Y-53965000D01*
X122068061Y-53965000D01*
X121868102Y-54004774D01*
X121679744Y-54082795D01*
X121510226Y-54196063D01*
X121366063Y-54340226D01*
X121252795Y-54509744D01*
X121174774Y-54698102D01*
X121135000Y-54898061D01*
X116769615Y-54898061D01*
X117312907Y-54521166D01*
X117344218Y-54495811D01*
X117376191Y-54471277D01*
X117388930Y-54459604D01*
X118150026Y-53743636D01*
X118177243Y-53713933D01*
X118205241Y-53684941D01*
X118216114Y-53671513D01*
X118863024Y-52850912D01*
X118885551Y-52817515D01*
X118908957Y-52784700D01*
X118917726Y-52769813D01*
X119358817Y-51998061D01*
X120465000Y-51998061D01*
X120465000Y-52201939D01*
X120504774Y-52401898D01*
X120582795Y-52590256D01*
X120696063Y-52759774D01*
X120840226Y-52903937D01*
X121009744Y-53017205D01*
X121198102Y-53095226D01*
X121398061Y-53135000D01*
X121601939Y-53135000D01*
X121801898Y-53095226D01*
X121990256Y-53017205D01*
X122159774Y-52903937D01*
X122303937Y-52759774D01*
X122417205Y-52590256D01*
X122495226Y-52401898D01*
X122511902Y-52318061D01*
X130905000Y-52318061D01*
X130905000Y-52521939D01*
X130944774Y-52721898D01*
X131022795Y-52910256D01*
X131136063Y-53079774D01*
X131280226Y-53223937D01*
X131449744Y-53337205D01*
X131638102Y-53415226D01*
X131838061Y-53455000D01*
X132041939Y-53455000D01*
X132241898Y-53415226D01*
X132430256Y-53337205D01*
X132599774Y-53223937D01*
X132743937Y-53079774D01*
X132857205Y-52910256D01*
X132935226Y-52721898D01*
X132975000Y-52521939D01*
X132975000Y-52318061D01*
X132969033Y-52288061D01*
X133215000Y-52288061D01*
X133215000Y-52491939D01*
X133254774Y-52691898D01*
X133332795Y-52880256D01*
X133446063Y-53049774D01*
X133590226Y-53193937D01*
X133759744Y-53307205D01*
X133948102Y-53385226D01*
X134148061Y-53425000D01*
X134351939Y-53425000D01*
X134551898Y-53385226D01*
X134740256Y-53307205D01*
X134909774Y-53193937D01*
X135053937Y-53049774D01*
X135167205Y-52880256D01*
X135245226Y-52691898D01*
X135285000Y-52491939D01*
X135285000Y-52288061D01*
X135245226Y-52088102D01*
X135167205Y-51899744D01*
X135053937Y-51730226D01*
X134909774Y-51586063D01*
X134740256Y-51472795D01*
X134551898Y-51394774D01*
X134351939Y-51355000D01*
X134148061Y-51355000D01*
X133948102Y-51394774D01*
X133759744Y-51472795D01*
X133590226Y-51586063D01*
X133446063Y-51730226D01*
X133332795Y-51899744D01*
X133254774Y-52088102D01*
X133215000Y-52288061D01*
X132969033Y-52288061D01*
X132935226Y-52118102D01*
X132857205Y-51929744D01*
X132743937Y-51760226D01*
X132599774Y-51616063D01*
X132430256Y-51502795D01*
X132241898Y-51424774D01*
X132041939Y-51385000D01*
X131838061Y-51385000D01*
X131638102Y-51424774D01*
X131449744Y-51502795D01*
X131280226Y-51616063D01*
X131136063Y-51760226D01*
X131022795Y-51929744D01*
X130944774Y-52118102D01*
X130905000Y-52318061D01*
X122511902Y-52318061D01*
X122535000Y-52201939D01*
X122535000Y-51998061D01*
X122495226Y-51798102D01*
X122417205Y-51609744D01*
X122303937Y-51440226D01*
X122159774Y-51296063D01*
X121990256Y-51182795D01*
X121801898Y-51104774D01*
X121601939Y-51065000D01*
X121398061Y-51065000D01*
X121198102Y-51104774D01*
X121009744Y-51182795D01*
X120840226Y-51296063D01*
X120696063Y-51440226D01*
X120582795Y-51609744D01*
X120504774Y-51798102D01*
X120465000Y-51998061D01*
X119358817Y-51998061D01*
X119436237Y-51862605D01*
X119453583Y-51826240D01*
X119471878Y-51790333D01*
X119478351Y-51774313D01*
X119857074Y-50800431D01*
X119868848Y-50761919D01*
X119881642Y-50723682D01*
X119885675Y-50706881D01*
X120116288Y-49687716D01*
X120122246Y-49647852D01*
X120129241Y-49608180D01*
X120130747Y-49590968D01*
X120207599Y-48556795D01*
X120210000Y-48532419D01*
X120210000Y-48193137D01*
X123365000Y-48193137D01*
X123365000Y-48406863D01*
X123406696Y-48616483D01*
X123488485Y-48813940D01*
X123607225Y-48991647D01*
X123758353Y-49142775D01*
X123936060Y-49261515D01*
X124133517Y-49343304D01*
X124343137Y-49385000D01*
X124556863Y-49385000D01*
X124766483Y-49343304D01*
X124963940Y-49261515D01*
X125141647Y-49142775D01*
X125292775Y-48991647D01*
X125411515Y-48813940D01*
X125493304Y-48616483D01*
X125535000Y-48406863D01*
X125535000Y-48193137D01*
X125493304Y-47983517D01*
X125411515Y-47786060D01*
X125292775Y-47608353D01*
X125141647Y-47457225D01*
X124963940Y-47338485D01*
X124766483Y-47256696D01*
X124556863Y-47215000D01*
X124343137Y-47215000D01*
X124133517Y-47256696D01*
X123936060Y-47338485D01*
X123758353Y-47457225D01*
X123607225Y-47608353D01*
X123488485Y-47786060D01*
X123406696Y-47983517D01*
X123365000Y-48193137D01*
X120210000Y-48193137D01*
X120210000Y-45150000D01*
X135511928Y-45150000D01*
X135511928Y-46850000D01*
X135524188Y-46974482D01*
X135560498Y-47094180D01*
X135619463Y-47204494D01*
X135698815Y-47301185D01*
X135795506Y-47380537D01*
X135905820Y-47439502D01*
X135978380Y-47461513D01*
X135846525Y-47593368D01*
X135684010Y-47836589D01*
X135572068Y-48106842D01*
X135515000Y-48393740D01*
X135515000Y-48686260D01*
X135572068Y-48973158D01*
X135684010Y-49243411D01*
X135846525Y-49486632D01*
X136053368Y-49693475D01*
X136227760Y-49810000D01*
X136053368Y-49926525D01*
X135846525Y-50133368D01*
X135684010Y-50376589D01*
X135572068Y-50646842D01*
X135515000Y-50933740D01*
X135515000Y-51226260D01*
X135572068Y-51513158D01*
X135684010Y-51783411D01*
X135846525Y-52026632D01*
X136053368Y-52233475D01*
X136227760Y-52350000D01*
X136053368Y-52466525D01*
X135846525Y-52673368D01*
X135684010Y-52916589D01*
X135572068Y-53186842D01*
X135515000Y-53473740D01*
X135515000Y-53766260D01*
X135572068Y-54053158D01*
X135684010Y-54323411D01*
X135846525Y-54566632D01*
X136053368Y-54773475D01*
X136296589Y-54935990D01*
X136566842Y-55047932D01*
X136853740Y-55105000D01*
X137146260Y-55105000D01*
X137433158Y-55047932D01*
X137703411Y-54935990D01*
X137946632Y-54773475D01*
X138153475Y-54566632D01*
X138270000Y-54392240D01*
X138386525Y-54566632D01*
X138593368Y-54773475D01*
X138836589Y-54935990D01*
X139106842Y-55047932D01*
X139393740Y-55105000D01*
X139686260Y-55105000D01*
X139973158Y-55047932D01*
X140243411Y-54935990D01*
X140486632Y-54773475D01*
X140693475Y-54566632D01*
X140855990Y-54323411D01*
X140967932Y-54053158D01*
X141025000Y-53766260D01*
X141025000Y-53473740D01*
X140967932Y-53186842D01*
X140855990Y-52916589D01*
X140693475Y-52673368D01*
X140486632Y-52466525D01*
X140312240Y-52350000D01*
X140486632Y-52233475D01*
X140693475Y-52026632D01*
X140855990Y-51783411D01*
X140967932Y-51513158D01*
X141025000Y-51226260D01*
X141025000Y-50933740D01*
X140967932Y-50646842D01*
X140855990Y-50376589D01*
X140693475Y-50133368D01*
X140486632Y-49926525D01*
X140312240Y-49810000D01*
X140486632Y-49693475D01*
X140693475Y-49486632D01*
X140855990Y-49243411D01*
X140967932Y-48973158D01*
X141025000Y-48686260D01*
X141025000Y-48393740D01*
X140967932Y-48106842D01*
X140855990Y-47836589D01*
X140693475Y-47593368D01*
X140486632Y-47386525D01*
X140304466Y-47264805D01*
X140421355Y-47195178D01*
X140637588Y-47000269D01*
X140811641Y-46766920D01*
X140936825Y-46504099D01*
X140981476Y-46356890D01*
X140860155Y-46127000D01*
X139667000Y-46127000D01*
X139667000Y-46147000D01*
X139413000Y-46147000D01*
X139413000Y-46127000D01*
X139393000Y-46127000D01*
X139393000Y-45873000D01*
X139413000Y-45873000D01*
X139413000Y-44679186D01*
X139667000Y-44679186D01*
X139667000Y-45873000D01*
X140860155Y-45873000D01*
X140981476Y-45643110D01*
X140936825Y-45495901D01*
X140811641Y-45233080D01*
X140637588Y-44999731D01*
X140421355Y-44804822D01*
X140171252Y-44655843D01*
X139896891Y-44558519D01*
X139667000Y-44679186D01*
X139413000Y-44679186D01*
X139183109Y-44558519D01*
X138908748Y-44655843D01*
X138658645Y-44804822D01*
X138462498Y-44981626D01*
X138439502Y-44905820D01*
X138380537Y-44795506D01*
X138301185Y-44698815D01*
X138204494Y-44619463D01*
X138094180Y-44560498D01*
X137974482Y-44524188D01*
X137850000Y-44511928D01*
X136150000Y-44511928D01*
X136025518Y-44524188D01*
X135905820Y-44560498D01*
X135795506Y-44619463D01*
X135698815Y-44698815D01*
X135619463Y-44795506D01*
X135560498Y-44905820D01*
X135524188Y-45025518D01*
X135511928Y-45150000D01*
X120210000Y-45150000D01*
X120210000Y-40010000D01*
X121280634Y-40010000D01*
X121249744Y-40022795D01*
G37*
%TD.AperFunction*%
%TD*%
M02*
