%TF.GenerationSoftware,KiCad,Pcbnew,(5.1.7)-1*%
%TF.CreationDate,2020-11-25T00:45:14-08:00*%
%TF.ProjectId,eskate_remote,65736b61-7465-45f7-9265-6d6f74652e6b,rev?*%
%TF.SameCoordinates,Original*%
%TF.FileFunction,Copper,L4,Bot*%
%TF.FilePolarity,Positive*%
%FSLAX46Y46*%
G04 Gerber Fmt 4.6, Leading zero omitted, Abs format (unit mm)*
G04 Created by KiCad (PCBNEW (5.1.7)-1) date 2020-11-25 00:45:14*
%MOMM*%
%LPD*%
G01*
G04 APERTURE LIST*
%TA.AperFunction,ComponentPad*%
%ADD10O,1.300000X2.600000*%
%TD*%
%TA.AperFunction,ComponentPad*%
%ADD11O,1.100000X2.200000*%
%TD*%
%TA.AperFunction,ComponentPad*%
%ADD12C,1.600000*%
%TD*%
%TA.AperFunction,ComponentPad*%
%ADD13O,1.700000X1.700000*%
%TD*%
%TA.AperFunction,ComponentPad*%
%ADD14R,1.700000X1.700000*%
%TD*%
%TA.AperFunction,ComponentPad*%
%ADD15C,1.800000*%
%TD*%
%TA.AperFunction,ComponentPad*%
%ADD16R,1.800000X1.800000*%
%TD*%
%TA.AperFunction,ViaPad*%
%ADD17C,0.800000*%
%TD*%
%TA.AperFunction,Conductor*%
%ADD18C,0.250000*%
%TD*%
%TA.AperFunction,Conductor*%
%ADD19C,0.500000*%
%TD*%
%TA.AperFunction,Conductor*%
%ADD20C,0.350000*%
%TD*%
%TA.AperFunction,Conductor*%
%ADD21C,0.261112*%
%TD*%
G04 APERTURE END LIST*
D10*
%TO.P,J1,S4*%
%TO.N,N/C*%
X109920000Y-148000000D03*
%TO.P,J1,S3*%
X101280000Y-148000000D03*
D11*
%TO.P,J1,S2*%
X109920000Y-142640000D03*
%TO.P,J1,S1*%
%TO.N,Net-(J1-PadS1)*%
X101280000Y-142640000D03*
%TD*%
D12*
%TO.P,SW2,2*%
%TO.N,BTN_POWER_SELECT*%
X128950000Y-71564000D03*
%TO.P,SW2,1*%
%TO.N,GND*%
X128950000Y-76064000D03*
%TD*%
D13*
%TO.P,J5,2*%
%TO.N,Motor+*%
X103910000Y-106600000D03*
D14*
%TO.P,J5,1*%
%TO.N,Motor-*%
X106450000Y-106600000D03*
%TD*%
D13*
%TO.P,J4,4*%
%TO.N,+3V3*%
X139570000Y-41650000D03*
%TO.P,J4,3*%
%TO.N,GND*%
X137030000Y-41650000D03*
%TO.P,J4,2*%
%TO.N,DISPLAY_SCL*%
X134490000Y-41650000D03*
D14*
%TO.P,J4,1*%
%TO.N,DISPLAY_SDA*%
X131950000Y-41650000D03*
%TD*%
D13*
%TO.P,J3,8*%
%TO.N,Net-(J3-Pad8)*%
X139540000Y-53620000D03*
%TO.P,J3,7*%
%TO.N,NRF_MISO*%
X137000000Y-53620000D03*
%TO.P,J3,6*%
%TO.N,NRF_MOSI*%
X139540000Y-51080000D03*
%TO.P,J3,5*%
%TO.N,NRF_SCK*%
X137000000Y-51080000D03*
%TO.P,J3,4*%
%TO.N,NRF_CSN*%
X139540000Y-48540000D03*
%TO.P,J3,3*%
%TO.N,NRF_CE*%
X137000000Y-48540000D03*
%TO.P,J3,2*%
%TO.N,+3V3*%
X139540000Y-46000000D03*
D14*
%TO.P,J3,1*%
%TO.N,GND*%
X137000000Y-46000000D03*
%TD*%
D15*
%TO.P,D2,2*%
%TO.N,+5V*%
X105300000Y-138190000D03*
D16*
%TO.P,D2,1*%
%TO.N,Net-(D2-Pad1)*%
X105300000Y-135650000D03*
%TD*%
D17*
%TO.N,GND*%
X110500000Y-64050000D03*
%TO.N,-BATT*%
X109900000Y-113700000D03*
%TO.N,+3V3*%
X126600000Y-62400000D03*
X125500000Y-61800000D03*
%TO.N,GND*%
X105600000Y-133200000D03*
%TO.N,+5V*%
X105650000Y-127450000D03*
X104100000Y-140850000D03*
X107100000Y-140850000D03*
%TO.N,+3V3*%
X107200000Y-67550000D03*
%TO.N,GND*%
X109800000Y-67100000D03*
X102600000Y-140650000D03*
X108600000Y-140650000D03*
X105250000Y-101950000D03*
X105800000Y-74900000D03*
X106650000Y-74900000D03*
%TO.N,+3V3*%
X110850000Y-81550000D03*
X110850000Y-80650000D03*
X110850000Y-79750000D03*
X102800000Y-103500000D03*
X100900000Y-75100000D03*
X109250000Y-76850000D03*
X104700000Y-94100000D03*
X106250000Y-94100000D03*
X102900000Y-99100000D03*
X108500000Y-103950000D03*
X112300000Y-59750000D03*
X114250000Y-58600000D03*
X128950000Y-67520000D03*
X115700000Y-75410000D03*
X121990000Y-75390000D03*
X97400000Y-58070000D03*
X121710000Y-48770000D03*
%TO.N,GND*%
X110900000Y-82950000D03*
X110900000Y-83850000D03*
X110900000Y-84750000D03*
X101050000Y-76850000D03*
X108500000Y-99850000D03*
X108500000Y-102800000D03*
X103150000Y-110350000D03*
X104300000Y-113650000D03*
X101350000Y-128300000D03*
X110750000Y-124750000D03*
X100800000Y-122200000D03*
X108450000Y-60250000D03*
X111150000Y-59750000D03*
X115400000Y-58600000D03*
X127150000Y-65750000D03*
X121500000Y-52100000D03*
X114540000Y-75400000D03*
X120840000Y-75410000D03*
X97370000Y-63170000D03*
X97400000Y-60650000D03*
X97400000Y-59360000D03*
X121740000Y-40940000D03*
X117660000Y-64840000D03*
%TO.N,BTN_POWER_SELECT*%
X114000000Y-66750000D03*
X120550000Y-66400000D03*
%TO.N,-BATT*%
X109900000Y-116800000D03*
X112100000Y-144950000D03*
%TO.N,+5V*%
X100950000Y-124300000D03*
%TO.N,NRST*%
X110860000Y-67000000D03*
X105610000Y-63180000D03*
%TO.N,Net-(D2-Pad1)*%
X108850000Y-132850000D03*
%TO.N,SWDIO*%
X118413329Y-65673325D03*
X110130000Y-59840000D03*
X109470000Y-58200000D03*
X105550000Y-58190000D03*
%TO.N,SWCLK*%
X121960000Y-59660000D03*
X105540000Y-59380000D03*
%TO.N,SWO*%
X119497653Y-58707653D03*
X107920000Y-57470000D03*
%TO.N,NRF_CE*%
X115732795Y-64025000D03*
X134250000Y-52390000D03*
%TO.N,NRF_CSN*%
X115000000Y-63300000D03*
%TO.N,NRF_SCK*%
X118750000Y-68899994D03*
%TO.N,NRF_MOSI*%
X118750000Y-70900000D03*
%TO.N,NRF_MISO*%
X118750000Y-69899997D03*
%TO.N,DISPLAY_SDA*%
X124000000Y-60370000D03*
X131940000Y-52420000D03*
%TO.N,DISPLAY_SCL*%
X123050000Y-59630000D03*
%TO.N,Net-(R1-Pad1)*%
X120010000Y-57170000D03*
X122170000Y-55000000D03*
%TO.N,USB_D+*%
X104650000Y-127450000D03*
X109545315Y-109445315D03*
X110048400Y-86600000D03*
X110048400Y-75350000D03*
%TO.N,HAPTIC_SDA*%
X103350000Y-97100000D03*
X121950000Y-67250000D03*
%TO.N,HAPTIC_SCL*%
X107600000Y-97100000D03*
X120150000Y-68050000D03*
%TO.N,USB_D-*%
X106650000Y-127450000D03*
X111051600Y-86600000D03*
X111051600Y-75350000D03*
X110254685Y-110154685D03*
%TD*%
D18*
%TO.N,BTN_POWER_SELECT*%
X114350000Y-66400000D02*
X114000000Y-66750000D01*
X120550000Y-66400000D02*
X114350000Y-66400000D01*
D19*
%TO.N,-BATT*%
X112100000Y-119000000D02*
X112100000Y-144950000D01*
X109900000Y-116800000D02*
X112100000Y-119000000D01*
D18*
%TO.N,+5V*%
X104100000Y-139390000D02*
X105300000Y-138190000D01*
X104100000Y-140850000D02*
X104100000Y-139390000D01*
X107100000Y-139990000D02*
X105300000Y-138190000D01*
X107100000Y-140850000D02*
X107100000Y-139990000D01*
X104074999Y-136964999D02*
X104074999Y-130675001D01*
X105300000Y-138190000D02*
X104074999Y-136964999D01*
X105650000Y-129100000D02*
X105650000Y-127450000D01*
X104074999Y-130675001D02*
X105650000Y-129100000D01*
D20*
X105650000Y-127597002D02*
X105650000Y-127450000D01*
X105022001Y-128225001D02*
X105650000Y-127597002D01*
X104277999Y-128225001D02*
X105022001Y-128225001D01*
X100950000Y-124897002D02*
X104277999Y-128225001D01*
X100950000Y-124300000D02*
X100950000Y-124897002D01*
D18*
%TO.N,NRST*%
X110234999Y-66374999D02*
X107564999Y-66374999D01*
X110860000Y-67000000D02*
X110234999Y-66374999D01*
X105610000Y-64420000D02*
X105610000Y-63180000D01*
X107564999Y-66374999D02*
X105610000Y-64420000D01*
%TO.N,Net-(D2-Pad1)*%
X106050000Y-135650000D02*
X108850000Y-132850000D01*
X105300000Y-135650000D02*
X106050000Y-135650000D01*
%TO.N,SWDIO*%
X115963325Y-65673325D02*
X110130000Y-59840000D01*
X118413329Y-65673325D02*
X115963325Y-65673325D01*
X105560000Y-58200000D02*
X105550000Y-58190000D01*
X109470000Y-58200000D02*
X105560000Y-58200000D01*
%TO.N,SWCLK*%
X105895001Y-59024999D02*
X105540000Y-59380000D01*
X112648001Y-59024999D02*
X105895001Y-59024999D01*
X113283002Y-59660000D02*
X112648001Y-59024999D01*
X121960000Y-59660000D02*
X113283002Y-59660000D01*
%TO.N,SWO*%
X118260000Y-57470000D02*
X107920000Y-57470000D01*
X119497653Y-58707653D02*
X118260000Y-57470000D01*
%TO.N,NRF_CE*%
X122201998Y-64025000D02*
X133836998Y-52390000D01*
X133836998Y-52390000D02*
X134250000Y-52390000D01*
X115732795Y-64025000D02*
X122201998Y-64025000D01*
%TO.N,NRF_CSN*%
X138364999Y-49715001D02*
X139540000Y-48540000D01*
X135728001Y-49715001D02*
X138364999Y-49715001D01*
X122143002Y-63300000D02*
X135728001Y-49715001D01*
X115000000Y-63300000D02*
X122143002Y-63300000D01*
%TO.N,NRF_SCK*%
X121723008Y-68899994D02*
X133950000Y-56673002D01*
X118750000Y-68899994D02*
X121723008Y-68899994D01*
X133950000Y-54130000D02*
X137000000Y-51080000D01*
X133950000Y-56673002D02*
X133950000Y-54130000D01*
%TO.N,NRF_MOSI*%
X140715001Y-52255001D02*
X139540000Y-51080000D01*
X140104001Y-54795001D02*
X140715001Y-54184001D01*
X127875001Y-64020821D02*
X137100821Y-54795001D01*
X127875001Y-66098001D02*
X127875001Y-64020821D01*
X140715001Y-54184001D02*
X140715001Y-52255001D01*
X137100821Y-54795001D02*
X140104001Y-54795001D01*
X123073002Y-70900000D02*
X127875001Y-66098001D01*
X118750000Y-70900000D02*
X123073002Y-70900000D01*
%TO.N,NRF_MISO*%
X121359415Y-69899997D02*
X134450000Y-56809412D01*
X118750000Y-69899997D02*
X121359415Y-69899997D01*
X134450000Y-56809412D02*
X134450000Y-54400000D01*
X135230000Y-53620000D02*
X137000000Y-53620000D01*
X134450000Y-54400000D02*
X135230000Y-53620000D01*
%TO.N,DISPLAY_SDA*%
X131940000Y-52430000D02*
X131940000Y-52420000D01*
X124000000Y-60370000D02*
X131940000Y-52430000D01*
%TO.N,DISPLAY_SCL*%
X123050000Y-59630000D02*
X134500000Y-48180000D01*
X134500000Y-41660000D02*
X134490000Y-41650000D01*
X134500000Y-48180000D02*
X134500000Y-41660000D01*
%TO.N,Net-(R1-Pad1)*%
X122170000Y-55010000D02*
X122170000Y-55000000D01*
X120010000Y-57170000D02*
X122170000Y-55010000D01*
D21*
%TO.N,USB_D+*%
X109655140Y-79207012D02*
X110317844Y-78544308D01*
X110048400Y-86600000D02*
X110317844Y-86330556D01*
X109655140Y-85242988D02*
X109655140Y-79207012D01*
X110317844Y-75619444D02*
X110048400Y-75350000D01*
X110317844Y-86330556D02*
X110317844Y-85905692D01*
X110317844Y-85905692D02*
X109655140Y-85242988D01*
X110317844Y-78544308D02*
X110317844Y-75619444D01*
X109520947Y-109850734D02*
X109520947Y-109802490D01*
X109520947Y-109802490D02*
X109545315Y-109778122D01*
X105367844Y-126650931D02*
X105367844Y-114003837D01*
X104919443Y-127180557D02*
X104919443Y-127099332D01*
X104650000Y-127450000D02*
X104919443Y-127180557D01*
X105367844Y-114003837D02*
X109520947Y-109850734D01*
X104919443Y-127099332D02*
X105367844Y-126650931D01*
X109545315Y-109778122D02*
X109545315Y-109445315D01*
D18*
%TO.N,HAPTIC_SDA*%
X116113590Y-67250000D02*
X121950000Y-67250000D01*
X103350000Y-80013590D02*
X116113590Y-67250000D01*
X103350000Y-97100000D02*
X103350000Y-80013590D01*
%TO.N,HAPTIC_SCL*%
X107600000Y-97100000D02*
X107600000Y-76400000D01*
X115950000Y-68050000D02*
X120150000Y-68050000D01*
X107600000Y-76400000D02*
X115950000Y-68050000D01*
D21*
%TO.N,USB_D-*%
X110782156Y-86330556D02*
X110782156Y-85713381D01*
X110119443Y-85050668D02*
X110119443Y-79399332D01*
X111051600Y-86600000D02*
X110782156Y-86330556D01*
X110782156Y-78736619D02*
X110782156Y-75619444D01*
X110782156Y-85713381D02*
X110119443Y-85050668D01*
X110119443Y-79399332D02*
X110782156Y-78736619D01*
X110782156Y-75619444D02*
X111051600Y-75350000D01*
X106550000Y-127450000D02*
X106380557Y-127280557D01*
X106380557Y-127099332D02*
X105832156Y-126550931D01*
X109897510Y-110179053D02*
X109921878Y-110154685D01*
X105832156Y-114196163D02*
X109849266Y-110179053D01*
X109849266Y-110179053D02*
X109897510Y-110179053D01*
X105832156Y-126550931D02*
X105832156Y-114196163D01*
X109921878Y-110154685D02*
X110254685Y-110154685D01*
X106380557Y-127280557D02*
X106380557Y-127099332D01*
%TD*%
M02*
